%TF.GenerationSoftware,KiCad,Pcbnew,8.0.1*%
%TF.CreationDate,2024-04-30T17:52:16-06:00*%
%TF.ProjectId,RP2040_Servo_Controller_Board,52503230-3430-45f5-9365-72766f5f436f,rev?*%
%TF.SameCoordinates,Original*%
%TF.FileFunction,Drillmap*%
%TF.FilePolarity,Positive*%
%FSLAX45Y45*%
G04 Gerber Fmt 4.5, Leading zero omitted, Abs format (unit mm)*
G04 Created by KiCad (PCBNEW 8.0.1) date 2024-04-30 17:52:16*
%MOMM*%
%LPD*%
G01*
G04 APERTURE LIST*
%ADD10C,0.150000*%
%ADD11C,0.200000*%
%ADD12C,0.100000*%
%ADD13C,0.110000*%
%ADD14C,0.120000*%
G04 APERTURE END LIST*
D10*
X16604000Y-5936000D02*
X16858000Y-6190000D01*
X10000000Y-9923800D02*
X10000000Y-4742200D01*
X16858000Y-6190000D02*
X16858000Y-9619000D01*
X16527800Y-10000000D02*
X10076200Y-10000000D01*
X10076200Y-4666000D02*
X16350000Y-4666000D01*
X10076200Y-10000000D02*
G75*
G02*
X10000000Y-9923800I0J76200D01*
G01*
X16858000Y-9619000D02*
X16604000Y-9873000D01*
X16350000Y-4666000D02*
X16604000Y-4920000D01*
X16604000Y-9923800D02*
G75*
G02*
X16527800Y-10000000I-76200J0D01*
G01*
X16604000Y-4920000D02*
X16604000Y-5936000D01*
X16604000Y-9873000D02*
X16604000Y-9923800D01*
X10000000Y-4742200D02*
G75*
G02*
X10076200Y-4666000I76200J0D01*
G01*
D11*
D12*
X10547499Y-5997499D02*
X10577499Y-6027499D01*
X10577499Y-5997499D02*
X10547499Y-6027499D01*
X11480000Y-8950000D02*
G75*
G02*
X11420000Y-8950000I-30000J0D01*
G01*
X11420000Y-8950000D02*
G75*
G02*
X11480000Y-8950000I30000J0D01*
G01*
X11680000Y-8950000D02*
G75*
G02*
X11620000Y-8950000I-30000J0D01*
G01*
X11620000Y-8950000D02*
G75*
G02*
X11680000Y-8950000I30000J0D01*
G01*
X12080000Y-8200000D02*
G75*
G02*
X12020000Y-8200000I-30000J0D01*
G01*
X12020000Y-8200000D02*
G75*
G02*
X12080000Y-8200000I30000J0D01*
G01*
X12080000Y-8750000D02*
G75*
G02*
X12020000Y-8750000I-30000J0D01*
G01*
X12020000Y-8750000D02*
G75*
G02*
X12080000Y-8750000I30000J0D01*
G01*
X12280000Y-8200000D02*
G75*
G02*
X12220000Y-8200000I-30000J0D01*
G01*
X12220000Y-8200000D02*
G75*
G02*
X12280000Y-8200000I30000J0D01*
G01*
X12280000Y-8750000D02*
G75*
G02*
X12220000Y-8750000I-30000J0D01*
G01*
X12220000Y-8750000D02*
G75*
G02*
X12280000Y-8750000I30000J0D01*
G01*
X11126000Y-5265000D02*
X11126000Y-5335000D01*
X11091000Y-5300000D02*
X11161000Y-5300000D01*
X11246000Y-8165000D02*
X11246000Y-8235000D01*
X11211000Y-8200000D02*
X11281000Y-8200000D01*
X11246000Y-8515000D02*
X11246000Y-8585000D01*
X11211000Y-8550000D02*
X11281000Y-8550000D01*
X11634000Y-5265000D02*
X11634000Y-5335000D01*
X11599000Y-5300000D02*
X11669000Y-5300000D01*
X11754000Y-8165000D02*
X11754000Y-8235000D01*
X11719000Y-8200000D02*
X11789000Y-8200000D01*
X11754000Y-8515000D02*
X11754000Y-8585000D01*
X11719000Y-8550000D02*
X11789000Y-8550000D01*
X13748931Y-9340931D02*
X13748931Y-9285069D01*
X13693069Y-9285069D01*
X13693069Y-9340931D01*
X13748931Y-9340931D01*
X13748931Y-9594931D02*
X13748931Y-9539069D01*
X13693069Y-9539069D01*
X13693069Y-9594931D01*
X13748931Y-9594931D01*
X13748931Y-9848931D02*
X13748931Y-9793069D01*
X13693069Y-9793069D01*
X13693069Y-9848931D01*
X13748931Y-9848931D01*
X14002931Y-9340931D02*
X14002931Y-9285069D01*
X13947069Y-9285069D01*
X13947069Y-9340931D01*
X14002931Y-9340931D01*
X14002931Y-9594931D02*
X14002931Y-9539069D01*
X13947069Y-9539069D01*
X13947069Y-9594931D01*
X14002931Y-9594931D01*
X14002931Y-9848931D02*
X14002931Y-9793069D01*
X13947069Y-9793069D01*
X13947069Y-9848931D01*
X14002931Y-9848931D01*
X14161931Y-8323931D02*
X14161931Y-8268069D01*
X14106069Y-8268069D01*
X14106069Y-8323931D01*
X14161931Y-8323931D01*
X14161931Y-8577931D02*
X14161931Y-8522069D01*
X14106069Y-8522069D01*
X14106069Y-8577931D01*
X14161931Y-8577931D01*
X14161931Y-8831931D02*
X14161931Y-8776069D01*
X14106069Y-8776069D01*
X14106069Y-8831931D01*
X14161931Y-8831931D01*
X14256931Y-9340931D02*
X14256931Y-9285069D01*
X14201069Y-9285069D01*
X14201069Y-9340931D01*
X14256931Y-9340931D01*
X14256931Y-9594931D02*
X14256931Y-9539069D01*
X14201069Y-9539069D01*
X14201069Y-9594931D01*
X14256931Y-9594931D01*
X14256931Y-9848931D02*
X14256931Y-9793069D01*
X14201069Y-9793069D01*
X14201069Y-9848931D01*
X14256931Y-9848931D01*
X14415931Y-8323931D02*
X14415931Y-8268069D01*
X14360069Y-8268069D01*
X14360069Y-8323931D01*
X14415931Y-8323931D01*
X14415931Y-8577931D02*
X14415931Y-8522069D01*
X14360069Y-8522069D01*
X14360069Y-8577931D01*
X14415931Y-8577931D01*
X14415931Y-8831931D02*
X14415931Y-8776069D01*
X14360069Y-8776069D01*
X14360069Y-8831931D01*
X14415931Y-8831931D01*
X14510931Y-9340931D02*
X14510931Y-9285069D01*
X14455069Y-9285069D01*
X14455069Y-9340931D01*
X14510931Y-9340931D01*
X14510931Y-9594931D02*
X14510931Y-9539069D01*
X14455069Y-9539069D01*
X14455069Y-9594931D01*
X14510931Y-9594931D01*
X14510931Y-9848931D02*
X14510931Y-9793069D01*
X14455069Y-9793069D01*
X14455069Y-9848931D01*
X14510931Y-9848931D01*
X14669931Y-8323931D02*
X14669931Y-8268069D01*
X14614069Y-8268069D01*
X14614069Y-8323931D01*
X14669931Y-8323931D01*
X14669931Y-8577931D02*
X14669931Y-8522069D01*
X14614069Y-8522069D01*
X14614069Y-8577931D01*
X14669931Y-8577931D01*
X14669931Y-8831931D02*
X14669931Y-8776069D01*
X14614069Y-8776069D01*
X14614069Y-8831931D01*
X14669931Y-8831931D01*
X14923931Y-8323931D02*
X14923931Y-8268069D01*
X14868069Y-8268069D01*
X14868069Y-8323931D01*
X14923931Y-8323931D01*
X14923931Y-8577931D02*
X14923931Y-8522069D01*
X14868069Y-8522069D01*
X14868069Y-8577931D01*
X14923931Y-8577931D01*
X14923931Y-8831931D02*
X14923931Y-8776069D01*
X14868069Y-8776069D01*
X14868069Y-8831931D01*
X14923931Y-8831931D01*
X15248931Y-9348931D02*
X15248931Y-9293069D01*
X15193069Y-9293069D01*
X15193069Y-9348931D01*
X15248931Y-9348931D01*
X15248931Y-9602931D02*
X15248931Y-9547069D01*
X15193069Y-9547069D01*
X15193069Y-9602931D01*
X15248931Y-9602931D01*
X15248931Y-9856931D02*
X15248931Y-9801069D01*
X15193069Y-9801069D01*
X15193069Y-9856931D01*
X15248931Y-9856931D01*
X15502931Y-9348931D02*
X15502931Y-9293069D01*
X15447069Y-9293069D01*
X15447069Y-9348931D01*
X15502931Y-9348931D01*
X15502931Y-9602931D02*
X15502931Y-9547069D01*
X15447069Y-9547069D01*
X15447069Y-9602931D01*
X15502931Y-9602931D01*
X15502931Y-9856931D02*
X15502931Y-9801069D01*
X15447069Y-9801069D01*
X15447069Y-9856931D01*
X15502931Y-9856931D01*
X15665931Y-8323931D02*
X15665931Y-8268069D01*
X15610069Y-8268069D01*
X15610069Y-8323931D01*
X15665931Y-8323931D01*
X15665931Y-8577931D02*
X15665931Y-8522069D01*
X15610069Y-8522069D01*
X15610069Y-8577931D01*
X15665931Y-8577931D01*
X15665931Y-8831931D02*
X15665931Y-8776069D01*
X15610069Y-8776069D01*
X15610069Y-8831931D01*
X15665931Y-8831931D01*
X15756931Y-9348931D02*
X15756931Y-9293069D01*
X15701069Y-9293069D01*
X15701069Y-9348931D01*
X15756931Y-9348931D01*
X15756931Y-9602931D02*
X15756931Y-9547069D01*
X15701069Y-9547069D01*
X15701069Y-9602931D01*
X15756931Y-9602931D01*
X15756931Y-9856931D02*
X15756931Y-9801069D01*
X15701069Y-9801069D01*
X15701069Y-9856931D01*
X15756931Y-9856931D01*
X15873931Y-5238681D02*
X15873931Y-5182819D01*
X15818069Y-5182819D01*
X15818069Y-5238681D01*
X15873931Y-5238681D01*
X15873931Y-5492681D02*
X15873931Y-5436819D01*
X15818069Y-5436819D01*
X15818069Y-5492681D01*
X15873931Y-5492681D01*
X15873931Y-5746681D02*
X15873931Y-5690819D01*
X15818069Y-5690819D01*
X15818069Y-5746681D01*
X15873931Y-5746681D01*
X15919931Y-8323931D02*
X15919931Y-8268069D01*
X15864069Y-8268069D01*
X15864069Y-8323931D01*
X15919931Y-8323931D01*
X15919931Y-8577931D02*
X15919931Y-8522069D01*
X15864069Y-8522069D01*
X15864069Y-8577931D01*
X15919931Y-8577931D01*
X15919931Y-8831931D02*
X15919931Y-8776069D01*
X15864069Y-8776069D01*
X15864069Y-8831931D01*
X15919931Y-8831931D01*
X16010931Y-9348931D02*
X16010931Y-9293069D01*
X15955069Y-9293069D01*
X15955069Y-9348931D01*
X16010931Y-9348931D01*
X16010931Y-9602931D02*
X16010931Y-9547069D01*
X15955069Y-9547069D01*
X15955069Y-9602931D01*
X16010931Y-9602931D01*
X16010931Y-9856931D02*
X16010931Y-9801069D01*
X15955069Y-9801069D01*
X15955069Y-9856931D01*
X16010931Y-9856931D01*
X16127931Y-5238681D02*
X16127931Y-5182819D01*
X16072069Y-5182819D01*
X16072069Y-5238681D01*
X16127931Y-5238681D01*
X16127931Y-5492681D02*
X16127931Y-5436819D01*
X16072069Y-5436819D01*
X16072069Y-5492681D01*
X16127931Y-5492681D01*
X16127931Y-5746681D02*
X16127931Y-5690819D01*
X16072069Y-5690819D01*
X16072069Y-5746681D01*
X16127931Y-5746681D01*
X16173931Y-8323931D02*
X16173931Y-8268069D01*
X16118069Y-8268069D01*
X16118069Y-8323931D01*
X16173931Y-8323931D01*
X16173931Y-8577931D02*
X16173931Y-8522069D01*
X16118069Y-8522069D01*
X16118069Y-8577931D01*
X16173931Y-8577931D01*
X16173931Y-8831931D02*
X16173931Y-8776069D01*
X16118069Y-8776069D01*
X16118069Y-8831931D01*
X16173931Y-8831931D01*
X16381931Y-5238681D02*
X16381931Y-5182819D01*
X16326069Y-5182819D01*
X16326069Y-5238681D01*
X16381931Y-5238681D01*
X16381931Y-5492681D02*
X16381931Y-5436819D01*
X16326069Y-5436819D01*
X16326069Y-5492681D01*
X16381931Y-5492681D01*
X16381931Y-5746681D02*
X16381931Y-5690819D01*
X16326069Y-5690819D01*
X16326069Y-5746681D01*
X16381931Y-5746681D01*
X16427931Y-8323931D02*
X16427931Y-8268069D01*
X16372069Y-8268069D01*
X16372069Y-8323931D01*
X16427931Y-8323931D01*
X16427931Y-8577931D02*
X16427931Y-8522069D01*
X16372069Y-8522069D01*
X16372069Y-8577931D01*
X16427931Y-8577931D01*
X16427931Y-8831931D02*
X16427931Y-8776069D01*
X16372069Y-8776069D01*
X16372069Y-8831931D01*
X16427931Y-8831931D01*
X10159000Y-8495000D02*
X10204000Y-8450000D01*
X10159000Y-8405000D01*
X10114000Y-8450000D01*
X10159000Y-8495000D01*
X10921000Y-8495000D02*
X10966000Y-8450000D01*
X10921000Y-8405000D01*
X10876000Y-8450000D01*
X10921000Y-8495000D01*
X11975000Y-4893500D02*
X12020000Y-4848500D01*
X11975000Y-4803500D01*
X11930000Y-4848500D01*
X11975000Y-4893500D01*
X11975000Y-5147500D02*
X12020000Y-5102500D01*
X11975000Y-5057500D01*
X11930000Y-5102500D01*
X11975000Y-5147500D01*
X10296000Y-8050000D02*
X10396000Y-8150000D01*
X10396000Y-8050000D02*
X10296000Y-8150000D01*
X10396000Y-8100000D02*
G75*
G02*
X10296000Y-8100000I-50000J0D01*
G01*
X10296000Y-8100000D02*
G75*
G02*
X10396000Y-8100000I50000J0D01*
G01*
X10386000Y-5761000D02*
X10486000Y-5861000D01*
X10486000Y-5761000D02*
X10386000Y-5861000D01*
X10486000Y-5811000D02*
G75*
G02*
X10386000Y-5811000I-50000J0D01*
G01*
X10386000Y-5811000D02*
G75*
G02*
X10486000Y-5811000I50000J0D01*
G01*
X10386000Y-7539000D02*
X10486000Y-7639000D01*
X10486000Y-7539000D02*
X10386000Y-7639000D01*
X10486000Y-7589000D02*
G75*
G02*
X10386000Y-7589000I-50000J0D01*
G01*
X10386000Y-7589000D02*
G75*
G02*
X10486000Y-7589000I50000J0D01*
G01*
X10415000Y-9190000D02*
X10515000Y-9290000D01*
X10515000Y-9190000D02*
X10415000Y-9290000D01*
X10515000Y-9240000D02*
G75*
G02*
X10415000Y-9240000I-50000J0D01*
G01*
X10415000Y-9240000D02*
G75*
G02*
X10515000Y-9240000I50000J0D01*
G01*
X10415000Y-9140000D02*
X10415000Y-9340000D01*
X10515000Y-9340000D02*
G75*
G02*
X10415000Y-9340000I-50000J0D01*
G01*
X10515000Y-9340000D02*
X10515000Y-9140000D01*
X10515000Y-9140000D02*
G75*
G03*
X10415000Y-9140000I-50000J0D01*
G01*
X10550000Y-8050000D02*
X10650000Y-8150000D01*
X10650000Y-8050000D02*
X10550000Y-8150000D01*
X10650000Y-8100000D02*
G75*
G02*
X10550000Y-8100000I-50000J0D01*
G01*
X10550000Y-8100000D02*
G75*
G02*
X10650000Y-8100000I50000J0D01*
G01*
X10640000Y-5761000D02*
X10740000Y-5861000D01*
X10740000Y-5761000D02*
X10640000Y-5861000D01*
X10740000Y-5811000D02*
G75*
G02*
X10640000Y-5811000I-50000J0D01*
G01*
X10640000Y-5811000D02*
G75*
G02*
X10740000Y-5811000I50000J0D01*
G01*
X10640000Y-7539000D02*
X10740000Y-7639000D01*
X10740000Y-7539000D02*
X10640000Y-7639000D01*
X10740000Y-7589000D02*
G75*
G02*
X10640000Y-7589000I-50000J0D01*
G01*
X10640000Y-7589000D02*
G75*
G02*
X10740000Y-7589000I50000J0D01*
G01*
X10715000Y-9660000D02*
X10815000Y-9760000D01*
X10815000Y-9660000D02*
X10715000Y-9760000D01*
X10815000Y-9710000D02*
G75*
G02*
X10715000Y-9710000I-50000J0D01*
G01*
X10715000Y-9710000D02*
G75*
G02*
X10815000Y-9710000I50000J0D01*
G01*
X10665000Y-9760000D02*
X10865000Y-9760000D01*
X10865000Y-9660000D02*
G75*
G02*
X10865000Y-9760000I0J-50000D01*
G01*
X10865000Y-9660000D02*
X10665000Y-9660000D01*
X10665000Y-9660000D02*
G75*
G03*
X10665000Y-9760000I0J-50000D01*
G01*
X10804000Y-8050000D02*
X10904000Y-8150000D01*
X10904000Y-8050000D02*
X10804000Y-8150000D01*
X10904000Y-8100000D02*
G75*
G02*
X10804000Y-8100000I-50000J0D01*
G01*
X10804000Y-8100000D02*
G75*
G02*
X10904000Y-8100000I50000J0D01*
G01*
X10894000Y-5761000D02*
X10994000Y-5861000D01*
X10994000Y-5761000D02*
X10894000Y-5861000D01*
X10994000Y-5811000D02*
G75*
G02*
X10894000Y-5811000I-50000J0D01*
G01*
X10894000Y-5811000D02*
G75*
G02*
X10994000Y-5811000I50000J0D01*
G01*
X10894000Y-7539000D02*
X10994000Y-7639000D01*
X10994000Y-7539000D02*
X10894000Y-7639000D01*
X10994000Y-7589000D02*
G75*
G02*
X10894000Y-7589000I-50000J0D01*
G01*
X10894000Y-7589000D02*
G75*
G02*
X10994000Y-7589000I50000J0D01*
G01*
X11015000Y-9190000D02*
X11115000Y-9290000D01*
X11115000Y-9190000D02*
X11015000Y-9290000D01*
X11115000Y-9240000D02*
G75*
G02*
X11015000Y-9240000I-50000J0D01*
G01*
X11015000Y-9240000D02*
G75*
G02*
X11115000Y-9240000I50000J0D01*
G01*
X11015000Y-9140000D02*
X11015000Y-9340000D01*
X11115000Y-9340000D02*
G75*
G02*
X11015000Y-9340000I-50000J0D01*
G01*
X11115000Y-9340000D02*
X11115000Y-9140000D01*
X11115000Y-9140000D02*
G75*
G03*
X11015000Y-9140000I-50000J0D01*
G01*
X11148000Y-5761000D02*
X11248000Y-5861000D01*
X11248000Y-5761000D02*
X11148000Y-5861000D01*
X11248000Y-5811000D02*
G75*
G02*
X11148000Y-5811000I-50000J0D01*
G01*
X11148000Y-5811000D02*
G75*
G02*
X11248000Y-5811000I50000J0D01*
G01*
X11148000Y-7539000D02*
X11248000Y-7639000D01*
X11248000Y-7539000D02*
X11148000Y-7639000D01*
X11248000Y-7589000D02*
G75*
G02*
X11148000Y-7589000I-50000J0D01*
G01*
X11148000Y-7589000D02*
G75*
G02*
X11248000Y-7589000I50000J0D01*
G01*
X11402000Y-5761000D02*
X11502000Y-5861000D01*
X11502000Y-5761000D02*
X11402000Y-5861000D01*
X11502000Y-5811000D02*
G75*
G02*
X11402000Y-5811000I-50000J0D01*
G01*
X11402000Y-5811000D02*
G75*
G02*
X11502000Y-5811000I50000J0D01*
G01*
X11402000Y-7539000D02*
X11502000Y-7639000D01*
X11502000Y-7539000D02*
X11402000Y-7639000D01*
X11502000Y-7589000D02*
G75*
G02*
X11402000Y-7589000I-50000J0D01*
G01*
X11402000Y-7589000D02*
G75*
G02*
X11502000Y-7589000I50000J0D01*
G01*
X11656000Y-5761000D02*
X11756000Y-5861000D01*
X11756000Y-5761000D02*
X11656000Y-5861000D01*
X11756000Y-5811000D02*
G75*
G02*
X11656000Y-5811000I-50000J0D01*
G01*
X11656000Y-5811000D02*
G75*
G02*
X11756000Y-5811000I50000J0D01*
G01*
X11656000Y-7539000D02*
X11756000Y-7639000D01*
X11756000Y-7539000D02*
X11656000Y-7639000D01*
X11756000Y-7589000D02*
G75*
G02*
X11656000Y-7589000I-50000J0D01*
G01*
X11656000Y-7589000D02*
G75*
G02*
X11756000Y-7589000I50000J0D01*
G01*
X11910000Y-5761000D02*
X12010000Y-5861000D01*
X12010000Y-5761000D02*
X11910000Y-5861000D01*
X12010000Y-5811000D02*
G75*
G02*
X11910000Y-5811000I-50000J0D01*
G01*
X11910000Y-5811000D02*
G75*
G02*
X12010000Y-5811000I50000J0D01*
G01*
X11910000Y-7539000D02*
X12010000Y-7639000D01*
X12010000Y-7539000D02*
X11910000Y-7639000D01*
X12010000Y-7589000D02*
G75*
G02*
X11910000Y-7589000I-50000J0D01*
G01*
X11910000Y-7589000D02*
G75*
G02*
X12010000Y-7589000I50000J0D01*
G01*
X12164000Y-5761000D02*
X12264000Y-5861000D01*
X12264000Y-5761000D02*
X12164000Y-5861000D01*
X12264000Y-5811000D02*
G75*
G02*
X12164000Y-5811000I-50000J0D01*
G01*
X12164000Y-5811000D02*
G75*
G02*
X12264000Y-5811000I50000J0D01*
G01*
X12164000Y-7539000D02*
X12264000Y-7639000D01*
X12264000Y-7539000D02*
X12164000Y-7639000D01*
X12264000Y-7589000D02*
G75*
G02*
X12164000Y-7589000I-50000J0D01*
G01*
X12164000Y-7589000D02*
G75*
G02*
X12264000Y-7589000I50000J0D01*
G01*
X12342000Y-4950000D02*
X12442000Y-5050000D01*
X12442000Y-4950000D02*
X12342000Y-5050000D01*
X12442000Y-5000000D02*
G75*
G02*
X12342000Y-5000000I-50000J0D01*
G01*
X12342000Y-5000000D02*
G75*
G02*
X12442000Y-5000000I50000J0D01*
G01*
X12418000Y-5761000D02*
X12518000Y-5861000D01*
X12518000Y-5761000D02*
X12418000Y-5861000D01*
X12518000Y-5811000D02*
G75*
G02*
X12418000Y-5811000I-50000J0D01*
G01*
X12418000Y-5811000D02*
G75*
G02*
X12518000Y-5811000I50000J0D01*
G01*
X12418000Y-7539000D02*
X12518000Y-7639000D01*
X12518000Y-7539000D02*
X12418000Y-7639000D01*
X12518000Y-7589000D02*
G75*
G02*
X12418000Y-7589000I-50000J0D01*
G01*
X12418000Y-7589000D02*
G75*
G02*
X12518000Y-7589000I50000J0D01*
G01*
X12568000Y-8296000D02*
X12668000Y-8396000D01*
X12668000Y-8296000D02*
X12568000Y-8396000D01*
X12668000Y-8346000D02*
G75*
G02*
X12568000Y-8346000I-50000J0D01*
G01*
X12568000Y-8346000D02*
G75*
G02*
X12668000Y-8346000I50000J0D01*
G01*
X12568000Y-8550000D02*
X12668000Y-8650000D01*
X12668000Y-8550000D02*
X12568000Y-8650000D01*
X12668000Y-8600000D02*
G75*
G02*
X12568000Y-8600000I-50000J0D01*
G01*
X12568000Y-8600000D02*
G75*
G02*
X12668000Y-8600000I50000J0D01*
G01*
X12596000Y-4950000D02*
X12696000Y-5050000D01*
X12696000Y-4950000D02*
X12596000Y-5050000D01*
X12696000Y-5000000D02*
G75*
G02*
X12596000Y-5000000I-50000J0D01*
G01*
X12596000Y-5000000D02*
G75*
G02*
X12696000Y-5000000I50000J0D01*
G01*
X12672000Y-5761000D02*
X12772000Y-5861000D01*
X12772000Y-5761000D02*
X12672000Y-5861000D01*
X12772000Y-5811000D02*
G75*
G02*
X12672000Y-5811000I-50000J0D01*
G01*
X12672000Y-5811000D02*
G75*
G02*
X12772000Y-5811000I50000J0D01*
G01*
X12672000Y-7539000D02*
X12772000Y-7639000D01*
X12772000Y-7539000D02*
X12672000Y-7639000D01*
X12772000Y-7589000D02*
G75*
G02*
X12672000Y-7589000I-50000J0D01*
G01*
X12672000Y-7589000D02*
G75*
G02*
X12772000Y-7589000I50000J0D01*
G01*
X12822000Y-8296000D02*
X12922000Y-8396000D01*
X12922000Y-8296000D02*
X12822000Y-8396000D01*
X12922000Y-8346000D02*
G75*
G02*
X12822000Y-8346000I-50000J0D01*
G01*
X12822000Y-8346000D02*
G75*
G02*
X12922000Y-8346000I50000J0D01*
G01*
X12822000Y-8550000D02*
X12922000Y-8650000D01*
X12922000Y-8550000D02*
X12822000Y-8650000D01*
X12922000Y-8600000D02*
G75*
G02*
X12822000Y-8600000I-50000J0D01*
G01*
X12822000Y-8600000D02*
G75*
G02*
X12922000Y-8600000I50000J0D01*
G01*
X12850000Y-4950000D02*
X12950000Y-5050000D01*
X12950000Y-4950000D02*
X12850000Y-5050000D01*
X12950000Y-5000000D02*
G75*
G02*
X12850000Y-5000000I-50000J0D01*
G01*
X12850000Y-5000000D02*
G75*
G02*
X12950000Y-5000000I50000J0D01*
G01*
X12926000Y-5761000D02*
X13026000Y-5861000D01*
X13026000Y-5761000D02*
X12926000Y-5861000D01*
X13026000Y-5811000D02*
G75*
G02*
X12926000Y-5811000I-50000J0D01*
G01*
X12926000Y-5811000D02*
G75*
G02*
X13026000Y-5811000I50000J0D01*
G01*
X12926000Y-7539000D02*
X13026000Y-7639000D01*
X13026000Y-7539000D02*
X12926000Y-7639000D01*
X13026000Y-7589000D02*
G75*
G02*
X12926000Y-7589000I-50000J0D01*
G01*
X12926000Y-7589000D02*
G75*
G02*
X13026000Y-7589000I50000J0D01*
G01*
X13076000Y-8296000D02*
X13176000Y-8396000D01*
X13176000Y-8296000D02*
X13076000Y-8396000D01*
X13176000Y-8346000D02*
G75*
G02*
X13076000Y-8346000I-50000J0D01*
G01*
X13076000Y-8346000D02*
G75*
G02*
X13176000Y-8346000I50000J0D01*
G01*
X13076000Y-8550000D02*
X13176000Y-8650000D01*
X13176000Y-8550000D02*
X13076000Y-8650000D01*
X13176000Y-8600000D02*
G75*
G02*
X13076000Y-8600000I-50000J0D01*
G01*
X13076000Y-8600000D02*
G75*
G02*
X13176000Y-8600000I50000J0D01*
G01*
X13180000Y-5761000D02*
X13280000Y-5861000D01*
X13280000Y-5761000D02*
X13180000Y-5861000D01*
X13280000Y-5811000D02*
G75*
G02*
X13180000Y-5811000I-50000J0D01*
G01*
X13180000Y-5811000D02*
G75*
G02*
X13280000Y-5811000I50000J0D01*
G01*
X13180000Y-7539000D02*
X13280000Y-7639000D01*
X13280000Y-7539000D02*
X13180000Y-7639000D01*
X13280000Y-7589000D02*
G75*
G02*
X13180000Y-7589000I-50000J0D01*
G01*
X13180000Y-7589000D02*
G75*
G02*
X13280000Y-7589000I50000J0D01*
G01*
X13260000Y-4945000D02*
X13360000Y-5045000D01*
X13360000Y-4945000D02*
X13260000Y-5045000D01*
X13360000Y-4995000D02*
G75*
G02*
X13260000Y-4995000I-50000J0D01*
G01*
X13260000Y-4995000D02*
G75*
G02*
X13360000Y-4995000I50000J0D01*
G01*
X13330000Y-8296000D02*
X13430000Y-8396000D01*
X13430000Y-8296000D02*
X13330000Y-8396000D01*
X13430000Y-8346000D02*
G75*
G02*
X13330000Y-8346000I-50000J0D01*
G01*
X13330000Y-8346000D02*
G75*
G02*
X13430000Y-8346000I50000J0D01*
G01*
X13330000Y-8550000D02*
X13430000Y-8650000D01*
X13430000Y-8550000D02*
X13330000Y-8650000D01*
X13430000Y-8600000D02*
G75*
G02*
X13330000Y-8600000I-50000J0D01*
G01*
X13330000Y-8600000D02*
G75*
G02*
X13430000Y-8600000I50000J0D01*
G01*
X13434000Y-5761000D02*
X13534000Y-5861000D01*
X13534000Y-5761000D02*
X13434000Y-5861000D01*
X13534000Y-5811000D02*
G75*
G02*
X13434000Y-5811000I-50000J0D01*
G01*
X13434000Y-5811000D02*
G75*
G02*
X13534000Y-5811000I50000J0D01*
G01*
X13434000Y-7539000D02*
X13534000Y-7639000D01*
X13534000Y-7539000D02*
X13434000Y-7639000D01*
X13534000Y-7589000D02*
G75*
G02*
X13434000Y-7589000I-50000J0D01*
G01*
X13434000Y-7589000D02*
G75*
G02*
X13534000Y-7589000I50000J0D01*
G01*
X13514000Y-4945000D02*
X13614000Y-5045000D01*
X13614000Y-4945000D02*
X13514000Y-5045000D01*
X13614000Y-4995000D02*
G75*
G02*
X13514000Y-4995000I-50000J0D01*
G01*
X13514000Y-4995000D02*
G75*
G02*
X13614000Y-4995000I50000J0D01*
G01*
X13688000Y-5761000D02*
X13788000Y-5861000D01*
X13788000Y-5761000D02*
X13688000Y-5861000D01*
X13788000Y-5811000D02*
G75*
G02*
X13688000Y-5811000I-50000J0D01*
G01*
X13688000Y-5811000D02*
G75*
G02*
X13788000Y-5811000I50000J0D01*
G01*
X13688000Y-7539000D02*
X13788000Y-7639000D01*
X13788000Y-7539000D02*
X13688000Y-7639000D01*
X13788000Y-7589000D02*
G75*
G02*
X13688000Y-7589000I-50000J0D01*
G01*
X13688000Y-7589000D02*
G75*
G02*
X13788000Y-7589000I50000J0D01*
G01*
X13768000Y-4945000D02*
X13868000Y-5045000D01*
X13868000Y-4945000D02*
X13768000Y-5045000D01*
X13868000Y-4995000D02*
G75*
G02*
X13768000Y-4995000I-50000J0D01*
G01*
X13768000Y-4995000D02*
G75*
G02*
X13868000Y-4995000I50000J0D01*
G01*
X13942000Y-5761000D02*
X14042000Y-5861000D01*
X14042000Y-5761000D02*
X13942000Y-5861000D01*
X14042000Y-5811000D02*
G75*
G02*
X13942000Y-5811000I-50000J0D01*
G01*
X13942000Y-5811000D02*
G75*
G02*
X14042000Y-5811000I50000J0D01*
G01*
X13942000Y-7539000D02*
X14042000Y-7639000D01*
X14042000Y-7539000D02*
X13942000Y-7639000D01*
X14042000Y-7589000D02*
G75*
G02*
X13942000Y-7589000I-50000J0D01*
G01*
X13942000Y-7589000D02*
G75*
G02*
X14042000Y-7589000I50000J0D01*
G01*
X14022000Y-4945000D02*
X14122000Y-5045000D01*
X14122000Y-4945000D02*
X14022000Y-5045000D01*
X14122000Y-4995000D02*
G75*
G02*
X14022000Y-4995000I-50000J0D01*
G01*
X14022000Y-4995000D02*
G75*
G02*
X14122000Y-4995000I50000J0D01*
G01*
X14196000Y-5761000D02*
X14296000Y-5861000D01*
X14296000Y-5761000D02*
X14196000Y-5861000D01*
X14296000Y-5811000D02*
G75*
G02*
X14196000Y-5811000I-50000J0D01*
G01*
X14196000Y-5811000D02*
G75*
G02*
X14296000Y-5811000I50000J0D01*
G01*
X14196000Y-7539000D02*
X14296000Y-7639000D01*
X14296000Y-7539000D02*
X14196000Y-7639000D01*
X14296000Y-7589000D02*
G75*
G02*
X14196000Y-7589000I-50000J0D01*
G01*
X14196000Y-7589000D02*
G75*
G02*
X14296000Y-7589000I50000J0D01*
G01*
X14276000Y-4945000D02*
X14376000Y-5045000D01*
X14376000Y-4945000D02*
X14276000Y-5045000D01*
X14376000Y-4995000D02*
G75*
G02*
X14276000Y-4995000I-50000J0D01*
G01*
X14276000Y-4995000D02*
G75*
G02*
X14376000Y-4995000I50000J0D01*
G01*
X14450000Y-5761000D02*
X14550000Y-5861000D01*
X14550000Y-5761000D02*
X14450000Y-5861000D01*
X14550000Y-5811000D02*
G75*
G02*
X14450000Y-5811000I-50000J0D01*
G01*
X14450000Y-5811000D02*
G75*
G02*
X14550000Y-5811000I50000J0D01*
G01*
X14450000Y-7539000D02*
X14550000Y-7639000D01*
X14550000Y-7539000D02*
X14450000Y-7639000D01*
X14550000Y-7589000D02*
G75*
G02*
X14450000Y-7589000I-50000J0D01*
G01*
X14450000Y-7589000D02*
G75*
G02*
X14550000Y-7589000I50000J0D01*
G01*
X14530000Y-4945000D02*
X14630000Y-5045000D01*
X14630000Y-4945000D02*
X14530000Y-5045000D01*
X14630000Y-4995000D02*
G75*
G02*
X14530000Y-4995000I-50000J0D01*
G01*
X14530000Y-4995000D02*
G75*
G02*
X14630000Y-4995000I50000J0D01*
G01*
X14704000Y-5761000D02*
X14804000Y-5861000D01*
X14804000Y-5761000D02*
X14704000Y-5861000D01*
X14804000Y-5811000D02*
G75*
G02*
X14704000Y-5811000I-50000J0D01*
G01*
X14704000Y-5811000D02*
G75*
G02*
X14804000Y-5811000I50000J0D01*
G01*
X14704000Y-7539000D02*
X14804000Y-7639000D01*
X14804000Y-7539000D02*
X14704000Y-7639000D01*
X14804000Y-7589000D02*
G75*
G02*
X14704000Y-7589000I-50000J0D01*
G01*
X14704000Y-7589000D02*
G75*
G02*
X14804000Y-7589000I50000J0D01*
G01*
X14784000Y-4945000D02*
X14884000Y-5045000D01*
X14884000Y-4945000D02*
X14784000Y-5045000D01*
X14884000Y-4995000D02*
G75*
G02*
X14784000Y-4995000I-50000J0D01*
G01*
X14784000Y-4995000D02*
G75*
G02*
X14884000Y-4995000I50000J0D01*
G01*
X14958000Y-5761000D02*
X15058000Y-5861000D01*
X15058000Y-5761000D02*
X14958000Y-5861000D01*
X15058000Y-5811000D02*
G75*
G02*
X14958000Y-5811000I-50000J0D01*
G01*
X14958000Y-5811000D02*
G75*
G02*
X15058000Y-5811000I50000J0D01*
G01*
X14958000Y-7539000D02*
X15058000Y-7639000D01*
X15058000Y-7539000D02*
X14958000Y-7639000D01*
X15058000Y-7589000D02*
G75*
G02*
X14958000Y-7589000I-50000J0D01*
G01*
X14958000Y-7589000D02*
G75*
G02*
X15058000Y-7589000I50000J0D01*
G01*
X15038000Y-4945000D02*
X15138000Y-5045000D01*
X15138000Y-4945000D02*
X15038000Y-5045000D01*
X15138000Y-4995000D02*
G75*
G02*
X15038000Y-4995000I-50000J0D01*
G01*
X15038000Y-4995000D02*
G75*
G02*
X15138000Y-4995000I50000J0D01*
G01*
X15212000Y-5761000D02*
X15312000Y-5861000D01*
X15312000Y-5761000D02*
X15212000Y-5861000D01*
X15312000Y-5811000D02*
G75*
G02*
X15212000Y-5811000I-50000J0D01*
G01*
X15212000Y-5811000D02*
G75*
G02*
X15312000Y-5811000I50000J0D01*
G01*
X15212000Y-7539000D02*
X15312000Y-7639000D01*
X15312000Y-7539000D02*
X15212000Y-7639000D01*
X15312000Y-7589000D02*
G75*
G02*
X15212000Y-7589000I-50000J0D01*
G01*
X15212000Y-7589000D02*
G75*
G02*
X15312000Y-7589000I50000J0D01*
G01*
X15897500Y-6250000D02*
X15997500Y-6350000D01*
X15997500Y-6250000D02*
X15897500Y-6350000D01*
X15997500Y-6300000D02*
G75*
G02*
X15897500Y-6300000I-50000J0D01*
G01*
X15897500Y-6300000D02*
G75*
G02*
X15997500Y-6300000I50000J0D01*
G01*
X15897500Y-6504000D02*
X15997500Y-6604000D01*
X15997500Y-6504000D02*
X15897500Y-6604000D01*
X15997500Y-6554000D02*
G75*
G02*
X15897500Y-6554000I-50000J0D01*
G01*
X15897500Y-6554000D02*
G75*
G02*
X15997500Y-6554000I50000J0D01*
G01*
X15897500Y-6758000D02*
X15997500Y-6858000D01*
X15997500Y-6758000D02*
X15897500Y-6858000D01*
X15997500Y-6808000D02*
G75*
G02*
X15897500Y-6808000I-50000J0D01*
G01*
X15897500Y-6808000D02*
G75*
G02*
X15997500Y-6808000I50000J0D01*
G01*
X15897500Y-7012000D02*
X15997500Y-7112000D01*
X15997500Y-7012000D02*
X15897500Y-7112000D01*
X15997500Y-7062000D02*
G75*
G02*
X15897500Y-7062000I-50000J0D01*
G01*
X15897500Y-7062000D02*
G75*
G02*
X15997500Y-7062000I50000J0D01*
G01*
X15897500Y-7266000D02*
X15997500Y-7366000D01*
X15997500Y-7266000D02*
X15897500Y-7366000D01*
X15997500Y-7316000D02*
G75*
G02*
X15897500Y-7316000I-50000J0D01*
G01*
X15897500Y-7316000D02*
G75*
G02*
X15997500Y-7316000I50000J0D01*
G01*
X15897500Y-7520000D02*
X15997500Y-7620000D01*
X15997500Y-7520000D02*
X15897500Y-7620000D01*
X15997500Y-7570000D02*
G75*
G02*
X15897500Y-7570000I-50000J0D01*
G01*
X15897500Y-7570000D02*
G75*
G02*
X15997500Y-7570000I50000J0D01*
G01*
X16550000Y-7050000D02*
X16650000Y-7150000D01*
X16650000Y-7050000D02*
X16550000Y-7150000D01*
X16650000Y-7100000D02*
G75*
G02*
X16550000Y-7100000I-50000J0D01*
G01*
X16550000Y-7100000D02*
G75*
G02*
X16650000Y-7100000I50000J0D01*
G01*
X16550000Y-7304000D02*
X16650000Y-7404000D01*
X16650000Y-7304000D02*
X16550000Y-7404000D01*
X16650000Y-7354000D02*
G75*
G02*
X16550000Y-7354000I-50000J0D01*
G01*
X16550000Y-7354000D02*
G75*
G02*
X16650000Y-7354000I50000J0D01*
G01*
D13*
X10120000Y-4800000D02*
X10230000Y-4910000D01*
X10230000Y-4800000D02*
X10120000Y-4910000D01*
X10175000Y-4800000D02*
X10175000Y-4910000D01*
X10120000Y-4855000D02*
X10230000Y-4855000D01*
X10120000Y-5250000D02*
X10230000Y-5360000D01*
X10230000Y-5250000D02*
X10120000Y-5360000D01*
X10175000Y-5250000D02*
X10175000Y-5360000D01*
X10120000Y-5305000D02*
X10230000Y-5305000D01*
X10770000Y-4800000D02*
X10880000Y-4910000D01*
X10880000Y-4800000D02*
X10770000Y-4910000D01*
X10825000Y-4800000D02*
X10825000Y-4910000D01*
X10770000Y-4855000D02*
X10880000Y-4855000D01*
X10770000Y-5250000D02*
X10880000Y-5360000D01*
X10880000Y-5250000D02*
X10770000Y-5360000D01*
X10825000Y-5250000D02*
X10825000Y-5360000D01*
X10770000Y-5305000D02*
X10880000Y-5305000D01*
D14*
X12236000Y-9545500D02*
X12356000Y-9665500D01*
X12356000Y-9545500D02*
X12236000Y-9665500D01*
X12338427Y-9647927D02*
X12338427Y-9563073D01*
X12253573Y-9563073D01*
X12253573Y-9647927D01*
X12338427Y-9647927D01*
X12490000Y-9545500D02*
X12610000Y-9665500D01*
X12610000Y-9545500D02*
X12490000Y-9665500D01*
X12592427Y-9647927D02*
X12592427Y-9563073D01*
X12507573Y-9563073D01*
X12507573Y-9647927D01*
X12592427Y-9647927D01*
X12744000Y-9545500D02*
X12864000Y-9665500D01*
X12864000Y-9545500D02*
X12744000Y-9665500D01*
X12846427Y-9647927D02*
X12846427Y-9563073D01*
X12761573Y-9563073D01*
X12761573Y-9647927D01*
X12846427Y-9647927D01*
D11*
X10253277Y-10318984D02*
X10253277Y-10118984D01*
X10253277Y-10118984D02*
X10300896Y-10118984D01*
X10300896Y-10118984D02*
X10329467Y-10128508D01*
X10329467Y-10128508D02*
X10348515Y-10147555D01*
X10348515Y-10147555D02*
X10358039Y-10166603D01*
X10358039Y-10166603D02*
X10367563Y-10204698D01*
X10367563Y-10204698D02*
X10367563Y-10233270D01*
X10367563Y-10233270D02*
X10358039Y-10271365D01*
X10358039Y-10271365D02*
X10348515Y-10290412D01*
X10348515Y-10290412D02*
X10329467Y-10309460D01*
X10329467Y-10309460D02*
X10300896Y-10318984D01*
X10300896Y-10318984D02*
X10253277Y-10318984D01*
X10453277Y-10318984D02*
X10453277Y-10185650D01*
X10453277Y-10223746D02*
X10462801Y-10204698D01*
X10462801Y-10204698D02*
X10472324Y-10195174D01*
X10472324Y-10195174D02*
X10491372Y-10185650D01*
X10491372Y-10185650D02*
X10510420Y-10185650D01*
X10577086Y-10318984D02*
X10577086Y-10185650D01*
X10577086Y-10118984D02*
X10567563Y-10128508D01*
X10567563Y-10128508D02*
X10577086Y-10138031D01*
X10577086Y-10138031D02*
X10586610Y-10128508D01*
X10586610Y-10128508D02*
X10577086Y-10118984D01*
X10577086Y-10118984D02*
X10577086Y-10138031D01*
X10700896Y-10318984D02*
X10681848Y-10309460D01*
X10681848Y-10309460D02*
X10672324Y-10290412D01*
X10672324Y-10290412D02*
X10672324Y-10118984D01*
X10805658Y-10318984D02*
X10786610Y-10309460D01*
X10786610Y-10309460D02*
X10777086Y-10290412D01*
X10777086Y-10290412D02*
X10777086Y-10118984D01*
X11034229Y-10318984D02*
X11034229Y-10118984D01*
X11034229Y-10118984D02*
X11100896Y-10261841D01*
X11100896Y-10261841D02*
X11167563Y-10118984D01*
X11167563Y-10118984D02*
X11167563Y-10318984D01*
X11348515Y-10318984D02*
X11348515Y-10214222D01*
X11348515Y-10214222D02*
X11338991Y-10195174D01*
X11338991Y-10195174D02*
X11319943Y-10185650D01*
X11319943Y-10185650D02*
X11281848Y-10185650D01*
X11281848Y-10185650D02*
X11262801Y-10195174D01*
X11348515Y-10309460D02*
X11329467Y-10318984D01*
X11329467Y-10318984D02*
X11281848Y-10318984D01*
X11281848Y-10318984D02*
X11262801Y-10309460D01*
X11262801Y-10309460D02*
X11253277Y-10290412D01*
X11253277Y-10290412D02*
X11253277Y-10271365D01*
X11253277Y-10271365D02*
X11262801Y-10252317D01*
X11262801Y-10252317D02*
X11281848Y-10242793D01*
X11281848Y-10242793D02*
X11329467Y-10242793D01*
X11329467Y-10242793D02*
X11348515Y-10233270D01*
X11443753Y-10185650D02*
X11443753Y-10385650D01*
X11443753Y-10195174D02*
X11462801Y-10185650D01*
X11462801Y-10185650D02*
X11500896Y-10185650D01*
X11500896Y-10185650D02*
X11519943Y-10195174D01*
X11519943Y-10195174D02*
X11529467Y-10204698D01*
X11529467Y-10204698D02*
X11538991Y-10223746D01*
X11538991Y-10223746D02*
X11538991Y-10280889D01*
X11538991Y-10280889D02*
X11529467Y-10299936D01*
X11529467Y-10299936D02*
X11519943Y-10309460D01*
X11519943Y-10309460D02*
X11500896Y-10318984D01*
X11500896Y-10318984D02*
X11462801Y-10318984D01*
X11462801Y-10318984D02*
X11443753Y-10309460D01*
X11624705Y-10299936D02*
X11634229Y-10309460D01*
X11634229Y-10309460D02*
X11624705Y-10318984D01*
X11624705Y-10318984D02*
X11615182Y-10309460D01*
X11615182Y-10309460D02*
X11624705Y-10299936D01*
X11624705Y-10299936D02*
X11624705Y-10318984D01*
X11624705Y-10195174D02*
X11634229Y-10204698D01*
X11634229Y-10204698D02*
X11624705Y-10214222D01*
X11624705Y-10214222D02*
X11615182Y-10204698D01*
X11615182Y-10204698D02*
X11624705Y-10195174D01*
X11624705Y-10195174D02*
X11624705Y-10214222D01*
D12*
X9962500Y-10632500D02*
X9992500Y-10662500D01*
X9992500Y-10632500D02*
X9962500Y-10662500D01*
D11*
X10291372Y-10538984D02*
X10310420Y-10538984D01*
X10310420Y-10538984D02*
X10329467Y-10548508D01*
X10329467Y-10548508D02*
X10338991Y-10558031D01*
X10338991Y-10558031D02*
X10348515Y-10577079D01*
X10348515Y-10577079D02*
X10358039Y-10615174D01*
X10358039Y-10615174D02*
X10358039Y-10662793D01*
X10358039Y-10662793D02*
X10348515Y-10700889D01*
X10348515Y-10700889D02*
X10338991Y-10719936D01*
X10338991Y-10719936D02*
X10329467Y-10729460D01*
X10329467Y-10729460D02*
X10310420Y-10738984D01*
X10310420Y-10738984D02*
X10291372Y-10738984D01*
X10291372Y-10738984D02*
X10272324Y-10729460D01*
X10272324Y-10729460D02*
X10262801Y-10719936D01*
X10262801Y-10719936D02*
X10253277Y-10700889D01*
X10253277Y-10700889D02*
X10243753Y-10662793D01*
X10243753Y-10662793D02*
X10243753Y-10615174D01*
X10243753Y-10615174D02*
X10253277Y-10577079D01*
X10253277Y-10577079D02*
X10262801Y-10558031D01*
X10262801Y-10558031D02*
X10272324Y-10548508D01*
X10272324Y-10548508D02*
X10291372Y-10538984D01*
X10443753Y-10719936D02*
X10453277Y-10729460D01*
X10453277Y-10729460D02*
X10443753Y-10738984D01*
X10443753Y-10738984D02*
X10434229Y-10729460D01*
X10434229Y-10729460D02*
X10443753Y-10719936D01*
X10443753Y-10719936D02*
X10443753Y-10738984D01*
X10519944Y-10538984D02*
X10643753Y-10538984D01*
X10643753Y-10538984D02*
X10577086Y-10615174D01*
X10577086Y-10615174D02*
X10605658Y-10615174D01*
X10605658Y-10615174D02*
X10624705Y-10624698D01*
X10624705Y-10624698D02*
X10634229Y-10634222D01*
X10634229Y-10634222D02*
X10643753Y-10653270D01*
X10643753Y-10653270D02*
X10643753Y-10700889D01*
X10643753Y-10700889D02*
X10634229Y-10719936D01*
X10634229Y-10719936D02*
X10624705Y-10729460D01*
X10624705Y-10729460D02*
X10605658Y-10738984D01*
X10605658Y-10738984D02*
X10548515Y-10738984D01*
X10548515Y-10738984D02*
X10529467Y-10729460D01*
X10529467Y-10729460D02*
X10519944Y-10719936D01*
X10767563Y-10538984D02*
X10786610Y-10538984D01*
X10786610Y-10538984D02*
X10805658Y-10548508D01*
X10805658Y-10548508D02*
X10815182Y-10558031D01*
X10815182Y-10558031D02*
X10824705Y-10577079D01*
X10824705Y-10577079D02*
X10834229Y-10615174D01*
X10834229Y-10615174D02*
X10834229Y-10662793D01*
X10834229Y-10662793D02*
X10824705Y-10700889D01*
X10824705Y-10700889D02*
X10815182Y-10719936D01*
X10815182Y-10719936D02*
X10805658Y-10729460D01*
X10805658Y-10729460D02*
X10786610Y-10738984D01*
X10786610Y-10738984D02*
X10767563Y-10738984D01*
X10767563Y-10738984D02*
X10748515Y-10729460D01*
X10748515Y-10729460D02*
X10738991Y-10719936D01*
X10738991Y-10719936D02*
X10729467Y-10700889D01*
X10729467Y-10700889D02*
X10719944Y-10662793D01*
X10719944Y-10662793D02*
X10719944Y-10615174D01*
X10719944Y-10615174D02*
X10729467Y-10577079D01*
X10729467Y-10577079D02*
X10738991Y-10558031D01*
X10738991Y-10558031D02*
X10748515Y-10548508D01*
X10748515Y-10548508D02*
X10767563Y-10538984D01*
X10958039Y-10538984D02*
X10977086Y-10538984D01*
X10977086Y-10538984D02*
X10996134Y-10548508D01*
X10996134Y-10548508D02*
X11005658Y-10558031D01*
X11005658Y-10558031D02*
X11015182Y-10577079D01*
X11015182Y-10577079D02*
X11024705Y-10615174D01*
X11024705Y-10615174D02*
X11024705Y-10662793D01*
X11024705Y-10662793D02*
X11015182Y-10700889D01*
X11015182Y-10700889D02*
X11005658Y-10719936D01*
X11005658Y-10719936D02*
X10996134Y-10729460D01*
X10996134Y-10729460D02*
X10977086Y-10738984D01*
X10977086Y-10738984D02*
X10958039Y-10738984D01*
X10958039Y-10738984D02*
X10938991Y-10729460D01*
X10938991Y-10729460D02*
X10929467Y-10719936D01*
X10929467Y-10719936D02*
X10919944Y-10700889D01*
X10919944Y-10700889D02*
X10910420Y-10662793D01*
X10910420Y-10662793D02*
X10910420Y-10615174D01*
X10910420Y-10615174D02*
X10919944Y-10577079D01*
X10919944Y-10577079D02*
X10929467Y-10558031D01*
X10929467Y-10558031D02*
X10938991Y-10548508D01*
X10938991Y-10548508D02*
X10958039Y-10538984D01*
X11110420Y-10738984D02*
X11110420Y-10605650D01*
X11110420Y-10624698D02*
X11119944Y-10615174D01*
X11119944Y-10615174D02*
X11138991Y-10605650D01*
X11138991Y-10605650D02*
X11167563Y-10605650D01*
X11167563Y-10605650D02*
X11186610Y-10615174D01*
X11186610Y-10615174D02*
X11196134Y-10634222D01*
X11196134Y-10634222D02*
X11196134Y-10738984D01*
X11196134Y-10634222D02*
X11205658Y-10615174D01*
X11205658Y-10615174D02*
X11224705Y-10605650D01*
X11224705Y-10605650D02*
X11253277Y-10605650D01*
X11253277Y-10605650D02*
X11272324Y-10615174D01*
X11272324Y-10615174D02*
X11281848Y-10634222D01*
X11281848Y-10634222D02*
X11281848Y-10738984D01*
X11377086Y-10738984D02*
X11377086Y-10605650D01*
X11377086Y-10624698D02*
X11386610Y-10615174D01*
X11386610Y-10615174D02*
X11405658Y-10605650D01*
X11405658Y-10605650D02*
X11434229Y-10605650D01*
X11434229Y-10605650D02*
X11453277Y-10615174D01*
X11453277Y-10615174D02*
X11462801Y-10634222D01*
X11462801Y-10634222D02*
X11462801Y-10738984D01*
X11462801Y-10634222D02*
X11472324Y-10615174D01*
X11472324Y-10615174D02*
X11491372Y-10605650D01*
X11491372Y-10605650D02*
X11519943Y-10605650D01*
X11519943Y-10605650D02*
X11538991Y-10615174D01*
X11538991Y-10615174D02*
X11548515Y-10634222D01*
X11548515Y-10634222D02*
X11548515Y-10738984D01*
X11938991Y-10529460D02*
X11767563Y-10786603D01*
X12196134Y-10538984D02*
X12215182Y-10538984D01*
X12215182Y-10538984D02*
X12234229Y-10548508D01*
X12234229Y-10548508D02*
X12243753Y-10558031D01*
X12243753Y-10558031D02*
X12253277Y-10577079D01*
X12253277Y-10577079D02*
X12262801Y-10615174D01*
X12262801Y-10615174D02*
X12262801Y-10662793D01*
X12262801Y-10662793D02*
X12253277Y-10700889D01*
X12253277Y-10700889D02*
X12243753Y-10719936D01*
X12243753Y-10719936D02*
X12234229Y-10729460D01*
X12234229Y-10729460D02*
X12215182Y-10738984D01*
X12215182Y-10738984D02*
X12196134Y-10738984D01*
X12196134Y-10738984D02*
X12177086Y-10729460D01*
X12177086Y-10729460D02*
X12167563Y-10719936D01*
X12167563Y-10719936D02*
X12158039Y-10700889D01*
X12158039Y-10700889D02*
X12148515Y-10662793D01*
X12148515Y-10662793D02*
X12148515Y-10615174D01*
X12148515Y-10615174D02*
X12158039Y-10577079D01*
X12158039Y-10577079D02*
X12167563Y-10558031D01*
X12167563Y-10558031D02*
X12177086Y-10548508D01*
X12177086Y-10548508D02*
X12196134Y-10538984D01*
X12348515Y-10719936D02*
X12358039Y-10729460D01*
X12358039Y-10729460D02*
X12348515Y-10738984D01*
X12348515Y-10738984D02*
X12338991Y-10729460D01*
X12338991Y-10729460D02*
X12348515Y-10719936D01*
X12348515Y-10719936D02*
X12348515Y-10738984D01*
X12481848Y-10538984D02*
X12500896Y-10538984D01*
X12500896Y-10538984D02*
X12519944Y-10548508D01*
X12519944Y-10548508D02*
X12529467Y-10558031D01*
X12529467Y-10558031D02*
X12538991Y-10577079D01*
X12538991Y-10577079D02*
X12548515Y-10615174D01*
X12548515Y-10615174D02*
X12548515Y-10662793D01*
X12548515Y-10662793D02*
X12538991Y-10700889D01*
X12538991Y-10700889D02*
X12529467Y-10719936D01*
X12529467Y-10719936D02*
X12519944Y-10729460D01*
X12519944Y-10729460D02*
X12500896Y-10738984D01*
X12500896Y-10738984D02*
X12481848Y-10738984D01*
X12481848Y-10738984D02*
X12462801Y-10729460D01*
X12462801Y-10729460D02*
X12453277Y-10719936D01*
X12453277Y-10719936D02*
X12443753Y-10700889D01*
X12443753Y-10700889D02*
X12434229Y-10662793D01*
X12434229Y-10662793D02*
X12434229Y-10615174D01*
X12434229Y-10615174D02*
X12443753Y-10577079D01*
X12443753Y-10577079D02*
X12453277Y-10558031D01*
X12453277Y-10558031D02*
X12462801Y-10548508D01*
X12462801Y-10548508D02*
X12481848Y-10538984D01*
X12738991Y-10738984D02*
X12624706Y-10738984D01*
X12681848Y-10738984D02*
X12681848Y-10538984D01*
X12681848Y-10538984D02*
X12662801Y-10567555D01*
X12662801Y-10567555D02*
X12643753Y-10586603D01*
X12643753Y-10586603D02*
X12624706Y-10596127D01*
X12929467Y-10738984D02*
X12815182Y-10738984D01*
X12872325Y-10738984D02*
X12872325Y-10538984D01*
X12872325Y-10538984D02*
X12853277Y-10567555D01*
X12853277Y-10567555D02*
X12834229Y-10586603D01*
X12834229Y-10586603D02*
X12815182Y-10596127D01*
X13043753Y-10624698D02*
X13024706Y-10615174D01*
X13024706Y-10615174D02*
X13015182Y-10605650D01*
X13015182Y-10605650D02*
X13005658Y-10586603D01*
X13005658Y-10586603D02*
X13005658Y-10577079D01*
X13005658Y-10577079D02*
X13015182Y-10558031D01*
X13015182Y-10558031D02*
X13024706Y-10548508D01*
X13024706Y-10548508D02*
X13043753Y-10538984D01*
X13043753Y-10538984D02*
X13081848Y-10538984D01*
X13081848Y-10538984D02*
X13100896Y-10548508D01*
X13100896Y-10548508D02*
X13110420Y-10558031D01*
X13110420Y-10558031D02*
X13119944Y-10577079D01*
X13119944Y-10577079D02*
X13119944Y-10586603D01*
X13119944Y-10586603D02*
X13110420Y-10605650D01*
X13110420Y-10605650D02*
X13100896Y-10615174D01*
X13100896Y-10615174D02*
X13081848Y-10624698D01*
X13081848Y-10624698D02*
X13043753Y-10624698D01*
X13043753Y-10624698D02*
X13024706Y-10634222D01*
X13024706Y-10634222D02*
X13015182Y-10643746D01*
X13015182Y-10643746D02*
X13005658Y-10662793D01*
X13005658Y-10662793D02*
X13005658Y-10700889D01*
X13005658Y-10700889D02*
X13015182Y-10719936D01*
X13015182Y-10719936D02*
X13024706Y-10729460D01*
X13024706Y-10729460D02*
X13043753Y-10738984D01*
X13043753Y-10738984D02*
X13081848Y-10738984D01*
X13081848Y-10738984D02*
X13100896Y-10729460D01*
X13100896Y-10729460D02*
X13110420Y-10719936D01*
X13110420Y-10719936D02*
X13119944Y-10700889D01*
X13119944Y-10700889D02*
X13119944Y-10662793D01*
X13119944Y-10662793D02*
X13110420Y-10643746D01*
X13110420Y-10643746D02*
X13100896Y-10634222D01*
X13100896Y-10634222D02*
X13081848Y-10624698D01*
X13196134Y-10538984D02*
X13196134Y-10577079D01*
X13272325Y-10538984D02*
X13272325Y-10577079D01*
X13567563Y-10815174D02*
X13558039Y-10805650D01*
X13558039Y-10805650D02*
X13538991Y-10777079D01*
X13538991Y-10777079D02*
X13529468Y-10758031D01*
X13529468Y-10758031D02*
X13519944Y-10729460D01*
X13519944Y-10729460D02*
X13510420Y-10681841D01*
X13510420Y-10681841D02*
X13510420Y-10643746D01*
X13510420Y-10643746D02*
X13519944Y-10596127D01*
X13519944Y-10596127D02*
X13529468Y-10567555D01*
X13529468Y-10567555D02*
X13538991Y-10548508D01*
X13538991Y-10548508D02*
X13558039Y-10519936D01*
X13558039Y-10519936D02*
X13567563Y-10510412D01*
X13748515Y-10738984D02*
X13634229Y-10738984D01*
X13691372Y-10738984D02*
X13691372Y-10538984D01*
X13691372Y-10538984D02*
X13672325Y-10567555D01*
X13672325Y-10567555D02*
X13653277Y-10586603D01*
X13653277Y-10586603D02*
X13634229Y-10596127D01*
X13986610Y-10738984D02*
X13986610Y-10538984D01*
X14072325Y-10738984D02*
X14072325Y-10634222D01*
X14072325Y-10634222D02*
X14062801Y-10615174D01*
X14062801Y-10615174D02*
X14043753Y-10605650D01*
X14043753Y-10605650D02*
X14015182Y-10605650D01*
X14015182Y-10605650D02*
X13996134Y-10615174D01*
X13996134Y-10615174D02*
X13986610Y-10624698D01*
X14196134Y-10738984D02*
X14177087Y-10729460D01*
X14177087Y-10729460D02*
X14167563Y-10719936D01*
X14167563Y-10719936D02*
X14158039Y-10700889D01*
X14158039Y-10700889D02*
X14158039Y-10643746D01*
X14158039Y-10643746D02*
X14167563Y-10624698D01*
X14167563Y-10624698D02*
X14177087Y-10615174D01*
X14177087Y-10615174D02*
X14196134Y-10605650D01*
X14196134Y-10605650D02*
X14224706Y-10605650D01*
X14224706Y-10605650D02*
X14243753Y-10615174D01*
X14243753Y-10615174D02*
X14253277Y-10624698D01*
X14253277Y-10624698D02*
X14262801Y-10643746D01*
X14262801Y-10643746D02*
X14262801Y-10700889D01*
X14262801Y-10700889D02*
X14253277Y-10719936D01*
X14253277Y-10719936D02*
X14243753Y-10729460D01*
X14243753Y-10729460D02*
X14224706Y-10738984D01*
X14224706Y-10738984D02*
X14196134Y-10738984D01*
X14377087Y-10738984D02*
X14358039Y-10729460D01*
X14358039Y-10729460D02*
X14348515Y-10710412D01*
X14348515Y-10710412D02*
X14348515Y-10538984D01*
X14529468Y-10729460D02*
X14510420Y-10738984D01*
X14510420Y-10738984D02*
X14472325Y-10738984D01*
X14472325Y-10738984D02*
X14453277Y-10729460D01*
X14453277Y-10729460D02*
X14443753Y-10710412D01*
X14443753Y-10710412D02*
X14443753Y-10634222D01*
X14443753Y-10634222D02*
X14453277Y-10615174D01*
X14453277Y-10615174D02*
X14472325Y-10605650D01*
X14472325Y-10605650D02*
X14510420Y-10605650D01*
X14510420Y-10605650D02*
X14529468Y-10615174D01*
X14529468Y-10615174D02*
X14538991Y-10634222D01*
X14538991Y-10634222D02*
X14538991Y-10653270D01*
X14538991Y-10653270D02*
X14443753Y-10672317D01*
X14605658Y-10815174D02*
X14615182Y-10805650D01*
X14615182Y-10805650D02*
X14634230Y-10777079D01*
X14634230Y-10777079D02*
X14643753Y-10758031D01*
X14643753Y-10758031D02*
X14653277Y-10729460D01*
X14653277Y-10729460D02*
X14662801Y-10681841D01*
X14662801Y-10681841D02*
X14662801Y-10643746D01*
X14662801Y-10643746D02*
X14653277Y-10596127D01*
X14653277Y-10596127D02*
X14643753Y-10567555D01*
X14643753Y-10567555D02*
X14634230Y-10548508D01*
X14634230Y-10548508D02*
X14615182Y-10519936D01*
X14615182Y-10519936D02*
X14605658Y-10510412D01*
D12*
X9992500Y-10911500D02*
G75*
G02*
X9932500Y-10911500I-30000J0D01*
G01*
X9932500Y-10911500D02*
G75*
G02*
X9992500Y-10911500I30000J0D01*
G01*
D11*
X10291372Y-10802984D02*
X10310420Y-10802984D01*
X10310420Y-10802984D02*
X10329467Y-10812508D01*
X10329467Y-10812508D02*
X10338991Y-10822031D01*
X10338991Y-10822031D02*
X10348515Y-10841079D01*
X10348515Y-10841079D02*
X10358039Y-10879174D01*
X10358039Y-10879174D02*
X10358039Y-10926793D01*
X10358039Y-10926793D02*
X10348515Y-10964889D01*
X10348515Y-10964889D02*
X10338991Y-10983936D01*
X10338991Y-10983936D02*
X10329467Y-10993460D01*
X10329467Y-10993460D02*
X10310420Y-11002984D01*
X10310420Y-11002984D02*
X10291372Y-11002984D01*
X10291372Y-11002984D02*
X10272324Y-10993460D01*
X10272324Y-10993460D02*
X10262801Y-10983936D01*
X10262801Y-10983936D02*
X10253277Y-10964889D01*
X10253277Y-10964889D02*
X10243753Y-10926793D01*
X10243753Y-10926793D02*
X10243753Y-10879174D01*
X10243753Y-10879174D02*
X10253277Y-10841079D01*
X10253277Y-10841079D02*
X10262801Y-10822031D01*
X10262801Y-10822031D02*
X10272324Y-10812508D01*
X10272324Y-10812508D02*
X10291372Y-10802984D01*
X10443753Y-10983936D02*
X10453277Y-10993460D01*
X10453277Y-10993460D02*
X10443753Y-11002984D01*
X10443753Y-11002984D02*
X10434229Y-10993460D01*
X10434229Y-10993460D02*
X10443753Y-10983936D01*
X10443753Y-10983936D02*
X10443753Y-11002984D01*
X10624705Y-10802984D02*
X10586610Y-10802984D01*
X10586610Y-10802984D02*
X10567563Y-10812508D01*
X10567563Y-10812508D02*
X10558039Y-10822031D01*
X10558039Y-10822031D02*
X10538991Y-10850603D01*
X10538991Y-10850603D02*
X10529467Y-10888698D01*
X10529467Y-10888698D02*
X10529467Y-10964889D01*
X10529467Y-10964889D02*
X10538991Y-10983936D01*
X10538991Y-10983936D02*
X10548515Y-10993460D01*
X10548515Y-10993460D02*
X10567563Y-11002984D01*
X10567563Y-11002984D02*
X10605658Y-11002984D01*
X10605658Y-11002984D02*
X10624705Y-10993460D01*
X10624705Y-10993460D02*
X10634229Y-10983936D01*
X10634229Y-10983936D02*
X10643753Y-10964889D01*
X10643753Y-10964889D02*
X10643753Y-10917270D01*
X10643753Y-10917270D02*
X10634229Y-10898222D01*
X10634229Y-10898222D02*
X10624705Y-10888698D01*
X10624705Y-10888698D02*
X10605658Y-10879174D01*
X10605658Y-10879174D02*
X10567563Y-10879174D01*
X10567563Y-10879174D02*
X10548515Y-10888698D01*
X10548515Y-10888698D02*
X10538991Y-10898222D01*
X10538991Y-10898222D02*
X10529467Y-10917270D01*
X10767563Y-10802984D02*
X10786610Y-10802984D01*
X10786610Y-10802984D02*
X10805658Y-10812508D01*
X10805658Y-10812508D02*
X10815182Y-10822031D01*
X10815182Y-10822031D02*
X10824705Y-10841079D01*
X10824705Y-10841079D02*
X10834229Y-10879174D01*
X10834229Y-10879174D02*
X10834229Y-10926793D01*
X10834229Y-10926793D02*
X10824705Y-10964889D01*
X10824705Y-10964889D02*
X10815182Y-10983936D01*
X10815182Y-10983936D02*
X10805658Y-10993460D01*
X10805658Y-10993460D02*
X10786610Y-11002984D01*
X10786610Y-11002984D02*
X10767563Y-11002984D01*
X10767563Y-11002984D02*
X10748515Y-10993460D01*
X10748515Y-10993460D02*
X10738991Y-10983936D01*
X10738991Y-10983936D02*
X10729467Y-10964889D01*
X10729467Y-10964889D02*
X10719944Y-10926793D01*
X10719944Y-10926793D02*
X10719944Y-10879174D01*
X10719944Y-10879174D02*
X10729467Y-10841079D01*
X10729467Y-10841079D02*
X10738991Y-10822031D01*
X10738991Y-10822031D02*
X10748515Y-10812508D01*
X10748515Y-10812508D02*
X10767563Y-10802984D01*
X10958039Y-10802984D02*
X10977086Y-10802984D01*
X10977086Y-10802984D02*
X10996134Y-10812508D01*
X10996134Y-10812508D02*
X11005658Y-10822031D01*
X11005658Y-10822031D02*
X11015182Y-10841079D01*
X11015182Y-10841079D02*
X11024705Y-10879174D01*
X11024705Y-10879174D02*
X11024705Y-10926793D01*
X11024705Y-10926793D02*
X11015182Y-10964889D01*
X11015182Y-10964889D02*
X11005658Y-10983936D01*
X11005658Y-10983936D02*
X10996134Y-10993460D01*
X10996134Y-10993460D02*
X10977086Y-11002984D01*
X10977086Y-11002984D02*
X10958039Y-11002984D01*
X10958039Y-11002984D02*
X10938991Y-10993460D01*
X10938991Y-10993460D02*
X10929467Y-10983936D01*
X10929467Y-10983936D02*
X10919944Y-10964889D01*
X10919944Y-10964889D02*
X10910420Y-10926793D01*
X10910420Y-10926793D02*
X10910420Y-10879174D01*
X10910420Y-10879174D02*
X10919944Y-10841079D01*
X10919944Y-10841079D02*
X10929467Y-10822031D01*
X10929467Y-10822031D02*
X10938991Y-10812508D01*
X10938991Y-10812508D02*
X10958039Y-10802984D01*
X11110420Y-11002984D02*
X11110420Y-10869650D01*
X11110420Y-10888698D02*
X11119944Y-10879174D01*
X11119944Y-10879174D02*
X11138991Y-10869650D01*
X11138991Y-10869650D02*
X11167563Y-10869650D01*
X11167563Y-10869650D02*
X11186610Y-10879174D01*
X11186610Y-10879174D02*
X11196134Y-10898222D01*
X11196134Y-10898222D02*
X11196134Y-11002984D01*
X11196134Y-10898222D02*
X11205658Y-10879174D01*
X11205658Y-10879174D02*
X11224705Y-10869650D01*
X11224705Y-10869650D02*
X11253277Y-10869650D01*
X11253277Y-10869650D02*
X11272324Y-10879174D01*
X11272324Y-10879174D02*
X11281848Y-10898222D01*
X11281848Y-10898222D02*
X11281848Y-11002984D01*
X11377086Y-11002984D02*
X11377086Y-10869650D01*
X11377086Y-10888698D02*
X11386610Y-10879174D01*
X11386610Y-10879174D02*
X11405658Y-10869650D01*
X11405658Y-10869650D02*
X11434229Y-10869650D01*
X11434229Y-10869650D02*
X11453277Y-10879174D01*
X11453277Y-10879174D02*
X11462801Y-10898222D01*
X11462801Y-10898222D02*
X11462801Y-11002984D01*
X11462801Y-10898222D02*
X11472324Y-10879174D01*
X11472324Y-10879174D02*
X11491372Y-10869650D01*
X11491372Y-10869650D02*
X11519943Y-10869650D01*
X11519943Y-10869650D02*
X11538991Y-10879174D01*
X11538991Y-10879174D02*
X11548515Y-10898222D01*
X11548515Y-10898222D02*
X11548515Y-11002984D01*
X11938991Y-10793460D02*
X11767563Y-11050603D01*
X12196134Y-10802984D02*
X12215182Y-10802984D01*
X12215182Y-10802984D02*
X12234229Y-10812508D01*
X12234229Y-10812508D02*
X12243753Y-10822031D01*
X12243753Y-10822031D02*
X12253277Y-10841079D01*
X12253277Y-10841079D02*
X12262801Y-10879174D01*
X12262801Y-10879174D02*
X12262801Y-10926793D01*
X12262801Y-10926793D02*
X12253277Y-10964889D01*
X12253277Y-10964889D02*
X12243753Y-10983936D01*
X12243753Y-10983936D02*
X12234229Y-10993460D01*
X12234229Y-10993460D02*
X12215182Y-11002984D01*
X12215182Y-11002984D02*
X12196134Y-11002984D01*
X12196134Y-11002984D02*
X12177086Y-10993460D01*
X12177086Y-10993460D02*
X12167563Y-10983936D01*
X12167563Y-10983936D02*
X12158039Y-10964889D01*
X12158039Y-10964889D02*
X12148515Y-10926793D01*
X12148515Y-10926793D02*
X12148515Y-10879174D01*
X12148515Y-10879174D02*
X12158039Y-10841079D01*
X12158039Y-10841079D02*
X12167563Y-10822031D01*
X12167563Y-10822031D02*
X12177086Y-10812508D01*
X12177086Y-10812508D02*
X12196134Y-10802984D01*
X12348515Y-10983936D02*
X12358039Y-10993460D01*
X12358039Y-10993460D02*
X12348515Y-11002984D01*
X12348515Y-11002984D02*
X12338991Y-10993460D01*
X12338991Y-10993460D02*
X12348515Y-10983936D01*
X12348515Y-10983936D02*
X12348515Y-11002984D01*
X12481848Y-10802984D02*
X12500896Y-10802984D01*
X12500896Y-10802984D02*
X12519944Y-10812508D01*
X12519944Y-10812508D02*
X12529467Y-10822031D01*
X12529467Y-10822031D02*
X12538991Y-10841079D01*
X12538991Y-10841079D02*
X12548515Y-10879174D01*
X12548515Y-10879174D02*
X12548515Y-10926793D01*
X12548515Y-10926793D02*
X12538991Y-10964889D01*
X12538991Y-10964889D02*
X12529467Y-10983936D01*
X12529467Y-10983936D02*
X12519944Y-10993460D01*
X12519944Y-10993460D02*
X12500896Y-11002984D01*
X12500896Y-11002984D02*
X12481848Y-11002984D01*
X12481848Y-11002984D02*
X12462801Y-10993460D01*
X12462801Y-10993460D02*
X12453277Y-10983936D01*
X12453277Y-10983936D02*
X12443753Y-10964889D01*
X12443753Y-10964889D02*
X12434229Y-10926793D01*
X12434229Y-10926793D02*
X12434229Y-10879174D01*
X12434229Y-10879174D02*
X12443753Y-10841079D01*
X12443753Y-10841079D02*
X12453277Y-10822031D01*
X12453277Y-10822031D02*
X12462801Y-10812508D01*
X12462801Y-10812508D02*
X12481848Y-10802984D01*
X12624706Y-10822031D02*
X12634229Y-10812508D01*
X12634229Y-10812508D02*
X12653277Y-10802984D01*
X12653277Y-10802984D02*
X12700896Y-10802984D01*
X12700896Y-10802984D02*
X12719944Y-10812508D01*
X12719944Y-10812508D02*
X12729467Y-10822031D01*
X12729467Y-10822031D02*
X12738991Y-10841079D01*
X12738991Y-10841079D02*
X12738991Y-10860127D01*
X12738991Y-10860127D02*
X12729467Y-10888698D01*
X12729467Y-10888698D02*
X12615182Y-11002984D01*
X12615182Y-11002984D02*
X12738991Y-11002984D01*
X12805658Y-10802984D02*
X12929467Y-10802984D01*
X12929467Y-10802984D02*
X12862801Y-10879174D01*
X12862801Y-10879174D02*
X12891372Y-10879174D01*
X12891372Y-10879174D02*
X12910420Y-10888698D01*
X12910420Y-10888698D02*
X12919944Y-10898222D01*
X12919944Y-10898222D02*
X12929467Y-10917270D01*
X12929467Y-10917270D02*
X12929467Y-10964889D01*
X12929467Y-10964889D02*
X12919944Y-10983936D01*
X12919944Y-10983936D02*
X12910420Y-10993460D01*
X12910420Y-10993460D02*
X12891372Y-11002984D01*
X12891372Y-11002984D02*
X12834229Y-11002984D01*
X12834229Y-11002984D02*
X12815182Y-10993460D01*
X12815182Y-10993460D02*
X12805658Y-10983936D01*
X13100896Y-10802984D02*
X13062801Y-10802984D01*
X13062801Y-10802984D02*
X13043753Y-10812508D01*
X13043753Y-10812508D02*
X13034229Y-10822031D01*
X13034229Y-10822031D02*
X13015182Y-10850603D01*
X13015182Y-10850603D02*
X13005658Y-10888698D01*
X13005658Y-10888698D02*
X13005658Y-10964889D01*
X13005658Y-10964889D02*
X13015182Y-10983936D01*
X13015182Y-10983936D02*
X13024706Y-10993460D01*
X13024706Y-10993460D02*
X13043753Y-11002984D01*
X13043753Y-11002984D02*
X13081848Y-11002984D01*
X13081848Y-11002984D02*
X13100896Y-10993460D01*
X13100896Y-10993460D02*
X13110420Y-10983936D01*
X13110420Y-10983936D02*
X13119944Y-10964889D01*
X13119944Y-10964889D02*
X13119944Y-10917270D01*
X13119944Y-10917270D02*
X13110420Y-10898222D01*
X13110420Y-10898222D02*
X13100896Y-10888698D01*
X13100896Y-10888698D02*
X13081848Y-10879174D01*
X13081848Y-10879174D02*
X13043753Y-10879174D01*
X13043753Y-10879174D02*
X13024706Y-10888698D01*
X13024706Y-10888698D02*
X13015182Y-10898222D01*
X13015182Y-10898222D02*
X13005658Y-10917270D01*
X13196134Y-10802984D02*
X13196134Y-10841079D01*
X13272325Y-10802984D02*
X13272325Y-10841079D01*
X13567563Y-11079174D02*
X13558039Y-11069650D01*
X13558039Y-11069650D02*
X13538991Y-11041079D01*
X13538991Y-11041079D02*
X13529468Y-11022031D01*
X13529468Y-11022031D02*
X13519944Y-10993460D01*
X13519944Y-10993460D02*
X13510420Y-10945841D01*
X13510420Y-10945841D02*
X13510420Y-10907746D01*
X13510420Y-10907746D02*
X13519944Y-10860127D01*
X13519944Y-10860127D02*
X13529468Y-10831555D01*
X13529468Y-10831555D02*
X13538991Y-10812508D01*
X13538991Y-10812508D02*
X13558039Y-10783936D01*
X13558039Y-10783936D02*
X13567563Y-10774412D01*
X13729468Y-10802984D02*
X13691372Y-10802984D01*
X13691372Y-10802984D02*
X13672325Y-10812508D01*
X13672325Y-10812508D02*
X13662801Y-10822031D01*
X13662801Y-10822031D02*
X13643753Y-10850603D01*
X13643753Y-10850603D02*
X13634229Y-10888698D01*
X13634229Y-10888698D02*
X13634229Y-10964889D01*
X13634229Y-10964889D02*
X13643753Y-10983936D01*
X13643753Y-10983936D02*
X13653277Y-10993460D01*
X13653277Y-10993460D02*
X13672325Y-11002984D01*
X13672325Y-11002984D02*
X13710420Y-11002984D01*
X13710420Y-11002984D02*
X13729468Y-10993460D01*
X13729468Y-10993460D02*
X13738991Y-10983936D01*
X13738991Y-10983936D02*
X13748515Y-10964889D01*
X13748515Y-10964889D02*
X13748515Y-10917270D01*
X13748515Y-10917270D02*
X13738991Y-10898222D01*
X13738991Y-10898222D02*
X13729468Y-10888698D01*
X13729468Y-10888698D02*
X13710420Y-10879174D01*
X13710420Y-10879174D02*
X13672325Y-10879174D01*
X13672325Y-10879174D02*
X13653277Y-10888698D01*
X13653277Y-10888698D02*
X13643753Y-10898222D01*
X13643753Y-10898222D02*
X13634229Y-10917270D01*
X13986610Y-11002984D02*
X13986610Y-10802984D01*
X14072325Y-11002984D02*
X14072325Y-10898222D01*
X14072325Y-10898222D02*
X14062801Y-10879174D01*
X14062801Y-10879174D02*
X14043753Y-10869650D01*
X14043753Y-10869650D02*
X14015182Y-10869650D01*
X14015182Y-10869650D02*
X13996134Y-10879174D01*
X13996134Y-10879174D02*
X13986610Y-10888698D01*
X14196134Y-11002984D02*
X14177087Y-10993460D01*
X14177087Y-10993460D02*
X14167563Y-10983936D01*
X14167563Y-10983936D02*
X14158039Y-10964889D01*
X14158039Y-10964889D02*
X14158039Y-10907746D01*
X14158039Y-10907746D02*
X14167563Y-10888698D01*
X14167563Y-10888698D02*
X14177087Y-10879174D01*
X14177087Y-10879174D02*
X14196134Y-10869650D01*
X14196134Y-10869650D02*
X14224706Y-10869650D01*
X14224706Y-10869650D02*
X14243753Y-10879174D01*
X14243753Y-10879174D02*
X14253277Y-10888698D01*
X14253277Y-10888698D02*
X14262801Y-10907746D01*
X14262801Y-10907746D02*
X14262801Y-10964889D01*
X14262801Y-10964889D02*
X14253277Y-10983936D01*
X14253277Y-10983936D02*
X14243753Y-10993460D01*
X14243753Y-10993460D02*
X14224706Y-11002984D01*
X14224706Y-11002984D02*
X14196134Y-11002984D01*
X14377087Y-11002984D02*
X14358039Y-10993460D01*
X14358039Y-10993460D02*
X14348515Y-10974412D01*
X14348515Y-10974412D02*
X14348515Y-10802984D01*
X14529468Y-10993460D02*
X14510420Y-11002984D01*
X14510420Y-11002984D02*
X14472325Y-11002984D01*
X14472325Y-11002984D02*
X14453277Y-10993460D01*
X14453277Y-10993460D02*
X14443753Y-10974412D01*
X14443753Y-10974412D02*
X14443753Y-10898222D01*
X14443753Y-10898222D02*
X14453277Y-10879174D01*
X14453277Y-10879174D02*
X14472325Y-10869650D01*
X14472325Y-10869650D02*
X14510420Y-10869650D01*
X14510420Y-10869650D02*
X14529468Y-10879174D01*
X14529468Y-10879174D02*
X14538991Y-10898222D01*
X14538991Y-10898222D02*
X14538991Y-10917270D01*
X14538991Y-10917270D02*
X14443753Y-10936317D01*
X14615182Y-10993460D02*
X14634230Y-11002984D01*
X14634230Y-11002984D02*
X14672325Y-11002984D01*
X14672325Y-11002984D02*
X14691372Y-10993460D01*
X14691372Y-10993460D02*
X14700896Y-10974412D01*
X14700896Y-10974412D02*
X14700896Y-10964889D01*
X14700896Y-10964889D02*
X14691372Y-10945841D01*
X14691372Y-10945841D02*
X14672325Y-10936317D01*
X14672325Y-10936317D02*
X14643753Y-10936317D01*
X14643753Y-10936317D02*
X14624706Y-10926793D01*
X14624706Y-10926793D02*
X14615182Y-10907746D01*
X14615182Y-10907746D02*
X14615182Y-10898222D01*
X14615182Y-10898222D02*
X14624706Y-10879174D01*
X14624706Y-10879174D02*
X14643753Y-10869650D01*
X14643753Y-10869650D02*
X14672325Y-10869650D01*
X14672325Y-10869650D02*
X14691372Y-10879174D01*
X14767563Y-11079174D02*
X14777087Y-11069650D01*
X14777087Y-11069650D02*
X14796134Y-11041079D01*
X14796134Y-11041079D02*
X14805658Y-11022031D01*
X14805658Y-11022031D02*
X14815182Y-10993460D01*
X14815182Y-10993460D02*
X14824706Y-10945841D01*
X14824706Y-10945841D02*
X14824706Y-10907746D01*
X14824706Y-10907746D02*
X14815182Y-10860127D01*
X14815182Y-10860127D02*
X14805658Y-10831555D01*
X14805658Y-10831555D02*
X14796134Y-10812508D01*
X14796134Y-10812508D02*
X14777087Y-10783936D01*
X14777087Y-10783936D02*
X14767563Y-10774412D01*
D12*
X9957500Y-11140500D02*
X9957500Y-11210500D01*
X9922500Y-11175500D02*
X9992500Y-11175500D01*
D11*
X10291372Y-11066984D02*
X10310420Y-11066984D01*
X10310420Y-11066984D02*
X10329467Y-11076508D01*
X10329467Y-11076508D02*
X10338991Y-11086031D01*
X10338991Y-11086031D02*
X10348515Y-11105079D01*
X10348515Y-11105079D02*
X10358039Y-11143174D01*
X10358039Y-11143174D02*
X10358039Y-11190793D01*
X10358039Y-11190793D02*
X10348515Y-11228888D01*
X10348515Y-11228888D02*
X10338991Y-11247936D01*
X10338991Y-11247936D02*
X10329467Y-11257460D01*
X10329467Y-11257460D02*
X10310420Y-11266984D01*
X10310420Y-11266984D02*
X10291372Y-11266984D01*
X10291372Y-11266984D02*
X10272324Y-11257460D01*
X10272324Y-11257460D02*
X10262801Y-11247936D01*
X10262801Y-11247936D02*
X10253277Y-11228888D01*
X10253277Y-11228888D02*
X10243753Y-11190793D01*
X10243753Y-11190793D02*
X10243753Y-11143174D01*
X10243753Y-11143174D02*
X10253277Y-11105079D01*
X10253277Y-11105079D02*
X10262801Y-11086031D01*
X10262801Y-11086031D02*
X10272324Y-11076508D01*
X10272324Y-11076508D02*
X10291372Y-11066984D01*
X10443753Y-11247936D02*
X10453277Y-11257460D01*
X10453277Y-11257460D02*
X10443753Y-11266984D01*
X10443753Y-11266984D02*
X10434229Y-11257460D01*
X10434229Y-11257460D02*
X10443753Y-11247936D01*
X10443753Y-11247936D02*
X10443753Y-11266984D01*
X10519944Y-11066984D02*
X10653277Y-11066984D01*
X10653277Y-11066984D02*
X10567563Y-11266984D01*
X10767563Y-11066984D02*
X10786610Y-11066984D01*
X10786610Y-11066984D02*
X10805658Y-11076508D01*
X10805658Y-11076508D02*
X10815182Y-11086031D01*
X10815182Y-11086031D02*
X10824705Y-11105079D01*
X10824705Y-11105079D02*
X10834229Y-11143174D01*
X10834229Y-11143174D02*
X10834229Y-11190793D01*
X10834229Y-11190793D02*
X10824705Y-11228888D01*
X10824705Y-11228888D02*
X10815182Y-11247936D01*
X10815182Y-11247936D02*
X10805658Y-11257460D01*
X10805658Y-11257460D02*
X10786610Y-11266984D01*
X10786610Y-11266984D02*
X10767563Y-11266984D01*
X10767563Y-11266984D02*
X10748515Y-11257460D01*
X10748515Y-11257460D02*
X10738991Y-11247936D01*
X10738991Y-11247936D02*
X10729467Y-11228888D01*
X10729467Y-11228888D02*
X10719944Y-11190793D01*
X10719944Y-11190793D02*
X10719944Y-11143174D01*
X10719944Y-11143174D02*
X10729467Y-11105079D01*
X10729467Y-11105079D02*
X10738991Y-11086031D01*
X10738991Y-11086031D02*
X10748515Y-11076508D01*
X10748515Y-11076508D02*
X10767563Y-11066984D01*
X10958039Y-11066984D02*
X10977086Y-11066984D01*
X10977086Y-11066984D02*
X10996134Y-11076508D01*
X10996134Y-11076508D02*
X11005658Y-11086031D01*
X11005658Y-11086031D02*
X11015182Y-11105079D01*
X11015182Y-11105079D02*
X11024705Y-11143174D01*
X11024705Y-11143174D02*
X11024705Y-11190793D01*
X11024705Y-11190793D02*
X11015182Y-11228888D01*
X11015182Y-11228888D02*
X11005658Y-11247936D01*
X11005658Y-11247936D02*
X10996134Y-11257460D01*
X10996134Y-11257460D02*
X10977086Y-11266984D01*
X10977086Y-11266984D02*
X10958039Y-11266984D01*
X10958039Y-11266984D02*
X10938991Y-11257460D01*
X10938991Y-11257460D02*
X10929467Y-11247936D01*
X10929467Y-11247936D02*
X10919944Y-11228888D01*
X10919944Y-11228888D02*
X10910420Y-11190793D01*
X10910420Y-11190793D02*
X10910420Y-11143174D01*
X10910420Y-11143174D02*
X10919944Y-11105079D01*
X10919944Y-11105079D02*
X10929467Y-11086031D01*
X10929467Y-11086031D02*
X10938991Y-11076508D01*
X10938991Y-11076508D02*
X10958039Y-11066984D01*
X11110420Y-11266984D02*
X11110420Y-11133650D01*
X11110420Y-11152698D02*
X11119944Y-11143174D01*
X11119944Y-11143174D02*
X11138991Y-11133650D01*
X11138991Y-11133650D02*
X11167563Y-11133650D01*
X11167563Y-11133650D02*
X11186610Y-11143174D01*
X11186610Y-11143174D02*
X11196134Y-11162222D01*
X11196134Y-11162222D02*
X11196134Y-11266984D01*
X11196134Y-11162222D02*
X11205658Y-11143174D01*
X11205658Y-11143174D02*
X11224705Y-11133650D01*
X11224705Y-11133650D02*
X11253277Y-11133650D01*
X11253277Y-11133650D02*
X11272324Y-11143174D01*
X11272324Y-11143174D02*
X11281848Y-11162222D01*
X11281848Y-11162222D02*
X11281848Y-11266984D01*
X11377086Y-11266984D02*
X11377086Y-11133650D01*
X11377086Y-11152698D02*
X11386610Y-11143174D01*
X11386610Y-11143174D02*
X11405658Y-11133650D01*
X11405658Y-11133650D02*
X11434229Y-11133650D01*
X11434229Y-11133650D02*
X11453277Y-11143174D01*
X11453277Y-11143174D02*
X11462801Y-11162222D01*
X11462801Y-11162222D02*
X11462801Y-11266984D01*
X11462801Y-11162222D02*
X11472324Y-11143174D01*
X11472324Y-11143174D02*
X11491372Y-11133650D01*
X11491372Y-11133650D02*
X11519943Y-11133650D01*
X11519943Y-11133650D02*
X11538991Y-11143174D01*
X11538991Y-11143174D02*
X11548515Y-11162222D01*
X11548515Y-11162222D02*
X11548515Y-11266984D01*
X11938991Y-11057460D02*
X11767563Y-11314603D01*
X12196134Y-11066984D02*
X12215182Y-11066984D01*
X12215182Y-11066984D02*
X12234229Y-11076508D01*
X12234229Y-11076508D02*
X12243753Y-11086031D01*
X12243753Y-11086031D02*
X12253277Y-11105079D01*
X12253277Y-11105079D02*
X12262801Y-11143174D01*
X12262801Y-11143174D02*
X12262801Y-11190793D01*
X12262801Y-11190793D02*
X12253277Y-11228888D01*
X12253277Y-11228888D02*
X12243753Y-11247936D01*
X12243753Y-11247936D02*
X12234229Y-11257460D01*
X12234229Y-11257460D02*
X12215182Y-11266984D01*
X12215182Y-11266984D02*
X12196134Y-11266984D01*
X12196134Y-11266984D02*
X12177086Y-11257460D01*
X12177086Y-11257460D02*
X12167563Y-11247936D01*
X12167563Y-11247936D02*
X12158039Y-11228888D01*
X12158039Y-11228888D02*
X12148515Y-11190793D01*
X12148515Y-11190793D02*
X12148515Y-11143174D01*
X12148515Y-11143174D02*
X12158039Y-11105079D01*
X12158039Y-11105079D02*
X12167563Y-11086031D01*
X12167563Y-11086031D02*
X12177086Y-11076508D01*
X12177086Y-11076508D02*
X12196134Y-11066984D01*
X12348515Y-11247936D02*
X12358039Y-11257460D01*
X12358039Y-11257460D02*
X12348515Y-11266984D01*
X12348515Y-11266984D02*
X12338991Y-11257460D01*
X12338991Y-11257460D02*
X12348515Y-11247936D01*
X12348515Y-11247936D02*
X12348515Y-11266984D01*
X12481848Y-11066984D02*
X12500896Y-11066984D01*
X12500896Y-11066984D02*
X12519944Y-11076508D01*
X12519944Y-11076508D02*
X12529467Y-11086031D01*
X12529467Y-11086031D02*
X12538991Y-11105079D01*
X12538991Y-11105079D02*
X12548515Y-11143174D01*
X12548515Y-11143174D02*
X12548515Y-11190793D01*
X12548515Y-11190793D02*
X12538991Y-11228888D01*
X12538991Y-11228888D02*
X12529467Y-11247936D01*
X12529467Y-11247936D02*
X12519944Y-11257460D01*
X12519944Y-11257460D02*
X12500896Y-11266984D01*
X12500896Y-11266984D02*
X12481848Y-11266984D01*
X12481848Y-11266984D02*
X12462801Y-11257460D01*
X12462801Y-11257460D02*
X12453277Y-11247936D01*
X12453277Y-11247936D02*
X12443753Y-11228888D01*
X12443753Y-11228888D02*
X12434229Y-11190793D01*
X12434229Y-11190793D02*
X12434229Y-11143174D01*
X12434229Y-11143174D02*
X12443753Y-11105079D01*
X12443753Y-11105079D02*
X12453277Y-11086031D01*
X12453277Y-11086031D02*
X12462801Y-11076508D01*
X12462801Y-11076508D02*
X12481848Y-11066984D01*
X12624706Y-11086031D02*
X12634229Y-11076508D01*
X12634229Y-11076508D02*
X12653277Y-11066984D01*
X12653277Y-11066984D02*
X12700896Y-11066984D01*
X12700896Y-11066984D02*
X12719944Y-11076508D01*
X12719944Y-11076508D02*
X12729467Y-11086031D01*
X12729467Y-11086031D02*
X12738991Y-11105079D01*
X12738991Y-11105079D02*
X12738991Y-11124127D01*
X12738991Y-11124127D02*
X12729467Y-11152698D01*
X12729467Y-11152698D02*
X12615182Y-11266984D01*
X12615182Y-11266984D02*
X12738991Y-11266984D01*
X12805658Y-11066984D02*
X12938991Y-11066984D01*
X12938991Y-11066984D02*
X12853277Y-11266984D01*
X13100896Y-11066984D02*
X13062801Y-11066984D01*
X13062801Y-11066984D02*
X13043753Y-11076508D01*
X13043753Y-11076508D02*
X13034229Y-11086031D01*
X13034229Y-11086031D02*
X13015182Y-11114603D01*
X13015182Y-11114603D02*
X13005658Y-11152698D01*
X13005658Y-11152698D02*
X13005658Y-11228888D01*
X13005658Y-11228888D02*
X13015182Y-11247936D01*
X13015182Y-11247936D02*
X13024706Y-11257460D01*
X13024706Y-11257460D02*
X13043753Y-11266984D01*
X13043753Y-11266984D02*
X13081848Y-11266984D01*
X13081848Y-11266984D02*
X13100896Y-11257460D01*
X13100896Y-11257460D02*
X13110420Y-11247936D01*
X13110420Y-11247936D02*
X13119944Y-11228888D01*
X13119944Y-11228888D02*
X13119944Y-11181270D01*
X13119944Y-11181270D02*
X13110420Y-11162222D01*
X13110420Y-11162222D02*
X13100896Y-11152698D01*
X13100896Y-11152698D02*
X13081848Y-11143174D01*
X13081848Y-11143174D02*
X13043753Y-11143174D01*
X13043753Y-11143174D02*
X13024706Y-11152698D01*
X13024706Y-11152698D02*
X13015182Y-11162222D01*
X13015182Y-11162222D02*
X13005658Y-11181270D01*
X13196134Y-11066984D02*
X13196134Y-11105079D01*
X13272325Y-11066984D02*
X13272325Y-11105079D01*
X13567563Y-11343174D02*
X13558039Y-11333650D01*
X13558039Y-11333650D02*
X13538991Y-11305079D01*
X13538991Y-11305079D02*
X13529468Y-11286031D01*
X13529468Y-11286031D02*
X13519944Y-11257460D01*
X13519944Y-11257460D02*
X13510420Y-11209841D01*
X13510420Y-11209841D02*
X13510420Y-11171746D01*
X13510420Y-11171746D02*
X13519944Y-11124127D01*
X13519944Y-11124127D02*
X13529468Y-11095555D01*
X13529468Y-11095555D02*
X13538991Y-11076508D01*
X13538991Y-11076508D02*
X13558039Y-11047936D01*
X13558039Y-11047936D02*
X13567563Y-11038412D01*
X13729468Y-11066984D02*
X13691372Y-11066984D01*
X13691372Y-11066984D02*
X13672325Y-11076508D01*
X13672325Y-11076508D02*
X13662801Y-11086031D01*
X13662801Y-11086031D02*
X13643753Y-11114603D01*
X13643753Y-11114603D02*
X13634229Y-11152698D01*
X13634229Y-11152698D02*
X13634229Y-11228888D01*
X13634229Y-11228888D02*
X13643753Y-11247936D01*
X13643753Y-11247936D02*
X13653277Y-11257460D01*
X13653277Y-11257460D02*
X13672325Y-11266984D01*
X13672325Y-11266984D02*
X13710420Y-11266984D01*
X13710420Y-11266984D02*
X13729468Y-11257460D01*
X13729468Y-11257460D02*
X13738991Y-11247936D01*
X13738991Y-11247936D02*
X13748515Y-11228888D01*
X13748515Y-11228888D02*
X13748515Y-11181270D01*
X13748515Y-11181270D02*
X13738991Y-11162222D01*
X13738991Y-11162222D02*
X13729468Y-11152698D01*
X13729468Y-11152698D02*
X13710420Y-11143174D01*
X13710420Y-11143174D02*
X13672325Y-11143174D01*
X13672325Y-11143174D02*
X13653277Y-11152698D01*
X13653277Y-11152698D02*
X13643753Y-11162222D01*
X13643753Y-11162222D02*
X13634229Y-11181270D01*
X13986610Y-11266984D02*
X13986610Y-11066984D01*
X14072325Y-11266984D02*
X14072325Y-11162222D01*
X14072325Y-11162222D02*
X14062801Y-11143174D01*
X14062801Y-11143174D02*
X14043753Y-11133650D01*
X14043753Y-11133650D02*
X14015182Y-11133650D01*
X14015182Y-11133650D02*
X13996134Y-11143174D01*
X13996134Y-11143174D02*
X13986610Y-11152698D01*
X14196134Y-11266984D02*
X14177087Y-11257460D01*
X14177087Y-11257460D02*
X14167563Y-11247936D01*
X14167563Y-11247936D02*
X14158039Y-11228888D01*
X14158039Y-11228888D02*
X14158039Y-11171746D01*
X14158039Y-11171746D02*
X14167563Y-11152698D01*
X14167563Y-11152698D02*
X14177087Y-11143174D01*
X14177087Y-11143174D02*
X14196134Y-11133650D01*
X14196134Y-11133650D02*
X14224706Y-11133650D01*
X14224706Y-11133650D02*
X14243753Y-11143174D01*
X14243753Y-11143174D02*
X14253277Y-11152698D01*
X14253277Y-11152698D02*
X14262801Y-11171746D01*
X14262801Y-11171746D02*
X14262801Y-11228888D01*
X14262801Y-11228888D02*
X14253277Y-11247936D01*
X14253277Y-11247936D02*
X14243753Y-11257460D01*
X14243753Y-11257460D02*
X14224706Y-11266984D01*
X14224706Y-11266984D02*
X14196134Y-11266984D01*
X14377087Y-11266984D02*
X14358039Y-11257460D01*
X14358039Y-11257460D02*
X14348515Y-11238412D01*
X14348515Y-11238412D02*
X14348515Y-11066984D01*
X14529468Y-11257460D02*
X14510420Y-11266984D01*
X14510420Y-11266984D02*
X14472325Y-11266984D01*
X14472325Y-11266984D02*
X14453277Y-11257460D01*
X14453277Y-11257460D02*
X14443753Y-11238412D01*
X14443753Y-11238412D02*
X14443753Y-11162222D01*
X14443753Y-11162222D02*
X14453277Y-11143174D01*
X14453277Y-11143174D02*
X14472325Y-11133650D01*
X14472325Y-11133650D02*
X14510420Y-11133650D01*
X14510420Y-11133650D02*
X14529468Y-11143174D01*
X14529468Y-11143174D02*
X14538991Y-11162222D01*
X14538991Y-11162222D02*
X14538991Y-11181270D01*
X14538991Y-11181270D02*
X14443753Y-11200317D01*
X14615182Y-11257460D02*
X14634230Y-11266984D01*
X14634230Y-11266984D02*
X14672325Y-11266984D01*
X14672325Y-11266984D02*
X14691372Y-11257460D01*
X14691372Y-11257460D02*
X14700896Y-11238412D01*
X14700896Y-11238412D02*
X14700896Y-11228888D01*
X14700896Y-11228888D02*
X14691372Y-11209841D01*
X14691372Y-11209841D02*
X14672325Y-11200317D01*
X14672325Y-11200317D02*
X14643753Y-11200317D01*
X14643753Y-11200317D02*
X14624706Y-11190793D01*
X14624706Y-11190793D02*
X14615182Y-11171746D01*
X14615182Y-11171746D02*
X14615182Y-11162222D01*
X14615182Y-11162222D02*
X14624706Y-11143174D01*
X14624706Y-11143174D02*
X14643753Y-11133650D01*
X14643753Y-11133650D02*
X14672325Y-11133650D01*
X14672325Y-11133650D02*
X14691372Y-11143174D01*
X14767563Y-11343174D02*
X14777087Y-11333650D01*
X14777087Y-11333650D02*
X14796134Y-11305079D01*
X14796134Y-11305079D02*
X14805658Y-11286031D01*
X14805658Y-11286031D02*
X14815182Y-11257460D01*
X14815182Y-11257460D02*
X14824706Y-11209841D01*
X14824706Y-11209841D02*
X14824706Y-11171746D01*
X14824706Y-11171746D02*
X14815182Y-11124127D01*
X14815182Y-11124127D02*
X14805658Y-11095555D01*
X14805658Y-11095555D02*
X14796134Y-11076508D01*
X14796134Y-11076508D02*
X14777087Y-11047936D01*
X14777087Y-11047936D02*
X14767563Y-11038412D01*
D12*
X9980931Y-11467431D02*
X9980931Y-11411569D01*
X9925069Y-11411569D01*
X9925069Y-11467431D01*
X9980931Y-11467431D01*
D11*
X10291372Y-11330984D02*
X10310420Y-11330984D01*
X10310420Y-11330984D02*
X10329467Y-11340508D01*
X10329467Y-11340508D02*
X10338991Y-11350031D01*
X10338991Y-11350031D02*
X10348515Y-11369079D01*
X10348515Y-11369079D02*
X10358039Y-11407174D01*
X10358039Y-11407174D02*
X10358039Y-11454793D01*
X10358039Y-11454793D02*
X10348515Y-11492888D01*
X10348515Y-11492888D02*
X10338991Y-11511936D01*
X10338991Y-11511936D02*
X10329467Y-11521460D01*
X10329467Y-11521460D02*
X10310420Y-11530984D01*
X10310420Y-11530984D02*
X10291372Y-11530984D01*
X10291372Y-11530984D02*
X10272324Y-11521460D01*
X10272324Y-11521460D02*
X10262801Y-11511936D01*
X10262801Y-11511936D02*
X10253277Y-11492888D01*
X10253277Y-11492888D02*
X10243753Y-11454793D01*
X10243753Y-11454793D02*
X10243753Y-11407174D01*
X10243753Y-11407174D02*
X10253277Y-11369079D01*
X10253277Y-11369079D02*
X10262801Y-11350031D01*
X10262801Y-11350031D02*
X10272324Y-11340508D01*
X10272324Y-11340508D02*
X10291372Y-11330984D01*
X10443753Y-11511936D02*
X10453277Y-11521460D01*
X10453277Y-11521460D02*
X10443753Y-11530984D01*
X10443753Y-11530984D02*
X10434229Y-11521460D01*
X10434229Y-11521460D02*
X10443753Y-11511936D01*
X10443753Y-11511936D02*
X10443753Y-11530984D01*
X10519944Y-11330984D02*
X10653277Y-11330984D01*
X10653277Y-11330984D02*
X10567563Y-11530984D01*
X10738991Y-11530984D02*
X10777086Y-11530984D01*
X10777086Y-11530984D02*
X10796134Y-11521460D01*
X10796134Y-11521460D02*
X10805658Y-11511936D01*
X10805658Y-11511936D02*
X10824705Y-11483365D01*
X10824705Y-11483365D02*
X10834229Y-11445269D01*
X10834229Y-11445269D02*
X10834229Y-11369079D01*
X10834229Y-11369079D02*
X10824705Y-11350031D01*
X10824705Y-11350031D02*
X10815182Y-11340508D01*
X10815182Y-11340508D02*
X10796134Y-11330984D01*
X10796134Y-11330984D02*
X10758039Y-11330984D01*
X10758039Y-11330984D02*
X10738991Y-11340508D01*
X10738991Y-11340508D02*
X10729467Y-11350031D01*
X10729467Y-11350031D02*
X10719944Y-11369079D01*
X10719944Y-11369079D02*
X10719944Y-11416698D01*
X10719944Y-11416698D02*
X10729467Y-11435746D01*
X10729467Y-11435746D02*
X10738991Y-11445269D01*
X10738991Y-11445269D02*
X10758039Y-11454793D01*
X10758039Y-11454793D02*
X10796134Y-11454793D01*
X10796134Y-11454793D02*
X10815182Y-11445269D01*
X10815182Y-11445269D02*
X10824705Y-11435746D01*
X10824705Y-11435746D02*
X10834229Y-11416698D01*
X10958039Y-11330984D02*
X10977086Y-11330984D01*
X10977086Y-11330984D02*
X10996134Y-11340508D01*
X10996134Y-11340508D02*
X11005658Y-11350031D01*
X11005658Y-11350031D02*
X11015182Y-11369079D01*
X11015182Y-11369079D02*
X11024705Y-11407174D01*
X11024705Y-11407174D02*
X11024705Y-11454793D01*
X11024705Y-11454793D02*
X11015182Y-11492888D01*
X11015182Y-11492888D02*
X11005658Y-11511936D01*
X11005658Y-11511936D02*
X10996134Y-11521460D01*
X10996134Y-11521460D02*
X10977086Y-11530984D01*
X10977086Y-11530984D02*
X10958039Y-11530984D01*
X10958039Y-11530984D02*
X10938991Y-11521460D01*
X10938991Y-11521460D02*
X10929467Y-11511936D01*
X10929467Y-11511936D02*
X10919944Y-11492888D01*
X10919944Y-11492888D02*
X10910420Y-11454793D01*
X10910420Y-11454793D02*
X10910420Y-11407174D01*
X10910420Y-11407174D02*
X10919944Y-11369079D01*
X10919944Y-11369079D02*
X10929467Y-11350031D01*
X10929467Y-11350031D02*
X10938991Y-11340508D01*
X10938991Y-11340508D02*
X10958039Y-11330984D01*
X11110420Y-11530984D02*
X11110420Y-11397650D01*
X11110420Y-11416698D02*
X11119944Y-11407174D01*
X11119944Y-11407174D02*
X11138991Y-11397650D01*
X11138991Y-11397650D02*
X11167563Y-11397650D01*
X11167563Y-11397650D02*
X11186610Y-11407174D01*
X11186610Y-11407174D02*
X11196134Y-11426222D01*
X11196134Y-11426222D02*
X11196134Y-11530984D01*
X11196134Y-11426222D02*
X11205658Y-11407174D01*
X11205658Y-11407174D02*
X11224705Y-11397650D01*
X11224705Y-11397650D02*
X11253277Y-11397650D01*
X11253277Y-11397650D02*
X11272324Y-11407174D01*
X11272324Y-11407174D02*
X11281848Y-11426222D01*
X11281848Y-11426222D02*
X11281848Y-11530984D01*
X11377086Y-11530984D02*
X11377086Y-11397650D01*
X11377086Y-11416698D02*
X11386610Y-11407174D01*
X11386610Y-11407174D02*
X11405658Y-11397650D01*
X11405658Y-11397650D02*
X11434229Y-11397650D01*
X11434229Y-11397650D02*
X11453277Y-11407174D01*
X11453277Y-11407174D02*
X11462801Y-11426222D01*
X11462801Y-11426222D02*
X11462801Y-11530984D01*
X11462801Y-11426222D02*
X11472324Y-11407174D01*
X11472324Y-11407174D02*
X11491372Y-11397650D01*
X11491372Y-11397650D02*
X11519943Y-11397650D01*
X11519943Y-11397650D02*
X11538991Y-11407174D01*
X11538991Y-11407174D02*
X11548515Y-11426222D01*
X11548515Y-11426222D02*
X11548515Y-11530984D01*
X11938991Y-11321460D02*
X11767563Y-11578603D01*
X12196134Y-11330984D02*
X12215182Y-11330984D01*
X12215182Y-11330984D02*
X12234229Y-11340508D01*
X12234229Y-11340508D02*
X12243753Y-11350031D01*
X12243753Y-11350031D02*
X12253277Y-11369079D01*
X12253277Y-11369079D02*
X12262801Y-11407174D01*
X12262801Y-11407174D02*
X12262801Y-11454793D01*
X12262801Y-11454793D02*
X12253277Y-11492888D01*
X12253277Y-11492888D02*
X12243753Y-11511936D01*
X12243753Y-11511936D02*
X12234229Y-11521460D01*
X12234229Y-11521460D02*
X12215182Y-11530984D01*
X12215182Y-11530984D02*
X12196134Y-11530984D01*
X12196134Y-11530984D02*
X12177086Y-11521460D01*
X12177086Y-11521460D02*
X12167563Y-11511936D01*
X12167563Y-11511936D02*
X12158039Y-11492888D01*
X12158039Y-11492888D02*
X12148515Y-11454793D01*
X12148515Y-11454793D02*
X12148515Y-11407174D01*
X12148515Y-11407174D02*
X12158039Y-11369079D01*
X12158039Y-11369079D02*
X12167563Y-11350031D01*
X12167563Y-11350031D02*
X12177086Y-11340508D01*
X12177086Y-11340508D02*
X12196134Y-11330984D01*
X12348515Y-11511936D02*
X12358039Y-11521460D01*
X12358039Y-11521460D02*
X12348515Y-11530984D01*
X12348515Y-11530984D02*
X12338991Y-11521460D01*
X12338991Y-11521460D02*
X12348515Y-11511936D01*
X12348515Y-11511936D02*
X12348515Y-11530984D01*
X12481848Y-11330984D02*
X12500896Y-11330984D01*
X12500896Y-11330984D02*
X12519944Y-11340508D01*
X12519944Y-11340508D02*
X12529467Y-11350031D01*
X12529467Y-11350031D02*
X12538991Y-11369079D01*
X12538991Y-11369079D02*
X12548515Y-11407174D01*
X12548515Y-11407174D02*
X12548515Y-11454793D01*
X12548515Y-11454793D02*
X12538991Y-11492888D01*
X12538991Y-11492888D02*
X12529467Y-11511936D01*
X12529467Y-11511936D02*
X12519944Y-11521460D01*
X12519944Y-11521460D02*
X12500896Y-11530984D01*
X12500896Y-11530984D02*
X12481848Y-11530984D01*
X12481848Y-11530984D02*
X12462801Y-11521460D01*
X12462801Y-11521460D02*
X12453277Y-11511936D01*
X12453277Y-11511936D02*
X12443753Y-11492888D01*
X12443753Y-11492888D02*
X12434229Y-11454793D01*
X12434229Y-11454793D02*
X12434229Y-11407174D01*
X12434229Y-11407174D02*
X12443753Y-11369079D01*
X12443753Y-11369079D02*
X12453277Y-11350031D01*
X12453277Y-11350031D02*
X12462801Y-11340508D01*
X12462801Y-11340508D02*
X12481848Y-11330984D01*
X12615182Y-11330984D02*
X12738991Y-11330984D01*
X12738991Y-11330984D02*
X12672325Y-11407174D01*
X12672325Y-11407174D02*
X12700896Y-11407174D01*
X12700896Y-11407174D02*
X12719944Y-11416698D01*
X12719944Y-11416698D02*
X12729467Y-11426222D01*
X12729467Y-11426222D02*
X12738991Y-11445269D01*
X12738991Y-11445269D02*
X12738991Y-11492888D01*
X12738991Y-11492888D02*
X12729467Y-11511936D01*
X12729467Y-11511936D02*
X12719944Y-11521460D01*
X12719944Y-11521460D02*
X12700896Y-11530984D01*
X12700896Y-11530984D02*
X12643753Y-11530984D01*
X12643753Y-11530984D02*
X12624706Y-11521460D01*
X12624706Y-11521460D02*
X12615182Y-11511936D01*
X12929467Y-11530984D02*
X12815182Y-11530984D01*
X12872325Y-11530984D02*
X12872325Y-11330984D01*
X12872325Y-11330984D02*
X12853277Y-11359555D01*
X12853277Y-11359555D02*
X12834229Y-11378603D01*
X12834229Y-11378603D02*
X12815182Y-11388127D01*
X13119944Y-11530984D02*
X13005658Y-11530984D01*
X13062801Y-11530984D02*
X13062801Y-11330984D01*
X13062801Y-11330984D02*
X13043753Y-11359555D01*
X13043753Y-11359555D02*
X13024706Y-11378603D01*
X13024706Y-11378603D02*
X13005658Y-11388127D01*
X13196134Y-11330984D02*
X13196134Y-11369079D01*
X13272325Y-11330984D02*
X13272325Y-11369079D01*
X13567563Y-11607174D02*
X13558039Y-11597650D01*
X13558039Y-11597650D02*
X13538991Y-11569079D01*
X13538991Y-11569079D02*
X13529468Y-11550031D01*
X13529468Y-11550031D02*
X13519944Y-11521460D01*
X13519944Y-11521460D02*
X13510420Y-11473841D01*
X13510420Y-11473841D02*
X13510420Y-11435746D01*
X13510420Y-11435746D02*
X13519944Y-11388127D01*
X13519944Y-11388127D02*
X13529468Y-11359555D01*
X13529468Y-11359555D02*
X13538991Y-11340508D01*
X13538991Y-11340508D02*
X13558039Y-11311936D01*
X13558039Y-11311936D02*
X13567563Y-11302412D01*
X13738991Y-11330984D02*
X13643753Y-11330984D01*
X13643753Y-11330984D02*
X13634229Y-11426222D01*
X13634229Y-11426222D02*
X13643753Y-11416698D01*
X13643753Y-11416698D02*
X13662801Y-11407174D01*
X13662801Y-11407174D02*
X13710420Y-11407174D01*
X13710420Y-11407174D02*
X13729468Y-11416698D01*
X13729468Y-11416698D02*
X13738991Y-11426222D01*
X13738991Y-11426222D02*
X13748515Y-11445269D01*
X13748515Y-11445269D02*
X13748515Y-11492888D01*
X13748515Y-11492888D02*
X13738991Y-11511936D01*
X13738991Y-11511936D02*
X13729468Y-11521460D01*
X13729468Y-11521460D02*
X13710420Y-11530984D01*
X13710420Y-11530984D02*
X13662801Y-11530984D01*
X13662801Y-11530984D02*
X13643753Y-11521460D01*
X13643753Y-11521460D02*
X13634229Y-11511936D01*
X13815182Y-11330984D02*
X13948515Y-11330984D01*
X13948515Y-11330984D02*
X13862801Y-11530984D01*
X14177087Y-11530984D02*
X14177087Y-11330984D01*
X14262801Y-11530984D02*
X14262801Y-11426222D01*
X14262801Y-11426222D02*
X14253277Y-11407174D01*
X14253277Y-11407174D02*
X14234230Y-11397650D01*
X14234230Y-11397650D02*
X14205658Y-11397650D01*
X14205658Y-11397650D02*
X14186610Y-11407174D01*
X14186610Y-11407174D02*
X14177087Y-11416698D01*
X14386610Y-11530984D02*
X14367563Y-11521460D01*
X14367563Y-11521460D02*
X14358039Y-11511936D01*
X14358039Y-11511936D02*
X14348515Y-11492888D01*
X14348515Y-11492888D02*
X14348515Y-11435746D01*
X14348515Y-11435746D02*
X14358039Y-11416698D01*
X14358039Y-11416698D02*
X14367563Y-11407174D01*
X14367563Y-11407174D02*
X14386610Y-11397650D01*
X14386610Y-11397650D02*
X14415182Y-11397650D01*
X14415182Y-11397650D02*
X14434230Y-11407174D01*
X14434230Y-11407174D02*
X14443753Y-11416698D01*
X14443753Y-11416698D02*
X14453277Y-11435746D01*
X14453277Y-11435746D02*
X14453277Y-11492888D01*
X14453277Y-11492888D02*
X14443753Y-11511936D01*
X14443753Y-11511936D02*
X14434230Y-11521460D01*
X14434230Y-11521460D02*
X14415182Y-11530984D01*
X14415182Y-11530984D02*
X14386610Y-11530984D01*
X14567563Y-11530984D02*
X14548515Y-11521460D01*
X14548515Y-11521460D02*
X14538991Y-11502412D01*
X14538991Y-11502412D02*
X14538991Y-11330984D01*
X14719944Y-11521460D02*
X14700896Y-11530984D01*
X14700896Y-11530984D02*
X14662801Y-11530984D01*
X14662801Y-11530984D02*
X14643753Y-11521460D01*
X14643753Y-11521460D02*
X14634230Y-11502412D01*
X14634230Y-11502412D02*
X14634230Y-11426222D01*
X14634230Y-11426222D02*
X14643753Y-11407174D01*
X14643753Y-11407174D02*
X14662801Y-11397650D01*
X14662801Y-11397650D02*
X14700896Y-11397650D01*
X14700896Y-11397650D02*
X14719944Y-11407174D01*
X14719944Y-11407174D02*
X14729468Y-11426222D01*
X14729468Y-11426222D02*
X14729468Y-11445269D01*
X14729468Y-11445269D02*
X14634230Y-11464317D01*
X14805658Y-11521460D02*
X14824706Y-11530984D01*
X14824706Y-11530984D02*
X14862801Y-11530984D01*
X14862801Y-11530984D02*
X14881849Y-11521460D01*
X14881849Y-11521460D02*
X14891372Y-11502412D01*
X14891372Y-11502412D02*
X14891372Y-11492888D01*
X14891372Y-11492888D02*
X14881849Y-11473841D01*
X14881849Y-11473841D02*
X14862801Y-11464317D01*
X14862801Y-11464317D02*
X14834230Y-11464317D01*
X14834230Y-11464317D02*
X14815182Y-11454793D01*
X14815182Y-11454793D02*
X14805658Y-11435746D01*
X14805658Y-11435746D02*
X14805658Y-11426222D01*
X14805658Y-11426222D02*
X14815182Y-11407174D01*
X14815182Y-11407174D02*
X14834230Y-11397650D01*
X14834230Y-11397650D02*
X14862801Y-11397650D01*
X14862801Y-11397650D02*
X14881849Y-11407174D01*
X14958039Y-11607174D02*
X14967563Y-11597650D01*
X14967563Y-11597650D02*
X14986611Y-11569079D01*
X14986611Y-11569079D02*
X14996134Y-11550031D01*
X14996134Y-11550031D02*
X15005658Y-11521460D01*
X15005658Y-11521460D02*
X15015182Y-11473841D01*
X15015182Y-11473841D02*
X15015182Y-11435746D01*
X15015182Y-11435746D02*
X15005658Y-11388127D01*
X15005658Y-11388127D02*
X14996134Y-11359555D01*
X14996134Y-11359555D02*
X14986611Y-11340508D01*
X14986611Y-11340508D02*
X14967563Y-11311936D01*
X14967563Y-11311936D02*
X14958039Y-11302412D01*
D12*
X9947500Y-11748500D02*
X9992500Y-11703500D01*
X9947500Y-11658500D01*
X9902500Y-11703500D01*
X9947500Y-11748500D01*
D11*
X10291372Y-11594984D02*
X10310420Y-11594984D01*
X10310420Y-11594984D02*
X10329467Y-11604508D01*
X10329467Y-11604508D02*
X10338991Y-11614031D01*
X10338991Y-11614031D02*
X10348515Y-11633079D01*
X10348515Y-11633079D02*
X10358039Y-11671174D01*
X10358039Y-11671174D02*
X10358039Y-11718793D01*
X10358039Y-11718793D02*
X10348515Y-11756888D01*
X10348515Y-11756888D02*
X10338991Y-11775936D01*
X10338991Y-11775936D02*
X10329467Y-11785460D01*
X10329467Y-11785460D02*
X10310420Y-11794984D01*
X10310420Y-11794984D02*
X10291372Y-11794984D01*
X10291372Y-11794984D02*
X10272324Y-11785460D01*
X10272324Y-11785460D02*
X10262801Y-11775936D01*
X10262801Y-11775936D02*
X10253277Y-11756888D01*
X10253277Y-11756888D02*
X10243753Y-11718793D01*
X10243753Y-11718793D02*
X10243753Y-11671174D01*
X10243753Y-11671174D02*
X10253277Y-11633079D01*
X10253277Y-11633079D02*
X10262801Y-11614031D01*
X10262801Y-11614031D02*
X10272324Y-11604508D01*
X10272324Y-11604508D02*
X10291372Y-11594984D01*
X10443753Y-11775936D02*
X10453277Y-11785460D01*
X10453277Y-11785460D02*
X10443753Y-11794984D01*
X10443753Y-11794984D02*
X10434229Y-11785460D01*
X10434229Y-11785460D02*
X10443753Y-11775936D01*
X10443753Y-11775936D02*
X10443753Y-11794984D01*
X10548515Y-11794984D02*
X10586610Y-11794984D01*
X10586610Y-11794984D02*
X10605658Y-11785460D01*
X10605658Y-11785460D02*
X10615182Y-11775936D01*
X10615182Y-11775936D02*
X10634229Y-11747365D01*
X10634229Y-11747365D02*
X10643753Y-11709269D01*
X10643753Y-11709269D02*
X10643753Y-11633079D01*
X10643753Y-11633079D02*
X10634229Y-11614031D01*
X10634229Y-11614031D02*
X10624705Y-11604508D01*
X10624705Y-11604508D02*
X10605658Y-11594984D01*
X10605658Y-11594984D02*
X10567563Y-11594984D01*
X10567563Y-11594984D02*
X10548515Y-11604508D01*
X10548515Y-11604508D02*
X10538991Y-11614031D01*
X10538991Y-11614031D02*
X10529467Y-11633079D01*
X10529467Y-11633079D02*
X10529467Y-11680698D01*
X10529467Y-11680698D02*
X10538991Y-11699746D01*
X10538991Y-11699746D02*
X10548515Y-11709269D01*
X10548515Y-11709269D02*
X10567563Y-11718793D01*
X10567563Y-11718793D02*
X10605658Y-11718793D01*
X10605658Y-11718793D02*
X10624705Y-11709269D01*
X10624705Y-11709269D02*
X10634229Y-11699746D01*
X10634229Y-11699746D02*
X10643753Y-11680698D01*
X10767563Y-11594984D02*
X10786610Y-11594984D01*
X10786610Y-11594984D02*
X10805658Y-11604508D01*
X10805658Y-11604508D02*
X10815182Y-11614031D01*
X10815182Y-11614031D02*
X10824705Y-11633079D01*
X10824705Y-11633079D02*
X10834229Y-11671174D01*
X10834229Y-11671174D02*
X10834229Y-11718793D01*
X10834229Y-11718793D02*
X10824705Y-11756888D01*
X10824705Y-11756888D02*
X10815182Y-11775936D01*
X10815182Y-11775936D02*
X10805658Y-11785460D01*
X10805658Y-11785460D02*
X10786610Y-11794984D01*
X10786610Y-11794984D02*
X10767563Y-11794984D01*
X10767563Y-11794984D02*
X10748515Y-11785460D01*
X10748515Y-11785460D02*
X10738991Y-11775936D01*
X10738991Y-11775936D02*
X10729467Y-11756888D01*
X10729467Y-11756888D02*
X10719944Y-11718793D01*
X10719944Y-11718793D02*
X10719944Y-11671174D01*
X10719944Y-11671174D02*
X10729467Y-11633079D01*
X10729467Y-11633079D02*
X10738991Y-11614031D01*
X10738991Y-11614031D02*
X10748515Y-11604508D01*
X10748515Y-11604508D02*
X10767563Y-11594984D01*
X10958039Y-11594984D02*
X10977086Y-11594984D01*
X10977086Y-11594984D02*
X10996134Y-11604508D01*
X10996134Y-11604508D02*
X11005658Y-11614031D01*
X11005658Y-11614031D02*
X11015182Y-11633079D01*
X11015182Y-11633079D02*
X11024705Y-11671174D01*
X11024705Y-11671174D02*
X11024705Y-11718793D01*
X11024705Y-11718793D02*
X11015182Y-11756888D01*
X11015182Y-11756888D02*
X11005658Y-11775936D01*
X11005658Y-11775936D02*
X10996134Y-11785460D01*
X10996134Y-11785460D02*
X10977086Y-11794984D01*
X10977086Y-11794984D02*
X10958039Y-11794984D01*
X10958039Y-11794984D02*
X10938991Y-11785460D01*
X10938991Y-11785460D02*
X10929467Y-11775936D01*
X10929467Y-11775936D02*
X10919944Y-11756888D01*
X10919944Y-11756888D02*
X10910420Y-11718793D01*
X10910420Y-11718793D02*
X10910420Y-11671174D01*
X10910420Y-11671174D02*
X10919944Y-11633079D01*
X10919944Y-11633079D02*
X10929467Y-11614031D01*
X10929467Y-11614031D02*
X10938991Y-11604508D01*
X10938991Y-11604508D02*
X10958039Y-11594984D01*
X11110420Y-11794984D02*
X11110420Y-11661650D01*
X11110420Y-11680698D02*
X11119944Y-11671174D01*
X11119944Y-11671174D02*
X11138991Y-11661650D01*
X11138991Y-11661650D02*
X11167563Y-11661650D01*
X11167563Y-11661650D02*
X11186610Y-11671174D01*
X11186610Y-11671174D02*
X11196134Y-11690222D01*
X11196134Y-11690222D02*
X11196134Y-11794984D01*
X11196134Y-11690222D02*
X11205658Y-11671174D01*
X11205658Y-11671174D02*
X11224705Y-11661650D01*
X11224705Y-11661650D02*
X11253277Y-11661650D01*
X11253277Y-11661650D02*
X11272324Y-11671174D01*
X11272324Y-11671174D02*
X11281848Y-11690222D01*
X11281848Y-11690222D02*
X11281848Y-11794984D01*
X11377086Y-11794984D02*
X11377086Y-11661650D01*
X11377086Y-11680698D02*
X11386610Y-11671174D01*
X11386610Y-11671174D02*
X11405658Y-11661650D01*
X11405658Y-11661650D02*
X11434229Y-11661650D01*
X11434229Y-11661650D02*
X11453277Y-11671174D01*
X11453277Y-11671174D02*
X11462801Y-11690222D01*
X11462801Y-11690222D02*
X11462801Y-11794984D01*
X11462801Y-11690222D02*
X11472324Y-11671174D01*
X11472324Y-11671174D02*
X11491372Y-11661650D01*
X11491372Y-11661650D02*
X11519943Y-11661650D01*
X11519943Y-11661650D02*
X11538991Y-11671174D01*
X11538991Y-11671174D02*
X11548515Y-11690222D01*
X11548515Y-11690222D02*
X11548515Y-11794984D01*
X11938991Y-11585460D02*
X11767563Y-11842603D01*
X12196134Y-11594984D02*
X12215182Y-11594984D01*
X12215182Y-11594984D02*
X12234229Y-11604508D01*
X12234229Y-11604508D02*
X12243753Y-11614031D01*
X12243753Y-11614031D02*
X12253277Y-11633079D01*
X12253277Y-11633079D02*
X12262801Y-11671174D01*
X12262801Y-11671174D02*
X12262801Y-11718793D01*
X12262801Y-11718793D02*
X12253277Y-11756888D01*
X12253277Y-11756888D02*
X12243753Y-11775936D01*
X12243753Y-11775936D02*
X12234229Y-11785460D01*
X12234229Y-11785460D02*
X12215182Y-11794984D01*
X12215182Y-11794984D02*
X12196134Y-11794984D01*
X12196134Y-11794984D02*
X12177086Y-11785460D01*
X12177086Y-11785460D02*
X12167563Y-11775936D01*
X12167563Y-11775936D02*
X12158039Y-11756888D01*
X12158039Y-11756888D02*
X12148515Y-11718793D01*
X12148515Y-11718793D02*
X12148515Y-11671174D01*
X12148515Y-11671174D02*
X12158039Y-11633079D01*
X12158039Y-11633079D02*
X12167563Y-11614031D01*
X12167563Y-11614031D02*
X12177086Y-11604508D01*
X12177086Y-11604508D02*
X12196134Y-11594984D01*
X12348515Y-11775936D02*
X12358039Y-11785460D01*
X12358039Y-11785460D02*
X12348515Y-11794984D01*
X12348515Y-11794984D02*
X12338991Y-11785460D01*
X12338991Y-11785460D02*
X12348515Y-11775936D01*
X12348515Y-11775936D02*
X12348515Y-11794984D01*
X12481848Y-11594984D02*
X12500896Y-11594984D01*
X12500896Y-11594984D02*
X12519944Y-11604508D01*
X12519944Y-11604508D02*
X12529467Y-11614031D01*
X12529467Y-11614031D02*
X12538991Y-11633079D01*
X12538991Y-11633079D02*
X12548515Y-11671174D01*
X12548515Y-11671174D02*
X12548515Y-11718793D01*
X12548515Y-11718793D02*
X12538991Y-11756888D01*
X12538991Y-11756888D02*
X12529467Y-11775936D01*
X12529467Y-11775936D02*
X12519944Y-11785460D01*
X12519944Y-11785460D02*
X12500896Y-11794984D01*
X12500896Y-11794984D02*
X12481848Y-11794984D01*
X12481848Y-11794984D02*
X12462801Y-11785460D01*
X12462801Y-11785460D02*
X12453277Y-11775936D01*
X12453277Y-11775936D02*
X12443753Y-11756888D01*
X12443753Y-11756888D02*
X12434229Y-11718793D01*
X12434229Y-11718793D02*
X12434229Y-11671174D01*
X12434229Y-11671174D02*
X12443753Y-11633079D01*
X12443753Y-11633079D02*
X12453277Y-11614031D01*
X12453277Y-11614031D02*
X12462801Y-11604508D01*
X12462801Y-11604508D02*
X12481848Y-11594984D01*
X12615182Y-11594984D02*
X12738991Y-11594984D01*
X12738991Y-11594984D02*
X12672325Y-11671174D01*
X12672325Y-11671174D02*
X12700896Y-11671174D01*
X12700896Y-11671174D02*
X12719944Y-11680698D01*
X12719944Y-11680698D02*
X12729467Y-11690222D01*
X12729467Y-11690222D02*
X12738991Y-11709269D01*
X12738991Y-11709269D02*
X12738991Y-11756888D01*
X12738991Y-11756888D02*
X12729467Y-11775936D01*
X12729467Y-11775936D02*
X12719944Y-11785460D01*
X12719944Y-11785460D02*
X12700896Y-11794984D01*
X12700896Y-11794984D02*
X12643753Y-11794984D01*
X12643753Y-11794984D02*
X12624706Y-11785460D01*
X12624706Y-11785460D02*
X12615182Y-11775936D01*
X12919944Y-11594984D02*
X12824706Y-11594984D01*
X12824706Y-11594984D02*
X12815182Y-11690222D01*
X12815182Y-11690222D02*
X12824706Y-11680698D01*
X12824706Y-11680698D02*
X12843753Y-11671174D01*
X12843753Y-11671174D02*
X12891372Y-11671174D01*
X12891372Y-11671174D02*
X12910420Y-11680698D01*
X12910420Y-11680698D02*
X12919944Y-11690222D01*
X12919944Y-11690222D02*
X12929467Y-11709269D01*
X12929467Y-11709269D02*
X12929467Y-11756888D01*
X12929467Y-11756888D02*
X12919944Y-11775936D01*
X12919944Y-11775936D02*
X12910420Y-11785460D01*
X12910420Y-11785460D02*
X12891372Y-11794984D01*
X12891372Y-11794984D02*
X12843753Y-11794984D01*
X12843753Y-11794984D02*
X12824706Y-11785460D01*
X12824706Y-11785460D02*
X12815182Y-11775936D01*
X13100896Y-11661650D02*
X13100896Y-11794984D01*
X13053277Y-11585460D02*
X13005658Y-11728317D01*
X13005658Y-11728317D02*
X13129467Y-11728317D01*
X13196134Y-11594984D02*
X13196134Y-11633079D01*
X13272325Y-11594984D02*
X13272325Y-11633079D01*
X13567563Y-11871174D02*
X13558039Y-11861650D01*
X13558039Y-11861650D02*
X13538991Y-11833079D01*
X13538991Y-11833079D02*
X13529468Y-11814031D01*
X13529468Y-11814031D02*
X13519944Y-11785460D01*
X13519944Y-11785460D02*
X13510420Y-11737841D01*
X13510420Y-11737841D02*
X13510420Y-11699746D01*
X13510420Y-11699746D02*
X13519944Y-11652127D01*
X13519944Y-11652127D02*
X13529468Y-11623555D01*
X13529468Y-11623555D02*
X13538991Y-11604508D01*
X13538991Y-11604508D02*
X13558039Y-11575936D01*
X13558039Y-11575936D02*
X13567563Y-11566412D01*
X13729468Y-11661650D02*
X13729468Y-11794984D01*
X13681848Y-11585460D02*
X13634229Y-11728317D01*
X13634229Y-11728317D02*
X13758039Y-11728317D01*
X13986610Y-11794984D02*
X13986610Y-11594984D01*
X14072325Y-11794984D02*
X14072325Y-11690222D01*
X14072325Y-11690222D02*
X14062801Y-11671174D01*
X14062801Y-11671174D02*
X14043753Y-11661650D01*
X14043753Y-11661650D02*
X14015182Y-11661650D01*
X14015182Y-11661650D02*
X13996134Y-11671174D01*
X13996134Y-11671174D02*
X13986610Y-11680698D01*
X14196134Y-11794984D02*
X14177087Y-11785460D01*
X14177087Y-11785460D02*
X14167563Y-11775936D01*
X14167563Y-11775936D02*
X14158039Y-11756888D01*
X14158039Y-11756888D02*
X14158039Y-11699746D01*
X14158039Y-11699746D02*
X14167563Y-11680698D01*
X14167563Y-11680698D02*
X14177087Y-11671174D01*
X14177087Y-11671174D02*
X14196134Y-11661650D01*
X14196134Y-11661650D02*
X14224706Y-11661650D01*
X14224706Y-11661650D02*
X14243753Y-11671174D01*
X14243753Y-11671174D02*
X14253277Y-11680698D01*
X14253277Y-11680698D02*
X14262801Y-11699746D01*
X14262801Y-11699746D02*
X14262801Y-11756888D01*
X14262801Y-11756888D02*
X14253277Y-11775936D01*
X14253277Y-11775936D02*
X14243753Y-11785460D01*
X14243753Y-11785460D02*
X14224706Y-11794984D01*
X14224706Y-11794984D02*
X14196134Y-11794984D01*
X14377087Y-11794984D02*
X14358039Y-11785460D01*
X14358039Y-11785460D02*
X14348515Y-11766412D01*
X14348515Y-11766412D02*
X14348515Y-11594984D01*
X14529468Y-11785460D02*
X14510420Y-11794984D01*
X14510420Y-11794984D02*
X14472325Y-11794984D01*
X14472325Y-11794984D02*
X14453277Y-11785460D01*
X14453277Y-11785460D02*
X14443753Y-11766412D01*
X14443753Y-11766412D02*
X14443753Y-11690222D01*
X14443753Y-11690222D02*
X14453277Y-11671174D01*
X14453277Y-11671174D02*
X14472325Y-11661650D01*
X14472325Y-11661650D02*
X14510420Y-11661650D01*
X14510420Y-11661650D02*
X14529468Y-11671174D01*
X14529468Y-11671174D02*
X14538991Y-11690222D01*
X14538991Y-11690222D02*
X14538991Y-11709269D01*
X14538991Y-11709269D02*
X14443753Y-11728317D01*
X14615182Y-11785460D02*
X14634230Y-11794984D01*
X14634230Y-11794984D02*
X14672325Y-11794984D01*
X14672325Y-11794984D02*
X14691372Y-11785460D01*
X14691372Y-11785460D02*
X14700896Y-11766412D01*
X14700896Y-11766412D02*
X14700896Y-11756888D01*
X14700896Y-11756888D02*
X14691372Y-11737841D01*
X14691372Y-11737841D02*
X14672325Y-11728317D01*
X14672325Y-11728317D02*
X14643753Y-11728317D01*
X14643753Y-11728317D02*
X14624706Y-11718793D01*
X14624706Y-11718793D02*
X14615182Y-11699746D01*
X14615182Y-11699746D02*
X14615182Y-11690222D01*
X14615182Y-11690222D02*
X14624706Y-11671174D01*
X14624706Y-11671174D02*
X14643753Y-11661650D01*
X14643753Y-11661650D02*
X14672325Y-11661650D01*
X14672325Y-11661650D02*
X14691372Y-11671174D01*
X14767563Y-11871174D02*
X14777087Y-11861650D01*
X14777087Y-11861650D02*
X14796134Y-11833079D01*
X14796134Y-11833079D02*
X14805658Y-11814031D01*
X14805658Y-11814031D02*
X14815182Y-11785460D01*
X14815182Y-11785460D02*
X14824706Y-11737841D01*
X14824706Y-11737841D02*
X14824706Y-11699746D01*
X14824706Y-11699746D02*
X14815182Y-11652127D01*
X14815182Y-11652127D02*
X14805658Y-11623555D01*
X14805658Y-11623555D02*
X14796134Y-11604508D01*
X14796134Y-11604508D02*
X14777087Y-11575936D01*
X14777087Y-11575936D02*
X14767563Y-11566412D01*
D12*
X9892500Y-11917500D02*
X9992500Y-12017500D01*
X9992500Y-11917500D02*
X9892500Y-12017500D01*
X9992500Y-11967500D02*
G75*
G02*
X9892500Y-11967500I-50000J0D01*
G01*
X9892500Y-11967500D02*
G75*
G02*
X9992500Y-11967500I50000J0D01*
G01*
D11*
X10358039Y-12058984D02*
X10243753Y-12058984D01*
X10300896Y-12058984D02*
X10300896Y-11858984D01*
X10300896Y-11858984D02*
X10281848Y-11887555D01*
X10281848Y-11887555D02*
X10262801Y-11906603D01*
X10262801Y-11906603D02*
X10243753Y-11916127D01*
X10443753Y-12039936D02*
X10453277Y-12049460D01*
X10453277Y-12049460D02*
X10443753Y-12058984D01*
X10443753Y-12058984D02*
X10434229Y-12049460D01*
X10434229Y-12049460D02*
X10443753Y-12039936D01*
X10443753Y-12039936D02*
X10443753Y-12058984D01*
X10577086Y-11858984D02*
X10596134Y-11858984D01*
X10596134Y-11858984D02*
X10615182Y-11868508D01*
X10615182Y-11868508D02*
X10624705Y-11878031D01*
X10624705Y-11878031D02*
X10634229Y-11897079D01*
X10634229Y-11897079D02*
X10643753Y-11935174D01*
X10643753Y-11935174D02*
X10643753Y-11982793D01*
X10643753Y-11982793D02*
X10634229Y-12020888D01*
X10634229Y-12020888D02*
X10624705Y-12039936D01*
X10624705Y-12039936D02*
X10615182Y-12049460D01*
X10615182Y-12049460D02*
X10596134Y-12058984D01*
X10596134Y-12058984D02*
X10577086Y-12058984D01*
X10577086Y-12058984D02*
X10558039Y-12049460D01*
X10558039Y-12049460D02*
X10548515Y-12039936D01*
X10548515Y-12039936D02*
X10538991Y-12020888D01*
X10538991Y-12020888D02*
X10529467Y-11982793D01*
X10529467Y-11982793D02*
X10529467Y-11935174D01*
X10529467Y-11935174D02*
X10538991Y-11897079D01*
X10538991Y-11897079D02*
X10548515Y-11878031D01*
X10548515Y-11878031D02*
X10558039Y-11868508D01*
X10558039Y-11868508D02*
X10577086Y-11858984D01*
X10767563Y-11858984D02*
X10786610Y-11858984D01*
X10786610Y-11858984D02*
X10805658Y-11868508D01*
X10805658Y-11868508D02*
X10815182Y-11878031D01*
X10815182Y-11878031D02*
X10824705Y-11897079D01*
X10824705Y-11897079D02*
X10834229Y-11935174D01*
X10834229Y-11935174D02*
X10834229Y-11982793D01*
X10834229Y-11982793D02*
X10824705Y-12020888D01*
X10824705Y-12020888D02*
X10815182Y-12039936D01*
X10815182Y-12039936D02*
X10805658Y-12049460D01*
X10805658Y-12049460D02*
X10786610Y-12058984D01*
X10786610Y-12058984D02*
X10767563Y-12058984D01*
X10767563Y-12058984D02*
X10748515Y-12049460D01*
X10748515Y-12049460D02*
X10738991Y-12039936D01*
X10738991Y-12039936D02*
X10729467Y-12020888D01*
X10729467Y-12020888D02*
X10719944Y-11982793D01*
X10719944Y-11982793D02*
X10719944Y-11935174D01*
X10719944Y-11935174D02*
X10729467Y-11897079D01*
X10729467Y-11897079D02*
X10738991Y-11878031D01*
X10738991Y-11878031D02*
X10748515Y-11868508D01*
X10748515Y-11868508D02*
X10767563Y-11858984D01*
X10958039Y-11858984D02*
X10977086Y-11858984D01*
X10977086Y-11858984D02*
X10996134Y-11868508D01*
X10996134Y-11868508D02*
X11005658Y-11878031D01*
X11005658Y-11878031D02*
X11015182Y-11897079D01*
X11015182Y-11897079D02*
X11024705Y-11935174D01*
X11024705Y-11935174D02*
X11024705Y-11982793D01*
X11024705Y-11982793D02*
X11015182Y-12020888D01*
X11015182Y-12020888D02*
X11005658Y-12039936D01*
X11005658Y-12039936D02*
X10996134Y-12049460D01*
X10996134Y-12049460D02*
X10977086Y-12058984D01*
X10977086Y-12058984D02*
X10958039Y-12058984D01*
X10958039Y-12058984D02*
X10938991Y-12049460D01*
X10938991Y-12049460D02*
X10929467Y-12039936D01*
X10929467Y-12039936D02*
X10919944Y-12020888D01*
X10919944Y-12020888D02*
X10910420Y-11982793D01*
X10910420Y-11982793D02*
X10910420Y-11935174D01*
X10910420Y-11935174D02*
X10919944Y-11897079D01*
X10919944Y-11897079D02*
X10929467Y-11878031D01*
X10929467Y-11878031D02*
X10938991Y-11868508D01*
X10938991Y-11868508D02*
X10958039Y-11858984D01*
X11110420Y-12058984D02*
X11110420Y-11925650D01*
X11110420Y-11944698D02*
X11119944Y-11935174D01*
X11119944Y-11935174D02*
X11138991Y-11925650D01*
X11138991Y-11925650D02*
X11167563Y-11925650D01*
X11167563Y-11925650D02*
X11186610Y-11935174D01*
X11186610Y-11935174D02*
X11196134Y-11954222D01*
X11196134Y-11954222D02*
X11196134Y-12058984D01*
X11196134Y-11954222D02*
X11205658Y-11935174D01*
X11205658Y-11935174D02*
X11224705Y-11925650D01*
X11224705Y-11925650D02*
X11253277Y-11925650D01*
X11253277Y-11925650D02*
X11272324Y-11935174D01*
X11272324Y-11935174D02*
X11281848Y-11954222D01*
X11281848Y-11954222D02*
X11281848Y-12058984D01*
X11377086Y-12058984D02*
X11377086Y-11925650D01*
X11377086Y-11944698D02*
X11386610Y-11935174D01*
X11386610Y-11935174D02*
X11405658Y-11925650D01*
X11405658Y-11925650D02*
X11434229Y-11925650D01*
X11434229Y-11925650D02*
X11453277Y-11935174D01*
X11453277Y-11935174D02*
X11462801Y-11954222D01*
X11462801Y-11954222D02*
X11462801Y-12058984D01*
X11462801Y-11954222D02*
X11472324Y-11935174D01*
X11472324Y-11935174D02*
X11491372Y-11925650D01*
X11491372Y-11925650D02*
X11519943Y-11925650D01*
X11519943Y-11925650D02*
X11538991Y-11935174D01*
X11538991Y-11935174D02*
X11548515Y-11954222D01*
X11548515Y-11954222D02*
X11548515Y-12058984D01*
X11938991Y-11849460D02*
X11767563Y-12106603D01*
X12196134Y-11858984D02*
X12215182Y-11858984D01*
X12215182Y-11858984D02*
X12234229Y-11868508D01*
X12234229Y-11868508D02*
X12243753Y-11878031D01*
X12243753Y-11878031D02*
X12253277Y-11897079D01*
X12253277Y-11897079D02*
X12262801Y-11935174D01*
X12262801Y-11935174D02*
X12262801Y-11982793D01*
X12262801Y-11982793D02*
X12253277Y-12020888D01*
X12253277Y-12020888D02*
X12243753Y-12039936D01*
X12243753Y-12039936D02*
X12234229Y-12049460D01*
X12234229Y-12049460D02*
X12215182Y-12058984D01*
X12215182Y-12058984D02*
X12196134Y-12058984D01*
X12196134Y-12058984D02*
X12177086Y-12049460D01*
X12177086Y-12049460D02*
X12167563Y-12039936D01*
X12167563Y-12039936D02*
X12158039Y-12020888D01*
X12158039Y-12020888D02*
X12148515Y-11982793D01*
X12148515Y-11982793D02*
X12148515Y-11935174D01*
X12148515Y-11935174D02*
X12158039Y-11897079D01*
X12158039Y-11897079D02*
X12167563Y-11878031D01*
X12167563Y-11878031D02*
X12177086Y-11868508D01*
X12177086Y-11868508D02*
X12196134Y-11858984D01*
X12348515Y-12039936D02*
X12358039Y-12049460D01*
X12358039Y-12049460D02*
X12348515Y-12058984D01*
X12348515Y-12058984D02*
X12338991Y-12049460D01*
X12338991Y-12049460D02*
X12348515Y-12039936D01*
X12348515Y-12039936D02*
X12348515Y-12058984D01*
X12481848Y-11858984D02*
X12500896Y-11858984D01*
X12500896Y-11858984D02*
X12519944Y-11868508D01*
X12519944Y-11868508D02*
X12529467Y-11878031D01*
X12529467Y-11878031D02*
X12538991Y-11897079D01*
X12538991Y-11897079D02*
X12548515Y-11935174D01*
X12548515Y-11935174D02*
X12548515Y-11982793D01*
X12548515Y-11982793D02*
X12538991Y-12020888D01*
X12538991Y-12020888D02*
X12529467Y-12039936D01*
X12529467Y-12039936D02*
X12519944Y-12049460D01*
X12519944Y-12049460D02*
X12500896Y-12058984D01*
X12500896Y-12058984D02*
X12481848Y-12058984D01*
X12481848Y-12058984D02*
X12462801Y-12049460D01*
X12462801Y-12049460D02*
X12453277Y-12039936D01*
X12453277Y-12039936D02*
X12443753Y-12020888D01*
X12443753Y-12020888D02*
X12434229Y-11982793D01*
X12434229Y-11982793D02*
X12434229Y-11935174D01*
X12434229Y-11935174D02*
X12443753Y-11897079D01*
X12443753Y-11897079D02*
X12453277Y-11878031D01*
X12453277Y-11878031D02*
X12462801Y-11868508D01*
X12462801Y-11868508D02*
X12481848Y-11858984D01*
X12615182Y-11858984D02*
X12738991Y-11858984D01*
X12738991Y-11858984D02*
X12672325Y-11935174D01*
X12672325Y-11935174D02*
X12700896Y-11935174D01*
X12700896Y-11935174D02*
X12719944Y-11944698D01*
X12719944Y-11944698D02*
X12729467Y-11954222D01*
X12729467Y-11954222D02*
X12738991Y-11973269D01*
X12738991Y-11973269D02*
X12738991Y-12020888D01*
X12738991Y-12020888D02*
X12729467Y-12039936D01*
X12729467Y-12039936D02*
X12719944Y-12049460D01*
X12719944Y-12049460D02*
X12700896Y-12058984D01*
X12700896Y-12058984D02*
X12643753Y-12058984D01*
X12643753Y-12058984D02*
X12624706Y-12049460D01*
X12624706Y-12049460D02*
X12615182Y-12039936D01*
X12834229Y-12058984D02*
X12872325Y-12058984D01*
X12872325Y-12058984D02*
X12891372Y-12049460D01*
X12891372Y-12049460D02*
X12900896Y-12039936D01*
X12900896Y-12039936D02*
X12919944Y-12011365D01*
X12919944Y-12011365D02*
X12929467Y-11973269D01*
X12929467Y-11973269D02*
X12929467Y-11897079D01*
X12929467Y-11897079D02*
X12919944Y-11878031D01*
X12919944Y-11878031D02*
X12910420Y-11868508D01*
X12910420Y-11868508D02*
X12891372Y-11858984D01*
X12891372Y-11858984D02*
X12853277Y-11858984D01*
X12853277Y-11858984D02*
X12834229Y-11868508D01*
X12834229Y-11868508D02*
X12824706Y-11878031D01*
X12824706Y-11878031D02*
X12815182Y-11897079D01*
X12815182Y-11897079D02*
X12815182Y-11944698D01*
X12815182Y-11944698D02*
X12824706Y-11963746D01*
X12824706Y-11963746D02*
X12834229Y-11973269D01*
X12834229Y-11973269D02*
X12853277Y-11982793D01*
X12853277Y-11982793D02*
X12891372Y-11982793D01*
X12891372Y-11982793D02*
X12910420Y-11973269D01*
X12910420Y-11973269D02*
X12919944Y-11963746D01*
X12919944Y-11963746D02*
X12929467Y-11944698D01*
X13100896Y-11925650D02*
X13100896Y-12058984D01*
X13053277Y-11849460D02*
X13005658Y-11992317D01*
X13005658Y-11992317D02*
X13129467Y-11992317D01*
X13196134Y-11858984D02*
X13196134Y-11897079D01*
X13272325Y-11858984D02*
X13272325Y-11897079D01*
X13567563Y-12135174D02*
X13558039Y-12125650D01*
X13558039Y-12125650D02*
X13538991Y-12097079D01*
X13538991Y-12097079D02*
X13529468Y-12078031D01*
X13529468Y-12078031D02*
X13519944Y-12049460D01*
X13519944Y-12049460D02*
X13510420Y-12001841D01*
X13510420Y-12001841D02*
X13510420Y-11963746D01*
X13510420Y-11963746D02*
X13519944Y-11916127D01*
X13519944Y-11916127D02*
X13529468Y-11887555D01*
X13529468Y-11887555D02*
X13538991Y-11868508D01*
X13538991Y-11868508D02*
X13558039Y-11839936D01*
X13558039Y-11839936D02*
X13567563Y-11830412D01*
X13624706Y-11858984D02*
X13758039Y-11858984D01*
X13758039Y-11858984D02*
X13672325Y-12058984D01*
X13872325Y-11858984D02*
X13891372Y-11858984D01*
X13891372Y-11858984D02*
X13910420Y-11868508D01*
X13910420Y-11868508D02*
X13919944Y-11878031D01*
X13919944Y-11878031D02*
X13929468Y-11897079D01*
X13929468Y-11897079D02*
X13938991Y-11935174D01*
X13938991Y-11935174D02*
X13938991Y-11982793D01*
X13938991Y-11982793D02*
X13929468Y-12020888D01*
X13929468Y-12020888D02*
X13919944Y-12039936D01*
X13919944Y-12039936D02*
X13910420Y-12049460D01*
X13910420Y-12049460D02*
X13891372Y-12058984D01*
X13891372Y-12058984D02*
X13872325Y-12058984D01*
X13872325Y-12058984D02*
X13853277Y-12049460D01*
X13853277Y-12049460D02*
X13843753Y-12039936D01*
X13843753Y-12039936D02*
X13834229Y-12020888D01*
X13834229Y-12020888D02*
X13824706Y-11982793D01*
X13824706Y-11982793D02*
X13824706Y-11935174D01*
X13824706Y-11935174D02*
X13834229Y-11897079D01*
X13834229Y-11897079D02*
X13843753Y-11878031D01*
X13843753Y-11878031D02*
X13853277Y-11868508D01*
X13853277Y-11868508D02*
X13872325Y-11858984D01*
X14177087Y-12058984D02*
X14177087Y-11858984D01*
X14262801Y-12058984D02*
X14262801Y-11954222D01*
X14262801Y-11954222D02*
X14253277Y-11935174D01*
X14253277Y-11935174D02*
X14234230Y-11925650D01*
X14234230Y-11925650D02*
X14205658Y-11925650D01*
X14205658Y-11925650D02*
X14186610Y-11935174D01*
X14186610Y-11935174D02*
X14177087Y-11944698D01*
X14386610Y-12058984D02*
X14367563Y-12049460D01*
X14367563Y-12049460D02*
X14358039Y-12039936D01*
X14358039Y-12039936D02*
X14348515Y-12020888D01*
X14348515Y-12020888D02*
X14348515Y-11963746D01*
X14348515Y-11963746D02*
X14358039Y-11944698D01*
X14358039Y-11944698D02*
X14367563Y-11935174D01*
X14367563Y-11935174D02*
X14386610Y-11925650D01*
X14386610Y-11925650D02*
X14415182Y-11925650D01*
X14415182Y-11925650D02*
X14434230Y-11935174D01*
X14434230Y-11935174D02*
X14443753Y-11944698D01*
X14443753Y-11944698D02*
X14453277Y-11963746D01*
X14453277Y-11963746D02*
X14453277Y-12020888D01*
X14453277Y-12020888D02*
X14443753Y-12039936D01*
X14443753Y-12039936D02*
X14434230Y-12049460D01*
X14434230Y-12049460D02*
X14415182Y-12058984D01*
X14415182Y-12058984D02*
X14386610Y-12058984D01*
X14567563Y-12058984D02*
X14548515Y-12049460D01*
X14548515Y-12049460D02*
X14538991Y-12030412D01*
X14538991Y-12030412D02*
X14538991Y-11858984D01*
X14719944Y-12049460D02*
X14700896Y-12058984D01*
X14700896Y-12058984D02*
X14662801Y-12058984D01*
X14662801Y-12058984D02*
X14643753Y-12049460D01*
X14643753Y-12049460D02*
X14634230Y-12030412D01*
X14634230Y-12030412D02*
X14634230Y-11954222D01*
X14634230Y-11954222D02*
X14643753Y-11935174D01*
X14643753Y-11935174D02*
X14662801Y-11925650D01*
X14662801Y-11925650D02*
X14700896Y-11925650D01*
X14700896Y-11925650D02*
X14719944Y-11935174D01*
X14719944Y-11935174D02*
X14729468Y-11954222D01*
X14729468Y-11954222D02*
X14729468Y-11973269D01*
X14729468Y-11973269D02*
X14634230Y-11992317D01*
X14805658Y-12049460D02*
X14824706Y-12058984D01*
X14824706Y-12058984D02*
X14862801Y-12058984D01*
X14862801Y-12058984D02*
X14881849Y-12049460D01*
X14881849Y-12049460D02*
X14891372Y-12030412D01*
X14891372Y-12030412D02*
X14891372Y-12020888D01*
X14891372Y-12020888D02*
X14881849Y-12001841D01*
X14881849Y-12001841D02*
X14862801Y-11992317D01*
X14862801Y-11992317D02*
X14834230Y-11992317D01*
X14834230Y-11992317D02*
X14815182Y-11982793D01*
X14815182Y-11982793D02*
X14805658Y-11963746D01*
X14805658Y-11963746D02*
X14805658Y-11954222D01*
X14805658Y-11954222D02*
X14815182Y-11935174D01*
X14815182Y-11935174D02*
X14834230Y-11925650D01*
X14834230Y-11925650D02*
X14862801Y-11925650D01*
X14862801Y-11925650D02*
X14881849Y-11935174D01*
X15129468Y-11982793D02*
X15281849Y-11982793D01*
X15205658Y-12058984D02*
X15205658Y-11906603D01*
X15510420Y-11858984D02*
X15634230Y-11858984D01*
X15634230Y-11858984D02*
X15567563Y-11935174D01*
X15567563Y-11935174D02*
X15596134Y-11935174D01*
X15596134Y-11935174D02*
X15615182Y-11944698D01*
X15615182Y-11944698D02*
X15624706Y-11954222D01*
X15624706Y-11954222D02*
X15634230Y-11973269D01*
X15634230Y-11973269D02*
X15634230Y-12020888D01*
X15634230Y-12020888D02*
X15624706Y-12039936D01*
X15624706Y-12039936D02*
X15615182Y-12049460D01*
X15615182Y-12049460D02*
X15596134Y-12058984D01*
X15596134Y-12058984D02*
X15538992Y-12058984D01*
X15538992Y-12058984D02*
X15519944Y-12049460D01*
X15519944Y-12049460D02*
X15510420Y-12039936D01*
X15862801Y-12049460D02*
X15881849Y-12058984D01*
X15881849Y-12058984D02*
X15919944Y-12058984D01*
X15919944Y-12058984D02*
X15938992Y-12049460D01*
X15938992Y-12049460D02*
X15948515Y-12030412D01*
X15948515Y-12030412D02*
X15948515Y-12020888D01*
X15948515Y-12020888D02*
X15938992Y-12001841D01*
X15938992Y-12001841D02*
X15919944Y-11992317D01*
X15919944Y-11992317D02*
X15891373Y-11992317D01*
X15891373Y-11992317D02*
X15872325Y-11982793D01*
X15872325Y-11982793D02*
X15862801Y-11963746D01*
X15862801Y-11963746D02*
X15862801Y-11954222D01*
X15862801Y-11954222D02*
X15872325Y-11935174D01*
X15872325Y-11935174D02*
X15891373Y-11925650D01*
X15891373Y-11925650D02*
X15919944Y-11925650D01*
X15919944Y-11925650D02*
X15938992Y-11935174D01*
X16062801Y-12058984D02*
X16043754Y-12049460D01*
X16043754Y-12049460D02*
X16034230Y-12030412D01*
X16034230Y-12030412D02*
X16034230Y-11858984D01*
X16167563Y-12058984D02*
X16148515Y-12049460D01*
X16148515Y-12049460D02*
X16138992Y-12039936D01*
X16138992Y-12039936D02*
X16129468Y-12020888D01*
X16129468Y-12020888D02*
X16129468Y-11963746D01*
X16129468Y-11963746D02*
X16138992Y-11944698D01*
X16138992Y-11944698D02*
X16148515Y-11935174D01*
X16148515Y-11935174D02*
X16167563Y-11925650D01*
X16167563Y-11925650D02*
X16196135Y-11925650D01*
X16196135Y-11925650D02*
X16215182Y-11935174D01*
X16215182Y-11935174D02*
X16224706Y-11944698D01*
X16224706Y-11944698D02*
X16234230Y-11963746D01*
X16234230Y-11963746D02*
X16234230Y-12020888D01*
X16234230Y-12020888D02*
X16224706Y-12039936D01*
X16224706Y-12039936D02*
X16215182Y-12049460D01*
X16215182Y-12049460D02*
X16196135Y-12058984D01*
X16196135Y-12058984D02*
X16167563Y-12058984D01*
X16291373Y-11925650D02*
X16367563Y-11925650D01*
X16319944Y-11858984D02*
X16319944Y-12030412D01*
X16319944Y-12030412D02*
X16329468Y-12049460D01*
X16329468Y-12049460D02*
X16348515Y-12058984D01*
X16348515Y-12058984D02*
X16367563Y-12058984D01*
X16424706Y-12049460D02*
X16443754Y-12058984D01*
X16443754Y-12058984D02*
X16481849Y-12058984D01*
X16481849Y-12058984D02*
X16500896Y-12049460D01*
X16500896Y-12049460D02*
X16510420Y-12030412D01*
X16510420Y-12030412D02*
X16510420Y-12020888D01*
X16510420Y-12020888D02*
X16500896Y-12001841D01*
X16500896Y-12001841D02*
X16481849Y-11992317D01*
X16481849Y-11992317D02*
X16453277Y-11992317D01*
X16453277Y-11992317D02*
X16434230Y-11982793D01*
X16434230Y-11982793D02*
X16424706Y-11963746D01*
X16424706Y-11963746D02*
X16424706Y-11954222D01*
X16424706Y-11954222D02*
X16434230Y-11935174D01*
X16434230Y-11935174D02*
X16453277Y-11925650D01*
X16453277Y-11925650D02*
X16481849Y-11925650D01*
X16481849Y-11925650D02*
X16500896Y-11935174D01*
X16577087Y-12135174D02*
X16586611Y-12125650D01*
X16586611Y-12125650D02*
X16605658Y-12097079D01*
X16605658Y-12097079D02*
X16615182Y-12078031D01*
X16615182Y-12078031D02*
X16624706Y-12049460D01*
X16624706Y-12049460D02*
X16634230Y-12001841D01*
X16634230Y-12001841D02*
X16634230Y-11963746D01*
X16634230Y-11963746D02*
X16624706Y-11916127D01*
X16624706Y-11916127D02*
X16615182Y-11887555D01*
X16615182Y-11887555D02*
X16605658Y-11868508D01*
X16605658Y-11868508D02*
X16586611Y-11839936D01*
X16586611Y-11839936D02*
X16577087Y-11830412D01*
D13*
X9882500Y-12176500D02*
X9992500Y-12286500D01*
X9992500Y-12176500D02*
X9882500Y-12286500D01*
X9937500Y-12176500D02*
X9937500Y-12286500D01*
X9882500Y-12231500D02*
X9992500Y-12231500D01*
D11*
X10358039Y-12322984D02*
X10243753Y-12322984D01*
X10300896Y-12322984D02*
X10300896Y-12122984D01*
X10300896Y-12122984D02*
X10281848Y-12151555D01*
X10281848Y-12151555D02*
X10262801Y-12170603D01*
X10262801Y-12170603D02*
X10243753Y-12180127D01*
X10443753Y-12303936D02*
X10453277Y-12313460D01*
X10453277Y-12313460D02*
X10443753Y-12322984D01*
X10443753Y-12322984D02*
X10434229Y-12313460D01*
X10434229Y-12313460D02*
X10443753Y-12303936D01*
X10443753Y-12303936D02*
X10443753Y-12322984D01*
X10643753Y-12322984D02*
X10529467Y-12322984D01*
X10586610Y-12322984D02*
X10586610Y-12122984D01*
X10586610Y-12122984D02*
X10567563Y-12151555D01*
X10567563Y-12151555D02*
X10548515Y-12170603D01*
X10548515Y-12170603D02*
X10529467Y-12180127D01*
X10767563Y-12122984D02*
X10786610Y-12122984D01*
X10786610Y-12122984D02*
X10805658Y-12132508D01*
X10805658Y-12132508D02*
X10815182Y-12142031D01*
X10815182Y-12142031D02*
X10824705Y-12161079D01*
X10824705Y-12161079D02*
X10834229Y-12199174D01*
X10834229Y-12199174D02*
X10834229Y-12246793D01*
X10834229Y-12246793D02*
X10824705Y-12284888D01*
X10824705Y-12284888D02*
X10815182Y-12303936D01*
X10815182Y-12303936D02*
X10805658Y-12313460D01*
X10805658Y-12313460D02*
X10786610Y-12322984D01*
X10786610Y-12322984D02*
X10767563Y-12322984D01*
X10767563Y-12322984D02*
X10748515Y-12313460D01*
X10748515Y-12313460D02*
X10738991Y-12303936D01*
X10738991Y-12303936D02*
X10729467Y-12284888D01*
X10729467Y-12284888D02*
X10719944Y-12246793D01*
X10719944Y-12246793D02*
X10719944Y-12199174D01*
X10719944Y-12199174D02*
X10729467Y-12161079D01*
X10729467Y-12161079D02*
X10738991Y-12142031D01*
X10738991Y-12142031D02*
X10748515Y-12132508D01*
X10748515Y-12132508D02*
X10767563Y-12122984D01*
X10958039Y-12122984D02*
X10977086Y-12122984D01*
X10977086Y-12122984D02*
X10996134Y-12132508D01*
X10996134Y-12132508D02*
X11005658Y-12142031D01*
X11005658Y-12142031D02*
X11015182Y-12161079D01*
X11015182Y-12161079D02*
X11024705Y-12199174D01*
X11024705Y-12199174D02*
X11024705Y-12246793D01*
X11024705Y-12246793D02*
X11015182Y-12284888D01*
X11015182Y-12284888D02*
X11005658Y-12303936D01*
X11005658Y-12303936D02*
X10996134Y-12313460D01*
X10996134Y-12313460D02*
X10977086Y-12322984D01*
X10977086Y-12322984D02*
X10958039Y-12322984D01*
X10958039Y-12322984D02*
X10938991Y-12313460D01*
X10938991Y-12313460D02*
X10929467Y-12303936D01*
X10929467Y-12303936D02*
X10919944Y-12284888D01*
X10919944Y-12284888D02*
X10910420Y-12246793D01*
X10910420Y-12246793D02*
X10910420Y-12199174D01*
X10910420Y-12199174D02*
X10919944Y-12161079D01*
X10919944Y-12161079D02*
X10929467Y-12142031D01*
X10929467Y-12142031D02*
X10938991Y-12132508D01*
X10938991Y-12132508D02*
X10958039Y-12122984D01*
X11110420Y-12322984D02*
X11110420Y-12189650D01*
X11110420Y-12208698D02*
X11119944Y-12199174D01*
X11119944Y-12199174D02*
X11138991Y-12189650D01*
X11138991Y-12189650D02*
X11167563Y-12189650D01*
X11167563Y-12189650D02*
X11186610Y-12199174D01*
X11186610Y-12199174D02*
X11196134Y-12218222D01*
X11196134Y-12218222D02*
X11196134Y-12322984D01*
X11196134Y-12218222D02*
X11205658Y-12199174D01*
X11205658Y-12199174D02*
X11224705Y-12189650D01*
X11224705Y-12189650D02*
X11253277Y-12189650D01*
X11253277Y-12189650D02*
X11272324Y-12199174D01*
X11272324Y-12199174D02*
X11281848Y-12218222D01*
X11281848Y-12218222D02*
X11281848Y-12322984D01*
X11377086Y-12322984D02*
X11377086Y-12189650D01*
X11377086Y-12208698D02*
X11386610Y-12199174D01*
X11386610Y-12199174D02*
X11405658Y-12189650D01*
X11405658Y-12189650D02*
X11434229Y-12189650D01*
X11434229Y-12189650D02*
X11453277Y-12199174D01*
X11453277Y-12199174D02*
X11462801Y-12218222D01*
X11462801Y-12218222D02*
X11462801Y-12322984D01*
X11462801Y-12218222D02*
X11472324Y-12199174D01*
X11472324Y-12199174D02*
X11491372Y-12189650D01*
X11491372Y-12189650D02*
X11519943Y-12189650D01*
X11519943Y-12189650D02*
X11538991Y-12199174D01*
X11538991Y-12199174D02*
X11548515Y-12218222D01*
X11548515Y-12218222D02*
X11548515Y-12322984D01*
X11938991Y-12113460D02*
X11767563Y-12370603D01*
X12196134Y-12122984D02*
X12215182Y-12122984D01*
X12215182Y-12122984D02*
X12234229Y-12132508D01*
X12234229Y-12132508D02*
X12243753Y-12142031D01*
X12243753Y-12142031D02*
X12253277Y-12161079D01*
X12253277Y-12161079D02*
X12262801Y-12199174D01*
X12262801Y-12199174D02*
X12262801Y-12246793D01*
X12262801Y-12246793D02*
X12253277Y-12284888D01*
X12253277Y-12284888D02*
X12243753Y-12303936D01*
X12243753Y-12303936D02*
X12234229Y-12313460D01*
X12234229Y-12313460D02*
X12215182Y-12322984D01*
X12215182Y-12322984D02*
X12196134Y-12322984D01*
X12196134Y-12322984D02*
X12177086Y-12313460D01*
X12177086Y-12313460D02*
X12167563Y-12303936D01*
X12167563Y-12303936D02*
X12158039Y-12284888D01*
X12158039Y-12284888D02*
X12148515Y-12246793D01*
X12148515Y-12246793D02*
X12148515Y-12199174D01*
X12148515Y-12199174D02*
X12158039Y-12161079D01*
X12158039Y-12161079D02*
X12167563Y-12142031D01*
X12167563Y-12142031D02*
X12177086Y-12132508D01*
X12177086Y-12132508D02*
X12196134Y-12122984D01*
X12348515Y-12303936D02*
X12358039Y-12313460D01*
X12358039Y-12313460D02*
X12348515Y-12322984D01*
X12348515Y-12322984D02*
X12338991Y-12313460D01*
X12338991Y-12313460D02*
X12348515Y-12303936D01*
X12348515Y-12303936D02*
X12348515Y-12322984D01*
X12481848Y-12122984D02*
X12500896Y-12122984D01*
X12500896Y-12122984D02*
X12519944Y-12132508D01*
X12519944Y-12132508D02*
X12529467Y-12142031D01*
X12529467Y-12142031D02*
X12538991Y-12161079D01*
X12538991Y-12161079D02*
X12548515Y-12199174D01*
X12548515Y-12199174D02*
X12548515Y-12246793D01*
X12548515Y-12246793D02*
X12538991Y-12284888D01*
X12538991Y-12284888D02*
X12529467Y-12303936D01*
X12529467Y-12303936D02*
X12519944Y-12313460D01*
X12519944Y-12313460D02*
X12500896Y-12322984D01*
X12500896Y-12322984D02*
X12481848Y-12322984D01*
X12481848Y-12322984D02*
X12462801Y-12313460D01*
X12462801Y-12313460D02*
X12453277Y-12303936D01*
X12453277Y-12303936D02*
X12443753Y-12284888D01*
X12443753Y-12284888D02*
X12434229Y-12246793D01*
X12434229Y-12246793D02*
X12434229Y-12199174D01*
X12434229Y-12199174D02*
X12443753Y-12161079D01*
X12443753Y-12161079D02*
X12453277Y-12142031D01*
X12453277Y-12142031D02*
X12462801Y-12132508D01*
X12462801Y-12132508D02*
X12481848Y-12122984D01*
X12719944Y-12189650D02*
X12719944Y-12322984D01*
X12672325Y-12113460D02*
X12624706Y-12256317D01*
X12624706Y-12256317D02*
X12748515Y-12256317D01*
X12805658Y-12122984D02*
X12929467Y-12122984D01*
X12929467Y-12122984D02*
X12862801Y-12199174D01*
X12862801Y-12199174D02*
X12891372Y-12199174D01*
X12891372Y-12199174D02*
X12910420Y-12208698D01*
X12910420Y-12208698D02*
X12919944Y-12218222D01*
X12919944Y-12218222D02*
X12929467Y-12237269D01*
X12929467Y-12237269D02*
X12929467Y-12284888D01*
X12929467Y-12284888D02*
X12919944Y-12303936D01*
X12919944Y-12303936D02*
X12910420Y-12313460D01*
X12910420Y-12313460D02*
X12891372Y-12322984D01*
X12891372Y-12322984D02*
X12834229Y-12322984D01*
X12834229Y-12322984D02*
X12815182Y-12313460D01*
X12815182Y-12313460D02*
X12805658Y-12303936D01*
X12996134Y-12122984D02*
X13119944Y-12122984D01*
X13119944Y-12122984D02*
X13053277Y-12199174D01*
X13053277Y-12199174D02*
X13081848Y-12199174D01*
X13081848Y-12199174D02*
X13100896Y-12208698D01*
X13100896Y-12208698D02*
X13110420Y-12218222D01*
X13110420Y-12218222D02*
X13119944Y-12237269D01*
X13119944Y-12237269D02*
X13119944Y-12284888D01*
X13119944Y-12284888D02*
X13110420Y-12303936D01*
X13110420Y-12303936D02*
X13100896Y-12313460D01*
X13100896Y-12313460D02*
X13081848Y-12322984D01*
X13081848Y-12322984D02*
X13024706Y-12322984D01*
X13024706Y-12322984D02*
X13005658Y-12313460D01*
X13005658Y-12313460D02*
X12996134Y-12303936D01*
X13196134Y-12122984D02*
X13196134Y-12161079D01*
X13272325Y-12122984D02*
X13272325Y-12161079D01*
X13567563Y-12399174D02*
X13558039Y-12389650D01*
X13558039Y-12389650D02*
X13538991Y-12361079D01*
X13538991Y-12361079D02*
X13529468Y-12342031D01*
X13529468Y-12342031D02*
X13519944Y-12313460D01*
X13519944Y-12313460D02*
X13510420Y-12265841D01*
X13510420Y-12265841D02*
X13510420Y-12227746D01*
X13510420Y-12227746D02*
X13519944Y-12180127D01*
X13519944Y-12180127D02*
X13529468Y-12151555D01*
X13529468Y-12151555D02*
X13538991Y-12132508D01*
X13538991Y-12132508D02*
X13558039Y-12103936D01*
X13558039Y-12103936D02*
X13567563Y-12094412D01*
X13729468Y-12189650D02*
X13729468Y-12322984D01*
X13681848Y-12113460D02*
X13634229Y-12256317D01*
X13634229Y-12256317D02*
X13758039Y-12256317D01*
X13986610Y-12322984D02*
X13986610Y-12122984D01*
X14072325Y-12322984D02*
X14072325Y-12218222D01*
X14072325Y-12218222D02*
X14062801Y-12199174D01*
X14062801Y-12199174D02*
X14043753Y-12189650D01*
X14043753Y-12189650D02*
X14015182Y-12189650D01*
X14015182Y-12189650D02*
X13996134Y-12199174D01*
X13996134Y-12199174D02*
X13986610Y-12208698D01*
X14196134Y-12322984D02*
X14177087Y-12313460D01*
X14177087Y-12313460D02*
X14167563Y-12303936D01*
X14167563Y-12303936D02*
X14158039Y-12284888D01*
X14158039Y-12284888D02*
X14158039Y-12227746D01*
X14158039Y-12227746D02*
X14167563Y-12208698D01*
X14167563Y-12208698D02*
X14177087Y-12199174D01*
X14177087Y-12199174D02*
X14196134Y-12189650D01*
X14196134Y-12189650D02*
X14224706Y-12189650D01*
X14224706Y-12189650D02*
X14243753Y-12199174D01*
X14243753Y-12199174D02*
X14253277Y-12208698D01*
X14253277Y-12208698D02*
X14262801Y-12227746D01*
X14262801Y-12227746D02*
X14262801Y-12284888D01*
X14262801Y-12284888D02*
X14253277Y-12303936D01*
X14253277Y-12303936D02*
X14243753Y-12313460D01*
X14243753Y-12313460D02*
X14224706Y-12322984D01*
X14224706Y-12322984D02*
X14196134Y-12322984D01*
X14377087Y-12322984D02*
X14358039Y-12313460D01*
X14358039Y-12313460D02*
X14348515Y-12294412D01*
X14348515Y-12294412D02*
X14348515Y-12122984D01*
X14529468Y-12313460D02*
X14510420Y-12322984D01*
X14510420Y-12322984D02*
X14472325Y-12322984D01*
X14472325Y-12322984D02*
X14453277Y-12313460D01*
X14453277Y-12313460D02*
X14443753Y-12294412D01*
X14443753Y-12294412D02*
X14443753Y-12218222D01*
X14443753Y-12218222D02*
X14453277Y-12199174D01*
X14453277Y-12199174D02*
X14472325Y-12189650D01*
X14472325Y-12189650D02*
X14510420Y-12189650D01*
X14510420Y-12189650D02*
X14529468Y-12199174D01*
X14529468Y-12199174D02*
X14538991Y-12218222D01*
X14538991Y-12218222D02*
X14538991Y-12237269D01*
X14538991Y-12237269D02*
X14443753Y-12256317D01*
X14615182Y-12313460D02*
X14634230Y-12322984D01*
X14634230Y-12322984D02*
X14672325Y-12322984D01*
X14672325Y-12322984D02*
X14691372Y-12313460D01*
X14691372Y-12313460D02*
X14700896Y-12294412D01*
X14700896Y-12294412D02*
X14700896Y-12284888D01*
X14700896Y-12284888D02*
X14691372Y-12265841D01*
X14691372Y-12265841D02*
X14672325Y-12256317D01*
X14672325Y-12256317D02*
X14643753Y-12256317D01*
X14643753Y-12256317D02*
X14624706Y-12246793D01*
X14624706Y-12246793D02*
X14615182Y-12227746D01*
X14615182Y-12227746D02*
X14615182Y-12218222D01*
X14615182Y-12218222D02*
X14624706Y-12199174D01*
X14624706Y-12199174D02*
X14643753Y-12189650D01*
X14643753Y-12189650D02*
X14672325Y-12189650D01*
X14672325Y-12189650D02*
X14691372Y-12199174D01*
X14767563Y-12399174D02*
X14777087Y-12389650D01*
X14777087Y-12389650D02*
X14796134Y-12361079D01*
X14796134Y-12361079D02*
X14805658Y-12342031D01*
X14805658Y-12342031D02*
X14815182Y-12313460D01*
X14815182Y-12313460D02*
X14824706Y-12265841D01*
X14824706Y-12265841D02*
X14824706Y-12227746D01*
X14824706Y-12227746D02*
X14815182Y-12180127D01*
X14815182Y-12180127D02*
X14805658Y-12151555D01*
X14805658Y-12151555D02*
X14796134Y-12132508D01*
X14796134Y-12132508D02*
X14777087Y-12103936D01*
X14777087Y-12103936D02*
X14767563Y-12094412D01*
D14*
X9872500Y-12435500D02*
X9992500Y-12555500D01*
X9992500Y-12435500D02*
X9872500Y-12555500D01*
X9974927Y-12537927D02*
X9974927Y-12453073D01*
X9890073Y-12453073D01*
X9890073Y-12537927D01*
X9974927Y-12537927D01*
D11*
X10358039Y-12586984D02*
X10243753Y-12586984D01*
X10300896Y-12586984D02*
X10300896Y-12386984D01*
X10300896Y-12386984D02*
X10281848Y-12415555D01*
X10281848Y-12415555D02*
X10262801Y-12434603D01*
X10262801Y-12434603D02*
X10243753Y-12444127D01*
X10443753Y-12567936D02*
X10453277Y-12577460D01*
X10453277Y-12577460D02*
X10443753Y-12586984D01*
X10443753Y-12586984D02*
X10434229Y-12577460D01*
X10434229Y-12577460D02*
X10443753Y-12567936D01*
X10443753Y-12567936D02*
X10443753Y-12586984D01*
X10529467Y-12406031D02*
X10538991Y-12396508D01*
X10538991Y-12396508D02*
X10558039Y-12386984D01*
X10558039Y-12386984D02*
X10605658Y-12386984D01*
X10605658Y-12386984D02*
X10624705Y-12396508D01*
X10624705Y-12396508D02*
X10634229Y-12406031D01*
X10634229Y-12406031D02*
X10643753Y-12425079D01*
X10643753Y-12425079D02*
X10643753Y-12444127D01*
X10643753Y-12444127D02*
X10634229Y-12472698D01*
X10634229Y-12472698D02*
X10519944Y-12586984D01*
X10519944Y-12586984D02*
X10643753Y-12586984D01*
X10767563Y-12386984D02*
X10786610Y-12386984D01*
X10786610Y-12386984D02*
X10805658Y-12396508D01*
X10805658Y-12396508D02*
X10815182Y-12406031D01*
X10815182Y-12406031D02*
X10824705Y-12425079D01*
X10824705Y-12425079D02*
X10834229Y-12463174D01*
X10834229Y-12463174D02*
X10834229Y-12510793D01*
X10834229Y-12510793D02*
X10824705Y-12548888D01*
X10824705Y-12548888D02*
X10815182Y-12567936D01*
X10815182Y-12567936D02*
X10805658Y-12577460D01*
X10805658Y-12577460D02*
X10786610Y-12586984D01*
X10786610Y-12586984D02*
X10767563Y-12586984D01*
X10767563Y-12586984D02*
X10748515Y-12577460D01*
X10748515Y-12577460D02*
X10738991Y-12567936D01*
X10738991Y-12567936D02*
X10729467Y-12548888D01*
X10729467Y-12548888D02*
X10719944Y-12510793D01*
X10719944Y-12510793D02*
X10719944Y-12463174D01*
X10719944Y-12463174D02*
X10729467Y-12425079D01*
X10729467Y-12425079D02*
X10738991Y-12406031D01*
X10738991Y-12406031D02*
X10748515Y-12396508D01*
X10748515Y-12396508D02*
X10767563Y-12386984D01*
X10958039Y-12386984D02*
X10977086Y-12386984D01*
X10977086Y-12386984D02*
X10996134Y-12396508D01*
X10996134Y-12396508D02*
X11005658Y-12406031D01*
X11005658Y-12406031D02*
X11015182Y-12425079D01*
X11015182Y-12425079D02*
X11024705Y-12463174D01*
X11024705Y-12463174D02*
X11024705Y-12510793D01*
X11024705Y-12510793D02*
X11015182Y-12548888D01*
X11015182Y-12548888D02*
X11005658Y-12567936D01*
X11005658Y-12567936D02*
X10996134Y-12577460D01*
X10996134Y-12577460D02*
X10977086Y-12586984D01*
X10977086Y-12586984D02*
X10958039Y-12586984D01*
X10958039Y-12586984D02*
X10938991Y-12577460D01*
X10938991Y-12577460D02*
X10929467Y-12567936D01*
X10929467Y-12567936D02*
X10919944Y-12548888D01*
X10919944Y-12548888D02*
X10910420Y-12510793D01*
X10910420Y-12510793D02*
X10910420Y-12463174D01*
X10910420Y-12463174D02*
X10919944Y-12425079D01*
X10919944Y-12425079D02*
X10929467Y-12406031D01*
X10929467Y-12406031D02*
X10938991Y-12396508D01*
X10938991Y-12396508D02*
X10958039Y-12386984D01*
X11110420Y-12586984D02*
X11110420Y-12453650D01*
X11110420Y-12472698D02*
X11119944Y-12463174D01*
X11119944Y-12463174D02*
X11138991Y-12453650D01*
X11138991Y-12453650D02*
X11167563Y-12453650D01*
X11167563Y-12453650D02*
X11186610Y-12463174D01*
X11186610Y-12463174D02*
X11196134Y-12482222D01*
X11196134Y-12482222D02*
X11196134Y-12586984D01*
X11196134Y-12482222D02*
X11205658Y-12463174D01*
X11205658Y-12463174D02*
X11224705Y-12453650D01*
X11224705Y-12453650D02*
X11253277Y-12453650D01*
X11253277Y-12453650D02*
X11272324Y-12463174D01*
X11272324Y-12463174D02*
X11281848Y-12482222D01*
X11281848Y-12482222D02*
X11281848Y-12586984D01*
X11377086Y-12586984D02*
X11377086Y-12453650D01*
X11377086Y-12472698D02*
X11386610Y-12463174D01*
X11386610Y-12463174D02*
X11405658Y-12453650D01*
X11405658Y-12453650D02*
X11434229Y-12453650D01*
X11434229Y-12453650D02*
X11453277Y-12463174D01*
X11453277Y-12463174D02*
X11462801Y-12482222D01*
X11462801Y-12482222D02*
X11462801Y-12586984D01*
X11462801Y-12482222D02*
X11472324Y-12463174D01*
X11472324Y-12463174D02*
X11491372Y-12453650D01*
X11491372Y-12453650D02*
X11519943Y-12453650D01*
X11519943Y-12453650D02*
X11538991Y-12463174D01*
X11538991Y-12463174D02*
X11548515Y-12482222D01*
X11548515Y-12482222D02*
X11548515Y-12586984D01*
X11938991Y-12377460D02*
X11767563Y-12634603D01*
X12196134Y-12386984D02*
X12215182Y-12386984D01*
X12215182Y-12386984D02*
X12234229Y-12396508D01*
X12234229Y-12396508D02*
X12243753Y-12406031D01*
X12243753Y-12406031D02*
X12253277Y-12425079D01*
X12253277Y-12425079D02*
X12262801Y-12463174D01*
X12262801Y-12463174D02*
X12262801Y-12510793D01*
X12262801Y-12510793D02*
X12253277Y-12548888D01*
X12253277Y-12548888D02*
X12243753Y-12567936D01*
X12243753Y-12567936D02*
X12234229Y-12577460D01*
X12234229Y-12577460D02*
X12215182Y-12586984D01*
X12215182Y-12586984D02*
X12196134Y-12586984D01*
X12196134Y-12586984D02*
X12177086Y-12577460D01*
X12177086Y-12577460D02*
X12167563Y-12567936D01*
X12167563Y-12567936D02*
X12158039Y-12548888D01*
X12158039Y-12548888D02*
X12148515Y-12510793D01*
X12148515Y-12510793D02*
X12148515Y-12463174D01*
X12148515Y-12463174D02*
X12158039Y-12425079D01*
X12158039Y-12425079D02*
X12167563Y-12406031D01*
X12167563Y-12406031D02*
X12177086Y-12396508D01*
X12177086Y-12396508D02*
X12196134Y-12386984D01*
X12348515Y-12567936D02*
X12358039Y-12577460D01*
X12358039Y-12577460D02*
X12348515Y-12586984D01*
X12348515Y-12586984D02*
X12338991Y-12577460D01*
X12338991Y-12577460D02*
X12348515Y-12567936D01*
X12348515Y-12567936D02*
X12348515Y-12586984D01*
X12481848Y-12386984D02*
X12500896Y-12386984D01*
X12500896Y-12386984D02*
X12519944Y-12396508D01*
X12519944Y-12396508D02*
X12529467Y-12406031D01*
X12529467Y-12406031D02*
X12538991Y-12425079D01*
X12538991Y-12425079D02*
X12548515Y-12463174D01*
X12548515Y-12463174D02*
X12548515Y-12510793D01*
X12548515Y-12510793D02*
X12538991Y-12548888D01*
X12538991Y-12548888D02*
X12529467Y-12567936D01*
X12529467Y-12567936D02*
X12519944Y-12577460D01*
X12519944Y-12577460D02*
X12500896Y-12586984D01*
X12500896Y-12586984D02*
X12481848Y-12586984D01*
X12481848Y-12586984D02*
X12462801Y-12577460D01*
X12462801Y-12577460D02*
X12453277Y-12567936D01*
X12453277Y-12567936D02*
X12443753Y-12548888D01*
X12443753Y-12548888D02*
X12434229Y-12510793D01*
X12434229Y-12510793D02*
X12434229Y-12463174D01*
X12434229Y-12463174D02*
X12443753Y-12425079D01*
X12443753Y-12425079D02*
X12453277Y-12406031D01*
X12453277Y-12406031D02*
X12462801Y-12396508D01*
X12462801Y-12396508D02*
X12481848Y-12386984D01*
X12719944Y-12453650D02*
X12719944Y-12586984D01*
X12672325Y-12377460D02*
X12624706Y-12520317D01*
X12624706Y-12520317D02*
X12748515Y-12520317D01*
X12805658Y-12386984D02*
X12938991Y-12386984D01*
X12938991Y-12386984D02*
X12853277Y-12586984D01*
X13005658Y-12406031D02*
X13015182Y-12396508D01*
X13015182Y-12396508D02*
X13034229Y-12386984D01*
X13034229Y-12386984D02*
X13081848Y-12386984D01*
X13081848Y-12386984D02*
X13100896Y-12396508D01*
X13100896Y-12396508D02*
X13110420Y-12406031D01*
X13110420Y-12406031D02*
X13119944Y-12425079D01*
X13119944Y-12425079D02*
X13119944Y-12444127D01*
X13119944Y-12444127D02*
X13110420Y-12472698D01*
X13110420Y-12472698D02*
X12996134Y-12586984D01*
X12996134Y-12586984D02*
X13119944Y-12586984D01*
X13196134Y-12386984D02*
X13196134Y-12425079D01*
X13272325Y-12386984D02*
X13272325Y-12425079D01*
X13567563Y-12663174D02*
X13558039Y-12653650D01*
X13558039Y-12653650D02*
X13538991Y-12625079D01*
X13538991Y-12625079D02*
X13529468Y-12606031D01*
X13529468Y-12606031D02*
X13519944Y-12577460D01*
X13519944Y-12577460D02*
X13510420Y-12529841D01*
X13510420Y-12529841D02*
X13510420Y-12491746D01*
X13510420Y-12491746D02*
X13519944Y-12444127D01*
X13519944Y-12444127D02*
X13529468Y-12415555D01*
X13529468Y-12415555D02*
X13538991Y-12396508D01*
X13538991Y-12396508D02*
X13558039Y-12367936D01*
X13558039Y-12367936D02*
X13567563Y-12358412D01*
X13624706Y-12386984D02*
X13748515Y-12386984D01*
X13748515Y-12386984D02*
X13681848Y-12463174D01*
X13681848Y-12463174D02*
X13710420Y-12463174D01*
X13710420Y-12463174D02*
X13729468Y-12472698D01*
X13729468Y-12472698D02*
X13738991Y-12482222D01*
X13738991Y-12482222D02*
X13748515Y-12501269D01*
X13748515Y-12501269D02*
X13748515Y-12548888D01*
X13748515Y-12548888D02*
X13738991Y-12567936D01*
X13738991Y-12567936D02*
X13729468Y-12577460D01*
X13729468Y-12577460D02*
X13710420Y-12586984D01*
X13710420Y-12586984D02*
X13653277Y-12586984D01*
X13653277Y-12586984D02*
X13634229Y-12577460D01*
X13634229Y-12577460D02*
X13624706Y-12567936D01*
X13986610Y-12586984D02*
X13986610Y-12386984D01*
X14072325Y-12586984D02*
X14072325Y-12482222D01*
X14072325Y-12482222D02*
X14062801Y-12463174D01*
X14062801Y-12463174D02*
X14043753Y-12453650D01*
X14043753Y-12453650D02*
X14015182Y-12453650D01*
X14015182Y-12453650D02*
X13996134Y-12463174D01*
X13996134Y-12463174D02*
X13986610Y-12472698D01*
X14196134Y-12586984D02*
X14177087Y-12577460D01*
X14177087Y-12577460D02*
X14167563Y-12567936D01*
X14167563Y-12567936D02*
X14158039Y-12548888D01*
X14158039Y-12548888D02*
X14158039Y-12491746D01*
X14158039Y-12491746D02*
X14167563Y-12472698D01*
X14167563Y-12472698D02*
X14177087Y-12463174D01*
X14177087Y-12463174D02*
X14196134Y-12453650D01*
X14196134Y-12453650D02*
X14224706Y-12453650D01*
X14224706Y-12453650D02*
X14243753Y-12463174D01*
X14243753Y-12463174D02*
X14253277Y-12472698D01*
X14253277Y-12472698D02*
X14262801Y-12491746D01*
X14262801Y-12491746D02*
X14262801Y-12548888D01*
X14262801Y-12548888D02*
X14253277Y-12567936D01*
X14253277Y-12567936D02*
X14243753Y-12577460D01*
X14243753Y-12577460D02*
X14224706Y-12586984D01*
X14224706Y-12586984D02*
X14196134Y-12586984D01*
X14377087Y-12586984D02*
X14358039Y-12577460D01*
X14358039Y-12577460D02*
X14348515Y-12558412D01*
X14348515Y-12558412D02*
X14348515Y-12386984D01*
X14529468Y-12577460D02*
X14510420Y-12586984D01*
X14510420Y-12586984D02*
X14472325Y-12586984D01*
X14472325Y-12586984D02*
X14453277Y-12577460D01*
X14453277Y-12577460D02*
X14443753Y-12558412D01*
X14443753Y-12558412D02*
X14443753Y-12482222D01*
X14443753Y-12482222D02*
X14453277Y-12463174D01*
X14453277Y-12463174D02*
X14472325Y-12453650D01*
X14472325Y-12453650D02*
X14510420Y-12453650D01*
X14510420Y-12453650D02*
X14529468Y-12463174D01*
X14529468Y-12463174D02*
X14538991Y-12482222D01*
X14538991Y-12482222D02*
X14538991Y-12501269D01*
X14538991Y-12501269D02*
X14443753Y-12520317D01*
X14615182Y-12577460D02*
X14634230Y-12586984D01*
X14634230Y-12586984D02*
X14672325Y-12586984D01*
X14672325Y-12586984D02*
X14691372Y-12577460D01*
X14691372Y-12577460D02*
X14700896Y-12558412D01*
X14700896Y-12558412D02*
X14700896Y-12548888D01*
X14700896Y-12548888D02*
X14691372Y-12529841D01*
X14691372Y-12529841D02*
X14672325Y-12520317D01*
X14672325Y-12520317D02*
X14643753Y-12520317D01*
X14643753Y-12520317D02*
X14624706Y-12510793D01*
X14624706Y-12510793D02*
X14615182Y-12491746D01*
X14615182Y-12491746D02*
X14615182Y-12482222D01*
X14615182Y-12482222D02*
X14624706Y-12463174D01*
X14624706Y-12463174D02*
X14643753Y-12453650D01*
X14643753Y-12453650D02*
X14672325Y-12453650D01*
X14672325Y-12453650D02*
X14691372Y-12463174D01*
X14767563Y-12663174D02*
X14777087Y-12653650D01*
X14777087Y-12653650D02*
X14796134Y-12625079D01*
X14796134Y-12625079D02*
X14805658Y-12606031D01*
X14805658Y-12606031D02*
X14815182Y-12577460D01*
X14815182Y-12577460D02*
X14824706Y-12529841D01*
X14824706Y-12529841D02*
X14824706Y-12491746D01*
X14824706Y-12491746D02*
X14815182Y-12444127D01*
X14815182Y-12444127D02*
X14805658Y-12415555D01*
X14805658Y-12415555D02*
X14796134Y-12396508D01*
X14796134Y-12396508D02*
X14777087Y-12367936D01*
X14777087Y-12367936D02*
X14767563Y-12358412D01*
M02*
