%TF.GenerationSoftware,KiCad,Pcbnew,8.0.1*%
%TF.CreationDate,2024-04-30T17:52:19-06:00*%
%TF.ProjectId,RP2040_Servo_Controller_Board,52503230-3430-45f5-9365-72766f5f436f,rev?*%
%TF.SameCoordinates,Original*%
%TF.FileFunction,Legend,Bot*%
%TF.FilePolarity,Positive*%
%FSLAX46Y46*%
G04 Gerber Fmt 4.6, Leading zero omitted, Abs format (unit mm)*
G04 Created by KiCad (PCBNEW 8.0.1) date 2024-04-30 17:52:19*
%MOMM*%
%LPD*%
G01*
G04 APERTURE LIST*
G04 Aperture macros list*
%AMRoundRect*
0 Rectangle with rounded corners*
0 $1 Rounding radius*
0 $2 $3 $4 $5 $6 $7 $8 $9 X,Y pos of 4 corners*
0 Add a 4 corners polygon primitive as box body*
4,1,4,$2,$3,$4,$5,$6,$7,$8,$9,$2,$3,0*
0 Add four circle primitives for the rounded corners*
1,1,$1+$1,$2,$3*
1,1,$1+$1,$4,$5*
1,1,$1+$1,$6,$7*
1,1,$1+$1,$8,$9*
0 Add four rect primitives between the rounded corners*
20,1,$1+$1,$2,$3,$4,$5,0*
20,1,$1+$1,$4,$5,$6,$7,0*
20,1,$1+$1,$6,$7,$8,$9,0*
20,1,$1+$1,$8,$9,$2,$3,0*%
G04 Aperture macros list end*
%ADD10C,0.000000*%
%ADD11R,1.200000X1.200000*%
%ADD12C,1.200000*%
%ADD13C,1.250000*%
%ADD14R,1.700000X1.700000*%
%ADD15O,1.700000X1.700000*%
%ADD16C,1.400000*%
%ADD17O,1.400000X1.400000*%
%ADD18R,1.800000X1.800000*%
%ADD19O,1.800000X1.800000*%
%ADD20C,1.800000*%
%ADD21C,1.704000*%
%ADD22R,1.905000X2.000000*%
%ADD23O,1.905000X2.000000*%
%ADD24C,3.200000*%
%ADD25C,2.000000*%
%ADD26R,3.500000X3.500000*%
%ADD27RoundRect,0.750000X-0.750000X-1.000000X0.750000X-1.000000X0.750000X1.000000X-0.750000X1.000000X0*%
%ADD28RoundRect,0.875000X-0.875000X-0.875000X0.875000X-0.875000X0.875000X0.875000X-0.875000X0.875000X0*%
G04 APERTURE END LIST*
D10*
%TO.C,G1*%
G36*
X138910985Y-65127604D02*
G01*
X138910985Y-66133948D01*
X136877700Y-66126778D01*
X134844415Y-66119609D01*
X134837075Y-65120434D01*
X134829733Y-64121259D01*
X136870360Y-64121259D01*
X138910985Y-64121259D01*
X138910985Y-65127604D01*
G37*
G36*
X123633787Y-71844556D02*
G01*
X123732548Y-71875969D01*
X123767094Y-71897402D01*
X123814040Y-71952857D01*
X123838703Y-72037321D01*
X123846125Y-72163565D01*
X123846509Y-72282349D01*
X123535710Y-72282349D01*
X123224913Y-72282349D01*
X123237343Y-72110496D01*
X123238410Y-72096402D01*
X123251484Y-71995146D01*
X123274650Y-71930939D01*
X123313672Y-71886906D01*
X123321357Y-71881181D01*
X123405943Y-71847742D01*
X123517500Y-71835340D01*
X123633787Y-71844556D01*
G37*
G36*
X145526962Y-71835790D02*
G01*
X145634128Y-71851764D01*
X145712783Y-71893090D01*
X145739877Y-71916390D01*
X145769852Y-71958650D01*
X145783312Y-72019167D01*
X145786426Y-72116682D01*
X145786426Y-72282349D01*
X145492962Y-72282349D01*
X145199497Y-72282349D01*
X145199497Y-72116682D01*
X145200382Y-72055039D01*
X145208685Y-71981074D01*
X145230881Y-71933339D01*
X145273140Y-71893090D01*
X145291445Y-71879932D01*
X145375515Y-71845514D01*
X145492962Y-71835165D01*
X145526962Y-71835790D01*
G37*
G36*
X127332203Y-71835790D02*
G01*
X127439369Y-71851764D01*
X127518024Y-71893090D01*
X127591667Y-71951017D01*
X127591667Y-72476596D01*
X127591490Y-72637232D01*
X127589690Y-72788832D01*
X127584268Y-72898645D01*
X127573222Y-72974426D01*
X127554548Y-73023934D01*
X127526247Y-73054927D01*
X127486313Y-73075165D01*
X127432747Y-73092405D01*
X127423992Y-73095006D01*
X127337693Y-73114634D01*
X127262028Y-73113496D01*
X127165774Y-73091489D01*
X127150473Y-73086774D01*
X127077407Y-73051494D01*
X127033017Y-73009634D01*
X127025744Y-72980461D01*
X127017257Y-72899302D01*
X127010615Y-72778352D01*
X127006285Y-72626819D01*
X127004738Y-72453907D01*
X127004738Y-71951017D01*
X127078380Y-71893090D01*
X127096685Y-71879932D01*
X127180755Y-71845514D01*
X127298203Y-71835165D01*
X127332203Y-71835790D01*
G37*
G36*
X134518300Y-71837570D02*
G01*
X134607537Y-71851706D01*
X134674078Y-71884057D01*
X134720893Y-71940871D01*
X134750945Y-72028389D01*
X134767197Y-72152856D01*
X134772621Y-72320519D01*
X134770177Y-72537617D01*
X134765851Y-72699020D01*
X134758653Y-72837195D01*
X134746522Y-72935105D01*
X134726841Y-73001069D01*
X134696996Y-73043402D01*
X134654370Y-73070426D01*
X134596346Y-73090457D01*
X134580665Y-73094937D01*
X134491495Y-73114505D01*
X134415743Y-73113314D01*
X134320701Y-73091489D01*
X134305400Y-73086774D01*
X134232333Y-73051494D01*
X134187943Y-73009634D01*
X134180981Y-72982527D01*
X134172391Y-72903131D01*
X134165647Y-72784034D01*
X134161243Y-72634699D01*
X134159665Y-72464582D01*
X134159668Y-72432919D01*
X134160020Y-72264112D01*
X134161731Y-72141020D01*
X134165872Y-72054856D01*
X134173522Y-71996836D01*
X134185756Y-71958170D01*
X134203646Y-71930076D01*
X134228266Y-71903767D01*
X134271310Y-71868002D01*
X134338297Y-71842086D01*
X134436570Y-71835165D01*
X134518300Y-71837570D01*
G37*
G36*
X139626393Y-71835626D02*
G01*
X139713145Y-71843031D01*
X139771346Y-71863867D01*
X139820596Y-71903767D01*
X139823721Y-71906899D01*
X139847653Y-71933127D01*
X139864906Y-71962155D01*
X139876566Y-72002825D01*
X139883733Y-72063992D01*
X139887500Y-72154506D01*
X139888956Y-72283219D01*
X139889200Y-72458976D01*
X139889076Y-72562442D01*
X139887851Y-72713601D01*
X139884568Y-72822696D01*
X139878320Y-72898674D01*
X139868202Y-72950477D01*
X139853312Y-72987056D01*
X139832745Y-73017355D01*
X139775316Y-73071444D01*
X139713960Y-73102549D01*
X139641000Y-73109702D01*
X139534783Y-73104382D01*
X139432745Y-73086761D01*
X139360575Y-73059934D01*
X139356457Y-73057320D01*
X139328365Y-73034830D01*
X139307565Y-73003632D01*
X139292965Y-72955862D01*
X139283470Y-72883657D01*
X139277990Y-72779152D01*
X139275432Y-72634482D01*
X139274703Y-72441784D01*
X139274808Y-72274509D01*
X139276210Y-72147687D01*
X139280062Y-72058952D01*
X139287510Y-71999251D01*
X139299703Y-71959524D01*
X139317793Y-71930714D01*
X139342925Y-71903767D01*
X139361871Y-71885967D01*
X139412220Y-71853990D01*
X139478983Y-71838932D01*
X139581760Y-71835165D01*
X139626393Y-71835626D01*
G37*
G36*
X119751988Y-71498837D02*
G01*
X119664642Y-71586115D01*
X119639512Y-71609789D01*
X119596772Y-71640980D01*
X119542107Y-71666559D01*
X119464722Y-71690252D01*
X119353815Y-71715784D01*
X119198587Y-71746880D01*
X118819878Y-71820365D01*
X118748543Y-72000161D01*
X118677207Y-72179957D01*
X118737982Y-72280064D01*
X118769575Y-72329881D01*
X118833375Y-72424720D01*
X118900742Y-72519914D01*
X118968812Y-72618244D01*
X119051903Y-72766694D01*
X119092722Y-72894074D01*
X119093185Y-73007781D01*
X119055215Y-73115217D01*
X119022197Y-73159645D01*
X118956743Y-73233819D01*
X118867722Y-73328725D01*
X118763843Y-73435639D01*
X118653823Y-73545834D01*
X118546374Y-73650582D01*
X118450210Y-73741161D01*
X118374044Y-73808842D01*
X118326592Y-73844896D01*
X118309457Y-73852317D01*
X118234955Y-73866239D01*
X118144800Y-73867002D01*
X118114428Y-73863501D01*
X118047169Y-73846315D01*
X117970425Y-73811455D01*
X117872780Y-73753206D01*
X117742819Y-73665856D01*
X117643037Y-73597181D01*
X117556123Y-73540111D01*
X117496447Y-73507301D01*
X117453882Y-73494445D01*
X117418310Y-73497239D01*
X117379605Y-73511375D01*
X117322238Y-73532930D01*
X117165600Y-73562937D01*
X117028098Y-73545464D01*
X116915078Y-73481855D01*
X116831884Y-73373455D01*
X116828173Y-73366124D01*
X116782717Y-73270026D01*
X116725180Y-73139949D01*
X116658967Y-72984426D01*
X116587475Y-72812005D01*
X116514107Y-72631219D01*
X116442263Y-72450611D01*
X116375343Y-72278721D01*
X116316749Y-72124089D01*
X116269879Y-71995255D01*
X116238135Y-71900757D01*
X116224918Y-71849139D01*
X116223959Y-71838114D01*
X116241567Y-71708155D01*
X116312553Y-71590824D01*
X116435385Y-71488740D01*
X116461749Y-71471424D01*
X116606982Y-71344607D01*
X116708499Y-71196382D01*
X116763467Y-71034525D01*
X116769050Y-70866812D01*
X116722418Y-70701020D01*
X116715004Y-70685212D01*
X116616675Y-70536417D01*
X116491329Y-70428230D01*
X116347617Y-70360155D01*
X116194193Y-70331695D01*
X116039713Y-70342355D01*
X115892830Y-70391639D01*
X115762200Y-70479050D01*
X115656479Y-70604094D01*
X115584317Y-70766270D01*
X115558443Y-70939969D01*
X115583324Y-71113739D01*
X115658879Y-71271394D01*
X115782603Y-71404874D01*
X115803155Y-71421449D01*
X115909244Y-71507624D01*
X115991613Y-71580745D01*
X116050610Y-71648037D01*
X116086587Y-71716725D01*
X116099892Y-71794034D01*
X116090872Y-71887190D01*
X116059878Y-72003417D01*
X116007259Y-72149942D01*
X115933362Y-72333987D01*
X115838538Y-72562780D01*
X115751235Y-72773037D01*
X115668748Y-72970449D01*
X115602503Y-73126392D01*
X115549794Y-73246326D01*
X115507922Y-73335705D01*
X115474175Y-73399982D01*
X115445857Y-73444614D01*
X115420260Y-73475057D01*
X115394679Y-73496765D01*
X115366410Y-73515194D01*
X115362530Y-73517531D01*
X115254182Y-73559752D01*
X115131744Y-73561125D01*
X114982957Y-73521862D01*
X114853453Y-73475449D01*
X114588940Y-73659869D01*
X114587335Y-73660987D01*
X114437838Y-73762045D01*
X114316292Y-73832024D01*
X114213237Y-73869539D01*
X114119217Y-73873211D01*
X114024769Y-73841656D01*
X113920442Y-73773494D01*
X113796774Y-73667339D01*
X113644307Y-73521811D01*
X113567782Y-73446756D01*
X113425284Y-73300909D01*
X113322254Y-73179870D01*
X113256978Y-73075230D01*
X113227747Y-72978580D01*
X113232847Y-72881514D01*
X113270565Y-72775626D01*
X113339193Y-72652506D01*
X113437017Y-72503750D01*
X113648123Y-72193505D01*
X113574738Y-72006459D01*
X113501353Y-71819412D01*
X113202924Y-71759650D01*
X113150349Y-71749102D01*
X112984388Y-71715026D01*
X112862379Y-71687181D01*
X112775693Y-71662070D01*
X112715704Y-71636194D01*
X112673785Y-71606049D01*
X112641305Y-71568136D01*
X112609642Y-71518956D01*
X112600467Y-71503076D01*
X112583223Y-71463836D01*
X112570974Y-71413936D01*
X112562892Y-71344332D01*
X112558144Y-71245976D01*
X112557650Y-71215919D01*
X112863757Y-71215919D01*
X112873853Y-71299511D01*
X112901905Y-71355402D01*
X112955118Y-71392055D01*
X113040688Y-71417924D01*
X113165817Y-71441469D01*
X113337705Y-71471149D01*
X113350667Y-71473499D01*
X113484663Y-71499917D01*
X113598579Y-71526042D01*
X113680718Y-71548970D01*
X113719382Y-71565805D01*
X113735448Y-71591312D01*
X113768782Y-71660869D01*
X113811478Y-71759465D01*
X113858253Y-71873815D01*
X113903828Y-71990626D01*
X113942919Y-72096609D01*
X113970248Y-72178474D01*
X113980530Y-72222932D01*
X113978600Y-72230409D01*
X113953753Y-72279127D01*
X113904729Y-72361187D01*
X113837224Y-72467277D01*
X113756940Y-72588099D01*
X113726822Y-72632764D01*
X113650662Y-72747931D01*
X113589259Y-72844017D01*
X113548268Y-72912040D01*
X113533348Y-72943021D01*
X113536175Y-72949302D01*
X113568109Y-72989070D01*
X113628863Y-73055787D01*
X113710038Y-73141009D01*
X113803230Y-73236289D01*
X113900032Y-73333184D01*
X113992043Y-73423249D01*
X114070857Y-73498036D01*
X114128072Y-73549101D01*
X114155279Y-73568000D01*
X114162103Y-73565405D01*
X114207460Y-73539061D01*
X114286518Y-73488830D01*
X114390567Y-73420317D01*
X114510888Y-73339132D01*
X114846380Y-73110267D01*
X115014663Y-73190699D01*
X115090967Y-73224132D01*
X115168810Y-73248177D01*
X115207975Y-73244884D01*
X115215430Y-73231931D01*
X115242698Y-73173789D01*
X115285457Y-73077212D01*
X115340203Y-72950537D01*
X115403424Y-72802105D01*
X115471618Y-72640252D01*
X115541275Y-72473320D01*
X115608892Y-72309650D01*
X115670960Y-72157576D01*
X115723973Y-72025442D01*
X115764423Y-71921586D01*
X115765574Y-71918546D01*
X115791022Y-71842480D01*
X115793265Y-71802699D01*
X115773188Y-71785477D01*
X115737148Y-71764777D01*
X115671004Y-71717649D01*
X115591519Y-71655457D01*
X115482449Y-71549826D01*
X115361497Y-71375719D01*
X115281310Y-71181351D01*
X115246279Y-70978370D01*
X115260797Y-70778417D01*
X115300192Y-70638195D01*
X115395499Y-70442092D01*
X115524949Y-70280432D01*
X115681630Y-70155376D01*
X115858630Y-70069089D01*
X116049038Y-70023731D01*
X116245940Y-70021465D01*
X116442428Y-70064452D01*
X116631585Y-70154859D01*
X116806504Y-70294844D01*
X116891954Y-70391892D01*
X117004165Y-70578439D01*
X117066869Y-70777544D01*
X117080788Y-70982094D01*
X117046640Y-71184980D01*
X116965144Y-71379086D01*
X116837022Y-71557305D01*
X116662992Y-71712521D01*
X116599192Y-71760326D01*
X116544798Y-71805764D01*
X116523885Y-71830020D01*
X116527192Y-71842845D01*
X116541528Y-71882162D01*
X116568618Y-71950764D01*
X116609984Y-72052342D01*
X116667142Y-72190592D01*
X116741613Y-72369205D01*
X116834918Y-72591871D01*
X116948574Y-72862289D01*
X116982007Y-72940534D01*
X117038590Y-73067286D01*
X117087043Y-73168767D01*
X117123065Y-73236139D01*
X117142355Y-73260561D01*
X117164088Y-73254811D01*
X117225555Y-73229439D01*
X117306455Y-73190689D01*
X117363212Y-73163064D01*
X117433180Y-73132642D01*
X117471700Y-73120815D01*
X117477504Y-73122507D01*
X117522224Y-73146952D01*
X117600563Y-73195946D01*
X117703448Y-73263699D01*
X117821804Y-73344407D01*
X117862269Y-73372325D01*
X117975717Y-73449275D01*
X118070109Y-73511384D01*
X118136559Y-73552884D01*
X118166173Y-73568000D01*
X118175993Y-73562317D01*
X118220382Y-73524727D01*
X118292667Y-73457776D01*
X118385553Y-73368294D01*
X118491743Y-73263111D01*
X118571932Y-73181755D01*
X118673824Y-73073602D01*
X118739657Y-72995396D01*
X118773037Y-72942686D01*
X118777575Y-72911026D01*
X118775468Y-72906314D01*
X118747617Y-72858536D01*
X118695512Y-72777189D01*
X118625732Y-72672364D01*
X118544855Y-72554149D01*
X118330244Y-72244465D01*
X118394275Y-72060776D01*
X118427359Y-71970349D01*
X118482268Y-71831151D01*
X118534630Y-71708577D01*
X118610954Y-71540067D01*
X119035418Y-71461332D01*
X119459882Y-71382600D01*
X119452217Y-70931209D01*
X119444549Y-70479819D01*
X119220957Y-70434611D01*
X119084017Y-70407546D01*
X118927843Y-70377695D01*
X118791729Y-70352612D01*
X118586092Y-70315820D01*
X118496159Y-70118242D01*
X118444135Y-70001015D01*
X118393525Y-69882070D01*
X118355623Y-69787901D01*
X118305019Y-69655140D01*
X118385623Y-69536361D01*
X118406442Y-69505870D01*
X118469665Y-69414276D01*
X118547265Y-69302750D01*
X118626987Y-69188927D01*
X118671263Y-69124505D01*
X118731272Y-69031625D01*
X118772454Y-68960542D01*
X118787749Y-68922937D01*
X118782075Y-68910132D01*
X118744343Y-68860564D01*
X118677069Y-68783926D01*
X118587132Y-68687909D01*
X118481404Y-68580201D01*
X118175057Y-68274806D01*
X117957360Y-68423546D01*
X117927793Y-68443770D01*
X117803474Y-68529137D01*
X117679488Y-68614719D01*
X117578778Y-68684686D01*
X117417890Y-68797082D01*
X117110693Y-68674124D01*
X117008078Y-68631694D01*
X116888398Y-68575900D01*
X116815479Y-68531215D01*
X116784987Y-68495265D01*
X116782305Y-68485969D01*
X116768057Y-68424251D01*
X116747018Y-68322890D01*
X116721569Y-68193596D01*
X116694093Y-68048082D01*
X116621705Y-67656799D01*
X116169635Y-67649127D01*
X116110460Y-67648162D01*
X115957082Y-67646424D01*
X115848785Y-67647259D01*
X115777369Y-67651402D01*
X115734634Y-67659594D01*
X115712378Y-67672564D01*
X115702399Y-67691051D01*
X115700079Y-67699757D01*
X115687054Y-67759337D01*
X115667124Y-67858799D01*
X115642554Y-67986642D01*
X115615609Y-68131376D01*
X115605942Y-68183295D01*
X115579247Y-68318586D01*
X115555115Y-68429890D01*
X115535875Y-68506844D01*
X115523865Y-68539086D01*
X115496337Y-68553390D01*
X115426410Y-68584520D01*
X115325884Y-68627044D01*
X115205979Y-68676124D01*
X114908209Y-68796186D01*
X114563153Y-68559659D01*
X114506878Y-68521131D01*
X114388423Y-68440362D01*
X114288644Y-68372771D01*
X114216669Y-68324525D01*
X114181623Y-68301790D01*
X114149187Y-68309649D01*
X114081065Y-68358290D01*
X113977913Y-68448905D01*
X113839248Y-68581890D01*
X113781767Y-68639099D01*
X113683459Y-68739855D01*
X113604675Y-68824446D01*
X113552332Y-68885345D01*
X113533348Y-68915014D01*
X113536859Y-68925564D01*
X113565205Y-68977312D01*
X113617375Y-69061790D01*
X113687800Y-69170125D01*
X113770913Y-69293449D01*
X113811834Y-69353599D01*
X113889538Y-69470405D01*
X113951929Y-69567696D01*
X113993448Y-69636699D01*
X114008535Y-69668634D01*
X114003247Y-69690174D01*
X113980187Y-69755271D01*
X113943798Y-69849020D01*
X113899532Y-69958244D01*
X113852843Y-70069770D01*
X113809184Y-70170426D01*
X113774009Y-70247039D01*
X113752772Y-70286436D01*
X113751119Y-70288234D01*
X113708817Y-70308327D01*
X113628747Y-70331507D01*
X113526715Y-70353112D01*
X113397084Y-70376976D01*
X113242250Y-70406540D01*
X113100140Y-70434609D01*
X112876548Y-70479815D01*
X112868849Y-70920345D01*
X112868640Y-70931802D01*
X112864419Y-71096169D01*
X112863757Y-71215919D01*
X112557650Y-71215919D01*
X112555905Y-71109824D01*
X112555343Y-70926825D01*
X112555673Y-70792857D01*
X112560135Y-70604365D01*
X112574409Y-70459952D01*
X112604172Y-70352175D01*
X112655099Y-70273584D01*
X112732867Y-70216732D01*
X112843154Y-70174176D01*
X112991634Y-70138467D01*
X113183987Y-70102159D01*
X113190349Y-70101007D01*
X113318948Y-70077280D01*
X113425060Y-70056874D01*
X113497835Y-70041931D01*
X113526423Y-70034595D01*
X113537815Y-70011534D01*
X113564580Y-69949694D01*
X113600135Y-69863820D01*
X113666799Y-69699964D01*
X113595540Y-69586721D01*
X113561147Y-69533824D01*
X113491822Y-69432311D01*
X113421328Y-69333734D01*
X113417493Y-69328521D01*
X113318959Y-69185219D01*
X113257428Y-69069615D01*
X113229822Y-68970895D01*
X113233067Y-68878244D01*
X113264087Y-68780845D01*
X113264443Y-68780024D01*
X113297649Y-68730636D01*
X113363175Y-68652170D01*
X113452535Y-68553284D01*
X113557240Y-68442634D01*
X113668804Y-68328877D01*
X113778740Y-68220675D01*
X113878562Y-68126681D01*
X113959779Y-68055556D01*
X114013907Y-68015955D01*
X114049112Y-67998496D01*
X114117329Y-67979280D01*
X114191218Y-67981982D01*
X114278243Y-68009369D01*
X114385865Y-68064201D01*
X114521548Y-68149242D01*
X114692753Y-68267252D01*
X114943817Y-68444832D01*
X115084038Y-68388494D01*
X115139098Y-68365667D01*
X115209150Y-68334156D01*
X115245272Y-68314440D01*
X115246479Y-68313011D01*
X115260530Y-68273755D01*
X115281542Y-68191956D01*
X115306875Y-68078606D01*
X115333900Y-67944701D01*
X115362499Y-67798261D01*
X115397230Y-67645276D01*
X115435893Y-67530357D01*
X115485909Y-67448080D01*
X115554704Y-67393017D01*
X115649703Y-67359740D01*
X115778325Y-67342826D01*
X115947999Y-67336846D01*
X116166148Y-67336375D01*
X116215978Y-67336550D01*
X116425119Y-67339580D01*
X116580657Y-67346309D01*
X116684397Y-67356850D01*
X116738142Y-67371311D01*
X116774335Y-67394075D01*
X116829898Y-67445081D01*
X116875484Y-67515986D01*
X116915100Y-67615706D01*
X116952755Y-67753159D01*
X116992455Y-67937264D01*
X117068890Y-68319625D01*
X117226322Y-68383220D01*
X117383754Y-68446815D01*
X117698892Y-68227736D01*
X117787185Y-68166739D01*
X117928410Y-68074386D01*
X118043818Y-68013170D01*
X118142603Y-67984427D01*
X118233955Y-67989495D01*
X118327072Y-68029707D01*
X118431143Y-68106402D01*
X118555362Y-68220917D01*
X118708924Y-68374587D01*
X118769162Y-68435949D01*
X118908113Y-68582839D01*
X119008074Y-68703744D01*
X119070443Y-68807557D01*
X119096622Y-68903171D01*
X119088007Y-68999486D01*
X119046003Y-69105390D01*
X118972004Y-69229781D01*
X118867417Y-69381552D01*
X118862628Y-69388317D01*
X118786340Y-69498786D01*
X118724042Y-69593920D01*
X118682040Y-69663770D01*
X118666637Y-69698384D01*
X118673000Y-69728727D01*
X118695965Y-69799007D01*
X118729910Y-69887930D01*
X118734830Y-69900030D01*
X118771017Y-69981962D01*
X118804244Y-70027157D01*
X118849865Y-70049511D01*
X118923223Y-70062911D01*
X118961467Y-70068669D01*
X119136175Y-70098446D01*
X119299519Y-70131545D01*
X119440478Y-70165367D01*
X119548028Y-70197321D01*
X119611148Y-70224812D01*
X119630043Y-70237645D01*
X119677512Y-70277506D01*
X119712734Y-70325792D01*
X119737298Y-70390405D01*
X119752785Y-70479244D01*
X119760784Y-70600209D01*
X119762878Y-70761205D01*
X119760650Y-70970130D01*
X119753892Y-71382600D01*
X119751988Y-71498837D01*
G37*
G36*
X118465994Y-60920143D02*
G01*
X118441825Y-61075672D01*
X118415197Y-61171602D01*
X118369859Y-61314147D01*
X118326397Y-61419218D01*
X118280393Y-61498373D01*
X118278913Y-61500509D01*
X118243449Y-61559227D01*
X118228769Y-61598148D01*
X118224990Y-61609847D01*
X118194263Y-61657053D01*
X118142730Y-61719603D01*
X118118444Y-61747046D01*
X118067057Y-61807837D01*
X118037922Y-61846341D01*
X118023824Y-61861791D01*
X117970992Y-61903818D01*
X117897335Y-61953416D01*
X117775517Y-62029622D01*
X117931112Y-62168303D01*
X118001913Y-62236937D01*
X118144663Y-62426574D01*
X118237030Y-62640277D01*
X118278537Y-62877062D01*
X118283218Y-62945203D01*
X118291199Y-63013214D01*
X118292862Y-63027383D01*
X118310362Y-63079272D01*
X118342499Y-63117009D01*
X118396057Y-63156739D01*
X118421475Y-63175587D01*
X118536303Y-63288602D01*
X118646155Y-63438566D01*
X118739757Y-63610592D01*
X118743485Y-63618816D01*
X118772297Y-63694927D01*
X118789674Y-63776578D01*
X118798059Y-63880503D01*
X118799885Y-64023437D01*
X118799187Y-64098436D01*
X118798759Y-64108689D01*
X118794338Y-64214514D01*
X118782337Y-64301191D01*
X118760130Y-64376056D01*
X118724662Y-64456704D01*
X118691472Y-64518283D01*
X118617760Y-64630608D01*
X118542054Y-64723343D01*
X118510053Y-64757384D01*
X118466984Y-64811897D01*
X118441360Y-64868297D01*
X118432478Y-64913537D01*
X118426385Y-64944564D01*
X118415262Y-65058673D01*
X118375953Y-65279693D01*
X118288148Y-65507948D01*
X118159609Y-65713306D01*
X117996375Y-65889366D01*
X117804490Y-66029729D01*
X117589993Y-66127996D01*
X117570157Y-66132267D01*
X117358924Y-66177764D01*
X117316599Y-66182041D01*
X117232223Y-66193527D01*
X117183994Y-66210217D01*
X117157560Y-66239283D01*
X117138565Y-66287902D01*
X117132973Y-66303124D01*
X117067622Y-66409277D01*
X116961294Y-66519141D01*
X116825615Y-66624591D01*
X116672199Y-66717504D01*
X116512668Y-66789758D01*
X116358638Y-66833227D01*
X116353918Y-66834058D01*
X116130690Y-66848029D01*
X115898923Y-66818691D01*
X115676830Y-66749943D01*
X115482624Y-66645684D01*
X115423965Y-66598708D01*
X115344694Y-66522589D01*
X115264868Y-66435848D01*
X115194923Y-66350584D01*
X115145299Y-66278897D01*
X115126438Y-66232884D01*
X115116268Y-66217584D01*
X115056078Y-66196309D01*
X114943790Y-66180508D01*
X114714648Y-66132604D01*
X114641482Y-66099846D01*
X115406355Y-66099846D01*
X115417800Y-66133671D01*
X115465062Y-66198697D01*
X115537969Y-66275404D01*
X115624592Y-66352533D01*
X115712993Y-66418822D01*
X115791238Y-66463008D01*
X115891228Y-66499908D01*
X116100925Y-66539066D01*
X116306144Y-66523428D01*
X116509234Y-66452647D01*
X116712540Y-66326377D01*
X116749955Y-66297472D01*
X116817368Y-66236923D01*
X116850467Y-66186274D01*
X116859273Y-66132267D01*
X116847557Y-66077193D01*
X116784644Y-66002927D01*
X116667597Y-65940627D01*
X116496724Y-65890442D01*
X116272344Y-65852524D01*
X116258175Y-65850817D01*
X116087532Y-65841936D01*
X115918025Y-65852208D01*
X115758768Y-65879034D01*
X115618863Y-65919811D01*
X115507422Y-65971939D01*
X115433549Y-66032817D01*
X115406355Y-66099846D01*
X114641482Y-66099846D01*
X114498863Y-66035992D01*
X114304949Y-65897552D01*
X114139274Y-65723972D01*
X114008212Y-65521937D01*
X113918132Y-65298134D01*
X113875404Y-65059248D01*
X113871982Y-65012473D01*
X113869312Y-64987677D01*
X114192837Y-64987677D01*
X114193490Y-65053096D01*
X114202525Y-65162891D01*
X114226484Y-65255533D01*
X114270860Y-65357036D01*
X114298843Y-65408906D01*
X114416975Y-65569389D01*
X114564582Y-65706061D01*
X114725354Y-65802922D01*
X114745012Y-65811064D01*
X114857313Y-65844421D01*
X114983543Y-65866353D01*
X115101680Y-65873949D01*
X115189703Y-65864302D01*
X115220737Y-65847741D01*
X115272565Y-65781479D01*
X115308582Y-65682592D01*
X115322080Y-65566189D01*
X115303493Y-65394017D01*
X115234603Y-65196887D01*
X115113374Y-64999192D01*
X115063803Y-64942184D01*
X115361007Y-64942184D01*
X115380557Y-65106802D01*
X115445809Y-65262983D01*
X115550660Y-65401284D01*
X115689004Y-65512261D01*
X115809435Y-65566189D01*
X115854732Y-65586472D01*
X115917198Y-65603171D01*
X116130610Y-65629267D01*
X116326859Y-65602202D01*
X116381721Y-65577647D01*
X117013515Y-65577647D01*
X117015515Y-65684217D01*
X117024488Y-65751273D01*
X117044338Y-65794242D01*
X117078973Y-65828553D01*
X117085928Y-65833911D01*
X117183449Y-65873609D01*
X117308084Y-65877686D01*
X117448223Y-65849521D01*
X117592259Y-65792492D01*
X117728585Y-65709981D01*
X117845593Y-65605367D01*
X117905678Y-65534508D01*
X118015822Y-65362962D01*
X118078863Y-65182148D01*
X118100387Y-64978324D01*
X118100875Y-64913537D01*
X118098178Y-64825086D01*
X118087284Y-64768941D01*
X118064113Y-64729672D01*
X118024582Y-64691848D01*
X117991563Y-64667756D01*
X117881737Y-64630481D01*
X117754659Y-64637133D01*
X117617337Y-64683871D01*
X117476780Y-64766859D01*
X117339998Y-64882261D01*
X117305118Y-64922116D01*
X117213994Y-65026239D01*
X117105782Y-65194953D01*
X117066693Y-65271356D01*
X117033085Y-65359214D01*
X117017528Y-65449978D01*
X117013530Y-65570027D01*
X117013515Y-65577647D01*
X116381721Y-65577647D01*
X116506292Y-65521892D01*
X116669253Y-65388253D01*
X116769350Y-65261908D01*
X116837622Y-65103961D01*
X116859273Y-64922116D01*
X116845893Y-64774983D01*
X116789755Y-64618989D01*
X116686075Y-64483392D01*
X116560338Y-64381808D01*
X116390382Y-64300491D01*
X116209772Y-64263483D01*
X116026928Y-64268474D01*
X115850269Y-64313162D01*
X115688217Y-64395239D01*
X115549188Y-64512402D01*
X115441603Y-64662341D01*
X115373880Y-64842753D01*
X115361007Y-64942184D01*
X115063803Y-64942184D01*
X114938242Y-64797787D01*
X114854985Y-64717593D01*
X114711032Y-64601592D01*
X114583460Y-64533079D01*
X114467638Y-64509918D01*
X114358937Y-64529966D01*
X114345499Y-64536324D01*
X114285193Y-64597631D01*
X114236922Y-64700806D01*
X114204772Y-64834578D01*
X114192837Y-64987677D01*
X113869312Y-64987677D01*
X113861344Y-64913679D01*
X113844567Y-64847779D01*
X113815924Y-64797862D01*
X113769690Y-64747023D01*
X113705382Y-64672529D01*
X113604267Y-64502748D01*
X113531582Y-64306077D01*
X113492675Y-64098917D01*
X113492708Y-64067772D01*
X113804030Y-64067772D01*
X113841623Y-64260029D01*
X113925743Y-64439922D01*
X113957980Y-64486952D01*
X114027544Y-64556953D01*
X114091575Y-64571768D01*
X114152648Y-64531358D01*
X114213338Y-64435686D01*
X114219324Y-64423399D01*
X114273410Y-64284761D01*
X114314205Y-64129121D01*
X114341643Y-63965371D01*
X114355288Y-63806673D01*
X114561918Y-63806673D01*
X114602673Y-63973246D01*
X114685675Y-64119437D01*
X114810874Y-64237079D01*
X114949422Y-64306779D01*
X115120217Y-64339491D01*
X115298022Y-64325953D01*
X115473417Y-64268196D01*
X115636988Y-64168249D01*
X115779317Y-64028149D01*
X115846828Y-63932922D01*
X115931929Y-63753861D01*
X115972613Y-63569856D01*
X115971977Y-63533227D01*
X116280537Y-63533227D01*
X116285730Y-63569856D01*
X116306993Y-63719848D01*
X116376717Y-63901422D01*
X116485049Y-64068329D01*
X116627330Y-64210956D01*
X116798899Y-64319684D01*
X116842112Y-64338874D01*
X117023890Y-64387686D01*
X117199742Y-64387237D01*
X117361884Y-64340711D01*
X117502529Y-64251284D01*
X117613893Y-64122141D01*
X117688190Y-63956458D01*
X117715328Y-63804279D01*
X117709642Y-63705164D01*
X117921122Y-63705164D01*
X117928193Y-63804279D01*
X117932957Y-63871041D01*
X117958667Y-64043609D01*
X117996368Y-64209156D01*
X118044179Y-64353964D01*
X118100219Y-64464318D01*
X118157413Y-64532303D01*
X118223304Y-64562368D01*
X118290967Y-64537596D01*
X118364405Y-64457886D01*
X118364580Y-64457642D01*
X118450684Y-64294674D01*
X118496157Y-64108689D01*
X118496125Y-63919603D01*
X118491655Y-63890422D01*
X118454563Y-63752404D01*
X118396632Y-63625714D01*
X118324040Y-63516048D01*
X118242962Y-63429106D01*
X118159574Y-63370586D01*
X118080055Y-63346184D01*
X118010580Y-63361603D01*
X117957328Y-63422536D01*
X117946590Y-63448346D01*
X117925038Y-63559693D01*
X117921122Y-63705164D01*
X117709642Y-63705164D01*
X117704357Y-63613023D01*
X117648050Y-63430621D01*
X117552209Y-63264623D01*
X117422624Y-63122584D01*
X117265094Y-63012053D01*
X117085417Y-62940583D01*
X116889387Y-62915727D01*
X116844769Y-62917078D01*
X116661153Y-62951234D01*
X116509723Y-63030166D01*
X116392750Y-63152297D01*
X116312503Y-63316054D01*
X116302012Y-63351173D01*
X116280537Y-63533227D01*
X115971977Y-63533227D01*
X115969482Y-63389409D01*
X115923137Y-63221016D01*
X115834182Y-63073178D01*
X115703219Y-62954391D01*
X115644055Y-62916886D01*
X115570385Y-62882596D01*
X115490757Y-62867152D01*
X115380307Y-62863558D01*
X115345853Y-62864223D01*
X115142768Y-62898409D01*
X114961609Y-62983964D01*
X114803623Y-63120329D01*
X114693678Y-63266404D01*
X114607368Y-63445081D01*
X114563465Y-63627893D01*
X114563282Y-63649128D01*
X114561918Y-63806673D01*
X114355288Y-63806673D01*
X114355655Y-63802408D01*
X114356175Y-63649128D01*
X114343132Y-63514427D01*
X114316460Y-63407197D01*
X114276090Y-63336337D01*
X114221954Y-63310741D01*
X114208665Y-63313491D01*
X114154178Y-63340697D01*
X114085910Y-63387599D01*
X113954322Y-63522746D01*
X113861993Y-63688536D01*
X113811359Y-63873742D01*
X113804030Y-64067772D01*
X113492708Y-64067772D01*
X113492890Y-63897668D01*
X113509284Y-63788922D01*
X113580030Y-63552502D01*
X113694959Y-63349704D01*
X113853643Y-63181377D01*
X113855490Y-63179833D01*
X113925949Y-63117636D01*
X113963275Y-63068078D01*
X113977973Y-63009572D01*
X113979221Y-62966358D01*
X114287969Y-62966358D01*
X114291138Y-63035673D01*
X114306140Y-63076542D01*
X114338747Y-63087148D01*
X114393582Y-63070203D01*
X114481968Y-63021161D01*
X114594010Y-62946712D01*
X114721173Y-62853577D01*
X114854918Y-62748471D01*
X114986707Y-62638111D01*
X115108000Y-62529217D01*
X115172864Y-62465336D01*
X115461824Y-62465336D01*
X115468324Y-62515891D01*
X115518548Y-62615586D01*
X115610507Y-62701772D01*
X115734710Y-62764062D01*
X115869800Y-62799377D01*
X116059385Y-62822009D01*
X116251262Y-62819718D01*
X116427768Y-62792962D01*
X116571242Y-62742203D01*
X116603338Y-62724681D01*
X116722459Y-62634698D01*
X116787818Y-62536091D01*
X116799778Y-62433028D01*
X116758699Y-62329678D01*
X116671963Y-62237658D01*
X116915169Y-62237658D01*
X116930799Y-62278391D01*
X116984110Y-62350852D01*
X117058430Y-62433028D01*
X117067704Y-62443281D01*
X117173717Y-62548491D01*
X117294282Y-62659287D01*
X117421538Y-62768478D01*
X117547617Y-62868874D01*
X117664655Y-62953283D01*
X117764788Y-63014514D01*
X117863887Y-63064353D01*
X117930450Y-63085492D01*
X117965017Y-63069803D01*
X117975744Y-63013214D01*
X117970794Y-62911646D01*
X117935834Y-62723098D01*
X117856425Y-62554879D01*
X117729110Y-62408816D01*
X117632135Y-62331923D01*
X117437818Y-62231102D01*
X117216128Y-62178353D01*
X117132512Y-62170628D01*
X117014773Y-62173162D01*
X116940823Y-62195802D01*
X116915169Y-62237658D01*
X116671963Y-62237658D01*
X116664944Y-62230211D01*
X116518878Y-62138796D01*
X116329524Y-62071414D01*
X116127184Y-62050366D01*
X115927679Y-62076578D01*
X115742044Y-62148568D01*
X115623360Y-62234434D01*
X115581319Y-62264852D01*
X115519163Y-62329596D01*
X115474655Y-62398574D01*
X115461824Y-62465336D01*
X115172864Y-62465336D01*
X115210263Y-62428504D01*
X115284957Y-62342692D01*
X115325307Y-62280474D01*
X115332594Y-62234434D01*
X115297728Y-62207858D01*
X115216450Y-62197736D01*
X115084515Y-62201067D01*
X115062190Y-62202571D01*
X114847159Y-62242636D01*
X114659634Y-62324216D01*
X114504784Y-62442342D01*
X114387778Y-62592053D01*
X114313782Y-62768379D01*
X114287969Y-62966358D01*
X113979221Y-62966358D01*
X113980544Y-62920523D01*
X113996648Y-62771029D01*
X114055679Y-62579514D01*
X114149932Y-62394366D01*
X114270830Y-62231822D01*
X114409788Y-62108127D01*
X114437317Y-62088711D01*
X114490259Y-62046387D01*
X114511369Y-62021286D01*
X114510494Y-62018362D01*
X114480323Y-61993121D01*
X114420453Y-61960274D01*
X114403860Y-61951586D01*
X114321824Y-61892793D01*
X114231754Y-61809616D01*
X114146950Y-61716383D01*
X114080712Y-61627429D01*
X114046335Y-61557086D01*
X114038398Y-61531062D01*
X114004540Y-61448209D01*
X113959838Y-61359181D01*
X113959362Y-61358324D01*
X113886854Y-61195459D01*
X113838444Y-61019014D01*
X113821837Y-60889177D01*
X114125480Y-60889177D01*
X114132069Y-60922277D01*
X114182429Y-60983661D01*
X114211268Y-61016634D01*
X114225965Y-61050922D01*
X114203880Y-61074973D01*
X114185044Y-61095459D01*
X114195905Y-61128711D01*
X114244779Y-61185298D01*
X114265732Y-61208343D01*
X114296380Y-61253709D01*
X114287969Y-61270467D01*
X114281053Y-61271706D01*
X114282475Y-61296448D01*
X114324599Y-61348789D01*
X114349073Y-61375816D01*
X114378674Y-61425164D01*
X114368019Y-61458727D01*
X114360005Y-61469109D01*
X114366055Y-61500464D01*
X114419454Y-61541111D01*
X114428968Y-61547187D01*
X114477582Y-61589668D01*
X114491578Y-61624271D01*
X114491100Y-61626106D01*
X114510398Y-61653609D01*
X114566210Y-61675453D01*
X114633612Y-61703246D01*
X114679569Y-61746189D01*
X114722003Y-61784336D01*
X114812094Y-61806802D01*
X114821857Y-61807712D01*
X114889650Y-61823604D01*
X114909834Y-61850408D01*
X114921799Y-61869454D01*
X114974793Y-61881823D01*
X115056882Y-61881991D01*
X115154032Y-61870122D01*
X115252207Y-61846383D01*
X115260410Y-61843773D01*
X115389707Y-61791741D01*
X115454472Y-61745599D01*
X115853260Y-61745599D01*
X115868717Y-61750072D01*
X115929655Y-61754984D01*
X116026122Y-61758334D01*
X116146574Y-61759573D01*
X116148099Y-61759573D01*
X116299315Y-61756136D01*
X116396128Y-61745634D01*
X116439629Y-61727618D01*
X116430913Y-61701642D01*
X116371075Y-61667253D01*
X116344685Y-61651129D01*
X116280498Y-61593708D01*
X116217355Y-61518828D01*
X116183612Y-61474756D01*
X116146874Y-61435011D01*
X116132599Y-61432029D01*
X116132587Y-61432446D01*
X116112875Y-61466493D01*
X116062817Y-61525493D01*
X115993005Y-61596929D01*
X115989697Y-61600128D01*
X115920890Y-61668516D01*
X115871943Y-61720696D01*
X115853260Y-61745599D01*
X115454472Y-61745599D01*
X115481344Y-61726454D01*
X115552642Y-61635772D01*
X115612334Y-61539917D01*
X115455879Y-61397736D01*
X115419974Y-61366621D01*
X115309244Y-61280349D01*
X115179609Y-61188812D01*
X115052225Y-61107233D01*
X114972332Y-61057922D01*
X114902554Y-61011229D01*
X114867868Y-60982939D01*
X114874898Y-60977883D01*
X114882037Y-60980091D01*
X114944993Y-61006697D01*
X115041805Y-61053786D01*
X115160355Y-61114891D01*
X115288529Y-61183542D01*
X115414209Y-61253273D01*
X115525279Y-61317616D01*
X115609624Y-61370102D01*
X115715500Y-61440327D01*
X115798279Y-61357547D01*
X115834090Y-61314203D01*
X115867085Y-61227574D01*
X116427553Y-61227574D01*
X116466915Y-61330003D01*
X116552238Y-61405111D01*
X116577305Y-61417536D01*
X116612955Y-61424118D01*
X116656385Y-61411697D01*
X116720209Y-61375837D01*
X116817042Y-61312109D01*
X116944544Y-61230823D01*
X117089200Y-61146781D01*
X117230529Y-61071743D01*
X117354279Y-61013258D01*
X117446199Y-60978868D01*
X117481179Y-60972043D01*
X117472718Y-60985247D01*
X117418250Y-61022377D01*
X117416582Y-61023449D01*
X117206192Y-61160416D01*
X117039809Y-61272631D01*
X116913193Y-61363491D01*
X116822099Y-61436387D01*
X116762287Y-61494716D01*
X116729510Y-61541871D01*
X116719528Y-61581243D01*
X116738354Y-61640978D01*
X116794784Y-61716322D01*
X116807629Y-61727618D01*
X116874760Y-61786661D01*
X116963975Y-61837023D01*
X117000555Y-61849914D01*
X117106349Y-61878253D01*
X117215622Y-61898621D01*
X117249542Y-61902998D01*
X117320713Y-61908062D01*
X117354068Y-61899108D01*
X117362353Y-61873992D01*
X117379992Y-61841489D01*
X117443913Y-61829447D01*
X117458340Y-61829259D01*
X117539829Y-61820049D01*
X117591579Y-61800277D01*
X117600519Y-61774521D01*
X117601363Y-61766521D01*
X117634159Y-61737849D01*
X117698429Y-61703366D01*
X117737210Y-61684472D01*
X117783542Y-61649984D01*
X117782140Y-61620496D01*
X117776199Y-61609898D01*
X117791093Y-61578036D01*
X117856178Y-61539361D01*
X117886993Y-61523653D01*
X117931509Y-61489372D01*
X117927479Y-61461077D01*
X117921118Y-61452499D01*
X117927810Y-61415283D01*
X117981240Y-61360624D01*
X118011718Y-61333367D01*
X118041474Y-61292859D01*
X118028828Y-61267809D01*
X118018565Y-61259702D01*
X118015935Y-61229718D01*
X118054822Y-61179304D01*
X118061204Y-61172454D01*
X118107343Y-61114329D01*
X118109937Y-61083729D01*
X118069823Y-61074824D01*
X118048734Y-61070479D01*
X118053604Y-61047343D01*
X118097772Y-60996436D01*
X118119632Y-60973093D01*
X118163547Y-60916893D01*
X118165718Y-60887603D01*
X118127690Y-60879183D01*
X118120234Y-60878836D01*
X118096618Y-60863189D01*
X118100065Y-60817503D01*
X118130768Y-60732449D01*
X118137090Y-60704779D01*
X118115507Y-60687662D01*
X118050093Y-60683539D01*
X118022605Y-60682873D01*
X117965825Y-60670271D01*
X117949280Y-60637981D01*
X117939903Y-60610812D01*
X117902405Y-60601237D01*
X117823510Y-60606598D01*
X117762394Y-60611468D01*
X117712105Y-60605428D01*
X117697740Y-60581954D01*
X117692393Y-60564437D01*
X117657997Y-60553958D01*
X117581665Y-60561696D01*
X117535243Y-60567968D01*
X117488384Y-60566654D01*
X117485493Y-60548052D01*
X117486399Y-60546547D01*
X117486778Y-60520309D01*
X117449243Y-60520303D01*
X117384910Y-60546679D01*
X117335394Y-60563042D01*
X117304082Y-60539956D01*
X117289379Y-60523711D01*
X117255007Y-60523022D01*
X117192647Y-60554512D01*
X117174700Y-60564741D01*
X117115173Y-60587921D01*
X117084493Y-60574381D01*
X117083054Y-60572217D01*
X117051232Y-60563128D01*
X116994130Y-60597537D01*
X116935424Y-60632097D01*
X116894762Y-60624003D01*
X116890200Y-60620204D01*
X116851234Y-60623121D01*
X116791979Y-60674239D01*
X116757097Y-60709064D01*
X116718872Y-60731661D01*
X116694467Y-60715641D01*
X116679998Y-60702337D01*
X116649238Y-60714798D01*
X116600642Y-60771537D01*
X116582125Y-60796818D01*
X116485467Y-60956937D01*
X116433838Y-61101872D01*
X116428888Y-61200861D01*
X116427553Y-61227574D01*
X115867085Y-61227574D01*
X115877259Y-61200861D01*
X115870340Y-61065084D01*
X115813523Y-60908139D01*
X115706988Y-60731292D01*
X115693587Y-60713133D01*
X115651598Y-60674966D01*
X115616918Y-60682399D01*
X115607279Y-60688684D01*
X115565337Y-60685596D01*
X115503930Y-60639337D01*
X115486968Y-60624172D01*
X115434568Y-60590298D01*
X115405524Y-60600343D01*
X115401525Y-60605873D01*
X115369067Y-60614454D01*
X115310187Y-60584511D01*
X115305138Y-60581246D01*
X115243848Y-60553387D01*
X115204692Y-60566156D01*
X115201987Y-60568696D01*
X115159815Y-60579747D01*
X115090623Y-60553702D01*
X115077747Y-60547231D01*
X115018122Y-60527328D01*
X114987438Y-60542589D01*
X114985298Y-60545783D01*
X114953023Y-60559767D01*
X114891324Y-60539827D01*
X114868210Y-60529862D01*
X114820050Y-60519484D01*
X114793130Y-60540428D01*
X114753060Y-60562383D01*
X114669362Y-60556691D01*
X114624080Y-60549683D01*
X114579462Y-60553202D01*
X114567459Y-60579174D01*
X114559490Y-60601241D01*
X114521719Y-60611631D01*
X114441688Y-60606598D01*
X114363768Y-60601214D01*
X114325668Y-60610502D01*
X114315918Y-60637981D01*
X114314898Y-60648487D01*
X114288348Y-60675578D01*
X114218097Y-60683539D01*
X114192997Y-60683893D01*
X114135715Y-60693453D01*
X114127388Y-60722521D01*
X114163088Y-60779716D01*
X114192029Y-60823618D01*
X114199622Y-60865747D01*
X114162199Y-60879183D01*
X114161657Y-60879183D01*
X114125480Y-60889177D01*
X113821837Y-60889177D01*
X113816044Y-60843884D01*
X113821565Y-60684968D01*
X113856919Y-60557166D01*
X113904840Y-60488412D01*
X114003653Y-60418829D01*
X114018797Y-60412072D01*
X114098148Y-60375137D01*
X114156599Y-60345696D01*
X114196544Y-60328648D01*
X114303223Y-60298971D01*
X114463132Y-60266373D01*
X114677550Y-60230574D01*
X114729440Y-60223283D01*
X114861922Y-60212962D01*
X115005032Y-60215654D01*
X115180632Y-60231396D01*
X115329215Y-60251481D01*
X115544635Y-60299122D01*
X115718955Y-60367708D01*
X115860484Y-60462009D01*
X115977525Y-60586793D01*
X116078388Y-60746831D01*
X116167942Y-60914852D01*
X116205367Y-60825842D01*
X116290707Y-60666981D01*
X116426869Y-60514618D01*
X116604479Y-60398447D01*
X116740450Y-60335274D01*
X116901099Y-60277887D01*
X117067532Y-60241723D01*
X117264532Y-60220084D01*
X117314349Y-60216752D01*
X117412825Y-60213974D01*
X117510317Y-60218406D01*
X117620665Y-60231472D01*
X117757715Y-60254598D01*
X117935307Y-60289214D01*
X118001112Y-60305048D01*
X118134362Y-60351112D01*
X118255642Y-60409686D01*
X118350609Y-60473279D01*
X118404917Y-60534402D01*
X118433303Y-60605939D01*
X118462629Y-60755891D01*
X118465328Y-60887603D01*
X118465994Y-60920143D01*
G37*
G36*
X129603990Y-66629204D02*
G01*
X129603990Y-67139742D01*
X129603990Y-70158227D01*
X130260790Y-70158227D01*
X130917588Y-70158227D01*
X130917588Y-65085498D01*
X130917588Y-60012766D01*
X132957860Y-60012766D01*
X134998133Y-60012766D01*
X134998133Y-61032902D01*
X134998133Y-62053037D01*
X133977997Y-62053037D01*
X132957860Y-62053037D01*
X132957860Y-66105634D01*
X132957860Y-70158227D01*
X136367632Y-70158227D01*
X139777402Y-70158227D01*
X141817676Y-70158227D01*
X144361028Y-70158227D01*
X146904383Y-70158227D01*
X146904383Y-69157615D01*
X146904383Y-68157005D01*
X145891233Y-67145482D01*
X144878085Y-66133964D01*
X144361028Y-66135162D01*
X143843975Y-66136359D01*
X142830825Y-67135494D01*
X141817676Y-68134631D01*
X141817676Y-69146430D01*
X141817676Y-70158227D01*
X139777402Y-70158227D01*
X139777402Y-68655826D01*
X139777402Y-67153425D01*
X140783565Y-66147558D01*
X140838650Y-66092446D01*
X141031121Y-65899167D01*
X141210021Y-65718436D01*
X141371625Y-65554087D01*
X141512202Y-65409954D01*
X141628028Y-65289873D01*
X141715376Y-65197678D01*
X141770518Y-65137203D01*
X141789727Y-65112286D01*
X141788340Y-65109359D01*
X141759160Y-65074711D01*
X141694950Y-65005624D01*
X141599447Y-64905933D01*
X141476400Y-64779464D01*
X141329543Y-64630049D01*
X141162625Y-64461518D01*
X140979385Y-64277703D01*
X140783565Y-64082433D01*
X139777402Y-63081981D01*
X139777402Y-61547373D01*
X139777402Y-60012766D01*
X140797540Y-60012766D01*
X141817676Y-60012766D01*
X141821726Y-61053862D01*
X141825775Y-62094961D01*
X142850363Y-63108111D01*
X143874951Y-64121259D01*
X144361666Y-64121259D01*
X144848382Y-64121259D01*
X145876383Y-63094643D01*
X146904383Y-62068028D01*
X146904383Y-61040397D01*
X146904383Y-60012766D01*
X147924520Y-60012766D01*
X148944657Y-60012766D01*
X148944657Y-61553589D01*
X148944657Y-63094412D01*
X147922688Y-64101959D01*
X146900721Y-65109504D01*
X147922688Y-66131752D01*
X148944657Y-67153996D01*
X148944657Y-70158227D01*
X148944657Y-70570615D01*
X148944657Y-70659286D01*
X148944657Y-72841462D01*
X148944657Y-73987234D01*
X134676721Y-73987234D01*
X120408788Y-73987234D01*
X120408788Y-72156577D01*
X120841997Y-72156577D01*
X121128473Y-72164542D01*
X121414949Y-72172507D01*
X121414949Y-72065952D01*
X121415990Y-72033845D01*
X121442528Y-71924726D01*
X121503765Y-71857870D01*
X121598203Y-71835165D01*
X121670650Y-71845950D01*
X121750337Y-71891062D01*
X121759618Y-71900921D01*
X121774309Y-71922307D01*
X121785543Y-71952812D01*
X121793787Y-71999120D01*
X121799497Y-72067912D01*
X121803137Y-72165871D01*
X121805165Y-72299682D01*
X121806044Y-72476025D01*
X121806235Y-72701582D01*
X121806235Y-73456202D01*
X122085724Y-73456202D01*
X122365213Y-73456202D01*
X122365213Y-72976939D01*
X122672653Y-72976939D01*
X122681500Y-73074549D01*
X122728772Y-73195427D01*
X122821413Y-73296674D01*
X122964568Y-73385471D01*
X123007740Y-73406537D01*
X123075494Y-73435121D01*
X123142632Y-73453887D01*
X123158993Y-73456202D01*
X123223279Y-73465307D01*
X123331567Y-73471857D01*
X123481623Y-73476009D01*
X123524205Y-73476714D01*
X123765004Y-73470220D01*
X123960074Y-73443494D01*
X124115594Y-73394699D01*
X124237742Y-73322002D01*
X124332693Y-73223575D01*
X124334182Y-73221570D01*
X124352309Y-73194187D01*
X124366155Y-73162486D01*
X124376297Y-73119096D01*
X124383305Y-73056652D01*
X124387757Y-72967784D01*
X124390225Y-72845125D01*
X124391287Y-72681302D01*
X124391512Y-72468955D01*
X124391513Y-72431596D01*
X124671003Y-72431596D01*
X124671003Y-73442230D01*
X124943504Y-73450227D01*
X125216005Y-73458227D01*
X125216005Y-73442230D01*
X125537419Y-73442230D01*
X125809922Y-73450227D01*
X126082424Y-73458227D01*
X126082424Y-72471837D01*
X126445760Y-72471837D01*
X126445762Y-72499826D01*
X126446365Y-72724287D01*
X126449593Y-72900731D01*
X126457665Y-73036262D01*
X126472800Y-73137977D01*
X126497219Y-73212980D01*
X126533143Y-73268369D01*
X126582788Y-73311242D01*
X126648375Y-73348701D01*
X126732125Y-73387849D01*
X126740588Y-73391662D01*
X126821924Y-73425351D01*
X126897299Y-73447912D01*
X126982179Y-73461995D01*
X127092025Y-73470255D01*
X127242304Y-73475340D01*
X127306903Y-73476481D01*
X127523597Y-73470771D01*
X127699935Y-73447609D01*
X127846624Y-73405032D01*
X127974368Y-73341076D01*
X128028119Y-73305046D01*
X128074734Y-73262656D01*
X128109605Y-73210246D01*
X128134615Y-73140170D01*
X128151640Y-73044780D01*
X128162559Y-72916432D01*
X128169249Y-72747480D01*
X128173593Y-72530277D01*
X128175730Y-72352625D01*
X128175267Y-72170551D01*
X128430135Y-72170551D01*
X128709624Y-72170551D01*
X128989113Y-72170551D01*
X128989113Y-72084869D01*
X128997729Y-72011196D01*
X129032343Y-71918295D01*
X129084132Y-71856555D01*
X129101825Y-71847174D01*
X129183497Y-71834626D01*
X129272694Y-71851589D01*
X129341130Y-71893946D01*
X129345088Y-71898457D01*
X129360297Y-71920837D01*
X129372198Y-71952207D01*
X129381303Y-71999267D01*
X129388115Y-72068719D01*
X129393148Y-72167264D01*
X129396909Y-72301602D01*
X129397773Y-72352625D01*
X129399904Y-72478436D01*
X129402643Y-72704465D01*
X129410915Y-73456202D01*
X129670488Y-73456202D01*
X129731582Y-73455687D01*
X129837380Y-73452059D01*
X129914243Y-73445720D01*
X129948694Y-73437570D01*
X129952198Y-73416932D01*
X129956300Y-73345862D01*
X129959937Y-73230645D01*
X129962984Y-73077834D01*
X129965313Y-72893981D01*
X129966803Y-72685639D01*
X129967328Y-72459357D01*
X129967328Y-71863114D01*
X130274765Y-71863114D01*
X130373165Y-71863114D01*
X130471565Y-71863114D01*
X130463999Y-72429080D01*
X130463594Y-72459357D01*
X130456434Y-72995046D01*
X130366204Y-73036970D01*
X130343972Y-73047526D01*
X130305237Y-73072144D01*
X130284903Y-73106837D01*
X130276953Y-73166881D01*
X130275369Y-73267549D01*
X130274765Y-73456202D01*
X130449447Y-73453342D01*
X130499318Y-73452025D01*
X130607304Y-73442230D01*
X131574388Y-73442230D01*
X131846890Y-73450227D01*
X132119393Y-73458227D01*
X132119393Y-72728394D01*
X132119393Y-71998559D01*
X132201090Y-71916862D01*
X132261953Y-71865819D01*
X132327656Y-71841230D01*
X132422537Y-71835165D01*
X132489365Y-71837945D01*
X132574138Y-71858806D01*
X132648277Y-71907521D01*
X132734270Y-71979877D01*
X132734270Y-72718040D01*
X132734270Y-73456202D01*
X133013758Y-73456202D01*
X133293247Y-73456202D01*
X133293247Y-72480845D01*
X133600731Y-72480845D01*
X133601095Y-72671332D01*
X133603881Y-72856826D01*
X133611493Y-72999981D01*
X133626325Y-73108220D01*
X133650770Y-73188965D01*
X133687226Y-73249639D01*
X133738087Y-73297667D01*
X133805746Y-73340470D01*
X133892601Y-73385471D01*
X133935772Y-73406537D01*
X134003528Y-73435121D01*
X134070665Y-73453887D01*
X134087027Y-73456202D01*
X134151313Y-73465307D01*
X134259601Y-73471857D01*
X134409657Y-73476009D01*
X134452238Y-73476714D01*
X134693038Y-73470220D01*
X134888108Y-73443494D01*
X135043627Y-73394699D01*
X135165775Y-73322002D01*
X135260727Y-73223575D01*
X135262932Y-73220599D01*
X135280838Y-73193295D01*
X135294513Y-73161431D01*
X135304528Y-73117675D01*
X135311450Y-73054690D01*
X135315843Y-72965145D01*
X135318278Y-72841705D01*
X135319325Y-72677036D01*
X135319386Y-72617736D01*
X135635721Y-72617736D01*
X135645327Y-72895450D01*
X135645656Y-72904855D01*
X135651197Y-73030707D01*
X135659466Y-73115119D01*
X135673816Y-73171701D01*
X135697602Y-73214064D01*
X135734182Y-73255821D01*
X135777575Y-73292944D01*
X135869891Y-73351974D01*
X135971747Y-73400969D01*
X136033552Y-73423092D01*
X136115500Y-73443984D01*
X136212775Y-73458077D01*
X136338893Y-73467192D01*
X136507376Y-73473149D01*
X136635147Y-73474484D01*
X136889301Y-73461825D01*
X137095788Y-73426662D01*
X137257408Y-73368127D01*
X137376968Y-73285349D01*
X137457265Y-73177451D01*
X137466320Y-73158951D01*
X137479657Y-73125657D01*
X137490222Y-73085640D01*
X137498335Y-73032750D01*
X137504320Y-72960842D01*
X137508495Y-72863769D01*
X137511183Y-72735384D01*
X137512706Y-72569540D01*
X137513383Y-72360094D01*
X137513439Y-72267212D01*
X138719271Y-72267212D01*
X138721446Y-72496977D01*
X138721466Y-72498637D01*
X138724527Y-72722002D01*
X138729222Y-72896915D01*
X138737943Y-73030765D01*
X138753077Y-73130946D01*
X138777010Y-73204846D01*
X138812132Y-73259859D01*
X138860831Y-73303374D01*
X138925493Y-73342781D01*
X139008507Y-73385471D01*
X139051976Y-73406834D01*
X139119121Y-73435306D01*
X139185850Y-73453987D01*
X139266238Y-73465351D01*
X139374366Y-73471869D01*
X139524313Y-73476009D01*
X139611363Y-73476965D01*
X139843660Y-73467261D01*
X140031178Y-73437049D01*
X140180071Y-73384389D01*
X140296485Y-73307344D01*
X140386568Y-73203971D01*
X140392232Y-73195519D01*
X140411283Y-73164307D01*
X140425552Y-73130705D01*
X140435608Y-73087067D01*
X140442018Y-73025751D01*
X140445350Y-72939117D01*
X140446171Y-72819519D01*
X140445052Y-72659314D01*
X140442562Y-72450861D01*
X140439481Y-72231690D01*
X140435022Y-72055682D01*
X140427156Y-71921027D01*
X140413777Y-71820380D01*
X140392787Y-71746386D01*
X140362083Y-71691695D01*
X140319563Y-71648959D01*
X140263125Y-71610827D01*
X140190666Y-71569950D01*
X140171656Y-71560087D01*
X140025564Y-71509837D01*
X140615871Y-71509837D01*
X140621141Y-71527221D01*
X140642357Y-71591082D01*
X140677531Y-71694902D01*
X140724193Y-71831434D01*
X140779871Y-71993424D01*
X140842095Y-72173625D01*
X140860665Y-72227284D01*
X140955560Y-72501451D01*
X141034132Y-72728334D01*
X141065741Y-72819519D01*
X141098027Y-72912655D01*
X141148893Y-73059125D01*
X141188376Y-73172465D01*
X141218120Y-73257390D01*
X141239771Y-73318620D01*
X141254978Y-73360869D01*
X141265385Y-73388852D01*
X141272640Y-73407294D01*
X141275390Y-73413276D01*
X141296556Y-73435205D01*
X141339588Y-73448270D01*
X141415812Y-73454570D01*
X141536551Y-73456202D01*
X141780476Y-73456202D01*
X141928947Y-73057931D01*
X141940818Y-73026101D01*
X142003840Y-72857462D01*
X142068110Y-72685975D01*
X142126718Y-72530056D01*
X142172757Y-72408119D01*
X142187712Y-72368580D01*
X142240843Y-72227164D01*
X142267132Y-72156577D01*
X142809863Y-72156577D01*
X143078556Y-72164531D01*
X143347247Y-72172484D01*
X143362663Y-72057552D01*
X143364106Y-72047499D01*
X143400725Y-71930296D01*
X143467027Y-71859220D01*
X143561828Y-71835592D01*
X143581072Y-71835850D01*
X143636051Y-71840557D01*
X143679482Y-71855564D01*
X143712721Y-71886565D01*
X143737127Y-71939265D01*
X143754053Y-72019361D01*
X143764860Y-72132551D01*
X143770897Y-72284537D01*
X143773527Y-72481019D01*
X143774102Y-72727694D01*
X143774102Y-73456202D01*
X144053591Y-73456202D01*
X144333081Y-73456202D01*
X144333081Y-72969861D01*
X144640520Y-72969861D01*
X144652885Y-73104236D01*
X144697132Y-73212232D01*
X144781247Y-73299502D01*
X144913202Y-73377971D01*
X144958583Y-73399931D01*
X145032191Y-73431551D01*
X145101507Y-73452084D01*
X145128418Y-73456202D01*
X145181577Y-73464340D01*
X145287451Y-73471130D01*
X145434175Y-73475262D01*
X145463570Y-73475801D01*
X145713383Y-73470057D01*
X145916263Y-73443687D01*
X146077308Y-73395214D01*
X146201618Y-73323159D01*
X146294290Y-73226046D01*
X146309537Y-73203761D01*
X146327443Y-73170787D01*
X146340746Y-73130364D01*
X146350315Y-73074414D01*
X146357013Y-72994867D01*
X146361708Y-72883645D01*
X146365268Y-72732676D01*
X146368557Y-72533889D01*
X146371037Y-72312236D01*
X146370083Y-72130817D01*
X146364312Y-71990495D01*
X146352465Y-71883769D01*
X146333282Y-71803140D01*
X146305510Y-71741112D01*
X146267890Y-71690184D01*
X146219165Y-71642859D01*
X146198662Y-71625582D01*
X146099827Y-71561187D01*
X146085493Y-71555675D01*
X146680791Y-71555675D01*
X146960282Y-71555675D01*
X147239771Y-71555675D01*
X147239771Y-71374651D01*
X147241727Y-71276781D01*
X147251358Y-71214884D01*
X147274103Y-71176175D01*
X147315401Y-71144074D01*
X147377327Y-71115834D01*
X147469593Y-71099446D01*
X147603107Y-71094517D01*
X147730675Y-71098917D01*
X147824785Y-71114632D01*
X147890813Y-71144074D01*
X147928371Y-71172475D01*
X147953352Y-71210365D01*
X147964127Y-71270005D01*
X147966443Y-71368432D01*
X147965878Y-71404664D01*
X147952735Y-71526765D01*
X147923501Y-71604546D01*
X147915941Y-71613902D01*
X147847407Y-71661524D01*
X147726590Y-71711111D01*
X147552315Y-71763084D01*
X147323408Y-71817861D01*
X147310481Y-71820780D01*
X147139933Y-71873457D01*
X146980308Y-71946836D01*
X146846560Y-72032886D01*
X146753647Y-72123584D01*
X146749057Y-72129849D01*
X146727922Y-72164907D01*
X146712637Y-72208224D01*
X146701975Y-72269325D01*
X146698450Y-72312236D01*
X146694713Y-72357737D01*
X146689633Y-72482990D01*
X146685508Y-72654614D01*
X146683431Y-72772076D01*
X146682662Y-72918059D01*
X146685556Y-73023721D01*
X146692770Y-73098569D01*
X146704958Y-73152107D01*
X146722782Y-73193842D01*
X146728896Y-73204625D01*
X146815846Y-73298352D01*
X146954663Y-73377707D01*
X147143070Y-73441346D01*
X147255652Y-73461717D01*
X147415052Y-73475800D01*
X147594178Y-73481215D01*
X147774466Y-73477895D01*
X147937350Y-73465770D01*
X148064265Y-73444771D01*
X148139538Y-73424455D01*
X148304353Y-73361092D01*
X148422207Y-73278437D01*
X148499035Y-73169165D01*
X148540777Y-73025949D01*
X148553371Y-72841462D01*
X148553371Y-72615780D01*
X148266895Y-72623745D01*
X147980418Y-72631709D01*
X147966443Y-72827125D01*
X147964027Y-72859876D01*
X147954551Y-72951087D01*
X147939618Y-73005401D01*
X147913040Y-73037749D01*
X147868622Y-73063062D01*
X147810233Y-73083050D01*
X147690106Y-73100494D01*
X147554820Y-73101471D01*
X147427333Y-73086315D01*
X147330606Y-73055352D01*
X147239771Y-73007584D01*
X147239771Y-72712689D01*
X147239843Y-72653709D01*
X147241512Y-72540276D01*
X147247402Y-72465014D01*
X147260138Y-72415267D01*
X147282340Y-72378381D01*
X147316631Y-72341699D01*
X147323165Y-72335444D01*
X147375820Y-72297217D01*
X147451522Y-72262484D01*
X147560981Y-72227082D01*
X147714902Y-72186849D01*
X147771078Y-72172959D01*
X147951257Y-72125800D01*
X148089353Y-72084000D01*
X148195568Y-72043832D01*
X148280091Y-72001570D01*
X148353121Y-71953482D01*
X148367440Y-71942742D01*
X148446765Y-71872882D01*
X148500327Y-71797839D01*
X148532806Y-71705044D01*
X148548878Y-71581930D01*
X148553222Y-71415931D01*
X148548347Y-71244030D01*
X148530415Y-71108607D01*
X148495696Y-71007371D01*
X148440470Y-70929655D01*
X148361016Y-70864789D01*
X148347883Y-70856174D01*
X148264597Y-70810007D01*
X148172553Y-70776431D01*
X148059978Y-70752855D01*
X147915101Y-70736695D01*
X147726141Y-70725367D01*
X147483533Y-70721709D01*
X147237650Y-70739024D01*
X147038415Y-70780294D01*
X146883577Y-70845840D01*
X146820128Y-70887346D01*
X146751235Y-70955286D01*
X146708575Y-71041306D01*
X146686856Y-71157690D01*
X146680791Y-71316721D01*
X146680791Y-71555675D01*
X146085493Y-71555675D01*
X145982125Y-71515927D01*
X145836600Y-71487924D01*
X145654300Y-71475289D01*
X145426271Y-71476144D01*
X145323163Y-71479280D01*
X145193496Y-71485346D01*
X145099471Y-71494370D01*
X145028562Y-71508349D01*
X144968237Y-71529284D01*
X144905963Y-71559174D01*
X144854066Y-71589805D01*
X144765253Y-71657576D01*
X144702703Y-71724655D01*
X144694083Y-71737469D01*
X144672091Y-71775656D01*
X144657237Y-71818255D01*
X144648401Y-71875555D01*
X144644463Y-71957851D01*
X144644306Y-72075439D01*
X144646806Y-72238609D01*
X144654493Y-72659659D01*
X145220460Y-72667225D01*
X145786426Y-72674790D01*
X145786426Y-72841261D01*
X145785821Y-72893594D01*
X145778765Y-72970614D01*
X145759690Y-73016402D01*
X145723540Y-73047556D01*
X145666350Y-73077244D01*
X145522706Y-73109606D01*
X145370006Y-73093625D01*
X145289562Y-73061682D01*
X145221581Y-72995030D01*
X145199497Y-72899062D01*
X145199445Y-72894101D01*
X145194470Y-72869514D01*
X145174185Y-72854039D01*
X145128443Y-72845580D01*
X145047100Y-72842040D01*
X144920008Y-72841326D01*
X144640520Y-72841326D01*
X144640520Y-72969861D01*
X144333081Y-72969861D01*
X144333081Y-72477990D01*
X144333081Y-71499777D01*
X144053591Y-71499777D01*
X144038622Y-71499782D01*
X143916415Y-71500745D01*
X143838977Y-71504792D01*
X143796190Y-71513949D01*
X143777938Y-71530234D01*
X143774102Y-71555675D01*
X143771690Y-71594451D01*
X143756915Y-71606865D01*
X143718627Y-71589687D01*
X143645672Y-71541701D01*
X143643782Y-71540421D01*
X143582915Y-71504727D01*
X143519926Y-71483940D01*
X143436927Y-71474270D01*
X143316031Y-71471932D01*
X143230563Y-71474395D01*
X143070257Y-71499646D01*
X143069985Y-71499777D01*
X142953257Y-71556037D01*
X142874691Y-71648294D01*
X142829685Y-71781137D01*
X142813370Y-71959292D01*
X142809863Y-72156577D01*
X142267132Y-72156577D01*
X142292846Y-72087534D01*
X142334316Y-71974909D01*
X142368097Y-71883377D01*
X142416491Y-71754936D01*
X142458356Y-71646509D01*
X142516171Y-71499777D01*
X142197902Y-71499777D01*
X141879633Y-71499777D01*
X141861626Y-71576637D01*
X141849993Y-71624120D01*
X141819525Y-71738956D01*
X141780522Y-71877934D01*
X141735645Y-72032400D01*
X141687545Y-72193699D01*
X141638878Y-72353177D01*
X141592301Y-72502182D01*
X141550468Y-72632059D01*
X141516035Y-72734152D01*
X141491658Y-72799811D01*
X141479991Y-72820377D01*
X141471256Y-72799712D01*
X141448562Y-72732536D01*
X141415393Y-72628012D01*
X141374490Y-72495281D01*
X141328591Y-72343487D01*
X141280433Y-72181774D01*
X141232756Y-72019281D01*
X141188297Y-71865152D01*
X141149797Y-71728532D01*
X141119995Y-71618561D01*
X141088850Y-71499777D01*
X140852360Y-71499777D01*
X140809518Y-71499944D01*
X140710512Y-71501801D01*
X140641676Y-71505281D01*
X140615871Y-71509837D01*
X140025564Y-71509837D01*
X140024628Y-71509515D01*
X139833646Y-71478167D01*
X139606362Y-71466894D01*
X139350427Y-71476544D01*
X139259722Y-71484780D01*
X139144337Y-71503034D01*
X139051716Y-71531840D01*
X138961332Y-71576470D01*
X138898083Y-71613474D01*
X138838500Y-71655427D01*
X138793416Y-71702424D01*
X138760941Y-71761720D01*
X138739183Y-71840584D01*
X138726247Y-71946280D01*
X138720241Y-72086067D01*
X138720162Y-72100895D01*
X138719271Y-72267212D01*
X137513439Y-72267212D01*
X137513538Y-72100895D01*
X137513371Y-71926567D01*
X137512296Y-71684721D01*
X137510058Y-71490195D01*
X137506462Y-71337674D01*
X137501310Y-71221845D01*
X137494410Y-71137399D01*
X137485565Y-71079024D01*
X137474581Y-71041406D01*
X137468306Y-71027259D01*
X137386320Y-70915552D01*
X137256743Y-70828996D01*
X137078868Y-70767339D01*
X136851988Y-70730321D01*
X136575395Y-70717692D01*
X136386596Y-70721919D01*
X136163991Y-70743670D01*
X135984893Y-70784780D01*
X135843745Y-70846220D01*
X135780301Y-70887534D01*
X135711425Y-70955289D01*
X135668760Y-71041245D01*
X135647031Y-71157642D01*
X135640958Y-71316721D01*
X135640958Y-71555675D01*
X135920450Y-71555675D01*
X136199938Y-71555675D01*
X136199938Y-71360676D01*
X136199977Y-71336686D01*
X136202616Y-71241409D01*
X136212866Y-71183325D01*
X136235570Y-71146781D01*
X136275568Y-71116124D01*
X136289841Y-71107530D01*
X136354815Y-71083287D01*
X136447681Y-71070376D01*
X136582231Y-71066569D01*
X136615425Y-71066651D01*
X136722288Y-71069565D01*
X136791652Y-71079002D01*
X136838277Y-71098149D01*
X136876925Y-71130192D01*
X136886727Y-71140187D01*
X136902670Y-71159832D01*
X136915201Y-71185305D01*
X136924802Y-71222862D01*
X136931952Y-71278767D01*
X136937133Y-71359274D01*
X136940826Y-71470644D01*
X136943510Y-71619132D01*
X136945668Y-71811001D01*
X136947778Y-72052507D01*
X136949128Y-72253884D01*
X136949385Y-72463801D01*
X136949401Y-72476852D01*
X136947793Y-72652512D01*
X136944156Y-72785756D01*
X136938340Y-72881476D01*
X136930200Y-72944564D01*
X136919582Y-72979914D01*
X136863257Y-73038449D01*
X136766652Y-73081340D01*
X136646196Y-73104876D01*
X136516660Y-73108675D01*
X136392820Y-73092355D01*
X136289451Y-73055540D01*
X136221327Y-72997850D01*
X136211931Y-72964559D01*
X136203700Y-72889170D01*
X136200366Y-72792415D01*
X136199938Y-72617736D01*
X135917828Y-72617736D01*
X135635721Y-72617736D01*
X135319386Y-72617736D01*
X135319546Y-72463801D01*
X135319546Y-71782937D01*
X135235700Y-71694695D01*
X135174550Y-71633756D01*
X135103971Y-71577151D01*
X135027878Y-71536974D01*
X134936208Y-71510484D01*
X134818900Y-71494949D01*
X134665885Y-71487634D01*
X134467103Y-71485802D01*
X134465545Y-71485802D01*
X134295376Y-71486067D01*
X134170408Y-71487825D01*
X134080033Y-71492521D01*
X134013640Y-71501606D01*
X133960613Y-71516525D01*
X133910346Y-71538724D01*
X133852227Y-71569650D01*
X133791890Y-71603677D01*
X133730710Y-71644950D01*
X133684200Y-71691212D01*
X133650346Y-71749739D01*
X133627146Y-71827801D01*
X133612591Y-71932671D01*
X133604676Y-72071621D01*
X133601390Y-72251921D01*
X133600731Y-72480845D01*
X133293247Y-72480845D01*
X133293247Y-72477990D01*
X133293247Y-71499777D01*
X133013758Y-71499777D01*
X132734270Y-71499777D01*
X132734270Y-71569650D01*
X132727331Y-71615605D01*
X132706320Y-71639521D01*
X132699713Y-71638799D01*
X132678371Y-71614067D01*
X132670350Y-71601264D01*
X132624837Y-71567350D01*
X132552502Y-71527677D01*
X132508900Y-71507961D01*
X132445347Y-71487240D01*
X132372125Y-71476312D01*
X132273868Y-71473289D01*
X132135225Y-71476275D01*
X132103352Y-71477407D01*
X131955500Y-71487225D01*
X131847738Y-71506874D01*
X131766771Y-71541692D01*
X131699296Y-71597019D01*
X131632013Y-71678187D01*
X131630371Y-71680395D01*
X131614327Y-71704655D01*
X131601677Y-71733350D01*
X131592021Y-71772914D01*
X131584956Y-71829780D01*
X131582938Y-71863114D01*
X131580077Y-71910380D01*
X131576983Y-72021146D01*
X131575272Y-72168514D01*
X131574541Y-72358912D01*
X131574388Y-72598775D01*
X131574388Y-73442230D01*
X130607304Y-73442230D01*
X130664312Y-73437059D01*
X130789495Y-73404492D01*
X130886207Y-73351684D01*
X130897057Y-73343550D01*
X130942043Y-73305250D01*
X130976853Y-73262399D01*
X131002913Y-73207661D01*
X131021646Y-73133702D01*
X131034477Y-73033189D01*
X131042832Y-72898781D01*
X131048132Y-72723149D01*
X131051806Y-72498952D01*
X131060253Y-71863114D01*
X131156615Y-71863114D01*
X131252975Y-71863114D01*
X131252975Y-71683217D01*
X131252975Y-71503319D01*
X131162141Y-71494561D01*
X131071307Y-71485802D01*
X131057332Y-71192339D01*
X131043358Y-70898875D01*
X130763868Y-70898875D01*
X130484382Y-70898875D01*
X130476449Y-71199326D01*
X130468517Y-71499777D01*
X130371642Y-71499777D01*
X130274765Y-71499777D01*
X130274765Y-71681445D01*
X130274765Y-71863114D01*
X129967328Y-71863114D01*
X129967328Y-71499777D01*
X129687837Y-71499777D01*
X129408348Y-71499777D01*
X129408348Y-71572134D01*
X129408348Y-71644490D01*
X129322347Y-71572126D01*
X129275103Y-71535465D01*
X129208074Y-71498856D01*
X129129518Y-71478855D01*
X129024792Y-71472287D01*
X128879255Y-71475976D01*
X128840798Y-71477842D01*
X128738572Y-71485911D01*
X128670719Y-71500326D01*
X128620559Y-71526087D01*
X128571403Y-71568190D01*
X128542609Y-71598469D01*
X128477985Y-71702324D01*
X128441723Y-71835767D01*
X128430290Y-72009845D01*
X128430135Y-72170551D01*
X128175267Y-72170551D01*
X128175242Y-72160761D01*
X128169810Y-72011559D01*
X128158175Y-71897515D01*
X128139075Y-71811124D01*
X128111248Y-71744880D01*
X128073430Y-71691280D01*
X128024360Y-71642820D01*
X128003919Y-71625595D01*
X127905098Y-71561196D01*
X127787397Y-71515934D01*
X127641863Y-71487926D01*
X127459553Y-71475289D01*
X127231512Y-71476144D01*
X127128404Y-71479280D01*
X126998737Y-71485346D01*
X126904712Y-71494370D01*
X126833803Y-71508349D01*
X126773478Y-71529284D01*
X126711204Y-71559174D01*
X126640630Y-71597100D01*
X126577712Y-71637869D01*
X126530034Y-71683709D01*
X126495484Y-71741881D01*
X126471953Y-71819645D01*
X126457325Y-71924261D01*
X126449492Y-72062992D01*
X126446342Y-72243096D01*
X126445760Y-72471837D01*
X126082424Y-72471837D01*
X126082424Y-72058756D01*
X126082424Y-70659286D01*
X125809922Y-70667284D01*
X125537419Y-70675284D01*
X125537419Y-72058756D01*
X125537419Y-73442230D01*
X125216005Y-73442230D01*
X125216005Y-72058756D01*
X125216005Y-70659286D01*
X124943504Y-70667284D01*
X124671003Y-70675284D01*
X124671003Y-72058756D01*
X124671003Y-72431596D01*
X124391513Y-72431596D01*
X124391113Y-72212611D01*
X124388638Y-72041255D01*
X124382174Y-71910339D01*
X124369803Y-71812674D01*
X124349605Y-71741065D01*
X124319668Y-71688326D01*
X124278073Y-71647265D01*
X124222903Y-71610694D01*
X124152238Y-71571419D01*
X124120924Y-71555136D01*
X124024980Y-71516662D01*
X123914319Y-71492111D01*
X123768413Y-71476400D01*
X123509638Y-71466439D01*
X123268617Y-71479606D01*
X123069348Y-71516882D01*
X122916424Y-71577721D01*
X122852684Y-71615940D01*
X122782450Y-71670042D01*
X122733179Y-71732409D01*
X122701542Y-71812536D01*
X122684209Y-71919914D01*
X122677850Y-72064037D01*
X122679140Y-72254399D01*
X122686628Y-72659659D01*
X123269885Y-72667224D01*
X123853143Y-72674787D01*
X123841048Y-72842011D01*
X123827324Y-72946270D01*
X123793387Y-73027651D01*
X123730847Y-73076850D01*
X123629904Y-73106126D01*
X123546359Y-73113955D01*
X123426057Y-73097037D01*
X123325772Y-73050520D01*
X123257099Y-72980596D01*
X123231630Y-72893456D01*
X123227342Y-72870521D01*
X123207279Y-72854944D01*
X123161409Y-72846132D01*
X123079704Y-72842217D01*
X122952142Y-72841326D01*
X122672653Y-72841326D01*
X122672653Y-72976939D01*
X122365213Y-72976939D01*
X122365213Y-72477990D01*
X122365213Y-71499777D01*
X122085724Y-71499777D01*
X121806235Y-71499777D01*
X121806235Y-71584065D01*
X121806235Y-71668352D01*
X121724680Y-71577077D01*
X121690112Y-71540255D01*
X121649743Y-71509317D01*
X121599123Y-71491525D01*
X121523042Y-71482051D01*
X121406288Y-71476071D01*
X121274579Y-71476239D01*
X121114437Y-71500996D01*
X120996163Y-71558687D01*
X120915309Y-71653236D01*
X120867428Y-71788567D01*
X120848068Y-71968605D01*
X120841997Y-72156577D01*
X120408788Y-72156577D01*
X120408788Y-70158227D01*
X122477010Y-70158227D01*
X125020363Y-70158227D01*
X127563718Y-70158227D01*
X127563718Y-68648986D01*
X127563718Y-67139742D01*
X125020363Y-67139742D01*
X122477010Y-67139742D01*
X122477010Y-68648986D01*
X122477010Y-70158227D01*
X120408788Y-70158227D01*
X120408788Y-66999999D01*
X120408788Y-65127422D01*
X122476532Y-65127422D01*
X125020124Y-65127422D01*
X127563718Y-65127422D01*
X127562700Y-64617353D01*
X127561685Y-64107284D01*
X126546010Y-63079918D01*
X125530335Y-62052553D01*
X124010660Y-62059783D01*
X122490984Y-62067012D01*
X122483759Y-63597217D01*
X122476532Y-65127422D01*
X120408788Y-65127422D01*
X120408788Y-60012766D01*
X123477255Y-60012766D01*
X126545723Y-60012766D01*
X127388024Y-60858221D01*
X127572840Y-61043911D01*
X127804693Y-61277268D01*
X128046659Y-61521177D01*
X128288812Y-61765614D01*
X128521229Y-62000564D01*
X128733985Y-62216008D01*
X128917159Y-62401927D01*
X129603990Y-63100178D01*
X129603990Y-65127422D01*
X129603990Y-66629204D01*
G37*
%TD*%
%LPC*%
D11*
%TO.C,C2*%
X114500000Y-89500000D03*
D12*
X116500000Y-89500000D03*
%TD*%
D13*
%TO.C,J2*%
X137210000Y-93130000D03*
X139750000Y-93130000D03*
X142290000Y-93130000D03*
X144830000Y-93130000D03*
X137210000Y-98210000D03*
X139750000Y-98210000D03*
X142290000Y-98210000D03*
X144830000Y-98210000D03*
X137210000Y-95670000D03*
X139750000Y-95670000D03*
X142290000Y-95670000D03*
X144830000Y-95670000D03*
%TD*%
D14*
%TO.C,J8*%
X159475000Y-63000000D03*
D15*
X159475000Y-65540000D03*
X159475000Y-68080000D03*
X159475000Y-70620000D03*
X159475000Y-73160000D03*
X159475000Y-75700000D03*
%TD*%
D16*
%TO.C,R7*%
X116340000Y-53000000D03*
D17*
X111260000Y-53000000D03*
%TD*%
D16*
%TO.C,R2*%
X117540000Y-82000000D03*
D17*
X112460000Y-82000000D03*
%TD*%
D18*
%TO.C,D1*%
X109210000Y-84500000D03*
D19*
X101590000Y-84500000D03*
%TD*%
D14*
%TO.C,J10*%
X133100000Y-49950000D03*
D15*
X135640000Y-49950000D03*
X138180000Y-49950000D03*
X140720000Y-49950000D03*
X143260000Y-49950000D03*
X145800000Y-49950000D03*
X148340000Y-49950000D03*
X150880000Y-49950000D03*
%TD*%
D13*
%TO.C,J4*%
X141340000Y-82960000D03*
X143880000Y-82960000D03*
X146420000Y-82960000D03*
X148960000Y-82960000D03*
X141340000Y-88040000D03*
X143880000Y-88040000D03*
X146420000Y-88040000D03*
X148960000Y-88040000D03*
X141340000Y-85500000D03*
X143880000Y-85500000D03*
X146420000Y-85500000D03*
X148960000Y-85500000D03*
%TD*%
D14*
%TO.C,J11*%
X129000000Y-50000000D03*
D15*
X126460000Y-50000000D03*
X123920000Y-50000000D03*
%TD*%
D14*
%TO.C,JP1*%
X103460000Y-81000000D03*
D15*
X106000000Y-81000000D03*
X108540000Y-81000000D03*
%TD*%
D18*
%TO.C,D2*%
X119750000Y-51025000D03*
D20*
X119750000Y-48485000D03*
%TD*%
D21*
%TO.C,U1*%
X114520000Y-58110000D03*
X111980000Y-58110000D03*
X117060000Y-58110000D03*
X122140000Y-58110000D03*
X109440000Y-58110000D03*
X134840000Y-58110000D03*
X147540000Y-58110000D03*
X109440000Y-75890000D03*
X122140000Y-75890000D03*
X134840000Y-75890000D03*
X147540000Y-75890000D03*
X104360000Y-75890000D03*
X106900000Y-75890000D03*
X111980000Y-75890000D03*
X114520000Y-75890000D03*
X117060000Y-75890000D03*
X119600000Y-75890000D03*
X124680000Y-75890000D03*
X127220000Y-75890000D03*
X129760000Y-75890000D03*
X132300000Y-75890000D03*
X137380000Y-75890000D03*
X139920000Y-75890000D03*
X142460000Y-75890000D03*
X145000000Y-75890000D03*
X150080000Y-75890000D03*
X152620000Y-75890000D03*
X152620000Y-58110000D03*
X150080000Y-58110000D03*
X145000000Y-58110000D03*
X142460000Y-58110000D03*
X139920000Y-58110000D03*
X137380000Y-58110000D03*
X132300000Y-58110000D03*
X127220000Y-58110000D03*
X124680000Y-58110000D03*
X119600000Y-58110000D03*
X129760000Y-58110000D03*
X104360000Y-58110000D03*
X106900000Y-58110000D03*
%TD*%
D11*
%TO.C,C4*%
X120500000Y-87500000D03*
D12*
X122500000Y-87500000D03*
%TD*%
D16*
%TO.C,R1*%
X112460000Y-85500000D03*
D17*
X117540000Y-85500000D03*
%TD*%
D13*
%TO.C,J6*%
X158460000Y-57187500D03*
X158460000Y-54647500D03*
X158460000Y-52107500D03*
X163540000Y-57187500D03*
X163540000Y-54647500D03*
X163540000Y-52107500D03*
X161000000Y-57187500D03*
X161000000Y-54647500D03*
X161000000Y-52107500D03*
%TD*%
D22*
%TO.C,U2*%
X128040000Y-96055000D03*
D23*
X125500000Y-96055000D03*
X122960000Y-96055000D03*
%TD*%
D24*
%TO.C,MH1*%
X115240000Y-49200000D03*
%TD*%
D25*
%TO.C,SW1*%
X101750000Y-48550000D03*
X108250000Y-48550000D03*
X101750000Y-53050000D03*
X108250000Y-53050000D03*
%TD*%
D11*
%TO.C,C3*%
X120500000Y-82000000D03*
D12*
X122500000Y-82000000D03*
%TD*%
D14*
%TO.C,J9*%
X166000000Y-71000000D03*
D15*
X166000000Y-73540000D03*
%TD*%
D13*
%TO.C,J3*%
X152210000Y-93210000D03*
X154750000Y-93210000D03*
X157290000Y-93210000D03*
X159830000Y-93210000D03*
X152210000Y-98290000D03*
X154750000Y-98290000D03*
X157290000Y-98290000D03*
X159830000Y-98290000D03*
X152210000Y-95750000D03*
X154750000Y-95750000D03*
X157290000Y-95750000D03*
X159830000Y-95750000D03*
%TD*%
D26*
%TO.C,J1*%
X110650000Y-92400000D03*
D27*
X104650000Y-92400000D03*
D28*
X107650000Y-97100000D03*
%TD*%
D13*
%TO.C,J5*%
X156380000Y-82960000D03*
X158920000Y-82960000D03*
X161460000Y-82960000D03*
X164000000Y-82960000D03*
X156380000Y-88040000D03*
X158920000Y-88040000D03*
X161460000Y-88040000D03*
X164000000Y-88040000D03*
X156380000Y-85500000D03*
X158920000Y-85500000D03*
X161460000Y-85500000D03*
X164000000Y-85500000D03*
%TD*%
D24*
%TO.C,MH2*%
X113970000Y-97460000D03*
%TD*%
D14*
%TO.C,J7*%
X133800000Y-83460000D03*
D15*
X133800000Y-86000000D03*
X131260000Y-83460000D03*
X131260000Y-86000000D03*
X128720000Y-83460000D03*
X128720000Y-86000000D03*
X126180000Y-83460000D03*
X126180000Y-86000000D03*
%TD*%
D24*
%TO.C,MH3*%
X166040000Y-64440000D03*
%TD*%
%TO.C,MH4*%
X166040000Y-92380000D03*
%TD*%
%LPD*%
M02*
