%TF.GenerationSoftware,KiCad,Pcbnew,8.0.1*%
%TF.CreationDate,2024-04-30T17:52:19-06:00*%
%TF.ProjectId,RP2040_Servo_Controller_Board,52503230-3430-45f5-9365-72766f5f436f,rev?*%
%TF.SameCoordinates,Original*%
%TF.FileFunction,Copper,L2,Bot*%
%TF.FilePolarity,Positive*%
%FSLAX46Y46*%
G04 Gerber Fmt 4.6, Leading zero omitted, Abs format (unit mm)*
G04 Created by KiCad (PCBNEW 8.0.1) date 2024-04-30 17:52:19*
%MOMM*%
%LPD*%
G01*
G04 APERTURE LIST*
G04 Aperture macros list*
%AMRoundRect*
0 Rectangle with rounded corners*
0 $1 Rounding radius*
0 $2 $3 $4 $5 $6 $7 $8 $9 X,Y pos of 4 corners*
0 Add a 4 corners polygon primitive as box body*
4,1,4,$2,$3,$4,$5,$6,$7,$8,$9,$2,$3,0*
0 Add four circle primitives for the rounded corners*
1,1,$1+$1,$2,$3*
1,1,$1+$1,$4,$5*
1,1,$1+$1,$6,$7*
1,1,$1+$1,$8,$9*
0 Add four rect primitives between the rounded corners*
20,1,$1+$1,$2,$3,$4,$5,0*
20,1,$1+$1,$4,$5,$6,$7,0*
20,1,$1+$1,$6,$7,$8,$9,0*
20,1,$1+$1,$8,$9,$2,$3,0*%
G04 Aperture macros list end*
%TA.AperFunction,ComponentPad*%
%ADD10R,1.200000X1.200000*%
%TD*%
%TA.AperFunction,ComponentPad*%
%ADD11C,1.200000*%
%TD*%
%TA.AperFunction,ComponentPad*%
%ADD12C,1.250000*%
%TD*%
%TA.AperFunction,ComponentPad*%
%ADD13R,1.700000X1.700000*%
%TD*%
%TA.AperFunction,ComponentPad*%
%ADD14O,1.700000X1.700000*%
%TD*%
%TA.AperFunction,ComponentPad*%
%ADD15C,1.400000*%
%TD*%
%TA.AperFunction,ComponentPad*%
%ADD16O,1.400000X1.400000*%
%TD*%
%TA.AperFunction,ComponentPad*%
%ADD17R,1.800000X1.800000*%
%TD*%
%TA.AperFunction,ComponentPad*%
%ADD18O,1.800000X1.800000*%
%TD*%
%TA.AperFunction,ComponentPad*%
%ADD19C,1.800000*%
%TD*%
%TA.AperFunction,ComponentPad*%
%ADD20C,1.500000*%
%TD*%
%TA.AperFunction,ComponentPad*%
%ADD21R,1.905000X2.000000*%
%TD*%
%TA.AperFunction,ComponentPad*%
%ADD22O,1.905000X2.000000*%
%TD*%
%TA.AperFunction,ComponentPad*%
%ADD23C,2.000000*%
%TD*%
%TA.AperFunction,ComponentPad*%
%ADD24R,3.500000X3.500000*%
%TD*%
%TA.AperFunction,ComponentPad*%
%ADD25RoundRect,0.750000X-0.750000X-1.000000X0.750000X-1.000000X0.750000X1.000000X-0.750000X1.000000X0*%
%TD*%
%TA.AperFunction,ComponentPad*%
%ADD26RoundRect,0.875000X-0.875000X-0.875000X0.875000X-0.875000X0.875000X0.875000X-0.875000X0.875000X0*%
%TD*%
%TA.AperFunction,ViaPad*%
%ADD27C,0.600000*%
%TD*%
%TA.AperFunction,Conductor*%
%ADD28C,0.400000*%
%TD*%
%TA.AperFunction,Conductor*%
%ADD29C,0.250000*%
%TD*%
%TA.AperFunction,Conductor*%
%ADD30C,2.480000*%
%TD*%
%TA.AperFunction,Conductor*%
%ADD31C,1.250000*%
%TD*%
%TA.AperFunction,Conductor*%
%ADD32C,0.600000*%
%TD*%
%TA.AperFunction,Conductor*%
%ADD33C,1.480000*%
%TD*%
%TA.AperFunction,Conductor*%
%ADD34C,1.000000*%
%TD*%
%TA.AperFunction,Conductor*%
%ADD35C,0.650000*%
%TD*%
%TA.AperFunction,Conductor*%
%ADD36C,0.200000*%
%TD*%
G04 APERTURE END LIST*
D10*
%TO.P,C2,1*%
%TO.N,VCC*%
X114500000Y-89500000D03*
D11*
%TO.P,C2,2*%
%TO.N,GND*%
X116500000Y-89500000D03*
%TD*%
D12*
%TO.P,J2,1,Pin_1*%
%TO.N,/PWM0*%
X137210000Y-93130000D03*
%TO.P,J2,2,Pin_2*%
%TO.N,/PWM1*%
X139750000Y-93130000D03*
%TO.P,J2,3,Pin_3*%
%TO.N,/PWM2*%
X142290000Y-93130000D03*
%TO.P,J2,4,Pin_4*%
%TO.N,/PWM3*%
X144830000Y-93130000D03*
%TO.P,J2,G,Pin_G*%
%TO.N,GND*%
X137210000Y-98210000D03*
X139750000Y-98210000D03*
X142290000Y-98210000D03*
X144830000Y-98210000D03*
%TO.P,J2,V,Pin_V*%
%TO.N,+5V*%
X137210000Y-95670000D03*
X139750000Y-95670000D03*
X142290000Y-95670000D03*
X144830000Y-95670000D03*
%TD*%
D13*
%TO.P,J8,1,Pin_1*%
%TO.N,unconnected-(J8-Pin_1-Pad1)*%
X159475000Y-63000000D03*
D14*
%TO.P,J8,2,Pin_2*%
%TO.N,TX*%
X159475000Y-65540000D03*
%TO.P,J8,3,Pin_3*%
%TO.N,RX*%
X159475000Y-68080000D03*
%TO.P,J8,4,Pin_4*%
%TO.N,GND*%
X159475000Y-70620000D03*
%TO.P,J8,5,Pin_5*%
%TO.N,+5V*%
X159475000Y-73160000D03*
%TO.P,J8,6,Pin_6*%
%TO.N,unconnected-(J8-Pin_6-Pad6)*%
X159475000Y-75700000D03*
%TD*%
D15*
%TO.P,R7,1*%
%TO.N,Net-(D2-A)*%
X116340000Y-53000000D03*
D16*
%TO.P,R7,2*%
%TO.N,+5V*%
X111260000Y-53000000D03*
%TD*%
D15*
%TO.P,R2,1*%
%TO.N,Net-(U2-GND)*%
X117540000Y-82000000D03*
D16*
%TO.P,R2,2*%
%TO.N,GND*%
X112460000Y-82000000D03*
%TD*%
D17*
%TO.P,D1,1,K*%
%TO.N,Net-(D1-K)*%
X109210000Y-84500000D03*
D18*
%TO.P,D1,2,A*%
%TO.N,GND*%
X101590000Y-84500000D03*
%TD*%
D13*
%TO.P,J10,1,Pin_1*%
%TO.N,+5V*%
X133100000Y-49950000D03*
D14*
%TO.P,J10,2,Pin_2*%
%TO.N,GND*%
X135640000Y-49950000D03*
%TO.P,J10,3,Pin_3*%
%TO.N,SCL*%
X138180000Y-49950000D03*
%TO.P,J10,4,Pin_4*%
%TO.N,SDA*%
X140720000Y-49950000D03*
%TO.P,J10,5,Pin_5*%
%TO.N,unconnected-(J10-Pin_5-Pad5)*%
X143260000Y-49950000D03*
%TO.P,J10,6,Pin_6*%
%TO.N,unconnected-(J10-Pin_6-Pad6)*%
X145800000Y-49950000D03*
%TO.P,J10,7,Pin_7*%
%TO.N,unconnected-(J10-Pin_7-Pad7)*%
X148340000Y-49950000D03*
%TO.P,J10,8,Pin_8*%
%TO.N,unconnected-(J10-Pin_8-Pad8)*%
X150880000Y-49950000D03*
%TD*%
D12*
%TO.P,J4,1,Pin_1*%
%TO.N,/PWM8*%
X141340000Y-82960000D03*
%TO.P,J4,2,Pin_2*%
%TO.N,/PWM9*%
X143880000Y-82960000D03*
%TO.P,J4,3,Pin_3*%
%TO.N,/PWM10*%
X146420000Y-82960000D03*
%TO.P,J4,4,Pin_4*%
%TO.N,/PWM11*%
X148960000Y-82960000D03*
%TO.P,J4,G,Pin_G*%
%TO.N,GND*%
X141340000Y-88040000D03*
X143880000Y-88040000D03*
X146420000Y-88040000D03*
X148960000Y-88040000D03*
%TO.P,J4,V,Pin_V*%
%TO.N,+5V*%
X141340000Y-85500000D03*
X143880000Y-85500000D03*
X146420000Y-85500000D03*
X148960000Y-85500000D03*
%TD*%
D13*
%TO.P,J11,1,Pin_1*%
%TO.N,/PIN19*%
X129000000Y-50000000D03*
D14*
%TO.P,J11,2,Pin_2*%
%TO.N,/PIN22*%
X126460000Y-50000000D03*
%TO.P,J11,3,Pin_3*%
%TO.N,/PIN18*%
X123920000Y-50000000D03*
%TD*%
D13*
%TO.P,JP1,1,A*%
%TO.N,VCC*%
X103460000Y-81000000D03*
D14*
%TO.P,JP1,2,C*%
%TO.N,Net-(D1-K)*%
X106000000Y-81000000D03*
%TO.P,JP1,3,B*%
%TO.N,+5V*%
X108540000Y-81000000D03*
%TD*%
D17*
%TO.P,D2,1,K*%
%TO.N,GND*%
X119750000Y-51025000D03*
D19*
%TO.P,D2,2,A*%
%TO.N,Net-(D2-A)*%
X119750000Y-48485000D03*
%TD*%
D20*
%TO.P,U1,3V3,3V3*%
%TO.N,+3.3V*%
X114520000Y-58110000D03*
%TO.P,U1,3V3_EN,3V3_EN*%
%TO.N,unconnected-(U1-Pad3V3_EN)*%
X111980000Y-58110000D03*
%TO.P,U1,ADC_VREF,ADC_VREF*%
%TO.N,+5VA*%
X117060000Y-58110000D03*
%TO.P,U1,AGND,AGND*%
%TO.N,GNDA*%
X122140000Y-58110000D03*
%TO.P,U1,GND,GND*%
%TO.N,GND*%
X109440000Y-58110000D03*
%TO.P,U1,GND2,GND2*%
X134840000Y-58110000D03*
%TO.P,U1,GND3,GND3*%
X147540000Y-58110000D03*
%TO.P,U1,GND4,GND4*%
X109440000Y-75890000D03*
%TO.P,U1,GND5,GND5*%
X122140000Y-75890000D03*
%TO.P,U1,GND6,GND6*%
X134840000Y-75890000D03*
%TO.P,U1,GND7,GND7*%
X147540000Y-75890000D03*
%TO.P,U1,GP0,GP0*%
%TO.N,TX*%
X104360000Y-75890000D03*
%TO.P,U1,GP1,GP1*%
%TO.N,RX*%
X106900000Y-75890000D03*
%TO.P,U1,GP2,GP2*%
%TO.N,/PWM0*%
X111980000Y-75890000D03*
%TO.P,U1,GP3,GP3*%
%TO.N,/PWM1*%
X114520000Y-75890000D03*
%TO.P,U1,GP4,GP4*%
%TO.N,/PWM2*%
X117060000Y-75890000D03*
%TO.P,U1,GP5,GP5*%
%TO.N,/PWM3*%
X119600000Y-75890000D03*
%TO.P,U1,GP6,GP6*%
%TO.N,/PWM4*%
X124680000Y-75890000D03*
%TO.P,U1,GP7,GP7*%
%TO.N,/PWM5*%
X127220000Y-75890000D03*
%TO.P,U1,GP8,GP8*%
%TO.N,/PWM6*%
X129760000Y-75890000D03*
%TO.P,U1,GP9,GP9*%
%TO.N,/PWM7*%
X132300000Y-75890000D03*
%TO.P,U1,GP10,GP10*%
%TO.N,/PWM8*%
X137380000Y-75890000D03*
%TO.P,U1,GP11,GP11*%
%TO.N,/PWM9*%
X139920000Y-75890000D03*
%TO.P,U1,GP12,GP12*%
%TO.N,/PWM10*%
X142460000Y-75890000D03*
%TO.P,U1,GP13,GP13*%
%TO.N,/PWM11*%
X145000000Y-75890000D03*
%TO.P,U1,GP14,GP14*%
%TO.N,/PWM12*%
X150080000Y-75890000D03*
%TO.P,U1,GP15,GP15*%
%TO.N,/PWM13*%
X152620000Y-75890000D03*
%TO.P,U1,GP16,GP16*%
%TO.N,/PWM15*%
X152620000Y-58110000D03*
%TO.P,U1,GP17,GP17*%
%TO.N,/PWM14*%
X150080000Y-58110000D03*
%TO.P,U1,GP18,GP18*%
%TO.N,/PIN18*%
X145000000Y-58110000D03*
%TO.P,U1,GP19,GP19*%
%TO.N,/PIN19*%
X142460000Y-58110000D03*
%TO.P,U1,GP20,GP20*%
%TO.N,SDA*%
X139920000Y-58110000D03*
%TO.P,U1,GP21,GP21*%
%TO.N,SCL*%
X137380000Y-58110000D03*
%TO.P,U1,GP22,GP22*%
%TO.N,/PIN22*%
X132300000Y-58110000D03*
%TO.P,U1,GP26_A0,GP26_A0*%
%TO.N,/ADC1*%
X127220000Y-58110000D03*
%TO.P,U1,GP27_A1,GP27_A1*%
%TO.N,/ADC0*%
X124680000Y-58110000D03*
%TO.P,U1,GP28_A2,GP28_A2*%
%TO.N,/ADC2*%
X119600000Y-58110000D03*
%TO.P,U1,RUN,RUN*%
%TO.N,RUN*%
X129760000Y-58110000D03*
%TO.P,U1,VBUS,VBUS*%
%TO.N,VBUS*%
X104360000Y-58110000D03*
%TO.P,U1,VSYS,VSYS*%
%TO.N,VSYS*%
X106900000Y-58110000D03*
%TD*%
D10*
%TO.P,C4,1*%
%TO.N,Net-(U2-GND)*%
X120500000Y-87500000D03*
D11*
%TO.P,C4,2*%
%TO.N,GND*%
X122500000Y-87500000D03*
%TD*%
D15*
%TO.P,R1,1*%
%TO.N,+5V*%
X112460000Y-85500000D03*
D16*
%TO.P,R1,2*%
%TO.N,Net-(U2-GND)*%
X117540000Y-85500000D03*
%TD*%
D12*
%TO.P,J6,1,Pin_1*%
%TO.N,/ADC1*%
X158460000Y-57187500D03*
%TO.P,J6,2,Pin_2*%
%TO.N,/ADC0*%
X158460000Y-54647500D03*
%TO.P,J6,3,Pin_3*%
%TO.N,/ADC2*%
X158460000Y-52107500D03*
%TO.P,J6,G,Pin_G*%
%TO.N,GNDA*%
X163540000Y-57187500D03*
X163540000Y-54647500D03*
X163540000Y-52107500D03*
%TO.P,J6,V,Pin_V*%
%TO.N,+5VA*%
X161000000Y-57187500D03*
X161000000Y-54647500D03*
X161000000Y-52107500D03*
%TD*%
D21*
%TO.P,U2,1,GND*%
%TO.N,Net-(U2-GND)*%
X128040000Y-96055000D03*
D22*
%TO.P,U2,2,VO*%
%TO.N,+5V*%
X125500000Y-96055000D03*
%TO.P,U2,3,VI*%
%TO.N,VCC*%
X122960000Y-96055000D03*
%TD*%
D23*
%TO.P,SW1,1,1*%
%TO.N,RUN*%
X101750000Y-48550000D03*
X108250000Y-48550000D03*
%TO.P,SW1,2,2*%
%TO.N,GND*%
X101750000Y-53050000D03*
X108250000Y-53050000D03*
%TD*%
D10*
%TO.P,C3,1*%
%TO.N,+5V*%
X120500000Y-82000000D03*
D11*
%TO.P,C3,2*%
%TO.N,GND*%
X122500000Y-82000000D03*
%TD*%
D13*
%TO.P,J9,1,Pin_1*%
%TO.N,TX*%
X166000000Y-71000000D03*
D14*
%TO.P,J9,2,Pin_2*%
%TO.N,RX*%
X166000000Y-73540000D03*
%TD*%
D12*
%TO.P,J3,1,Pin_1*%
%TO.N,/PWM4*%
X152210000Y-93210000D03*
%TO.P,J3,2,Pin_2*%
%TO.N,/PWM5*%
X154750000Y-93210000D03*
%TO.P,J3,3,Pin_3*%
%TO.N,/PWM6*%
X157290000Y-93210000D03*
%TO.P,J3,4,Pin_4*%
%TO.N,/PWM7*%
X159830000Y-93210000D03*
%TO.P,J3,G,Pin_G*%
%TO.N,GND*%
X152210000Y-98290000D03*
X154750000Y-98290000D03*
X157290000Y-98290000D03*
X159830000Y-98290000D03*
%TO.P,J3,V,Pin_V*%
%TO.N,+5V*%
X152210000Y-95750000D03*
X154750000Y-95750000D03*
X157290000Y-95750000D03*
X159830000Y-95750000D03*
%TD*%
D24*
%TO.P,J1,1*%
%TO.N,Net-(D1-K)*%
X110650000Y-92400000D03*
D25*
%TO.P,J1,2*%
%TO.N,GND*%
X104650000Y-92400000D03*
D26*
%TO.P,J1,3*%
%TO.N,GNDPWR*%
X107650000Y-97100000D03*
%TD*%
D12*
%TO.P,J5,1,Pin_1*%
%TO.N,/PWM12*%
X156380000Y-82960000D03*
%TO.P,J5,2,Pin_2*%
%TO.N,/PWM13*%
X158920000Y-82960000D03*
%TO.P,J5,3,Pin_3*%
%TO.N,/PWM14*%
X161460000Y-82960000D03*
%TO.P,J5,4,Pin_4*%
%TO.N,/PWM15*%
X164000000Y-82960000D03*
%TO.P,J5,G,Pin_G*%
%TO.N,GND*%
X156380000Y-88040000D03*
X158920000Y-88040000D03*
X161460000Y-88040000D03*
X164000000Y-88040000D03*
%TO.P,J5,V,Pin_V*%
%TO.N,+5V*%
X156380000Y-85500000D03*
X158920000Y-85500000D03*
X161460000Y-85500000D03*
X164000000Y-85500000D03*
%TD*%
D13*
%TO.P,J7,1,Pin_1*%
%TO.N,+5V*%
X133800000Y-83460000D03*
D14*
%TO.P,J7,2,Pin_2*%
%TO.N,GND*%
X133800000Y-86000000D03*
%TO.P,J7,3,Pin_3*%
%TO.N,+5V*%
X131260000Y-83460000D03*
%TO.P,J7,4,Pin_4*%
%TO.N,GND*%
X131260000Y-86000000D03*
%TO.P,J7,5,Pin_5*%
%TO.N,+5V*%
X128720000Y-83460000D03*
%TO.P,J7,6,Pin_6*%
%TO.N,GND*%
X128720000Y-86000000D03*
%TO.P,J7,7,Pin_7*%
%TO.N,+5V*%
X126180000Y-83460000D03*
%TO.P,J7,8,Pin_8*%
%TO.N,GND*%
X126180000Y-86000000D03*
%TD*%
D27*
%TO.N,+5V*%
X105624992Y-60124992D03*
%TD*%
D28*
%TO.N,TX*%
X104360000Y-75890000D02*
X104360000Y-74890000D01*
X104360000Y-75340000D02*
X104360000Y-75890000D01*
X106000000Y-73250000D02*
X106000000Y-71297918D01*
X164935000Y-71000000D02*
X166000000Y-71000000D01*
X111797918Y-65500000D02*
X159435000Y-65500000D01*
X159475000Y-65540000D02*
X164935000Y-71000000D01*
X159435000Y-65500000D02*
X159475000Y-65540000D01*
X159475000Y-65540000D02*
X159540000Y-65540000D01*
X104360000Y-74890000D02*
X106000000Y-73250000D01*
X106000000Y-71297918D02*
X111797918Y-65500000D01*
D29*
%TO.N,RUN*%
X108250000Y-48550000D02*
X101750000Y-48550000D01*
D30*
%TO.N,Net-(D1-K)*%
X109210000Y-84500000D02*
X109210000Y-90960000D01*
X109210000Y-90960000D02*
X110650000Y-92400000D01*
D31*
%TO.N,+5V*%
X166100000Y-78800000D02*
X160460000Y-73160000D01*
D32*
X102100000Y-59599984D02*
X102100000Y-56700000D01*
X111260000Y-54740000D02*
X111260000Y-53000000D01*
X106890000Y-79350000D02*
X102850000Y-79350000D01*
X102625008Y-60124992D02*
X102100000Y-59599984D01*
D31*
X125915000Y-83725000D02*
X121525000Y-83725000D01*
D32*
X100800000Y-77300000D02*
X100800000Y-61950000D01*
D31*
X166100000Y-84900000D02*
X166100000Y-78800000D01*
X160460000Y-73160000D02*
X159475000Y-73160000D01*
X126250000Y-99000000D02*
X125500000Y-98250000D01*
X120500000Y-82700000D02*
X120500000Y-82000000D01*
X135580000Y-95670000D02*
X132250000Y-99000000D01*
X132250000Y-99000000D02*
X126250000Y-99000000D01*
D32*
X100800000Y-61950000D02*
X102625008Y-60124992D01*
D31*
X164000000Y-85500000D02*
X165500000Y-85500000D01*
X125500000Y-98250000D02*
X125500000Y-96000000D01*
X137210000Y-95670000D02*
X135580000Y-95670000D01*
X126180000Y-83460000D02*
X125915000Y-83725000D01*
D32*
X110600000Y-55400000D02*
X111260000Y-54740000D01*
X102100000Y-56700000D02*
X103400000Y-55400000D01*
D31*
X121525000Y-83725000D02*
X120500000Y-82700000D01*
D32*
X103400000Y-55400000D02*
X110600000Y-55400000D01*
X108540000Y-81000000D02*
X106890000Y-79350000D01*
X102850000Y-79350000D02*
X100800000Y-77300000D01*
D31*
X165500000Y-85500000D02*
X166100000Y-84900000D01*
D32*
X102625008Y-60124992D02*
X105624992Y-60124992D01*
D33*
%TO.N,Net-(U2-GND)*%
X119750000Y-85500000D02*
X120500000Y-86250000D01*
X123420000Y-92500000D02*
X120500000Y-89580000D01*
X126500000Y-92500000D02*
X123420000Y-92500000D01*
X117540000Y-85500000D02*
X117540000Y-82000000D01*
X128040000Y-96055000D02*
X128040000Y-94040000D01*
X128040000Y-94040000D02*
X126500000Y-92500000D01*
X120500000Y-89580000D02*
X120500000Y-87500000D01*
D32*
X117540000Y-82000000D02*
X117500000Y-82040000D01*
D33*
X120500000Y-86250000D02*
X120500000Y-87500000D01*
X119750000Y-85500000D02*
X117540000Y-85500000D01*
D34*
%TO.N,GNDA*%
X163540000Y-57187500D02*
X163540000Y-58210000D01*
X123890000Y-59860000D02*
X122140000Y-58110000D01*
X161890000Y-59860000D02*
X123890000Y-59860000D01*
X163540000Y-58210000D02*
X161890000Y-59860000D01*
%TO.N,+5VA*%
X161542755Y-61200000D02*
X160100000Y-61200000D01*
X165200000Y-58594239D02*
X165200000Y-50900000D01*
X164400000Y-50100000D02*
X161900000Y-50100000D01*
X160100000Y-61200000D02*
X162594239Y-61200000D01*
X162594239Y-61200000D02*
X165200000Y-58594239D01*
X161000000Y-51000000D02*
X161000000Y-52107500D01*
X161900000Y-50100000D02*
X161000000Y-51000000D01*
X120150000Y-61200000D02*
X117060000Y-58110000D01*
X160100000Y-61200000D02*
X120150000Y-61200000D01*
X165200000Y-50900000D02*
X164400000Y-50100000D01*
D31*
%TO.N,VCC*%
X114500000Y-92000000D02*
X114500000Y-89500000D01*
X122960000Y-96055000D02*
X122905000Y-96000000D01*
X122905000Y-96000000D02*
X118500000Y-96000000D01*
X118500000Y-96000000D02*
X114500000Y-92000000D01*
D28*
%TO.N,RX*%
X159475000Y-68080000D02*
X164935000Y-73540000D01*
X164935000Y-73540000D02*
X166000000Y-73540000D01*
X106900000Y-71600000D02*
X112000000Y-66500000D01*
X112000000Y-66500000D02*
X157895000Y-66500000D01*
X106900000Y-75890000D02*
X106900000Y-71600000D01*
X157895000Y-66500000D02*
X159475000Y-68080000D01*
X106900000Y-75700000D02*
X106900000Y-75890000D01*
X159475000Y-68080000D02*
X160080000Y-68080000D01*
D30*
%TO.N,GND*%
X104650000Y-92400000D02*
X101590000Y-89340000D01*
X101590000Y-89340000D02*
X101590000Y-84500000D01*
D29*
%TO.N,Net-(D2-A)*%
X116500000Y-53000000D02*
X117250000Y-52250000D01*
X118330000Y-48670000D02*
X119500000Y-48670000D01*
X117250000Y-49750000D02*
X118330000Y-48670000D01*
X117250000Y-52250000D02*
X117250000Y-49750000D01*
X116340000Y-53000000D02*
X116500000Y-53000000D01*
D35*
%TO.N,/ADC0*%
X124680000Y-58110000D02*
X124680000Y-56720000D01*
X125093502Y-56306498D02*
X127680000Y-56306498D01*
X127680000Y-56306498D02*
X131036497Y-52950000D01*
X156762500Y-52950000D02*
X158460000Y-54647500D01*
X131036497Y-52950000D02*
X156762500Y-52950000D01*
X124680000Y-56720000D02*
X125093502Y-56306498D01*
D36*
%TO.N,/PWM1*%
X133301859Y-79500000D02*
X133301862Y-79500000D01*
X114520000Y-75890000D02*
X114520000Y-78720000D01*
X114520000Y-78720000D02*
X114850000Y-79050000D01*
X135950000Y-82148141D02*
X135950000Y-89550000D01*
X132851859Y-79050000D02*
X133301859Y-79500000D01*
X139630000Y-93130000D02*
X139500000Y-93000000D01*
X114850000Y-79050000D02*
X132851859Y-79050000D01*
X139750000Y-93130000D02*
X139630000Y-93130000D01*
X135950000Y-89550000D02*
X139530000Y-93130000D01*
X139530000Y-93130000D02*
X139750000Y-93130000D01*
X133301862Y-79500000D02*
X135950000Y-82148141D01*
X139500000Y-93000000D02*
X139750000Y-93000000D01*
%TO.N,/PWM2*%
X133446833Y-79150000D02*
X132996834Y-78700000D01*
X132996834Y-78700000D02*
X117300000Y-78700000D01*
X139125130Y-92200000D02*
X136300000Y-89374870D01*
X117060000Y-78460000D02*
X117060000Y-75890000D01*
X136300000Y-82003166D02*
X136200000Y-81903166D01*
X136300000Y-89374870D02*
X136300000Y-82003166D01*
X142290000Y-93130000D02*
X141360000Y-92200000D01*
X117300000Y-78700000D02*
X117060000Y-78460000D01*
X136200000Y-81903166D02*
X136200000Y-81903160D01*
X136200000Y-81903160D02*
X133446840Y-79150000D01*
X133446840Y-79150000D02*
X133446833Y-79150000D01*
X141360000Y-92200000D02*
X139125130Y-92200000D01*
%TO.N,/PWM3*%
X144830000Y-93130000D02*
X143550000Y-91850000D01*
X133591814Y-78800000D02*
X133591807Y-78800000D01*
X136650000Y-82148147D02*
X136650002Y-82148145D01*
X136650000Y-81858192D02*
X136550000Y-81758192D01*
X136550000Y-81758182D02*
X133591814Y-78800000D01*
X136650004Y-81858201D02*
X136650000Y-81858192D01*
X133591807Y-78800000D02*
X133141809Y-78350000D01*
X139270104Y-91850000D02*
X136650000Y-89229896D01*
X136650000Y-89229896D02*
X136650000Y-82148147D01*
X119600000Y-78000000D02*
X119600000Y-75890000D01*
X119950000Y-78350000D02*
X119600000Y-78000000D01*
X143550000Y-91850000D02*
X139270104Y-91850000D01*
X133141809Y-78350000D02*
X119950000Y-78350000D01*
X136650002Y-82148145D02*
X136650004Y-81858201D01*
X136550000Y-81758192D02*
X136550000Y-81758182D01*
%TO.N,/PWM0*%
X111980000Y-75890000D02*
X111980000Y-79180000D01*
X135600000Y-89700000D02*
X137210000Y-91310000D01*
X132706885Y-79400000D02*
X135600000Y-82293115D01*
X135600000Y-82293115D02*
X135600000Y-89700000D01*
X111980000Y-79180000D02*
X112200000Y-79400000D01*
X112200000Y-79400000D02*
X132706885Y-79400000D01*
X137210000Y-91310000D02*
X137210000Y-93130000D01*
%TO.N,/PWM7*%
X157070000Y-90450000D02*
X139850000Y-90450000D01*
X132300000Y-76600000D02*
X132300000Y-75890000D01*
X139850000Y-90450000D02*
X138050000Y-88650000D01*
X138050002Y-81250002D02*
X133700000Y-76900000D01*
X132600000Y-76900000D02*
X132300000Y-76600000D01*
X138050000Y-88650000D02*
X138050002Y-81250002D01*
X133700000Y-76900000D02*
X132600000Y-76900000D01*
X159830000Y-93210000D02*
X157070000Y-90450000D01*
%TO.N,/PWM5*%
X154750000Y-93210000D02*
X152690000Y-91150000D01*
X137350000Y-81568243D02*
X137250000Y-81468243D01*
X137350000Y-88939948D02*
X137350004Y-81568253D01*
X133881762Y-78099999D02*
X133881754Y-78099999D01*
X137350000Y-81568249D02*
X137350000Y-81568243D01*
X127650000Y-77650000D02*
X127220000Y-77220000D01*
X133636784Y-77855025D02*
X133431759Y-77650000D01*
X136839950Y-81058182D02*
X136839947Y-81058182D01*
X137250000Y-81468243D02*
X137250000Y-81468233D01*
X137350004Y-81568253D02*
X137350000Y-81568249D01*
X136839947Y-81058182D02*
X133881762Y-78099999D01*
X139560052Y-91150000D02*
X137350000Y-88939948D01*
X133881754Y-78099999D02*
X133636784Y-77855029D01*
X137250000Y-81468233D02*
X136839950Y-81058182D01*
X133636784Y-77855029D02*
X133636784Y-77855025D01*
X133431759Y-77650000D02*
X127650000Y-77650000D01*
X127220000Y-77220000D02*
X127220000Y-75890000D01*
X152690000Y-91150000D02*
X139560052Y-91150000D01*
%TO.N,/PWM4*%
X137000004Y-81713227D02*
X137000000Y-81713223D01*
X133736789Y-78450000D02*
X133736780Y-78449999D01*
X137000000Y-89084922D02*
X137000004Y-81713227D01*
X137000000Y-81713223D02*
X137000000Y-81713218D01*
X133736780Y-78449999D02*
X133286784Y-78000000D01*
X150500000Y-91500000D02*
X139415078Y-91500000D01*
X136900000Y-81613207D02*
X136694975Y-81408182D01*
X136694975Y-81408182D02*
X136694972Y-81408182D01*
X124680000Y-77680000D02*
X124680000Y-75890000D01*
X133286784Y-78000000D02*
X125000000Y-78000000D01*
X139415078Y-91500000D02*
X137000000Y-89084922D01*
X136694972Y-81408182D02*
X133736789Y-78450000D01*
X137000000Y-81713218D02*
X136900000Y-81613217D01*
X125000000Y-78000000D02*
X124680000Y-77680000D01*
X136900000Y-81613217D02*
X136900000Y-81613207D01*
X152210000Y-93210000D02*
X150500000Y-91500000D01*
%TO.N,/PWM6*%
X133576734Y-77300000D02*
X133986784Y-77710050D01*
X154880000Y-90800000D02*
X139705026Y-90800000D01*
X133986784Y-77710050D02*
X133986784Y-77710055D01*
X134026728Y-77749999D02*
X134040882Y-77750000D01*
X137700002Y-82293125D02*
X137700000Y-82293123D01*
X129760000Y-75890000D02*
X129760000Y-76960000D01*
X157290000Y-93210000D02*
X154880000Y-90800000D01*
X133986784Y-77710055D02*
X134026728Y-77749999D01*
X137600000Y-81309118D02*
X137545441Y-81254559D01*
X137700000Y-82293123D02*
X137700000Y-81409118D01*
X137700000Y-81409118D02*
X137600000Y-81309118D01*
X129760000Y-76960000D02*
X130100000Y-77300000D01*
X139705026Y-90800000D02*
X137700000Y-88794974D01*
X130100000Y-77300000D02*
X133576734Y-77300000D01*
X137700000Y-88794974D02*
X137700002Y-82293125D01*
X134040882Y-77750000D02*
X137600000Y-81309118D01*
D35*
%TO.N,/ADC2*%
X127327994Y-55315000D02*
X120285000Y-55315000D01*
X158460000Y-52107500D02*
X158352500Y-52000000D01*
X130642994Y-52000000D02*
X127327994Y-55315000D01*
X119600000Y-56000000D02*
X119600000Y-58110000D01*
X158352500Y-52000000D02*
X130642994Y-52000000D01*
X120285000Y-55315000D02*
X119600000Y-56000000D01*
%TO.N,/ADC1*%
X155172500Y-53900000D02*
X131430000Y-53900000D01*
X131430000Y-53900000D02*
X127220000Y-58110000D01*
X158460000Y-57187500D02*
X155172500Y-53900000D01*
%TD*%
%TA.AperFunction,Conductor*%
%TO.N,GND*%
G36*
X163484404Y-46755185D02*
G01*
X163505046Y-46771819D01*
X165928181Y-49194954D01*
X165961666Y-49256277D01*
X165964500Y-49282635D01*
X165964500Y-49950218D01*
X165944815Y-50017257D01*
X165892011Y-50063012D01*
X165822853Y-50072956D01*
X165759297Y-50043931D01*
X165752819Y-50037899D01*
X165181479Y-49466559D01*
X165181459Y-49466537D01*
X165037785Y-49322863D01*
X165037781Y-49322860D01*
X164873920Y-49213371D01*
X164873907Y-49213364D01*
X164738390Y-49157232D01*
X164738389Y-49157232D01*
X164691836Y-49137949D01*
X164691828Y-49137947D01*
X164522727Y-49104311D01*
X164522725Y-49104310D01*
X164498541Y-49099500D01*
X161801459Y-49099500D01*
X161777273Y-49104311D01*
X161777272Y-49104311D01*
X161608171Y-49137947D01*
X161608163Y-49137949D01*
X161561611Y-49157232D01*
X161561610Y-49157232D01*
X161426092Y-49213364D01*
X161426079Y-49213371D01*
X161262219Y-49322859D01*
X161227296Y-49357783D01*
X161122861Y-49462218D01*
X161122858Y-49462221D01*
X160362221Y-50222858D01*
X160362218Y-50222861D01*
X160292538Y-50292540D01*
X160222859Y-50362219D01*
X160113371Y-50526079D01*
X160113364Y-50526092D01*
X160037950Y-50708160D01*
X160037947Y-50708170D01*
X159999500Y-50901456D01*
X159999500Y-51562586D01*
X159986500Y-51617858D01*
X159946007Y-51699177D01*
X159888923Y-51899808D01*
X159869678Y-52107499D01*
X159869678Y-52107500D01*
X159888923Y-52315191D01*
X159888923Y-52315193D01*
X159888924Y-52315196D01*
X159922284Y-52432444D01*
X159946007Y-52515822D01*
X159970232Y-52564472D01*
X160038981Y-52702538D01*
X160164682Y-52868993D01*
X160318829Y-53009516D01*
X160496172Y-53119323D01*
X160690673Y-53194673D01*
X160895707Y-53233000D01*
X160895710Y-53233000D01*
X161104290Y-53233000D01*
X161104293Y-53233000D01*
X161309327Y-53194673D01*
X161503828Y-53119323D01*
X161681171Y-53009516D01*
X161835318Y-52868993D01*
X161961019Y-52702538D01*
X162053994Y-52515819D01*
X162111076Y-52315196D01*
X162130322Y-52107500D01*
X162111076Y-51899804D01*
X162053994Y-51699181D01*
X162013499Y-51617857D01*
X162000500Y-51562586D01*
X162000500Y-51465782D01*
X162020185Y-51398743D01*
X162036819Y-51378101D01*
X162278101Y-51136819D01*
X162339424Y-51103334D01*
X162365782Y-51100500D01*
X162653909Y-51100500D01*
X162720948Y-51120185D01*
X162766703Y-51172989D01*
X162776647Y-51242147D01*
X162747622Y-51305703D01*
X162737448Y-51316137D01*
X162704681Y-51346007D01*
X162578981Y-51512461D01*
X162486007Y-51699177D01*
X162428923Y-51899808D01*
X162409678Y-52107499D01*
X162409678Y-52107500D01*
X162428923Y-52315191D01*
X162428923Y-52315193D01*
X162428924Y-52315196D01*
X162462284Y-52432444D01*
X162486007Y-52515822D01*
X162510232Y-52564472D01*
X162578981Y-52702538D01*
X162704682Y-52868993D01*
X162858829Y-53009516D01*
X163036172Y-53119323D01*
X163230673Y-53194673D01*
X163435707Y-53233000D01*
X163435710Y-53233000D01*
X163644290Y-53233000D01*
X163644293Y-53233000D01*
X163849327Y-53194673D01*
X163914321Y-53169494D01*
X164030706Y-53124407D01*
X164100329Y-53118544D01*
X164162069Y-53151254D01*
X164196324Y-53212150D01*
X164199500Y-53240033D01*
X164199500Y-53514966D01*
X164179815Y-53582005D01*
X164127011Y-53627760D01*
X164057853Y-53637704D01*
X164030706Y-53630593D01*
X163849330Y-53560328D01*
X163849329Y-53560327D01*
X163849327Y-53560327D01*
X163644293Y-53522000D01*
X163435707Y-53522000D01*
X163230673Y-53560327D01*
X163230670Y-53560327D01*
X163230670Y-53560328D01*
X163036172Y-53635676D01*
X163036171Y-53635677D01*
X162858827Y-53745485D01*
X162704683Y-53886005D01*
X162578981Y-54052461D01*
X162486007Y-54239177D01*
X162486006Y-54239181D01*
X162433393Y-54424099D01*
X162428923Y-54439808D01*
X162409678Y-54647499D01*
X162409678Y-54647500D01*
X162428923Y-54855191D01*
X162428923Y-54855193D01*
X162428924Y-54855196D01*
X162462585Y-54973501D01*
X162486007Y-55055822D01*
X162578981Y-55242538D01*
X162704682Y-55408993D01*
X162858829Y-55549516D01*
X163036172Y-55659323D01*
X163230673Y-55734673D01*
X163435707Y-55773000D01*
X163435710Y-55773000D01*
X163644290Y-55773000D01*
X163644293Y-55773000D01*
X163849327Y-55734673D01*
X163914321Y-55709494D01*
X164030706Y-55664407D01*
X164100329Y-55658544D01*
X164162069Y-55691254D01*
X164196324Y-55752150D01*
X164199500Y-55780033D01*
X164199500Y-56054966D01*
X164179815Y-56122005D01*
X164127011Y-56167760D01*
X164057853Y-56177704D01*
X164030706Y-56170593D01*
X163849330Y-56100328D01*
X163849329Y-56100327D01*
X163849327Y-56100327D01*
X163644293Y-56062000D01*
X163435707Y-56062000D01*
X163230673Y-56100327D01*
X163230670Y-56100327D01*
X163230670Y-56100328D01*
X163036172Y-56175676D01*
X163036171Y-56175677D01*
X162858827Y-56285485D01*
X162704683Y-56426005D01*
X162578981Y-56592461D01*
X162486007Y-56779177D01*
X162461313Y-56865968D01*
X162442974Y-56930425D01*
X162428923Y-56979808D01*
X162409678Y-57187499D01*
X162409678Y-57187500D01*
X162428923Y-57395191D01*
X162428923Y-57395193D01*
X162428924Y-57395196D01*
X162486006Y-57595819D01*
X162526500Y-57677143D01*
X162539500Y-57732413D01*
X162539500Y-57744217D01*
X162519815Y-57811256D01*
X162503181Y-57831898D01*
X161511899Y-58823181D01*
X161450576Y-58856666D01*
X161424218Y-58859500D01*
X153844918Y-58859500D01*
X153777879Y-58839815D01*
X153732124Y-58787011D01*
X153722180Y-58717853D01*
X153732536Y-58683095D01*
X153799575Y-58539330D01*
X153856207Y-58327977D01*
X153875277Y-58110000D01*
X153856207Y-57892023D01*
X153799575Y-57680670D01*
X153707102Y-57482362D01*
X153707100Y-57482359D01*
X153707099Y-57482357D01*
X153581599Y-57303124D01*
X153506876Y-57228401D01*
X153426877Y-57148402D01*
X153288978Y-57051844D01*
X153247638Y-57022897D01*
X153148484Y-56976661D01*
X153049330Y-56930425D01*
X153049326Y-56930424D01*
X153049322Y-56930422D01*
X152837977Y-56873793D01*
X152620002Y-56854723D01*
X152619998Y-56854723D01*
X152474682Y-56867436D01*
X152402023Y-56873793D01*
X152402020Y-56873793D01*
X152190677Y-56930422D01*
X152190668Y-56930426D01*
X151992361Y-57022898D01*
X151992357Y-57022900D01*
X151813121Y-57148402D01*
X151658402Y-57303121D01*
X151532900Y-57482357D01*
X151532898Y-57482361D01*
X151462382Y-57633583D01*
X151416209Y-57686022D01*
X151349016Y-57705174D01*
X151282135Y-57684958D01*
X151237618Y-57633583D01*
X151220008Y-57595819D01*
X151167102Y-57482362D01*
X151167100Y-57482359D01*
X151167099Y-57482357D01*
X151041599Y-57303124D01*
X150966876Y-57228401D01*
X150886877Y-57148402D01*
X150748978Y-57051844D01*
X150707638Y-57022897D01*
X150608484Y-56976661D01*
X150509330Y-56930425D01*
X150509326Y-56930424D01*
X150509322Y-56930422D01*
X150297977Y-56873793D01*
X150080002Y-56854723D01*
X150079998Y-56854723D01*
X149934682Y-56867436D01*
X149862023Y-56873793D01*
X149862020Y-56873793D01*
X149650677Y-56930422D01*
X149650668Y-56930426D01*
X149452361Y-57022898D01*
X149452357Y-57022900D01*
X149273121Y-57148402D01*
X149118402Y-57303121D01*
X148992900Y-57482357D01*
X148992898Y-57482361D01*
X148900426Y-57680668D01*
X148900422Y-57680677D01*
X148843793Y-57892020D01*
X148843793Y-57892023D01*
X148824723Y-58110000D01*
X148839129Y-58274671D01*
X148843793Y-58327975D01*
X148843793Y-58327979D01*
X148900422Y-58539322D01*
X148900424Y-58539326D01*
X148900425Y-58539330D01*
X148922382Y-58586416D01*
X148967464Y-58683095D01*
X148977956Y-58752173D01*
X148949436Y-58815957D01*
X148890960Y-58854196D01*
X148855082Y-58859500D01*
X146224918Y-58859500D01*
X146157879Y-58839815D01*
X146112124Y-58787011D01*
X146102180Y-58717853D01*
X146112536Y-58683095D01*
X146179575Y-58539330D01*
X146236207Y-58327977D01*
X146255277Y-58110000D01*
X146236207Y-57892023D01*
X146179575Y-57680670D01*
X146087102Y-57482362D01*
X146087100Y-57482359D01*
X146087099Y-57482357D01*
X145961599Y-57303124D01*
X145886876Y-57228401D01*
X145806877Y-57148402D01*
X145668978Y-57051844D01*
X145627638Y-57022897D01*
X145528484Y-56976661D01*
X145429330Y-56930425D01*
X145429326Y-56930424D01*
X145429322Y-56930422D01*
X145217977Y-56873793D01*
X145000002Y-56854723D01*
X144999998Y-56854723D01*
X144854682Y-56867436D01*
X144782023Y-56873793D01*
X144782020Y-56873793D01*
X144570677Y-56930422D01*
X144570668Y-56930426D01*
X144372361Y-57022898D01*
X144372357Y-57022900D01*
X144193121Y-57148402D01*
X144038402Y-57303121D01*
X143912900Y-57482357D01*
X143912898Y-57482361D01*
X143842382Y-57633583D01*
X143796209Y-57686022D01*
X143729016Y-57705174D01*
X143662135Y-57684958D01*
X143617618Y-57633583D01*
X143600008Y-57595819D01*
X143547102Y-57482362D01*
X143547100Y-57482359D01*
X143547099Y-57482357D01*
X143421599Y-57303124D01*
X143346876Y-57228401D01*
X143266877Y-57148402D01*
X143128978Y-57051844D01*
X143087638Y-57022897D01*
X142988484Y-56976661D01*
X142889330Y-56930425D01*
X142889326Y-56930424D01*
X142889322Y-56930422D01*
X142677977Y-56873793D01*
X142460002Y-56854723D01*
X142459998Y-56854723D01*
X142314682Y-56867436D01*
X142242023Y-56873793D01*
X142242020Y-56873793D01*
X142030677Y-56930422D01*
X142030668Y-56930426D01*
X141832361Y-57022898D01*
X141832357Y-57022900D01*
X141653121Y-57148402D01*
X141498402Y-57303121D01*
X141372900Y-57482357D01*
X141372898Y-57482361D01*
X141302382Y-57633583D01*
X141256209Y-57686022D01*
X141189016Y-57705174D01*
X141122135Y-57684958D01*
X141077618Y-57633583D01*
X141060008Y-57595819D01*
X141007102Y-57482362D01*
X141007100Y-57482359D01*
X141007099Y-57482357D01*
X140881599Y-57303124D01*
X140806876Y-57228401D01*
X140726877Y-57148402D01*
X140588978Y-57051844D01*
X140547638Y-57022897D01*
X140448484Y-56976661D01*
X140349330Y-56930425D01*
X140349326Y-56930424D01*
X140349322Y-56930422D01*
X140137977Y-56873793D01*
X139920002Y-56854723D01*
X139919998Y-56854723D01*
X139774682Y-56867436D01*
X139702023Y-56873793D01*
X139702020Y-56873793D01*
X139490677Y-56930422D01*
X139490668Y-56930426D01*
X139292361Y-57022898D01*
X139292357Y-57022900D01*
X139113121Y-57148402D01*
X138958402Y-57303121D01*
X138832900Y-57482357D01*
X138832898Y-57482361D01*
X138762382Y-57633583D01*
X138716209Y-57686022D01*
X138649016Y-57705174D01*
X138582135Y-57684958D01*
X138537618Y-57633583D01*
X138520008Y-57595819D01*
X138467102Y-57482362D01*
X138467100Y-57482359D01*
X138467099Y-57482357D01*
X138341599Y-57303124D01*
X138266876Y-57228401D01*
X138186877Y-57148402D01*
X138048978Y-57051844D01*
X138007638Y-57022897D01*
X137908484Y-56976661D01*
X137809330Y-56930425D01*
X137809326Y-56930424D01*
X137809322Y-56930422D01*
X137597977Y-56873793D01*
X137380002Y-56854723D01*
X137379998Y-56854723D01*
X137234682Y-56867436D01*
X137162023Y-56873793D01*
X137162020Y-56873793D01*
X136950677Y-56930422D01*
X136950668Y-56930426D01*
X136752361Y-57022898D01*
X136752357Y-57022900D01*
X136573121Y-57148402D01*
X136418402Y-57303121D01*
X136292900Y-57482357D01*
X136292898Y-57482361D01*
X136200426Y-57680668D01*
X136200422Y-57680677D01*
X136143793Y-57892020D01*
X136143793Y-57892023D01*
X136124723Y-58110000D01*
X136139129Y-58274671D01*
X136143793Y-58327975D01*
X136143793Y-58327979D01*
X136200422Y-58539322D01*
X136200424Y-58539326D01*
X136200425Y-58539330D01*
X136222382Y-58586416D01*
X136267464Y-58683095D01*
X136277956Y-58752173D01*
X136249436Y-58815957D01*
X136190960Y-58854196D01*
X136155082Y-58859500D01*
X133524918Y-58859500D01*
X133457879Y-58839815D01*
X133412124Y-58787011D01*
X133402180Y-58717853D01*
X133412536Y-58683095D01*
X133479575Y-58539330D01*
X133536207Y-58327977D01*
X133555277Y-58110000D01*
X133536207Y-57892023D01*
X133479575Y-57680670D01*
X133387102Y-57482362D01*
X133387100Y-57482359D01*
X133387099Y-57482357D01*
X133261599Y-57303124D01*
X133186876Y-57228401D01*
X133106877Y-57148402D01*
X132968978Y-57051844D01*
X132927638Y-57022897D01*
X132828484Y-56976661D01*
X132729330Y-56930425D01*
X132729326Y-56930424D01*
X132729322Y-56930422D01*
X132517977Y-56873793D01*
X132300002Y-56854723D01*
X132299998Y-56854723D01*
X132154682Y-56867436D01*
X132082023Y-56873793D01*
X132082020Y-56873793D01*
X131870677Y-56930422D01*
X131870668Y-56930426D01*
X131672361Y-57022898D01*
X131672357Y-57022900D01*
X131493121Y-57148402D01*
X131338402Y-57303121D01*
X131212900Y-57482357D01*
X131212898Y-57482361D01*
X131142382Y-57633583D01*
X131096209Y-57686022D01*
X131029016Y-57705174D01*
X130962135Y-57684958D01*
X130917618Y-57633583D01*
X130900008Y-57595819D01*
X130847102Y-57482362D01*
X130847100Y-57482359D01*
X130847099Y-57482357D01*
X130721599Y-57303124D01*
X130646876Y-57228401D01*
X130566877Y-57148402D01*
X130428978Y-57051844D01*
X130387638Y-57022897D01*
X130288484Y-56976661D01*
X130189330Y-56930425D01*
X130189326Y-56930424D01*
X130189322Y-56930422D01*
X129977977Y-56873793D01*
X129917050Y-56868462D01*
X129851982Y-56843009D01*
X129811004Y-56786417D01*
X129807127Y-56716655D01*
X129840176Y-56657255D01*
X131735614Y-54761819D01*
X131796937Y-54728334D01*
X131823295Y-54725500D01*
X154779205Y-54725500D01*
X154846244Y-54745185D01*
X154866886Y-54761819D01*
X157301809Y-57196742D01*
X157335294Y-57258065D01*
X157337599Y-57272982D01*
X157348923Y-57395191D01*
X157348923Y-57395193D01*
X157348924Y-57395196D01*
X157373725Y-57482361D01*
X157406007Y-57595822D01*
X157459500Y-57703249D01*
X157498981Y-57782538D01*
X157624682Y-57948993D01*
X157778829Y-58089516D01*
X157956172Y-58199323D01*
X158150673Y-58274673D01*
X158355707Y-58313000D01*
X158355710Y-58313000D01*
X158564290Y-58313000D01*
X158564293Y-58313000D01*
X158769327Y-58274673D01*
X158963828Y-58199323D01*
X159141171Y-58089516D01*
X159295318Y-57948993D01*
X159421019Y-57782538D01*
X159513994Y-57595819D01*
X159571076Y-57395196D01*
X159590322Y-57187500D01*
X159869678Y-57187500D01*
X159888923Y-57395191D01*
X159888923Y-57395193D01*
X159888924Y-57395196D01*
X159913725Y-57482361D01*
X159946007Y-57595822D01*
X159999500Y-57703249D01*
X160038981Y-57782538D01*
X160164682Y-57948993D01*
X160318829Y-58089516D01*
X160496172Y-58199323D01*
X160690673Y-58274673D01*
X160895707Y-58313000D01*
X160895710Y-58313000D01*
X161104290Y-58313000D01*
X161104293Y-58313000D01*
X161309327Y-58274673D01*
X161503828Y-58199323D01*
X161681171Y-58089516D01*
X161835318Y-57948993D01*
X161961019Y-57782538D01*
X162053994Y-57595819D01*
X162111076Y-57395196D01*
X162130322Y-57187500D01*
X162111076Y-56979804D01*
X162053994Y-56779181D01*
X161961019Y-56592462D01*
X161835318Y-56426007D01*
X161681171Y-56285484D01*
X161503828Y-56175677D01*
X161503827Y-56175676D01*
X161332739Y-56109397D01*
X161309327Y-56100327D01*
X161104293Y-56062000D01*
X160895707Y-56062000D01*
X160690673Y-56100327D01*
X160690670Y-56100327D01*
X160690670Y-56100328D01*
X160496172Y-56175676D01*
X160496171Y-56175677D01*
X160318827Y-56285485D01*
X160164683Y-56426005D01*
X160038981Y-56592461D01*
X159946007Y-56779177D01*
X159921313Y-56865968D01*
X159902974Y-56930425D01*
X159888923Y-56979808D01*
X159869678Y-57187499D01*
X159869678Y-57187500D01*
X159590322Y-57187500D01*
X159571076Y-56979804D01*
X159513994Y-56779181D01*
X159421019Y-56592462D01*
X159295318Y-56426007D01*
X159141171Y-56285484D01*
X158963828Y-56175677D01*
X158963827Y-56175676D01*
X158792739Y-56109397D01*
X158769327Y-56100327D01*
X158564293Y-56062000D01*
X158564290Y-56062000D01*
X158553295Y-56062000D01*
X158486256Y-56042315D01*
X158465614Y-56025681D01*
X158424614Y-55984681D01*
X158391129Y-55923358D01*
X158396113Y-55853666D01*
X158437985Y-55797733D01*
X158503449Y-55773316D01*
X158512295Y-55773000D01*
X158564290Y-55773000D01*
X158564293Y-55773000D01*
X158769327Y-55734673D01*
X158963828Y-55659323D01*
X159141171Y-55549516D01*
X159295318Y-55408993D01*
X159421019Y-55242538D01*
X159513994Y-55055819D01*
X159571076Y-54855196D01*
X159590322Y-54647500D01*
X159869678Y-54647500D01*
X159888923Y-54855191D01*
X159888923Y-54855193D01*
X159888924Y-54855196D01*
X159922585Y-54973501D01*
X159946007Y-55055822D01*
X160038981Y-55242538D01*
X160164682Y-55408993D01*
X160318829Y-55549516D01*
X160496172Y-55659323D01*
X160690673Y-55734673D01*
X160895707Y-55773000D01*
X160895710Y-55773000D01*
X161104290Y-55773000D01*
X161104293Y-55773000D01*
X161309327Y-55734673D01*
X161503828Y-55659323D01*
X161681171Y-55549516D01*
X161835318Y-55408993D01*
X161961019Y-55242538D01*
X162053994Y-55055819D01*
X162111076Y-54855196D01*
X162130322Y-54647500D01*
X162128724Y-54630260D01*
X162125874Y-54599500D01*
X162111076Y-54439804D01*
X162053994Y-54239181D01*
X161961019Y-54052462D01*
X161835318Y-53886007D01*
X161831396Y-53882432D01*
X161681172Y-53745485D01*
X161681171Y-53745484D01*
X161503828Y-53635677D01*
X161503827Y-53635676D01*
X161361609Y-53580581D01*
X161309327Y-53560327D01*
X161104293Y-53522000D01*
X160895707Y-53522000D01*
X160690673Y-53560327D01*
X160690670Y-53560327D01*
X160690670Y-53560328D01*
X160496172Y-53635676D01*
X160496171Y-53635677D01*
X160318827Y-53745485D01*
X160164683Y-53886005D01*
X160038981Y-54052461D01*
X159946007Y-54239177D01*
X159946006Y-54239181D01*
X159893393Y-54424099D01*
X159888923Y-54439808D01*
X159869678Y-54647499D01*
X159869678Y-54647500D01*
X159590322Y-54647500D01*
X159588724Y-54630260D01*
X159585874Y-54599500D01*
X159571076Y-54439804D01*
X159513994Y-54239181D01*
X159421019Y-54052462D01*
X159295318Y-53886007D01*
X159291396Y-53882432D01*
X159141172Y-53745485D01*
X159141171Y-53745484D01*
X158963828Y-53635677D01*
X158963827Y-53635676D01*
X158821609Y-53580581D01*
X158769327Y-53560327D01*
X158564293Y-53522000D01*
X158564290Y-53522000D01*
X158553295Y-53522000D01*
X158486256Y-53502315D01*
X158465614Y-53485681D01*
X158424614Y-53444681D01*
X158391129Y-53383358D01*
X158396113Y-53313666D01*
X158437985Y-53257733D01*
X158503449Y-53233316D01*
X158512295Y-53233000D01*
X158564290Y-53233000D01*
X158564293Y-53233000D01*
X158769327Y-53194673D01*
X158963828Y-53119323D01*
X159141171Y-53009516D01*
X159295318Y-52868993D01*
X159421019Y-52702538D01*
X159513994Y-52515819D01*
X159571076Y-52315196D01*
X159590322Y-52107500D01*
X159571076Y-51899804D01*
X159513994Y-51699181D01*
X159421019Y-51512462D01*
X159295318Y-51346007D01*
X159251106Y-51305703D01*
X159141172Y-51205485D01*
X159141171Y-51205484D01*
X158963828Y-51095677D01*
X158963827Y-51095676D01*
X158795106Y-51030314D01*
X158769327Y-51020327D01*
X158564293Y-50982000D01*
X158355707Y-50982000D01*
X158150673Y-51020327D01*
X158150670Y-51020327D01*
X158150670Y-51020328D01*
X157956172Y-51095676D01*
X157956170Y-51095677D01*
X157858865Y-51155927D01*
X157793587Y-51174500D01*
X151864758Y-51174500D01*
X151797719Y-51154815D01*
X151751964Y-51102011D01*
X151742020Y-51032853D01*
X151771045Y-50969297D01*
X151777077Y-50962819D01*
X151842032Y-50897864D01*
X151918495Y-50821401D01*
X152054035Y-50627830D01*
X152153903Y-50413663D01*
X152215063Y-50185408D01*
X152235659Y-49950000D01*
X152215063Y-49714592D01*
X152153903Y-49486337D01*
X152054035Y-49272171D01*
X152050139Y-49266606D01*
X151918494Y-49078597D01*
X151751402Y-48911506D01*
X151751395Y-48911501D01*
X151745922Y-48907669D01*
X151674518Y-48857671D01*
X151557834Y-48775967D01*
X151557830Y-48775965D01*
X151557828Y-48775964D01*
X151343663Y-48676097D01*
X151343659Y-48676096D01*
X151343655Y-48676094D01*
X151115413Y-48614938D01*
X151115403Y-48614936D01*
X150880001Y-48594341D01*
X150879999Y-48594341D01*
X150644596Y-48614936D01*
X150644586Y-48614938D01*
X150416344Y-48676094D01*
X150416335Y-48676098D01*
X150202171Y-48775964D01*
X150202169Y-48775965D01*
X150008597Y-48911505D01*
X149841505Y-49078597D01*
X149711575Y-49264158D01*
X149656998Y-49307783D01*
X149587500Y-49314977D01*
X149525145Y-49283454D01*
X149508425Y-49264158D01*
X149378494Y-49078597D01*
X149211402Y-48911506D01*
X149211395Y-48911501D01*
X149205922Y-48907669D01*
X149134518Y-48857671D01*
X149017834Y-48775967D01*
X149017830Y-48775965D01*
X149017828Y-48775964D01*
X148803663Y-48676097D01*
X148803659Y-48676096D01*
X148803655Y-48676094D01*
X148575413Y-48614938D01*
X148575403Y-48614936D01*
X148340001Y-48594341D01*
X148339999Y-48594341D01*
X148104596Y-48614936D01*
X148104586Y-48614938D01*
X147876344Y-48676094D01*
X147876335Y-48676098D01*
X147662171Y-48775964D01*
X147662169Y-48775965D01*
X147468597Y-48911505D01*
X147301505Y-49078597D01*
X147171575Y-49264158D01*
X147116998Y-49307783D01*
X147047500Y-49314977D01*
X146985145Y-49283454D01*
X146968425Y-49264158D01*
X146838494Y-49078597D01*
X146671402Y-48911506D01*
X146671395Y-48911501D01*
X146665922Y-48907669D01*
X146594518Y-48857671D01*
X146477834Y-48775967D01*
X146477830Y-48775965D01*
X146477828Y-48775964D01*
X146263663Y-48676097D01*
X146263659Y-48676096D01*
X146263655Y-48676094D01*
X146035413Y-48614938D01*
X146035403Y-48614936D01*
X145800001Y-48594341D01*
X145799999Y-48594341D01*
X145564596Y-48614936D01*
X145564586Y-48614938D01*
X145336344Y-48676094D01*
X145336335Y-48676098D01*
X145122171Y-48775964D01*
X145122169Y-48775965D01*
X144928597Y-48911505D01*
X144761505Y-49078597D01*
X144631575Y-49264158D01*
X144576998Y-49307783D01*
X144507500Y-49314977D01*
X144445145Y-49283454D01*
X144428425Y-49264158D01*
X144298494Y-49078597D01*
X144131402Y-48911506D01*
X144131395Y-48911501D01*
X144125922Y-48907669D01*
X144054518Y-48857671D01*
X143937834Y-48775967D01*
X143937830Y-48775965D01*
X143937828Y-48775964D01*
X143723663Y-48676097D01*
X143723659Y-48676096D01*
X143723655Y-48676094D01*
X143495413Y-48614938D01*
X143495403Y-48614936D01*
X143260001Y-48594341D01*
X143259999Y-48594341D01*
X143024596Y-48614936D01*
X143024586Y-48614938D01*
X142796344Y-48676094D01*
X142796335Y-48676098D01*
X142582171Y-48775964D01*
X142582169Y-48775965D01*
X142388597Y-48911505D01*
X142221505Y-49078597D01*
X142091575Y-49264158D01*
X142036998Y-49307783D01*
X141967500Y-49314977D01*
X141905145Y-49283454D01*
X141888425Y-49264158D01*
X141758494Y-49078597D01*
X141591402Y-48911506D01*
X141591395Y-48911501D01*
X141585922Y-48907669D01*
X141514518Y-48857671D01*
X141397834Y-48775967D01*
X141397830Y-48775965D01*
X141397828Y-48775964D01*
X141183663Y-48676097D01*
X141183659Y-48676096D01*
X141183655Y-48676094D01*
X140955413Y-48614938D01*
X140955403Y-48614936D01*
X140720001Y-48594341D01*
X140719999Y-48594341D01*
X140484596Y-48614936D01*
X140484586Y-48614938D01*
X140256344Y-48676094D01*
X140256335Y-48676098D01*
X140042171Y-48775964D01*
X140042169Y-48775965D01*
X139848597Y-48911505D01*
X139681505Y-49078597D01*
X139551575Y-49264158D01*
X139496998Y-49307783D01*
X139427500Y-49314977D01*
X139365145Y-49283454D01*
X139348425Y-49264158D01*
X139218494Y-49078597D01*
X139051402Y-48911506D01*
X139051395Y-48911501D01*
X139045922Y-48907669D01*
X138974518Y-48857671D01*
X138857834Y-48775967D01*
X138857830Y-48775965D01*
X138857828Y-48775964D01*
X138643663Y-48676097D01*
X138643659Y-48676096D01*
X138643655Y-48676094D01*
X138415413Y-48614938D01*
X138415403Y-48614936D01*
X138180001Y-48594341D01*
X138179999Y-48594341D01*
X137944596Y-48614936D01*
X137944586Y-48614938D01*
X137716344Y-48676094D01*
X137716335Y-48676098D01*
X137502171Y-48775964D01*
X137502169Y-48775965D01*
X137308597Y-48911505D01*
X137141505Y-49078597D01*
X137005965Y-49272169D01*
X137005964Y-49272171D01*
X136906098Y-49486335D01*
X136906094Y-49486344D01*
X136844938Y-49714586D01*
X136844936Y-49714596D01*
X136824341Y-49949999D01*
X136824341Y-49950000D01*
X136844936Y-50185403D01*
X136844938Y-50185413D01*
X136906094Y-50413655D01*
X136906096Y-50413659D01*
X136906097Y-50413663D01*
X136929413Y-50463664D01*
X137005965Y-50627830D01*
X137005967Y-50627834D01*
X137114281Y-50782521D01*
X137141501Y-50821396D01*
X137141506Y-50821402D01*
X137282923Y-50962819D01*
X137316408Y-51024142D01*
X137311424Y-51093834D01*
X137269552Y-51149767D01*
X137204088Y-51174184D01*
X137195242Y-51174500D01*
X134523094Y-51174500D01*
X134456055Y-51154815D01*
X134410300Y-51102011D01*
X134400356Y-51032853D01*
X134406912Y-51007167D01*
X134444091Y-50907482D01*
X134450500Y-50847873D01*
X134450499Y-49052128D01*
X134444091Y-48992517D01*
X134432524Y-48961505D01*
X134393797Y-48857671D01*
X134393793Y-48857664D01*
X134307547Y-48742455D01*
X134307544Y-48742452D01*
X134192335Y-48656206D01*
X134192328Y-48656202D01*
X134057482Y-48605908D01*
X134057483Y-48605908D01*
X133997883Y-48599501D01*
X133997881Y-48599500D01*
X133997873Y-48599500D01*
X133997864Y-48599500D01*
X132202129Y-48599500D01*
X132202123Y-48599501D01*
X132142516Y-48605908D01*
X132007671Y-48656202D01*
X132007664Y-48656206D01*
X131892455Y-48742452D01*
X131892452Y-48742455D01*
X131806206Y-48857664D01*
X131806202Y-48857671D01*
X131755908Y-48992517D01*
X131750924Y-49038881D01*
X131749501Y-49052123D01*
X131749500Y-49052135D01*
X131749500Y-50847870D01*
X131749501Y-50847876D01*
X131755908Y-50907483D01*
X131793088Y-51007167D01*
X131798072Y-51076859D01*
X131764586Y-51138182D01*
X131703263Y-51171666D01*
X131676906Y-51174500D01*
X130561687Y-51174500D01*
X130457301Y-51195264D01*
X130387709Y-51189037D01*
X130332532Y-51146174D01*
X130309287Y-51080284D01*
X130316927Y-51030314D01*
X130334947Y-50982000D01*
X130344091Y-50957483D01*
X130350500Y-50897873D01*
X130350499Y-49102128D01*
X130344091Y-49042517D01*
X130342810Y-49039083D01*
X130293797Y-48907671D01*
X130293793Y-48907664D01*
X130207547Y-48792455D01*
X130207544Y-48792452D01*
X130092335Y-48706206D01*
X130092328Y-48706202D01*
X129957482Y-48655908D01*
X129957483Y-48655908D01*
X129897883Y-48649501D01*
X129897881Y-48649500D01*
X129897873Y-48649500D01*
X129897864Y-48649500D01*
X128102129Y-48649500D01*
X128102123Y-48649501D01*
X128042516Y-48655908D01*
X127907671Y-48706202D01*
X127907664Y-48706206D01*
X127792455Y-48792452D01*
X127792452Y-48792455D01*
X127706206Y-48907664D01*
X127706203Y-48907669D01*
X127657189Y-49039083D01*
X127615317Y-49095016D01*
X127549853Y-49119433D01*
X127481580Y-49104581D01*
X127453326Y-49083430D01*
X127331402Y-48961506D01*
X127331395Y-48961501D01*
X127137834Y-48825967D01*
X127137830Y-48825965D01*
X127137828Y-48825964D01*
X126923663Y-48726097D01*
X126923659Y-48726096D01*
X126923655Y-48726094D01*
X126695413Y-48664938D01*
X126695403Y-48664936D01*
X126460001Y-48644341D01*
X126459999Y-48644341D01*
X126224596Y-48664936D01*
X126224586Y-48664938D01*
X125996344Y-48726094D01*
X125996335Y-48726098D01*
X125782171Y-48825964D01*
X125782169Y-48825965D01*
X125588597Y-48961505D01*
X125421505Y-49128597D01*
X125291575Y-49314158D01*
X125236998Y-49357783D01*
X125167500Y-49364977D01*
X125105145Y-49333454D01*
X125088425Y-49314158D01*
X124958494Y-49128597D01*
X124791402Y-48961506D01*
X124791395Y-48961501D01*
X124597834Y-48825967D01*
X124597830Y-48825965D01*
X124597828Y-48825964D01*
X124383663Y-48726097D01*
X124383659Y-48726096D01*
X124383655Y-48726094D01*
X124155413Y-48664938D01*
X124155403Y-48664936D01*
X123920001Y-48644341D01*
X123919999Y-48644341D01*
X123684596Y-48664936D01*
X123684586Y-48664938D01*
X123456344Y-48726094D01*
X123456335Y-48726098D01*
X123242171Y-48825964D01*
X123242169Y-48825965D01*
X123048597Y-48961505D01*
X122881505Y-49128597D01*
X122745965Y-49322169D01*
X122745964Y-49322171D01*
X122646098Y-49536335D01*
X122646094Y-49536344D01*
X122584938Y-49764586D01*
X122584936Y-49764596D01*
X122564341Y-49999999D01*
X122564341Y-50000000D01*
X122584936Y-50235403D01*
X122584938Y-50235413D01*
X122646094Y-50463655D01*
X122646096Y-50463659D01*
X122646097Y-50463663D01*
X122726004Y-50635023D01*
X122745965Y-50677830D01*
X122745967Y-50677834D01*
X122767209Y-50708170D01*
X122881505Y-50871401D01*
X123048599Y-51038495D01*
X123127631Y-51093834D01*
X123242165Y-51174032D01*
X123242167Y-51174033D01*
X123242170Y-51174035D01*
X123456337Y-51273903D01*
X123684592Y-51335063D01*
X123861034Y-51350500D01*
X123919999Y-51355659D01*
X123920000Y-51355659D01*
X123920001Y-51355659D01*
X123978966Y-51350500D01*
X124155408Y-51335063D01*
X124383663Y-51273903D01*
X124597830Y-51174035D01*
X124791401Y-51038495D01*
X124958495Y-50871401D01*
X125088425Y-50685842D01*
X125143002Y-50642217D01*
X125212500Y-50635023D01*
X125274855Y-50666546D01*
X125291575Y-50685842D01*
X125421500Y-50871395D01*
X125421505Y-50871401D01*
X125588599Y-51038495D01*
X125667631Y-51093834D01*
X125782165Y-51174032D01*
X125782167Y-51174033D01*
X125782170Y-51174035D01*
X125996337Y-51273903D01*
X126224592Y-51335063D01*
X126401034Y-51350500D01*
X126459999Y-51355659D01*
X126460000Y-51355659D01*
X126460001Y-51355659D01*
X126518966Y-51350500D01*
X126695408Y-51335063D01*
X126923663Y-51273903D01*
X127137830Y-51174035D01*
X127331401Y-51038495D01*
X127453329Y-50916566D01*
X127514648Y-50883084D01*
X127584340Y-50888068D01*
X127640274Y-50929939D01*
X127657189Y-50960917D01*
X127706202Y-51092328D01*
X127706206Y-51092335D01*
X127792452Y-51207544D01*
X127792455Y-51207547D01*
X127907664Y-51293793D01*
X127907671Y-51293797D01*
X128042517Y-51344091D01*
X128042516Y-51344091D01*
X128049444Y-51344835D01*
X128102127Y-51350500D01*
X129825699Y-51350499D01*
X129892738Y-51370184D01*
X129938493Y-51422987D01*
X129948437Y-51492146D01*
X129919412Y-51555702D01*
X129913380Y-51562180D01*
X127022380Y-54453181D01*
X126961057Y-54486666D01*
X126934699Y-54489500D01*
X120203693Y-54489500D01*
X120044216Y-54521222D01*
X120044206Y-54521225D01*
X119893980Y-54583450D01*
X119893976Y-54583452D01*
X119758775Y-54673790D01*
X119758768Y-54673796D01*
X119182279Y-55250288D01*
X119073775Y-55358792D01*
X119023574Y-55408993D01*
X118958790Y-55473776D01*
X118958788Y-55473779D01*
X118868452Y-55608976D01*
X118868450Y-55608980D01*
X118806225Y-55759206D01*
X118806222Y-55759216D01*
X118774500Y-55918692D01*
X118774500Y-57115662D01*
X118754815Y-57182701D01*
X118738181Y-57203343D01*
X118638402Y-57303121D01*
X118512900Y-57482357D01*
X118512898Y-57482361D01*
X118442382Y-57633583D01*
X118396209Y-57686022D01*
X118329016Y-57705174D01*
X118262135Y-57684958D01*
X118217618Y-57633583D01*
X118200008Y-57595819D01*
X118147102Y-57482362D01*
X118147100Y-57482359D01*
X118147099Y-57482357D01*
X118021599Y-57303124D01*
X117946876Y-57228401D01*
X117866877Y-57148402D01*
X117728978Y-57051844D01*
X117687638Y-57022897D01*
X117588484Y-56976661D01*
X117489330Y-56930425D01*
X117489326Y-56930424D01*
X117489322Y-56930422D01*
X117277977Y-56873793D01*
X117060002Y-56854723D01*
X117059998Y-56854723D01*
X116914682Y-56867436D01*
X116842023Y-56873793D01*
X116842020Y-56873793D01*
X116630677Y-56930422D01*
X116630668Y-56930426D01*
X116432361Y-57022898D01*
X116432357Y-57022900D01*
X116253121Y-57148402D01*
X116098402Y-57303121D01*
X115972900Y-57482357D01*
X115972898Y-57482361D01*
X115902382Y-57633583D01*
X115856209Y-57686022D01*
X115789016Y-57705174D01*
X115722135Y-57684958D01*
X115677618Y-57633583D01*
X115660008Y-57595819D01*
X115607102Y-57482362D01*
X115607100Y-57482359D01*
X115607099Y-57482357D01*
X115481599Y-57303124D01*
X115406876Y-57228401D01*
X115326877Y-57148402D01*
X115188978Y-57051844D01*
X115147638Y-57022897D01*
X115048484Y-56976661D01*
X114949330Y-56930425D01*
X114949326Y-56930424D01*
X114949322Y-56930422D01*
X114737977Y-56873793D01*
X114520002Y-56854723D01*
X114519998Y-56854723D01*
X114374682Y-56867436D01*
X114302023Y-56873793D01*
X114302020Y-56873793D01*
X114090677Y-56930422D01*
X114090668Y-56930426D01*
X113892361Y-57022898D01*
X113892357Y-57022900D01*
X113713121Y-57148402D01*
X113558402Y-57303121D01*
X113432900Y-57482357D01*
X113432898Y-57482361D01*
X113362382Y-57633583D01*
X113316209Y-57686022D01*
X113249016Y-57705174D01*
X113182135Y-57684958D01*
X113137618Y-57633583D01*
X113120008Y-57595819D01*
X113067102Y-57482362D01*
X113067100Y-57482359D01*
X113067099Y-57482357D01*
X112941599Y-57303124D01*
X112866876Y-57228401D01*
X112786877Y-57148402D01*
X112648978Y-57051844D01*
X112607638Y-57022897D01*
X112508484Y-56976661D01*
X112409330Y-56930425D01*
X112409326Y-56930424D01*
X112409322Y-56930422D01*
X112197977Y-56873793D01*
X111980002Y-56854723D01*
X111979998Y-56854723D01*
X111834682Y-56867436D01*
X111762023Y-56873793D01*
X111762020Y-56873793D01*
X111550677Y-56930422D01*
X111550668Y-56930426D01*
X111352361Y-57022898D01*
X111352357Y-57022900D01*
X111173121Y-57148402D01*
X111018402Y-57303121D01*
X110892900Y-57482357D01*
X110892898Y-57482361D01*
X110800426Y-57680668D01*
X110800422Y-57680677D01*
X110743793Y-57892020D01*
X110743793Y-57892023D01*
X110724723Y-58110000D01*
X110739129Y-58274671D01*
X110743793Y-58327975D01*
X110743793Y-58327979D01*
X110800422Y-58539322D01*
X110800424Y-58539326D01*
X110800425Y-58539330D01*
X110822382Y-58586416D01*
X110892897Y-58737638D01*
X110892898Y-58737639D01*
X111018402Y-58916877D01*
X111173123Y-59071598D01*
X111352361Y-59197102D01*
X111550670Y-59289575D01*
X111762023Y-59346207D01*
X111944926Y-59362208D01*
X111979998Y-59365277D01*
X111980000Y-59365277D01*
X111980002Y-59365277D01*
X112008254Y-59362805D01*
X112197977Y-59346207D01*
X112409330Y-59289575D01*
X112607639Y-59197102D01*
X112786877Y-59071598D01*
X112941598Y-58916877D01*
X113067102Y-58737639D01*
X113137618Y-58586414D01*
X113183790Y-58533977D01*
X113250984Y-58514825D01*
X113317865Y-58535041D01*
X113362381Y-58586414D01*
X113432898Y-58737639D01*
X113558402Y-58916877D01*
X113713123Y-59071598D01*
X113892361Y-59197102D01*
X114090670Y-59289575D01*
X114302023Y-59346207D01*
X114484926Y-59362208D01*
X114519998Y-59365277D01*
X114520000Y-59365277D01*
X114520002Y-59365277D01*
X114548254Y-59362805D01*
X114737977Y-59346207D01*
X114949330Y-59289575D01*
X115147639Y-59197102D01*
X115326877Y-59071598D01*
X115481598Y-58916877D01*
X115607102Y-58737639D01*
X115677618Y-58586414D01*
X115723790Y-58533977D01*
X115790984Y-58514825D01*
X115857865Y-58535041D01*
X115902381Y-58586414D01*
X115972898Y-58737639D01*
X116098402Y-58916877D01*
X116253123Y-59071598D01*
X116432361Y-59197102D01*
X116630670Y-59289575D01*
X116842023Y-59346207D01*
X116842028Y-59346207D01*
X116847351Y-59347146D01*
X116847064Y-59348771D01*
X116905139Y-59371474D01*
X116916964Y-59381884D01*
X119369735Y-61834655D01*
X119369764Y-61834686D01*
X119512214Y-61977136D01*
X119512218Y-61977139D01*
X119676079Y-62086628D01*
X119676092Y-62086635D01*
X119804833Y-62139961D01*
X119847744Y-62157735D01*
X119858164Y-62162051D01*
X119954812Y-62181275D01*
X120003135Y-62190887D01*
X120051458Y-62200500D01*
X120051459Y-62200500D01*
X120051460Y-62200500D01*
X120248540Y-62200500D01*
X158000500Y-62200500D01*
X158067539Y-62220185D01*
X158113294Y-62272989D01*
X158124500Y-62324500D01*
X158124500Y-63897870D01*
X158124501Y-63897876D01*
X158130908Y-63957483D01*
X158181202Y-64092328D01*
X158181206Y-64092335D01*
X158267452Y-64207544D01*
X158267455Y-64207547D01*
X158382664Y-64293793D01*
X158382671Y-64293797D01*
X158514081Y-64342810D01*
X158570015Y-64384681D01*
X158594432Y-64450145D01*
X158579580Y-64518418D01*
X158558430Y-64546673D01*
X158436503Y-64668600D01*
X158381872Y-64746623D01*
X158327295Y-64790248D01*
X158280297Y-64799500D01*
X111728921Y-64799500D01*
X111620508Y-64821065D01*
X111620507Y-64821065D01*
X111593589Y-64826420D01*
X111466108Y-64879224D01*
X111351372Y-64955887D01*
X105455887Y-70851372D01*
X105405743Y-70926420D01*
X105392484Y-70946263D01*
X105379225Y-70966106D01*
X105379221Y-70966113D01*
X105326421Y-71093585D01*
X105326418Y-71093595D01*
X105299500Y-71228922D01*
X105299500Y-72908480D01*
X105279815Y-72975519D01*
X105263181Y-72996161D01*
X103815888Y-74443453D01*
X103815887Y-74443454D01*
X103739222Y-74558192D01*
X103686421Y-74685667D01*
X103686418Y-74685679D01*
X103661607Y-74810412D01*
X103629222Y-74872323D01*
X103611114Y-74887795D01*
X103553130Y-74928396D01*
X103553127Y-74928398D01*
X103398400Y-75083124D01*
X103272900Y-75262357D01*
X103272898Y-75262361D01*
X103180426Y-75460668D01*
X103180422Y-75460677D01*
X103123793Y-75672020D01*
X103123793Y-75672023D01*
X103121345Y-75700000D01*
X103104723Y-75889997D01*
X103104723Y-75890002D01*
X103108696Y-75935413D01*
X103123792Y-76107971D01*
X103123793Y-76107975D01*
X103123793Y-76107979D01*
X103180422Y-76319322D01*
X103180424Y-76319326D01*
X103180425Y-76319330D01*
X103190261Y-76340423D01*
X103272897Y-76517638D01*
X103297998Y-76553486D01*
X103398402Y-76696877D01*
X103553123Y-76851598D01*
X103732361Y-76977102D01*
X103930670Y-77069575D01*
X104142023Y-77126207D01*
X104324926Y-77142208D01*
X104359998Y-77145277D01*
X104360000Y-77145277D01*
X104360002Y-77145277D01*
X104388254Y-77142805D01*
X104577977Y-77126207D01*
X104789330Y-77069575D01*
X104987639Y-76977102D01*
X105166877Y-76851598D01*
X105321598Y-76696877D01*
X105447102Y-76517639D01*
X105517618Y-76366414D01*
X105563790Y-76313977D01*
X105630984Y-76294825D01*
X105697865Y-76315041D01*
X105742381Y-76366414D01*
X105812898Y-76517639D01*
X105938402Y-76696877D01*
X106093123Y-76851598D01*
X106272361Y-76977102D01*
X106470670Y-77069575D01*
X106682023Y-77126207D01*
X106864926Y-77142208D01*
X106899998Y-77145277D01*
X106900000Y-77145277D01*
X106900002Y-77145277D01*
X106928254Y-77142805D01*
X107117977Y-77126207D01*
X107329330Y-77069575D01*
X107527639Y-76977102D01*
X107706877Y-76851598D01*
X107861598Y-76696877D01*
X107987102Y-76517639D01*
X108079575Y-76319330D01*
X108136207Y-76107977D01*
X108155277Y-75890000D01*
X108136207Y-75672023D01*
X108079575Y-75460670D01*
X107987102Y-75262362D01*
X107987100Y-75262359D01*
X107987099Y-75262357D01*
X107861599Y-75083124D01*
X107795413Y-75016938D01*
X107706877Y-74928402D01*
X107706872Y-74928399D01*
X107706869Y-74928396D01*
X107653376Y-74890939D01*
X107609751Y-74836362D01*
X107600500Y-74789365D01*
X107600500Y-71941519D01*
X107620185Y-71874480D01*
X107636819Y-71853838D01*
X112253838Y-67236819D01*
X112315161Y-67203334D01*
X112341519Y-67200500D01*
X157553481Y-67200500D01*
X157620520Y-67220185D01*
X157641162Y-67236819D01*
X158112348Y-67708005D01*
X158145833Y-67769328D01*
X158144442Y-67827778D01*
X158139939Y-67844584D01*
X158139936Y-67844597D01*
X158119341Y-68079999D01*
X158119341Y-68080000D01*
X158139936Y-68315403D01*
X158139938Y-68315413D01*
X158201094Y-68543655D01*
X158201096Y-68543659D01*
X158201097Y-68543663D01*
X158300965Y-68757830D01*
X158300967Y-68757834D01*
X158409281Y-68912521D01*
X158436505Y-68951401D01*
X158603599Y-69118495D01*
X158700384Y-69186265D01*
X158797165Y-69254032D01*
X158797167Y-69254033D01*
X158797170Y-69254035D01*
X159011337Y-69353903D01*
X159239592Y-69415063D01*
X159427918Y-69431539D01*
X159474999Y-69435659D01*
X159475000Y-69435659D01*
X159475001Y-69435659D01*
X159514234Y-69432226D01*
X159710408Y-69415063D01*
X159727216Y-69410559D01*
X159797064Y-69412218D01*
X159846994Y-69442651D01*
X164488453Y-74084111D01*
X164488454Y-74084112D01*
X164603192Y-74160777D01*
X164730667Y-74213578D01*
X164730672Y-74213580D01*
X164789099Y-74225201D01*
X164851008Y-74257584D01*
X164866481Y-74275694D01*
X164941620Y-74383002D01*
X164961505Y-74411401D01*
X165128599Y-74578495D01*
X165208901Y-74634723D01*
X165322165Y-74714032D01*
X165322167Y-74714033D01*
X165322170Y-74714035D01*
X165536337Y-74813903D01*
X165764592Y-74875063D01*
X165952918Y-74891539D01*
X165999999Y-74895659D01*
X166000000Y-74895659D01*
X166000001Y-74895659D01*
X166039234Y-74892226D01*
X166235408Y-74875063D01*
X166463663Y-74813903D01*
X166677830Y-74714035D01*
X166871401Y-74578495D01*
X167038495Y-74411401D01*
X167174035Y-74217830D01*
X167273903Y-74003663D01*
X167335063Y-73775408D01*
X167355659Y-73540000D01*
X167335063Y-73304592D01*
X167273903Y-73076337D01*
X167174035Y-72862171D01*
X167057917Y-72696337D01*
X167038496Y-72668600D01*
X166992119Y-72622223D01*
X166916567Y-72546671D01*
X166883084Y-72485351D01*
X166888068Y-72415659D01*
X166929939Y-72359725D01*
X166960915Y-72342810D01*
X167092331Y-72293796D01*
X167207546Y-72207546D01*
X167293796Y-72092331D01*
X167344091Y-71957483D01*
X167350500Y-71897873D01*
X167350499Y-70102128D01*
X167344091Y-70042517D01*
X167293796Y-69907669D01*
X167293795Y-69907668D01*
X167293793Y-69907664D01*
X167207547Y-69792455D01*
X167207544Y-69792452D01*
X167092335Y-69706206D01*
X167092328Y-69706202D01*
X166957482Y-69655908D01*
X166957483Y-69655908D01*
X166897883Y-69649501D01*
X166897881Y-69649500D01*
X166897873Y-69649500D01*
X166897864Y-69649500D01*
X165102129Y-69649500D01*
X165102123Y-69649501D01*
X165042516Y-69655908D01*
X164907671Y-69706202D01*
X164907665Y-69706206D01*
X164835952Y-69759890D01*
X164770488Y-69784307D01*
X164702215Y-69769455D01*
X164673961Y-69748304D01*
X160837651Y-65911994D01*
X160804166Y-65850671D01*
X160805558Y-65792217D01*
X160810063Y-65775408D01*
X160830659Y-65540000D01*
X160810063Y-65304592D01*
X160748903Y-65076337D01*
X160649035Y-64862171D01*
X160620252Y-64821065D01*
X160513496Y-64668600D01*
X160513495Y-64668599D01*
X160391567Y-64546671D01*
X160358084Y-64485351D01*
X160363068Y-64415659D01*
X160404939Y-64359725D01*
X160435915Y-64342810D01*
X160567331Y-64293796D01*
X160682546Y-64207546D01*
X160768796Y-64092331D01*
X160819091Y-63957483D01*
X160825500Y-63897873D01*
X160825499Y-62324499D01*
X160845184Y-62257461D01*
X160897987Y-62211706D01*
X160949499Y-62200500D01*
X162692781Y-62200500D01*
X162712109Y-62196655D01*
X162789427Y-62181275D01*
X162886075Y-62162051D01*
X162939404Y-62139961D01*
X163068153Y-62086632D01*
X163232021Y-61977139D01*
X163371378Y-61837782D01*
X163371378Y-61837780D01*
X163381586Y-61827573D01*
X163381587Y-61827570D01*
X165803515Y-59405643D01*
X165864834Y-59372161D01*
X165934526Y-59377145D01*
X165978873Y-59405646D01*
X168468181Y-61894954D01*
X168501666Y-61956277D01*
X168504500Y-61982635D01*
X168504500Y-96107364D01*
X168484815Y-96174403D01*
X168468181Y-96195045D01*
X165997233Y-98665994D01*
X165975995Y-98687231D01*
X165964500Y-98714982D01*
X165964500Y-99231907D01*
X165963903Y-99244062D01*
X165952505Y-99359778D01*
X165947763Y-99383618D01*
X165917832Y-99482290D01*
X165915789Y-99489024D01*
X165906486Y-99511482D01*
X165854561Y-99608627D01*
X165841056Y-99628839D01*
X165771176Y-99713988D01*
X165753988Y-99731176D01*
X165668839Y-99801056D01*
X165648627Y-99814561D01*
X165551482Y-99866486D01*
X165529028Y-99875787D01*
X165487028Y-99888528D01*
X165423618Y-99907763D01*
X165399778Y-99912505D01*
X165291162Y-99923203D01*
X165284060Y-99923903D01*
X165271907Y-99924500D01*
X134124000Y-99924500D01*
X134056961Y-99904815D01*
X134011206Y-99852011D01*
X134000000Y-99800500D01*
X134000000Y-98893059D01*
X134019685Y-98826020D01*
X134036319Y-98805378D01*
X136009878Y-96831819D01*
X136071201Y-96798334D01*
X136097559Y-96795500D01*
X137314292Y-96795500D01*
X137314293Y-96795500D01*
X137399799Y-96779515D01*
X137403157Y-96778936D01*
X137439980Y-96773103D01*
X137473555Y-96767786D01*
X137480822Y-96765424D01*
X137496350Y-96761467D01*
X137519327Y-96757173D01*
X137584295Y-96732003D01*
X137590748Y-96729707D01*
X137642042Y-96713042D01*
X137664350Y-96701674D01*
X137675819Y-96696547D01*
X137713828Y-96681823D01*
X137758321Y-96654273D01*
X137767279Y-96649229D01*
X137799890Y-96632614D01*
X137834186Y-96607694D01*
X137841741Y-96602620D01*
X137891171Y-96572016D01*
X137916999Y-96548469D01*
X137927644Y-96539793D01*
X137943214Y-96528483D01*
X137985448Y-96486247D01*
X137989547Y-96482333D01*
X138045318Y-96431493D01*
X138055903Y-96417474D01*
X138067181Y-96404515D01*
X138068483Y-96403214D01*
X138113821Y-96340810D01*
X138115058Y-96339139D01*
X138171019Y-96265038D01*
X138215061Y-96176587D01*
X138215320Y-96176073D01*
X138253042Y-96102042D01*
X138253046Y-96102028D01*
X138254903Y-96097547D01*
X138255157Y-96097652D01*
X138258756Y-96088837D01*
X138263994Y-96078319D01*
X138286218Y-96000209D01*
X138287553Y-95995824D01*
X138307786Y-95933555D01*
X138309889Y-95920273D01*
X138313092Y-95905751D01*
X138321076Y-95877696D01*
X138326969Y-95814083D01*
X138327963Y-95806158D01*
X138335500Y-95758579D01*
X138335500Y-95727769D01*
X138336029Y-95716327D01*
X138340322Y-95670000D01*
X138619678Y-95670000D01*
X138638923Y-95877691D01*
X138638923Y-95877693D01*
X138638924Y-95877696D01*
X138673782Y-96000209D01*
X138696007Y-96078322D01*
X138759095Y-96205019D01*
X138788981Y-96265038D01*
X138914682Y-96431493D01*
X139068829Y-96572016D01*
X139246172Y-96681823D01*
X139440673Y-96757173D01*
X139645707Y-96795500D01*
X139645710Y-96795500D01*
X139854290Y-96795500D01*
X139854293Y-96795500D01*
X140059327Y-96757173D01*
X140253828Y-96681823D01*
X140431171Y-96572016D01*
X140585318Y-96431493D01*
X140711019Y-96265038D01*
X140803994Y-96078319D01*
X140861076Y-95877696D01*
X140880322Y-95670000D01*
X141159678Y-95670000D01*
X141178923Y-95877691D01*
X141178923Y-95877693D01*
X141178924Y-95877696D01*
X141213782Y-96000209D01*
X141236007Y-96078322D01*
X141299095Y-96205019D01*
X141328981Y-96265038D01*
X141454682Y-96431493D01*
X141608829Y-96572016D01*
X141786172Y-96681823D01*
X141980673Y-96757173D01*
X142185707Y-96795500D01*
X142185710Y-96795500D01*
X142394290Y-96795500D01*
X142394293Y-96795500D01*
X142599327Y-96757173D01*
X142793828Y-96681823D01*
X142971171Y-96572016D01*
X143125318Y-96431493D01*
X143251019Y-96265038D01*
X143343994Y-96078319D01*
X143401076Y-95877696D01*
X143420322Y-95670000D01*
X143699678Y-95670000D01*
X143718923Y-95877691D01*
X143718923Y-95877693D01*
X143718924Y-95877696D01*
X143753782Y-96000209D01*
X143776007Y-96078322D01*
X143839095Y-96205019D01*
X143868981Y-96265038D01*
X143994682Y-96431493D01*
X144148829Y-96572016D01*
X144326172Y-96681823D01*
X144520673Y-96757173D01*
X144725707Y-96795500D01*
X144725710Y-96795500D01*
X144934290Y-96795500D01*
X144934293Y-96795500D01*
X145139327Y-96757173D01*
X145333828Y-96681823D01*
X145511171Y-96572016D01*
X145665318Y-96431493D01*
X145791019Y-96265038D01*
X145883994Y-96078319D01*
X145941076Y-95877696D01*
X145952909Y-95750000D01*
X151079678Y-95750000D01*
X151098923Y-95957691D01*
X151098923Y-95957693D01*
X151098924Y-95957696D01*
X151141508Y-96107364D01*
X151156007Y-96158322D01*
X151193077Y-96232768D01*
X151248981Y-96345038D01*
X151355634Y-96486270D01*
X151374683Y-96511494D01*
X151405720Y-96539788D01*
X151528829Y-96652016D01*
X151706172Y-96761823D01*
X151900673Y-96837173D01*
X152105707Y-96875500D01*
X152105710Y-96875500D01*
X152314290Y-96875500D01*
X152314293Y-96875500D01*
X152519327Y-96837173D01*
X152713828Y-96761823D01*
X152891171Y-96652016D01*
X153045318Y-96511493D01*
X153171019Y-96345038D01*
X153263994Y-96158319D01*
X153321076Y-95957696D01*
X153340322Y-95750000D01*
X153619678Y-95750000D01*
X153638923Y-95957691D01*
X153638923Y-95957693D01*
X153638924Y-95957696D01*
X153681508Y-96107364D01*
X153696007Y-96158322D01*
X153733077Y-96232768D01*
X153788981Y-96345038D01*
X153895634Y-96486270D01*
X153914683Y-96511494D01*
X153945720Y-96539788D01*
X154068829Y-96652016D01*
X154246172Y-96761823D01*
X154440673Y-96837173D01*
X154645707Y-96875500D01*
X154645710Y-96875500D01*
X154854290Y-96875500D01*
X154854293Y-96875500D01*
X155059327Y-96837173D01*
X155253828Y-96761823D01*
X155431171Y-96652016D01*
X155585318Y-96511493D01*
X155711019Y-96345038D01*
X155803994Y-96158319D01*
X155861076Y-95957696D01*
X155880322Y-95750000D01*
X156159678Y-95750000D01*
X156178923Y-95957691D01*
X156178923Y-95957693D01*
X156178924Y-95957696D01*
X156221508Y-96107364D01*
X156236007Y-96158322D01*
X156273077Y-96232768D01*
X156328981Y-96345038D01*
X156435634Y-96486270D01*
X156454683Y-96511494D01*
X156485720Y-96539788D01*
X156608829Y-96652016D01*
X156786172Y-96761823D01*
X156980673Y-96837173D01*
X157185707Y-96875500D01*
X157185710Y-96875500D01*
X157394290Y-96875500D01*
X157394293Y-96875500D01*
X157599327Y-96837173D01*
X157793828Y-96761823D01*
X157971171Y-96652016D01*
X158125318Y-96511493D01*
X158251019Y-96345038D01*
X158343994Y-96158319D01*
X158401076Y-95957696D01*
X158420322Y-95750000D01*
X158699678Y-95750000D01*
X158718923Y-95957691D01*
X158718923Y-95957693D01*
X158718924Y-95957696D01*
X158761508Y-96107364D01*
X158776007Y-96158322D01*
X158813077Y-96232768D01*
X158868981Y-96345038D01*
X158975634Y-96486270D01*
X158994683Y-96511494D01*
X159025720Y-96539788D01*
X159148829Y-96652016D01*
X159326172Y-96761823D01*
X159520673Y-96837173D01*
X159725707Y-96875500D01*
X159725710Y-96875500D01*
X159934290Y-96875500D01*
X159934293Y-96875500D01*
X160139327Y-96837173D01*
X160333828Y-96761823D01*
X160511171Y-96652016D01*
X160665318Y-96511493D01*
X160791019Y-96345038D01*
X160883994Y-96158319D01*
X160941076Y-95957696D01*
X160960322Y-95750000D01*
X160941076Y-95542304D01*
X160883994Y-95341681D01*
X160791019Y-95154962D01*
X160665318Y-94988507D01*
X160511171Y-94847984D01*
X160333828Y-94738177D01*
X160333827Y-94738176D01*
X160191609Y-94683081D01*
X160139327Y-94662827D01*
X159934293Y-94624500D01*
X159725707Y-94624500D01*
X159520673Y-94662827D01*
X159520670Y-94662827D01*
X159520670Y-94662828D01*
X159326172Y-94738176D01*
X159326171Y-94738177D01*
X159148827Y-94847985D01*
X158994683Y-94988505D01*
X158868981Y-95154961D01*
X158776007Y-95341677D01*
X158718923Y-95542308D01*
X158699678Y-95749999D01*
X158699678Y-95750000D01*
X158420322Y-95750000D01*
X158401076Y-95542304D01*
X158343994Y-95341681D01*
X158251019Y-95154962D01*
X158125318Y-94988507D01*
X157971171Y-94847984D01*
X157793828Y-94738177D01*
X157793827Y-94738176D01*
X157651609Y-94683081D01*
X157599327Y-94662827D01*
X157394293Y-94624500D01*
X157185707Y-94624500D01*
X156980673Y-94662827D01*
X156980670Y-94662827D01*
X156980670Y-94662828D01*
X156786172Y-94738176D01*
X156786171Y-94738177D01*
X156608827Y-94847985D01*
X156454683Y-94988505D01*
X156328981Y-95154961D01*
X156236007Y-95341677D01*
X156178923Y-95542308D01*
X156159678Y-95749999D01*
X156159678Y-95750000D01*
X155880322Y-95750000D01*
X155861076Y-95542304D01*
X155803994Y-95341681D01*
X155711019Y-95154962D01*
X155585318Y-94988507D01*
X155431171Y-94847984D01*
X155253828Y-94738177D01*
X155253827Y-94738176D01*
X155111609Y-94683081D01*
X155059327Y-94662827D01*
X154854293Y-94624500D01*
X154645707Y-94624500D01*
X154440673Y-94662827D01*
X154440670Y-94662827D01*
X154440670Y-94662828D01*
X154246172Y-94738176D01*
X154246171Y-94738177D01*
X154068827Y-94847985D01*
X153914683Y-94988505D01*
X153788981Y-95154961D01*
X153696007Y-95341677D01*
X153638923Y-95542308D01*
X153619678Y-95749999D01*
X153619678Y-95750000D01*
X153340322Y-95750000D01*
X153321076Y-95542304D01*
X153263994Y-95341681D01*
X153171019Y-95154962D01*
X153045318Y-94988507D01*
X152891171Y-94847984D01*
X152713828Y-94738177D01*
X152713827Y-94738176D01*
X152571609Y-94683081D01*
X152519327Y-94662827D01*
X152314293Y-94624500D01*
X152105707Y-94624500D01*
X151900673Y-94662827D01*
X151900670Y-94662827D01*
X151900670Y-94662828D01*
X151706172Y-94738176D01*
X151706171Y-94738177D01*
X151528827Y-94847985D01*
X151374683Y-94988505D01*
X151248981Y-95154961D01*
X151156007Y-95341677D01*
X151098923Y-95542308D01*
X151079678Y-95749999D01*
X151079678Y-95750000D01*
X145952909Y-95750000D01*
X145960322Y-95670000D01*
X145941076Y-95462304D01*
X145883994Y-95261681D01*
X145791019Y-95074962D01*
X145665318Y-94908507D01*
X145511171Y-94767984D01*
X145333828Y-94658177D01*
X145333827Y-94658176D01*
X145158560Y-94590278D01*
X145139327Y-94582827D01*
X144934293Y-94544500D01*
X144725707Y-94544500D01*
X144520673Y-94582827D01*
X144520670Y-94582827D01*
X144520670Y-94582828D01*
X144326172Y-94658176D01*
X144326171Y-94658177D01*
X144148827Y-94767985D01*
X143994683Y-94908505D01*
X143868981Y-95074961D01*
X143776007Y-95261677D01*
X143776006Y-95261681D01*
X143731043Y-95419712D01*
X143718923Y-95462308D01*
X143699678Y-95669999D01*
X143699678Y-95670000D01*
X143420322Y-95670000D01*
X143401076Y-95462304D01*
X143343994Y-95261681D01*
X143251019Y-95074962D01*
X143125318Y-94908507D01*
X142971171Y-94767984D01*
X142793828Y-94658177D01*
X142793827Y-94658176D01*
X142618560Y-94590278D01*
X142599327Y-94582827D01*
X142394293Y-94544500D01*
X142185707Y-94544500D01*
X141980673Y-94582827D01*
X141980670Y-94582827D01*
X141980670Y-94582828D01*
X141786172Y-94658176D01*
X141786171Y-94658177D01*
X141608827Y-94767985D01*
X141454683Y-94908505D01*
X141328981Y-95074961D01*
X141236007Y-95261677D01*
X141236006Y-95261681D01*
X141191043Y-95419712D01*
X141178923Y-95462308D01*
X141159678Y-95669999D01*
X141159678Y-95670000D01*
X140880322Y-95670000D01*
X140861076Y-95462304D01*
X140803994Y-95261681D01*
X140711019Y-95074962D01*
X140585318Y-94908507D01*
X140431171Y-94767984D01*
X140253828Y-94658177D01*
X140253827Y-94658176D01*
X140078560Y-94590278D01*
X140059327Y-94582827D01*
X139854293Y-94544500D01*
X139645707Y-94544500D01*
X139440673Y-94582827D01*
X139440670Y-94582827D01*
X139440670Y-94582828D01*
X139246172Y-94658176D01*
X139246171Y-94658177D01*
X139068827Y-94767985D01*
X138914683Y-94908505D01*
X138788981Y-95074961D01*
X138696007Y-95261677D01*
X138696006Y-95261681D01*
X138651043Y-95419712D01*
X138638923Y-95462308D01*
X138619678Y-95669999D01*
X138619678Y-95670000D01*
X138340322Y-95670000D01*
X138340322Y-95669999D01*
X138336029Y-95623670D01*
X138335500Y-95612229D01*
X138335500Y-95581423D01*
X138329304Y-95542308D01*
X138327963Y-95533844D01*
X138326968Y-95525901D01*
X138321076Y-95462304D01*
X138313095Y-95434255D01*
X138309887Y-95419712D01*
X138307786Y-95406447D01*
X138307786Y-95406445D01*
X138287550Y-95344165D01*
X138286225Y-95339819D01*
X138263994Y-95261681D01*
X138258749Y-95251148D01*
X138255153Y-95242351D01*
X138254904Y-95242455D01*
X138253044Y-95237964D01*
X138253042Y-95237958D01*
X138215388Y-95164058D01*
X138215020Y-95163329D01*
X138171019Y-95074962D01*
X138160425Y-95060934D01*
X138115097Y-95000910D01*
X138113732Y-94999067D01*
X138099462Y-94979426D01*
X138098340Y-94977881D01*
X138068486Y-94936789D01*
X138067177Y-94935480D01*
X138055902Y-94922523D01*
X138045318Y-94908507D01*
X137989549Y-94857667D01*
X137985428Y-94853731D01*
X137943212Y-94811515D01*
X137943213Y-94811515D01*
X137927658Y-94800215D01*
X137917004Y-94791533D01*
X137891171Y-94767984D01*
X137891170Y-94767983D01*
X137841776Y-94737399D01*
X137834170Y-94732292D01*
X137825412Y-94725929D01*
X137799890Y-94707386D01*
X137799887Y-94707384D01*
X137799885Y-94707383D01*
X137767286Y-94690772D01*
X137758306Y-94685716D01*
X137713831Y-94658179D01*
X137713831Y-94658178D01*
X137694009Y-94650499D01*
X137675827Y-94643455D01*
X137664336Y-94638317D01*
X137642041Y-94626957D01*
X137642037Y-94626956D01*
X137590768Y-94610298D01*
X137584293Y-94607994D01*
X137519330Y-94582828D01*
X137519321Y-94582825D01*
X137496350Y-94578531D01*
X137480829Y-94574577D01*
X137473558Y-94572215D01*
X137473555Y-94572214D01*
X137473549Y-94572213D01*
X137403211Y-94561072D01*
X137399827Y-94560488D01*
X137314293Y-94544500D01*
X137298579Y-94544500D01*
X135668578Y-94544500D01*
X135491421Y-94544500D01*
X135433095Y-94553738D01*
X135316442Y-94572214D01*
X135196444Y-94611203D01*
X135196444Y-94611204D01*
X135168997Y-94620121D01*
X135147948Y-94626961D01*
X134990113Y-94707383D01*
X134982211Y-94713125D01*
X134982210Y-94713124D01*
X134982210Y-94713125D01*
X134846792Y-94811511D01*
X134846787Y-94811515D01*
X134211681Y-95446622D01*
X134150358Y-95480107D01*
X134080666Y-95475123D01*
X134024733Y-95433251D01*
X134000316Y-95367787D01*
X134000000Y-95358941D01*
X134000000Y-91551361D01*
X134019685Y-91484322D01*
X134036314Y-91463685D01*
X135187703Y-90312296D01*
X135249024Y-90278813D01*
X135318716Y-90283797D01*
X135363063Y-90312298D01*
X136573181Y-91522416D01*
X136606666Y-91583739D01*
X136609500Y-91610097D01*
X136609500Y-92108966D01*
X136589815Y-92176005D01*
X136550780Y-92214391D01*
X136528832Y-92227980D01*
X136528828Y-92227984D01*
X136374683Y-92368505D01*
X136248981Y-92534961D01*
X136156007Y-92721677D01*
X136098923Y-92922308D01*
X136079678Y-93129999D01*
X136079678Y-93130000D01*
X136098923Y-93337691D01*
X136098923Y-93337693D01*
X136098924Y-93337696D01*
X136156006Y-93538319D01*
X136156007Y-93538322D01*
X136211426Y-93649617D01*
X136248981Y-93725038D01*
X136374682Y-93891493D01*
X136528829Y-94032016D01*
X136706172Y-94141823D01*
X136900673Y-94217173D01*
X137105707Y-94255500D01*
X137105710Y-94255500D01*
X137314290Y-94255500D01*
X137314293Y-94255500D01*
X137519327Y-94217173D01*
X137713828Y-94141823D01*
X137891171Y-94032016D01*
X138045318Y-93891493D01*
X138171019Y-93725038D01*
X138263994Y-93538319D01*
X138321076Y-93337696D01*
X138340322Y-93130000D01*
X138337241Y-93096750D01*
X138350656Y-93028181D01*
X138399013Y-92977749D01*
X138466959Y-92961466D01*
X138532922Y-92984503D01*
X138548388Y-92997624D01*
X138578945Y-93028181D01*
X138583698Y-93032934D01*
X138617183Y-93094258D01*
X138619015Y-93124268D01*
X138619678Y-93124268D01*
X138619678Y-93130000D01*
X138638923Y-93337691D01*
X138638923Y-93337693D01*
X138638924Y-93337696D01*
X138696006Y-93538319D01*
X138696007Y-93538322D01*
X138751426Y-93649617D01*
X138788981Y-93725038D01*
X138914682Y-93891493D01*
X139068829Y-94032016D01*
X139246172Y-94141823D01*
X139440673Y-94217173D01*
X139645707Y-94255500D01*
X139645710Y-94255500D01*
X139854290Y-94255500D01*
X139854293Y-94255500D01*
X140059327Y-94217173D01*
X140253828Y-94141823D01*
X140431171Y-94032016D01*
X140585318Y-93891493D01*
X140711019Y-93725038D01*
X140803994Y-93538319D01*
X140861076Y-93337696D01*
X140880322Y-93130000D01*
X140877010Y-93094258D01*
X140862340Y-92935941D01*
X140875755Y-92867371D01*
X140924112Y-92816940D01*
X140985811Y-92800500D01*
X141054189Y-92800500D01*
X141121228Y-92820185D01*
X141166983Y-92872989D01*
X141177660Y-92935941D01*
X141159678Y-93129999D01*
X141159678Y-93130000D01*
X141178923Y-93337691D01*
X141178923Y-93337693D01*
X141178924Y-93337696D01*
X141236006Y-93538319D01*
X141236007Y-93538322D01*
X141291426Y-93649617D01*
X141328981Y-93725038D01*
X141454682Y-93891493D01*
X141608829Y-94032016D01*
X141786172Y-94141823D01*
X141980673Y-94217173D01*
X142185707Y-94255500D01*
X142185710Y-94255500D01*
X142394290Y-94255500D01*
X142394293Y-94255500D01*
X142599327Y-94217173D01*
X142793828Y-94141823D01*
X142971171Y-94032016D01*
X143125318Y-93891493D01*
X143251019Y-93725038D01*
X143343994Y-93538319D01*
X143401076Y-93337696D01*
X143420322Y-93130000D01*
X143416967Y-93093799D01*
X143401076Y-92922304D01*
X143401075Y-92922301D01*
X143383805Y-92861602D01*
X143384392Y-92791735D01*
X143422658Y-92733276D01*
X143486456Y-92704786D01*
X143555528Y-92715310D01*
X143590752Y-92739987D01*
X143682354Y-92831589D01*
X143715839Y-92892912D01*
X143718144Y-92930711D01*
X143699678Y-93129998D01*
X143699678Y-93130000D01*
X143718923Y-93337691D01*
X143718923Y-93337693D01*
X143718924Y-93337696D01*
X143776006Y-93538319D01*
X143776007Y-93538322D01*
X143831426Y-93649617D01*
X143868981Y-93725038D01*
X143994682Y-93891493D01*
X144148829Y-94032016D01*
X144326172Y-94141823D01*
X144520673Y-94217173D01*
X144725707Y-94255500D01*
X144725710Y-94255500D01*
X144934290Y-94255500D01*
X144934293Y-94255500D01*
X145139327Y-94217173D01*
X145333828Y-94141823D01*
X145511171Y-94032016D01*
X145665318Y-93891493D01*
X145791019Y-93725038D01*
X145883994Y-93538319D01*
X145941076Y-93337696D01*
X145960322Y-93130000D01*
X145941076Y-92922304D01*
X145883994Y-92721681D01*
X145791019Y-92534962D01*
X145665318Y-92368507D01*
X145607871Y-92316137D01*
X145571589Y-92256426D01*
X145573350Y-92186579D01*
X145612593Y-92128771D01*
X145676860Y-92101357D01*
X145691409Y-92100500D01*
X150199903Y-92100500D01*
X150266942Y-92120185D01*
X150287584Y-92136819D01*
X151062354Y-92911589D01*
X151095839Y-92972912D01*
X151098144Y-93010711D01*
X151079678Y-93209998D01*
X151079678Y-93210000D01*
X151098923Y-93417691D01*
X151098923Y-93417693D01*
X151098924Y-93417696D01*
X151133244Y-93538319D01*
X151156007Y-93618322D01*
X151201635Y-93709955D01*
X151248981Y-93805038D01*
X151374682Y-93971493D01*
X151528829Y-94112016D01*
X151706172Y-94221823D01*
X151900673Y-94297173D01*
X152105707Y-94335500D01*
X152105710Y-94335500D01*
X152314290Y-94335500D01*
X152314293Y-94335500D01*
X152519327Y-94297173D01*
X152713828Y-94221823D01*
X152891171Y-94112016D01*
X153045318Y-93971493D01*
X153171019Y-93805038D01*
X153263994Y-93618319D01*
X153321076Y-93417696D01*
X153340322Y-93210000D01*
X153321076Y-93002304D01*
X153303805Y-92941602D01*
X153304392Y-92871735D01*
X153342658Y-92813276D01*
X153406456Y-92784786D01*
X153475528Y-92795310D01*
X153510752Y-92819987D01*
X153602354Y-92911589D01*
X153635839Y-92972912D01*
X153638144Y-93010711D01*
X153619678Y-93209998D01*
X153619678Y-93210000D01*
X153638923Y-93417691D01*
X153638923Y-93417693D01*
X153638924Y-93417696D01*
X153673244Y-93538319D01*
X153696007Y-93618322D01*
X153741635Y-93709955D01*
X153788981Y-93805038D01*
X153914682Y-93971493D01*
X154068829Y-94112016D01*
X154246172Y-94221823D01*
X154440673Y-94297173D01*
X154645707Y-94335500D01*
X154645710Y-94335500D01*
X154854290Y-94335500D01*
X154854293Y-94335500D01*
X155059327Y-94297173D01*
X155253828Y-94221823D01*
X155431171Y-94112016D01*
X155585318Y-93971493D01*
X155711019Y-93805038D01*
X155803994Y-93618319D01*
X155861076Y-93417696D01*
X155880322Y-93210000D01*
X155861076Y-93002304D01*
X155843805Y-92941602D01*
X155844392Y-92871735D01*
X155882658Y-92813276D01*
X155946456Y-92784786D01*
X156015528Y-92795310D01*
X156050752Y-92819987D01*
X156142354Y-92911589D01*
X156175839Y-92972912D01*
X156178144Y-93010711D01*
X156159678Y-93209998D01*
X156159678Y-93210000D01*
X156178923Y-93417691D01*
X156178923Y-93417693D01*
X156178924Y-93417696D01*
X156213244Y-93538319D01*
X156236007Y-93618322D01*
X156281635Y-93709955D01*
X156328981Y-93805038D01*
X156454682Y-93971493D01*
X156608829Y-94112016D01*
X156786172Y-94221823D01*
X156980673Y-94297173D01*
X157185707Y-94335500D01*
X157185710Y-94335500D01*
X157394290Y-94335500D01*
X157394293Y-94335500D01*
X157599327Y-94297173D01*
X157793828Y-94221823D01*
X157971171Y-94112016D01*
X158125318Y-93971493D01*
X158251019Y-93805038D01*
X158343994Y-93618319D01*
X158401076Y-93417696D01*
X158420322Y-93210000D01*
X158401076Y-93002304D01*
X158383805Y-92941602D01*
X158384392Y-92871735D01*
X158422658Y-92813276D01*
X158486456Y-92784786D01*
X158555528Y-92795310D01*
X158590752Y-92819987D01*
X158682354Y-92911589D01*
X158715839Y-92972912D01*
X158718144Y-93010711D01*
X158699678Y-93209998D01*
X158699678Y-93210000D01*
X158718923Y-93417691D01*
X158718923Y-93417693D01*
X158718924Y-93417696D01*
X158753244Y-93538319D01*
X158776007Y-93618322D01*
X158821635Y-93709955D01*
X158868981Y-93805038D01*
X158994682Y-93971493D01*
X159148829Y-94112016D01*
X159326172Y-94221823D01*
X159520673Y-94297173D01*
X159725707Y-94335500D01*
X159725710Y-94335500D01*
X159934290Y-94335500D01*
X159934293Y-94335500D01*
X160139327Y-94297173D01*
X160333828Y-94221823D01*
X160511171Y-94112016D01*
X160665318Y-93971493D01*
X160791019Y-93805038D01*
X160883994Y-93618319D01*
X160941076Y-93417696D01*
X160960322Y-93210000D01*
X160941076Y-93002304D01*
X160883994Y-92801681D01*
X160791019Y-92614962D01*
X160665318Y-92448507D01*
X160511171Y-92307984D01*
X160333828Y-92198177D01*
X160333827Y-92198176D01*
X160191609Y-92143081D01*
X160139327Y-92122827D01*
X159934293Y-92084500D01*
X159725707Y-92084500D01*
X159725703Y-92084500D01*
X159645063Y-92099573D01*
X159575548Y-92092541D01*
X159534600Y-92065365D01*
X157557590Y-90088355D01*
X157557588Y-90088352D01*
X157438717Y-89969481D01*
X157438709Y-89969475D01*
X157350789Y-89918715D01*
X157350788Y-89918715D01*
X157330077Y-89906757D01*
X157301785Y-89890423D01*
X157149057Y-89849499D01*
X156990943Y-89849499D01*
X156983347Y-89849499D01*
X156983331Y-89849500D01*
X140150097Y-89849500D01*
X140083058Y-89829815D01*
X140062416Y-89813181D01*
X138686819Y-88437584D01*
X138653334Y-88376261D01*
X138650500Y-88349903D01*
X138650500Y-85500000D01*
X140209678Y-85500000D01*
X140228923Y-85707691D01*
X140228923Y-85707693D01*
X140228924Y-85707696D01*
X140263780Y-85830203D01*
X140286007Y-85908322D01*
X140378978Y-86095032D01*
X140378981Y-86095038D01*
X140504682Y-86261493D01*
X140658829Y-86402016D01*
X140836172Y-86511823D01*
X141030673Y-86587173D01*
X141235707Y-86625500D01*
X141235710Y-86625500D01*
X141444290Y-86625500D01*
X141444293Y-86625500D01*
X141649327Y-86587173D01*
X141843828Y-86511823D01*
X142021171Y-86402016D01*
X142175318Y-86261493D01*
X142301019Y-86095038D01*
X142393994Y-85908319D01*
X142451076Y-85707696D01*
X142470322Y-85500000D01*
X142749678Y-85500000D01*
X142768923Y-85707691D01*
X142768923Y-85707693D01*
X142768924Y-85707696D01*
X142803780Y-85830203D01*
X142826007Y-85908322D01*
X142918978Y-86095032D01*
X142918981Y-86095038D01*
X143044682Y-86261493D01*
X143198829Y-86402016D01*
X143376172Y-86511823D01*
X143570673Y-86587173D01*
X143775707Y-86625500D01*
X143775710Y-86625500D01*
X143984290Y-86625500D01*
X143984293Y-86625500D01*
X144189327Y-86587173D01*
X144383828Y-86511823D01*
X144561171Y-86402016D01*
X144715318Y-86261493D01*
X144841019Y-86095038D01*
X144933994Y-85908319D01*
X144991076Y-85707696D01*
X145010322Y-85500000D01*
X145289678Y-85500000D01*
X145308923Y-85707691D01*
X145308923Y-85707693D01*
X145308924Y-85707696D01*
X145343780Y-85830203D01*
X145366007Y-85908322D01*
X145458978Y-86095032D01*
X145458981Y-86095038D01*
X145584682Y-86261493D01*
X145738829Y-86402016D01*
X145916172Y-86511823D01*
X146110673Y-86587173D01*
X146315707Y-86625500D01*
X146315710Y-86625500D01*
X146524290Y-86625500D01*
X146524293Y-86625500D01*
X146729327Y-86587173D01*
X146923828Y-86511823D01*
X147101171Y-86402016D01*
X147255318Y-86261493D01*
X147381019Y-86095038D01*
X147473994Y-85908319D01*
X147531076Y-85707696D01*
X147550322Y-85500000D01*
X147829678Y-85500000D01*
X147848923Y-85707691D01*
X147848923Y-85707693D01*
X147848924Y-85707696D01*
X147883780Y-85830203D01*
X147906007Y-85908322D01*
X147998978Y-86095032D01*
X147998981Y-86095038D01*
X148124682Y-86261493D01*
X148278829Y-86402016D01*
X148456172Y-86511823D01*
X148650673Y-86587173D01*
X148855707Y-86625500D01*
X148855710Y-86625500D01*
X149064290Y-86625500D01*
X149064293Y-86625500D01*
X149269327Y-86587173D01*
X149463828Y-86511823D01*
X149641171Y-86402016D01*
X149795318Y-86261493D01*
X149921019Y-86095038D01*
X150013994Y-85908319D01*
X150071076Y-85707696D01*
X150090322Y-85500000D01*
X155249678Y-85500000D01*
X155268923Y-85707691D01*
X155268923Y-85707693D01*
X155268924Y-85707696D01*
X155303780Y-85830203D01*
X155326007Y-85908322D01*
X155418978Y-86095032D01*
X155418981Y-86095038D01*
X155544682Y-86261493D01*
X155698829Y-86402016D01*
X155876172Y-86511823D01*
X156070673Y-86587173D01*
X156275707Y-86625500D01*
X156275710Y-86625500D01*
X156484290Y-86625500D01*
X156484293Y-86625500D01*
X156689327Y-86587173D01*
X156883828Y-86511823D01*
X157061171Y-86402016D01*
X157215318Y-86261493D01*
X157341019Y-86095038D01*
X157433994Y-85908319D01*
X157491076Y-85707696D01*
X157510322Y-85500000D01*
X157789678Y-85500000D01*
X157808923Y-85707691D01*
X157808923Y-85707693D01*
X157808924Y-85707696D01*
X157843780Y-85830203D01*
X157866007Y-85908322D01*
X157958978Y-86095032D01*
X157958981Y-86095038D01*
X158084682Y-86261493D01*
X158238829Y-86402016D01*
X158416172Y-86511823D01*
X158610673Y-86587173D01*
X158815707Y-86625500D01*
X158815710Y-86625500D01*
X159024290Y-86625500D01*
X159024293Y-86625500D01*
X159229327Y-86587173D01*
X159423828Y-86511823D01*
X159601171Y-86402016D01*
X159755318Y-86261493D01*
X159881019Y-86095038D01*
X159973994Y-85908319D01*
X160031076Y-85707696D01*
X160050322Y-85500000D01*
X160329678Y-85500000D01*
X160348923Y-85707691D01*
X160348923Y-85707693D01*
X160348924Y-85707696D01*
X160383780Y-85830203D01*
X160406007Y-85908322D01*
X160498978Y-86095032D01*
X160498981Y-86095038D01*
X160624682Y-86261493D01*
X160778829Y-86402016D01*
X160956172Y-86511823D01*
X161150673Y-86587173D01*
X161355707Y-86625500D01*
X161355710Y-86625500D01*
X161564290Y-86625500D01*
X161564293Y-86625500D01*
X161769327Y-86587173D01*
X161963828Y-86511823D01*
X162141171Y-86402016D01*
X162295318Y-86261493D01*
X162421019Y-86095038D01*
X162513994Y-85908319D01*
X162571076Y-85707696D01*
X162590322Y-85500000D01*
X162571076Y-85292304D01*
X162513994Y-85091681D01*
X162421019Y-84904962D01*
X162295318Y-84738507D01*
X162235221Y-84683722D01*
X162141172Y-84597985D01*
X162141171Y-84597984D01*
X161963828Y-84488177D01*
X161963827Y-84488176D01*
X161789786Y-84420753D01*
X161769327Y-84412827D01*
X161564293Y-84374500D01*
X161355707Y-84374500D01*
X161150673Y-84412827D01*
X161150670Y-84412827D01*
X161150670Y-84412828D01*
X160956172Y-84488176D01*
X160956171Y-84488177D01*
X160778827Y-84597985D01*
X160624683Y-84738505D01*
X160498981Y-84904961D01*
X160406007Y-85091677D01*
X160348923Y-85292308D01*
X160329678Y-85499999D01*
X160329678Y-85500000D01*
X160050322Y-85500000D01*
X160031076Y-85292304D01*
X159973994Y-85091681D01*
X159881019Y-84904962D01*
X159755318Y-84738507D01*
X159695221Y-84683722D01*
X159601172Y-84597985D01*
X159601171Y-84597984D01*
X159423828Y-84488177D01*
X159423827Y-84488176D01*
X159249786Y-84420753D01*
X159229327Y-84412827D01*
X159024293Y-84374500D01*
X158815707Y-84374500D01*
X158610673Y-84412827D01*
X158610670Y-84412827D01*
X158610670Y-84412828D01*
X158416172Y-84488176D01*
X158416171Y-84488177D01*
X158238827Y-84597985D01*
X158084683Y-84738505D01*
X157958981Y-84904961D01*
X157866007Y-85091677D01*
X157808923Y-85292308D01*
X157789678Y-85499999D01*
X157789678Y-85500000D01*
X157510322Y-85500000D01*
X157491076Y-85292304D01*
X157433994Y-85091681D01*
X157341019Y-84904962D01*
X157215318Y-84738507D01*
X157155221Y-84683722D01*
X157061172Y-84597985D01*
X157061171Y-84597984D01*
X156883828Y-84488177D01*
X156883827Y-84488176D01*
X156709786Y-84420753D01*
X156689327Y-84412827D01*
X156484293Y-84374500D01*
X156275707Y-84374500D01*
X156070673Y-84412827D01*
X156070670Y-84412827D01*
X156070670Y-84412828D01*
X155876172Y-84488176D01*
X155876171Y-84488177D01*
X155698827Y-84597985D01*
X155544683Y-84738505D01*
X155418981Y-84904961D01*
X155326007Y-85091677D01*
X155268923Y-85292308D01*
X155249678Y-85499999D01*
X155249678Y-85500000D01*
X150090322Y-85500000D01*
X150071076Y-85292304D01*
X150013994Y-85091681D01*
X149921019Y-84904962D01*
X149795318Y-84738507D01*
X149735221Y-84683722D01*
X149641172Y-84597985D01*
X149641171Y-84597984D01*
X149463828Y-84488177D01*
X149463827Y-84488176D01*
X149289786Y-84420753D01*
X149269327Y-84412827D01*
X149064293Y-84374500D01*
X148855707Y-84374500D01*
X148650673Y-84412827D01*
X148650670Y-84412827D01*
X148650670Y-84412828D01*
X148456172Y-84488176D01*
X148456171Y-84488177D01*
X148278827Y-84597985D01*
X148124683Y-84738505D01*
X147998981Y-84904961D01*
X147906007Y-85091677D01*
X147848923Y-85292308D01*
X147829678Y-85499999D01*
X147829678Y-85500000D01*
X147550322Y-85500000D01*
X147531076Y-85292304D01*
X147473994Y-85091681D01*
X147381019Y-84904962D01*
X147255318Y-84738507D01*
X147195221Y-84683722D01*
X147101172Y-84597985D01*
X147101171Y-84597984D01*
X146923828Y-84488177D01*
X146923827Y-84488176D01*
X146749786Y-84420753D01*
X146729327Y-84412827D01*
X146524293Y-84374500D01*
X146315707Y-84374500D01*
X146110673Y-84412827D01*
X146110670Y-84412827D01*
X146110670Y-84412828D01*
X145916172Y-84488176D01*
X145916171Y-84488177D01*
X145738827Y-84597985D01*
X145584683Y-84738505D01*
X145458981Y-84904961D01*
X145366007Y-85091677D01*
X145308923Y-85292308D01*
X145289678Y-85499999D01*
X145289678Y-85500000D01*
X145010322Y-85500000D01*
X144991076Y-85292304D01*
X144933994Y-85091681D01*
X144841019Y-84904962D01*
X144715318Y-84738507D01*
X144655221Y-84683722D01*
X144561172Y-84597985D01*
X144561171Y-84597984D01*
X144383828Y-84488177D01*
X144383827Y-84488176D01*
X144209786Y-84420753D01*
X144189327Y-84412827D01*
X143984293Y-84374500D01*
X143775707Y-84374500D01*
X143570673Y-84412827D01*
X143570670Y-84412827D01*
X143570670Y-84412828D01*
X143376172Y-84488176D01*
X143376171Y-84488177D01*
X143198827Y-84597985D01*
X143044683Y-84738505D01*
X142918981Y-84904961D01*
X142826007Y-85091677D01*
X142768923Y-85292308D01*
X142749678Y-85499999D01*
X142749678Y-85500000D01*
X142470322Y-85500000D01*
X142451076Y-85292304D01*
X142393994Y-85091681D01*
X142301019Y-84904962D01*
X142175318Y-84738507D01*
X142115221Y-84683722D01*
X142021172Y-84597985D01*
X142021171Y-84597984D01*
X141843828Y-84488177D01*
X141843827Y-84488176D01*
X141669786Y-84420753D01*
X141649327Y-84412827D01*
X141444293Y-84374500D01*
X141235707Y-84374500D01*
X141030673Y-84412827D01*
X141030670Y-84412827D01*
X141030670Y-84412828D01*
X140836172Y-84488176D01*
X140836171Y-84488177D01*
X140658827Y-84597985D01*
X140504683Y-84738505D01*
X140378981Y-84904961D01*
X140286007Y-85091677D01*
X140228923Y-85292308D01*
X140209678Y-85499999D01*
X140209678Y-85500000D01*
X138650500Y-85500000D01*
X138650500Y-84865311D01*
X138650500Y-82960000D01*
X140209678Y-82960000D01*
X140228923Y-83167691D01*
X140228923Y-83167693D01*
X140228924Y-83167696D01*
X140263691Y-83289890D01*
X140286007Y-83368322D01*
X140318320Y-83433214D01*
X140378981Y-83555038D01*
X140504682Y-83721493D01*
X140658829Y-83862016D01*
X140836172Y-83971823D01*
X141030673Y-84047173D01*
X141235707Y-84085500D01*
X141235710Y-84085500D01*
X141444290Y-84085500D01*
X141444293Y-84085500D01*
X141649327Y-84047173D01*
X141843828Y-83971823D01*
X142021171Y-83862016D01*
X142175318Y-83721493D01*
X142301019Y-83555038D01*
X142393994Y-83368319D01*
X142451076Y-83167696D01*
X142470322Y-82960000D01*
X142749678Y-82960000D01*
X142768923Y-83167691D01*
X142768923Y-83167693D01*
X142768924Y-83167696D01*
X142803691Y-83289890D01*
X142826007Y-83368322D01*
X142858320Y-83433214D01*
X142918981Y-83555038D01*
X143044682Y-83721493D01*
X143198829Y-83862016D01*
X143376172Y-83971823D01*
X143570673Y-84047173D01*
X143775707Y-84085500D01*
X143775710Y-84085500D01*
X143984290Y-84085500D01*
X143984293Y-84085500D01*
X144189327Y-84047173D01*
X144383828Y-83971823D01*
X144561171Y-83862016D01*
X144715318Y-83721493D01*
X144841019Y-83555038D01*
X144933994Y-83368319D01*
X144991076Y-83167696D01*
X145010322Y-82960000D01*
X145289678Y-82960000D01*
X145308923Y-83167691D01*
X145308923Y-83167693D01*
X145308924Y-83167696D01*
X145343691Y-83289890D01*
X145366007Y-83368322D01*
X145398320Y-83433214D01*
X145458981Y-83555038D01*
X145584682Y-83721493D01*
X145738829Y-83862016D01*
X145916172Y-83971823D01*
X146110673Y-84047173D01*
X146315707Y-84085500D01*
X146315710Y-84085500D01*
X146524290Y-84085500D01*
X146524293Y-84085500D01*
X146729327Y-84047173D01*
X146923828Y-83971823D01*
X147101171Y-83862016D01*
X147255318Y-83721493D01*
X147381019Y-83555038D01*
X147473994Y-83368319D01*
X147531076Y-83167696D01*
X147550322Y-82960000D01*
X147829678Y-82960000D01*
X147848923Y-83167691D01*
X147848923Y-83167693D01*
X147848924Y-83167696D01*
X147883691Y-83289890D01*
X147906007Y-83368322D01*
X147938320Y-83433214D01*
X147998981Y-83555038D01*
X148124682Y-83721493D01*
X148278829Y-83862016D01*
X148456172Y-83971823D01*
X148650673Y-84047173D01*
X148855707Y-84085500D01*
X148855710Y-84085500D01*
X149064290Y-84085500D01*
X149064293Y-84085500D01*
X149269327Y-84047173D01*
X149463828Y-83971823D01*
X149641171Y-83862016D01*
X149795318Y-83721493D01*
X149921019Y-83555038D01*
X150013994Y-83368319D01*
X150071076Y-83167696D01*
X150090322Y-82960000D01*
X155249678Y-82960000D01*
X155268923Y-83167691D01*
X155268923Y-83167693D01*
X155268924Y-83167696D01*
X155303691Y-83289890D01*
X155326007Y-83368322D01*
X155358320Y-83433214D01*
X155418981Y-83555038D01*
X155544682Y-83721493D01*
X155698829Y-83862016D01*
X155876172Y-83971823D01*
X156070673Y-84047173D01*
X156275707Y-84085500D01*
X156275710Y-84085500D01*
X156484290Y-84085500D01*
X156484293Y-84085500D01*
X156689327Y-84047173D01*
X156883828Y-83971823D01*
X157061171Y-83862016D01*
X157215318Y-83721493D01*
X157341019Y-83555038D01*
X157433994Y-83368319D01*
X157491076Y-83167696D01*
X157510322Y-82960000D01*
X157789678Y-82960000D01*
X157808923Y-83167691D01*
X157808923Y-83167693D01*
X157808924Y-83167696D01*
X157843691Y-83289890D01*
X157866007Y-83368322D01*
X157898320Y-83433214D01*
X157958981Y-83555038D01*
X158084682Y-83721493D01*
X158238829Y-83862016D01*
X158416172Y-83971823D01*
X158610673Y-84047173D01*
X158815707Y-84085500D01*
X158815710Y-84085500D01*
X159024290Y-84085500D01*
X159024293Y-84085500D01*
X159229327Y-84047173D01*
X159423828Y-83971823D01*
X159601171Y-83862016D01*
X159755318Y-83721493D01*
X159881019Y-83555038D01*
X159973994Y-83368319D01*
X160031076Y-83167696D01*
X160050322Y-82960000D01*
X160329678Y-82960000D01*
X160348923Y-83167691D01*
X160348923Y-83167693D01*
X160348924Y-83167696D01*
X160383691Y-83289890D01*
X160406007Y-83368322D01*
X160438320Y-83433214D01*
X160498981Y-83555038D01*
X160624682Y-83721493D01*
X160778829Y-83862016D01*
X160956172Y-83971823D01*
X161150673Y-84047173D01*
X161355707Y-84085500D01*
X161355710Y-84085500D01*
X161564290Y-84085500D01*
X161564293Y-84085500D01*
X161769327Y-84047173D01*
X161963828Y-83971823D01*
X162141171Y-83862016D01*
X162295318Y-83721493D01*
X162421019Y-83555038D01*
X162513994Y-83368319D01*
X162571076Y-83167696D01*
X162590322Y-82960000D01*
X162571076Y-82752304D01*
X162513994Y-82551681D01*
X162421019Y-82364962D01*
X162295318Y-82198507D01*
X162268473Y-82174035D01*
X162141172Y-82057985D01*
X162141171Y-82057984D01*
X161963828Y-81948177D01*
X161963827Y-81948176D01*
X161821609Y-81893081D01*
X161769327Y-81872827D01*
X161564293Y-81834500D01*
X161355707Y-81834500D01*
X161150673Y-81872827D01*
X161150670Y-81872827D01*
X161150670Y-81872828D01*
X160956172Y-81948176D01*
X160956171Y-81948177D01*
X160778827Y-82057985D01*
X160624683Y-82198505D01*
X160498981Y-82364961D01*
X160406007Y-82551677D01*
X160348923Y-82752308D01*
X160329678Y-82959999D01*
X160329678Y-82960000D01*
X160050322Y-82960000D01*
X160031076Y-82752304D01*
X159973994Y-82551681D01*
X159881019Y-82364962D01*
X159755318Y-82198507D01*
X159728473Y-82174035D01*
X159601172Y-82057985D01*
X159601171Y-82057984D01*
X159423828Y-81948177D01*
X159423827Y-81948176D01*
X159281609Y-81893081D01*
X159229327Y-81872827D01*
X159024293Y-81834500D01*
X158815707Y-81834500D01*
X158610673Y-81872827D01*
X158610670Y-81872827D01*
X158610670Y-81872828D01*
X158416172Y-81948176D01*
X158416171Y-81948177D01*
X158238827Y-82057985D01*
X158084683Y-82198505D01*
X157958981Y-82364961D01*
X157866007Y-82551677D01*
X157808923Y-82752308D01*
X157789678Y-82959999D01*
X157789678Y-82960000D01*
X157510322Y-82960000D01*
X157491076Y-82752304D01*
X157433994Y-82551681D01*
X157341019Y-82364962D01*
X157215318Y-82198507D01*
X157188473Y-82174035D01*
X157061172Y-82057985D01*
X157061171Y-82057984D01*
X156883828Y-81948177D01*
X156883827Y-81948176D01*
X156741609Y-81893081D01*
X156689327Y-81872827D01*
X156484293Y-81834500D01*
X156275707Y-81834500D01*
X156070673Y-81872827D01*
X156070670Y-81872827D01*
X156070670Y-81872828D01*
X155876172Y-81948176D01*
X155876171Y-81948177D01*
X155698827Y-82057985D01*
X155544683Y-82198505D01*
X155418981Y-82364961D01*
X155326007Y-82551677D01*
X155268923Y-82752308D01*
X155249678Y-82959999D01*
X155249678Y-82960000D01*
X150090322Y-82960000D01*
X150071076Y-82752304D01*
X150013994Y-82551681D01*
X149921019Y-82364962D01*
X149795318Y-82198507D01*
X149768473Y-82174035D01*
X149641172Y-82057985D01*
X149641171Y-82057984D01*
X149463828Y-81948177D01*
X149463827Y-81948176D01*
X149321609Y-81893081D01*
X149269327Y-81872827D01*
X149064293Y-81834500D01*
X148855707Y-81834500D01*
X148650673Y-81872827D01*
X148650670Y-81872827D01*
X148650670Y-81872828D01*
X148456172Y-81948176D01*
X148456171Y-81948177D01*
X148278827Y-82057985D01*
X148124683Y-82198505D01*
X147998981Y-82364961D01*
X147906007Y-82551677D01*
X147848923Y-82752308D01*
X147829678Y-82959999D01*
X147829678Y-82960000D01*
X147550322Y-82960000D01*
X147531076Y-82752304D01*
X147473994Y-82551681D01*
X147381019Y-82364962D01*
X147255318Y-82198507D01*
X147228473Y-82174035D01*
X147101172Y-82057985D01*
X147101171Y-82057984D01*
X146923828Y-81948177D01*
X146923827Y-81948176D01*
X146781609Y-81893081D01*
X146729327Y-81872827D01*
X146524293Y-81834500D01*
X146315707Y-81834500D01*
X146110673Y-81872827D01*
X146110670Y-81872827D01*
X146110670Y-81872828D01*
X145916172Y-81948176D01*
X145916171Y-81948177D01*
X145738827Y-82057985D01*
X145584683Y-82198505D01*
X145458981Y-82364961D01*
X145366007Y-82551677D01*
X145308923Y-82752308D01*
X145289678Y-82959999D01*
X145289678Y-82960000D01*
X145010322Y-82960000D01*
X144991076Y-82752304D01*
X144933994Y-82551681D01*
X144841019Y-82364962D01*
X144715318Y-82198507D01*
X144688473Y-82174035D01*
X144561172Y-82057985D01*
X144561171Y-82057984D01*
X144383828Y-81948177D01*
X144383827Y-81948176D01*
X144241609Y-81893081D01*
X144189327Y-81872827D01*
X143984293Y-81834500D01*
X143775707Y-81834500D01*
X143570673Y-81872827D01*
X143570670Y-81872827D01*
X143570670Y-81872828D01*
X143376172Y-81948176D01*
X143376171Y-81948177D01*
X143198827Y-82057985D01*
X143044683Y-82198505D01*
X142918981Y-82364961D01*
X142826007Y-82551677D01*
X142768923Y-82752308D01*
X142749678Y-82959999D01*
X142749678Y-82960000D01*
X142470322Y-82960000D01*
X142451076Y-82752304D01*
X142393994Y-82551681D01*
X142301019Y-82364962D01*
X142175318Y-82198507D01*
X142148473Y-82174035D01*
X142021172Y-82057985D01*
X142021171Y-82057984D01*
X141843828Y-81948177D01*
X141843827Y-81948176D01*
X141701609Y-81893081D01*
X141649327Y-81872827D01*
X141444293Y-81834500D01*
X141235707Y-81834500D01*
X141030673Y-81872827D01*
X141030670Y-81872827D01*
X141030670Y-81872828D01*
X140836172Y-81948176D01*
X140836171Y-81948177D01*
X140658827Y-82057985D01*
X140504683Y-82198505D01*
X140378981Y-82364961D01*
X140286007Y-82551677D01*
X140228923Y-82752308D01*
X140209678Y-82959999D01*
X140209678Y-82960000D01*
X138650500Y-82960000D01*
X138650500Y-81347421D01*
X138650503Y-81347413D01*
X138650503Y-81170947D01*
X138650503Y-81170945D01*
X138609579Y-81018217D01*
X138574211Y-80956958D01*
X138530522Y-80881286D01*
X138418718Y-80769482D01*
X138418717Y-80769481D01*
X138414387Y-80765151D01*
X138414376Y-80765141D01*
X134187590Y-76538355D01*
X134187588Y-76538352D01*
X134068717Y-76419481D01*
X134068716Y-76419480D01*
X133964825Y-76359499D01*
X133964824Y-76359498D01*
X133931783Y-76340422D01*
X133875881Y-76325443D01*
X133779057Y-76299499D01*
X133646489Y-76299499D01*
X133579450Y-76279814D01*
X133533695Y-76227010D01*
X133523751Y-76157852D01*
X133526714Y-76143406D01*
X133529517Y-76132942D01*
X133536207Y-76107977D01*
X133555277Y-75890002D01*
X136124723Y-75890002D01*
X136128696Y-75935413D01*
X136143792Y-76107971D01*
X136143793Y-76107975D01*
X136143793Y-76107979D01*
X136200422Y-76319322D01*
X136200424Y-76319326D01*
X136200425Y-76319330D01*
X136210261Y-76340423D01*
X136292897Y-76517638D01*
X136317998Y-76553486D01*
X136418402Y-76696877D01*
X136573123Y-76851598D01*
X136752361Y-76977102D01*
X136950670Y-77069575D01*
X137162023Y-77126207D01*
X137344926Y-77142208D01*
X137379998Y-77145277D01*
X137380000Y-77145277D01*
X137380002Y-77145277D01*
X137408254Y-77142805D01*
X137597977Y-77126207D01*
X137809330Y-77069575D01*
X138007639Y-76977102D01*
X138186877Y-76851598D01*
X138341598Y-76696877D01*
X138467102Y-76517639D01*
X138537618Y-76366414D01*
X138583790Y-76313977D01*
X138650984Y-76294825D01*
X138717865Y-76315041D01*
X138762381Y-76366414D01*
X138832898Y-76517639D01*
X138958402Y-76696877D01*
X139113123Y-76851598D01*
X139292361Y-76977102D01*
X139490670Y-77069575D01*
X139702023Y-77126207D01*
X139884926Y-77142208D01*
X139919998Y-77145277D01*
X139920000Y-77145277D01*
X139920002Y-77145277D01*
X139948254Y-77142805D01*
X140137977Y-77126207D01*
X140349330Y-77069575D01*
X140547639Y-76977102D01*
X140726877Y-76851598D01*
X140881598Y-76696877D01*
X141007102Y-76517639D01*
X141077618Y-76366414D01*
X141123790Y-76313977D01*
X141190984Y-76294825D01*
X141257865Y-76315041D01*
X141302381Y-76366414D01*
X141372898Y-76517639D01*
X141498402Y-76696877D01*
X141653123Y-76851598D01*
X141832361Y-76977102D01*
X142030670Y-77069575D01*
X142242023Y-77126207D01*
X142424926Y-77142208D01*
X142459998Y-77145277D01*
X142460000Y-77145277D01*
X142460002Y-77145277D01*
X142488254Y-77142805D01*
X142677977Y-77126207D01*
X142889330Y-77069575D01*
X143087639Y-76977102D01*
X143266877Y-76851598D01*
X143421598Y-76696877D01*
X143547102Y-76517639D01*
X143617618Y-76366414D01*
X143663790Y-76313977D01*
X143730984Y-76294825D01*
X143797865Y-76315041D01*
X143842381Y-76366414D01*
X143912898Y-76517639D01*
X144038402Y-76696877D01*
X144193123Y-76851598D01*
X144372361Y-76977102D01*
X144570670Y-77069575D01*
X144782023Y-77126207D01*
X144964926Y-77142208D01*
X144999998Y-77145277D01*
X145000000Y-77145277D01*
X145000002Y-77145277D01*
X145028254Y-77142805D01*
X145217977Y-77126207D01*
X145429330Y-77069575D01*
X145627639Y-76977102D01*
X145806877Y-76851598D01*
X145961598Y-76696877D01*
X146087102Y-76517639D01*
X146179575Y-76319330D01*
X146236207Y-76107977D01*
X146255277Y-75890002D01*
X148824723Y-75890002D01*
X148828696Y-75935413D01*
X148843792Y-76107971D01*
X148843793Y-76107975D01*
X148843793Y-76107979D01*
X148900422Y-76319322D01*
X148900424Y-76319326D01*
X148900425Y-76319330D01*
X148910261Y-76340423D01*
X148992897Y-76517638D01*
X149017998Y-76553486D01*
X149118402Y-76696877D01*
X149273123Y-76851598D01*
X149452361Y-76977102D01*
X149650670Y-77069575D01*
X149862023Y-77126207D01*
X150044926Y-77142208D01*
X150079998Y-77145277D01*
X150080000Y-77145277D01*
X150080002Y-77145277D01*
X150108254Y-77142805D01*
X150297977Y-77126207D01*
X150509330Y-77069575D01*
X150707639Y-76977102D01*
X150886877Y-76851598D01*
X151041598Y-76696877D01*
X151167102Y-76517639D01*
X151237618Y-76366414D01*
X151283790Y-76313977D01*
X151350984Y-76294825D01*
X151417865Y-76315041D01*
X151462381Y-76366414D01*
X151532898Y-76517639D01*
X151658402Y-76696877D01*
X151813123Y-76851598D01*
X151992361Y-76977102D01*
X152190670Y-77069575D01*
X152402023Y-77126207D01*
X152584926Y-77142208D01*
X152619998Y-77145277D01*
X152620000Y-77145277D01*
X152620002Y-77145277D01*
X152648254Y-77142805D01*
X152837977Y-77126207D01*
X153049330Y-77069575D01*
X153247639Y-76977102D01*
X153426877Y-76851598D01*
X153581598Y-76696877D01*
X153707102Y-76517639D01*
X153799575Y-76319330D01*
X153856207Y-76107977D01*
X153875277Y-75890000D01*
X153858655Y-75700000D01*
X158119341Y-75700000D01*
X158139936Y-75935403D01*
X158139938Y-75935413D01*
X158201094Y-76163655D01*
X158201096Y-76163659D01*
X158201097Y-76163663D01*
X158283521Y-76340422D01*
X158300965Y-76377830D01*
X158300967Y-76377834D01*
X158330129Y-76419481D01*
X158436505Y-76571401D01*
X158603599Y-76738495D01*
X158700384Y-76806265D01*
X158797165Y-76874032D01*
X158797167Y-76874033D01*
X158797170Y-76874035D01*
X159011337Y-76973903D01*
X159239592Y-77035063D01*
X159404604Y-77049500D01*
X159474999Y-77055659D01*
X159475000Y-77055659D01*
X159475001Y-77055659D01*
X159514234Y-77052226D01*
X159710408Y-77035063D01*
X159938663Y-76973903D01*
X160152830Y-76874035D01*
X160346401Y-76738495D01*
X160513495Y-76571401D01*
X160649035Y-76377830D01*
X160748903Y-76163663D01*
X160810063Y-75935408D01*
X160830659Y-75700000D01*
X160810063Y-75464592D01*
X160797031Y-75415955D01*
X160798694Y-75346110D01*
X160837856Y-75288247D01*
X160902084Y-75260742D01*
X160970986Y-75272328D01*
X161004487Y-75296184D01*
X164938181Y-79229878D01*
X164971666Y-79291201D01*
X164974500Y-79317559D01*
X164974500Y-82044555D01*
X164954815Y-82111594D01*
X164902011Y-82157349D01*
X164832853Y-82167293D01*
X164769297Y-82138268D01*
X164766962Y-82136192D01*
X164681172Y-82057985D01*
X164681171Y-82057984D01*
X164503828Y-81948177D01*
X164503827Y-81948176D01*
X164361609Y-81893081D01*
X164309327Y-81872827D01*
X164104293Y-81834500D01*
X163895707Y-81834500D01*
X163690673Y-81872827D01*
X163690670Y-81872827D01*
X163690670Y-81872828D01*
X163496172Y-81948176D01*
X163496171Y-81948177D01*
X163318827Y-82057985D01*
X163164683Y-82198505D01*
X163038981Y-82364961D01*
X162946007Y-82551677D01*
X162888923Y-82752308D01*
X162869678Y-82959999D01*
X162869678Y-82960000D01*
X162888923Y-83167691D01*
X162888923Y-83167693D01*
X162888924Y-83167696D01*
X162923691Y-83289890D01*
X162946007Y-83368322D01*
X162978320Y-83433214D01*
X163038981Y-83555038D01*
X163164682Y-83721493D01*
X163318829Y-83862016D01*
X163496172Y-83971823D01*
X163690673Y-84047173D01*
X163895707Y-84085500D01*
X163895710Y-84085500D01*
X164104290Y-84085500D01*
X164104293Y-84085500D01*
X164309327Y-84047173D01*
X164503828Y-83971823D01*
X164681171Y-83862016D01*
X164766964Y-83783805D01*
X164829765Y-83753190D01*
X164899153Y-83761387D01*
X164953093Y-83805797D01*
X164974461Y-83872319D01*
X164974500Y-83875444D01*
X164974500Y-84250500D01*
X164954815Y-84317539D01*
X164902011Y-84363294D01*
X164850500Y-84374500D01*
X163895705Y-84374500D01*
X163810182Y-84390486D01*
X163806799Y-84391070D01*
X163736449Y-84402213D01*
X163736434Y-84402217D01*
X163729170Y-84404577D01*
X163713646Y-84408532D01*
X163690677Y-84412825D01*
X163690662Y-84412830D01*
X163625715Y-84437990D01*
X163619243Y-84440294D01*
X163567955Y-84456959D01*
X163567954Y-84456959D01*
X163545662Y-84468317D01*
X163534170Y-84473455D01*
X163496174Y-84488176D01*
X163496171Y-84488177D01*
X163451688Y-84515719D01*
X163442712Y-84520773D01*
X163410110Y-84537385D01*
X163410107Y-84537387D01*
X163375815Y-84562301D01*
X163368211Y-84567407D01*
X163318830Y-84597982D01*
X163318826Y-84597985D01*
X163293000Y-84621529D01*
X163282351Y-84630207D01*
X163266789Y-84641514D01*
X163266781Y-84641520D01*
X163224579Y-84683722D01*
X163220439Y-84687676D01*
X163164679Y-84738509D01*
X163154088Y-84752533D01*
X163142839Y-84765463D01*
X163141517Y-84766785D01*
X163096250Y-84829087D01*
X163094890Y-84830924D01*
X163038983Y-84904959D01*
X163038981Y-84904962D01*
X163024950Y-84933137D01*
X162995025Y-84993233D01*
X162994512Y-84994251D01*
X162956956Y-85067961D01*
X162955097Y-85072450D01*
X162954853Y-85072349D01*
X162951255Y-85081138D01*
X162946005Y-85091682D01*
X162923783Y-85169781D01*
X162922449Y-85174159D01*
X162902216Y-85236433D01*
X162902211Y-85236454D01*
X162900110Y-85249721D01*
X162896906Y-85264246D01*
X162888924Y-85292304D01*
X162883029Y-85355911D01*
X162882031Y-85363866D01*
X162874500Y-85411415D01*
X162874500Y-85442229D01*
X162873971Y-85453670D01*
X162869678Y-85499999D01*
X162873971Y-85546327D01*
X162874500Y-85557769D01*
X162874500Y-85588579D01*
X162881570Y-85633214D01*
X162882032Y-85636133D01*
X162883029Y-85644086D01*
X162888924Y-85707696D01*
X162888924Y-85707697D01*
X162896904Y-85735743D01*
X162900111Y-85750278D01*
X162902214Y-85763558D01*
X162922444Y-85825820D01*
X162923779Y-85830203D01*
X162946003Y-85908313D01*
X162946005Y-85908319D01*
X162951252Y-85918856D01*
X162954846Y-85927643D01*
X162955094Y-85927541D01*
X162956960Y-85932046D01*
X162994533Y-86005788D01*
X162995048Y-86006810D01*
X163038977Y-86095032D01*
X163038982Y-86095040D01*
X163094901Y-86169088D01*
X163096265Y-86170930D01*
X163141514Y-86233210D01*
X163141519Y-86233216D01*
X163142820Y-86234517D01*
X163154093Y-86247471D01*
X163164682Y-86261493D01*
X163220451Y-86312333D01*
X163224570Y-86316267D01*
X163266781Y-86358479D01*
X163266786Y-86358483D01*
X163282343Y-86369786D01*
X163292995Y-86378466D01*
X163318824Y-86402012D01*
X163318826Y-86402013D01*
X163318829Y-86402016D01*
X163368223Y-86432599D01*
X163375807Y-86437691D01*
X163410110Y-86462614D01*
X163410112Y-86462615D01*
X163410115Y-86462617D01*
X163442709Y-86479224D01*
X163451680Y-86484274D01*
X163496172Y-86511823D01*
X163496176Y-86511824D01*
X163496177Y-86511825D01*
X163534163Y-86526541D01*
X163545666Y-86531684D01*
X163567950Y-86543038D01*
X163567958Y-86543042D01*
X163619265Y-86559711D01*
X163625726Y-86562012D01*
X163648628Y-86570884D01*
X163690673Y-86587173D01*
X163713643Y-86591466D01*
X163729172Y-86595422D01*
X163736445Y-86597786D01*
X163806857Y-86608937D01*
X163810147Y-86609505D01*
X163895707Y-86625500D01*
X163895709Y-86625500D01*
X165588578Y-86625500D01*
X165588579Y-86625500D01*
X165763556Y-86597786D01*
X165932042Y-86543042D01*
X165993312Y-86511823D01*
X166089890Y-86462614D01*
X166233214Y-86358483D01*
X166358483Y-86233214D01*
X166958483Y-85633214D01*
X167062614Y-85489890D01*
X167143042Y-85332042D01*
X167152219Y-85303799D01*
X167197786Y-85163556D01*
X167225500Y-84988579D01*
X167225500Y-84811422D01*
X167225500Y-78711421D01*
X167197786Y-78536445D01*
X167195387Y-78529059D01*
X167143042Y-78367957D01*
X167092942Y-78269632D01*
X167062614Y-78210110D01*
X166958483Y-78066786D01*
X166833214Y-77941517D01*
X161193214Y-72301517D01*
X161193212Y-72301515D01*
X161193210Y-72301514D01*
X161154471Y-72273369D01*
X161154472Y-72273369D01*
X161154470Y-72273368D01*
X161049890Y-72197386D01*
X160892042Y-72116957D01*
X160892036Y-72116955D01*
X160816248Y-72092331D01*
X160816247Y-72092331D01*
X160793515Y-72084944D01*
X160723556Y-72062213D01*
X160572502Y-72038289D01*
X160548579Y-72034500D01*
X160548578Y-72034500D01*
X160261243Y-72034500D01*
X160194204Y-72014815D01*
X160190120Y-72012075D01*
X160152834Y-71985968D01*
X160152830Y-71985965D01*
X160091748Y-71957482D01*
X159938663Y-71886097D01*
X159938659Y-71886096D01*
X159938655Y-71886094D01*
X159710413Y-71824938D01*
X159710403Y-71824936D01*
X159475001Y-71804341D01*
X159474999Y-71804341D01*
X159239596Y-71824936D01*
X159239586Y-71824938D01*
X159011344Y-71886094D01*
X159011335Y-71886098D01*
X158797171Y-71985964D01*
X158797169Y-71985965D01*
X158603597Y-72121505D01*
X158436505Y-72288597D01*
X158300965Y-72482169D01*
X158300964Y-72482171D01*
X158201098Y-72696335D01*
X158201094Y-72696344D01*
X158139938Y-72924586D01*
X158139936Y-72924596D01*
X158119341Y-73159999D01*
X158119341Y-73160000D01*
X158139936Y-73395403D01*
X158139938Y-73395413D01*
X158201094Y-73623655D01*
X158201096Y-73623659D01*
X158201097Y-73623663D01*
X158300965Y-73837830D01*
X158300967Y-73837834D01*
X158436501Y-74031395D01*
X158436506Y-74031402D01*
X158603597Y-74198493D01*
X158603603Y-74198498D01*
X158789158Y-74328425D01*
X158832783Y-74383002D01*
X158839977Y-74452500D01*
X158808454Y-74514855D01*
X158789158Y-74531575D01*
X158603597Y-74661505D01*
X158436505Y-74828597D01*
X158300965Y-75022169D01*
X158300964Y-75022171D01*
X158201098Y-75236335D01*
X158201094Y-75236344D01*
X158139938Y-75464586D01*
X158139936Y-75464596D01*
X158119341Y-75699999D01*
X158119341Y-75700000D01*
X153858655Y-75700000D01*
X153856207Y-75672023D01*
X153799575Y-75460670D01*
X153707102Y-75262362D01*
X153707100Y-75262359D01*
X153707099Y-75262357D01*
X153581599Y-75083124D01*
X153515413Y-75016938D01*
X153426877Y-74928402D01*
X153247639Y-74802898D01*
X153247640Y-74802898D01*
X153247638Y-74802897D01*
X153148484Y-74756661D01*
X153049330Y-74710425D01*
X153049326Y-74710424D01*
X153049322Y-74710422D01*
X152837977Y-74653793D01*
X152620002Y-74634723D01*
X152619998Y-74634723D01*
X152474682Y-74647436D01*
X152402023Y-74653793D01*
X152402020Y-74653793D01*
X152190677Y-74710422D01*
X152190668Y-74710426D01*
X151992361Y-74802898D01*
X151992357Y-74802900D01*
X151813121Y-74928402D01*
X151658402Y-75083121D01*
X151532900Y-75262357D01*
X151532898Y-75262361D01*
X151462382Y-75413583D01*
X151416209Y-75466022D01*
X151349016Y-75485174D01*
X151282135Y-75464958D01*
X151237618Y-75413583D01*
X151223118Y-75382488D01*
X151167102Y-75262362D01*
X151167100Y-75262359D01*
X151167099Y-75262357D01*
X151041599Y-75083124D01*
X150975413Y-75016938D01*
X150886877Y-74928402D01*
X150707639Y-74802898D01*
X150707640Y-74802898D01*
X150707638Y-74802897D01*
X150608484Y-74756661D01*
X150509330Y-74710425D01*
X150509326Y-74710424D01*
X150509322Y-74710422D01*
X150297977Y-74653793D01*
X150080002Y-74634723D01*
X150079998Y-74634723D01*
X149934682Y-74647436D01*
X149862023Y-74653793D01*
X149862020Y-74653793D01*
X149650677Y-74710422D01*
X149650668Y-74710426D01*
X149452361Y-74802898D01*
X149452357Y-74802900D01*
X149273121Y-74928402D01*
X149118402Y-75083121D01*
X148992900Y-75262357D01*
X148992898Y-75262361D01*
X148900426Y-75460668D01*
X148900422Y-75460677D01*
X148843793Y-75672020D01*
X148843793Y-75672023D01*
X148841345Y-75700000D01*
X148824723Y-75889997D01*
X148824723Y-75890002D01*
X146255277Y-75890002D01*
X146255277Y-75890000D01*
X146236207Y-75672023D01*
X146179575Y-75460670D01*
X146087102Y-75262362D01*
X146087100Y-75262359D01*
X146087099Y-75262357D01*
X145961599Y-75083124D01*
X145895413Y-75016938D01*
X145806877Y-74928402D01*
X145627639Y-74802898D01*
X145627640Y-74802898D01*
X145627638Y-74802897D01*
X145528484Y-74756661D01*
X145429330Y-74710425D01*
X145429326Y-74710424D01*
X145429322Y-74710422D01*
X145217977Y-74653793D01*
X145000002Y-74634723D01*
X144999998Y-74634723D01*
X144854682Y-74647436D01*
X144782023Y-74653793D01*
X144782020Y-74653793D01*
X144570677Y-74710422D01*
X144570668Y-74710426D01*
X144372361Y-74802898D01*
X144372357Y-74802900D01*
X144193121Y-74928402D01*
X144038402Y-75083121D01*
X143912900Y-75262357D01*
X143912898Y-75262361D01*
X143842382Y-75413583D01*
X143796209Y-75466022D01*
X143729016Y-75485174D01*
X143662135Y-75464958D01*
X143617618Y-75413583D01*
X143603118Y-75382488D01*
X143547102Y-75262362D01*
X143547100Y-75262359D01*
X143547099Y-75262357D01*
X143421599Y-75083124D01*
X143355413Y-75016938D01*
X143266877Y-74928402D01*
X143087639Y-74802898D01*
X143087640Y-74802898D01*
X143087638Y-74802897D01*
X142988484Y-74756661D01*
X142889330Y-74710425D01*
X142889326Y-74710424D01*
X142889322Y-74710422D01*
X142677977Y-74653793D01*
X142460002Y-74634723D01*
X142459998Y-74634723D01*
X142314682Y-74647436D01*
X142242023Y-74653793D01*
X142242020Y-74653793D01*
X142030677Y-74710422D01*
X142030668Y-74710426D01*
X141832361Y-74802898D01*
X141832357Y-74802900D01*
X141653121Y-74928402D01*
X141498402Y-75083121D01*
X141372900Y-75262357D01*
X141372898Y-75262361D01*
X141302382Y-75413583D01*
X141256209Y-75466022D01*
X141189016Y-75485174D01*
X141122135Y-75464958D01*
X141077618Y-75413583D01*
X141063118Y-75382488D01*
X141007102Y-75262362D01*
X141007100Y-75262359D01*
X141007099Y-75262357D01*
X140881599Y-75083124D01*
X140815413Y-75016938D01*
X140726877Y-74928402D01*
X140547639Y-74802898D01*
X140547640Y-74802898D01*
X140547638Y-74802897D01*
X140448484Y-74756661D01*
X140349330Y-74710425D01*
X140349326Y-74710424D01*
X140349322Y-74710422D01*
X140137977Y-74653793D01*
X139920002Y-74634723D01*
X139919998Y-74634723D01*
X139774682Y-74647436D01*
X139702023Y-74653793D01*
X139702020Y-74653793D01*
X139490677Y-74710422D01*
X139490668Y-74710426D01*
X139292361Y-74802898D01*
X139292357Y-74802900D01*
X139113121Y-74928402D01*
X138958402Y-75083121D01*
X138832900Y-75262357D01*
X138832898Y-75262361D01*
X138762382Y-75413583D01*
X138716209Y-75466022D01*
X138649016Y-75485174D01*
X138582135Y-75464958D01*
X138537618Y-75413583D01*
X138523118Y-75382488D01*
X138467102Y-75262362D01*
X138467100Y-75262359D01*
X138467099Y-75262357D01*
X138341599Y-75083124D01*
X138275413Y-75016938D01*
X138186877Y-74928402D01*
X138007639Y-74802898D01*
X138007640Y-74802898D01*
X138007638Y-74802897D01*
X137908484Y-74756661D01*
X137809330Y-74710425D01*
X137809326Y-74710424D01*
X137809322Y-74710422D01*
X137597977Y-74653793D01*
X137380002Y-74634723D01*
X137379998Y-74634723D01*
X137234682Y-74647436D01*
X137162023Y-74653793D01*
X137162020Y-74653793D01*
X136950677Y-74710422D01*
X136950668Y-74710426D01*
X136752361Y-74802898D01*
X136752357Y-74802900D01*
X136573121Y-74928402D01*
X136418402Y-75083121D01*
X136292900Y-75262357D01*
X136292898Y-75262361D01*
X136200426Y-75460668D01*
X136200422Y-75460677D01*
X136143793Y-75672020D01*
X136143793Y-75672023D01*
X136141345Y-75700000D01*
X136124723Y-75889997D01*
X136124723Y-75890002D01*
X133555277Y-75890002D01*
X133555277Y-75890000D01*
X133536207Y-75672023D01*
X133479575Y-75460670D01*
X133387102Y-75262362D01*
X133387100Y-75262359D01*
X133387099Y-75262357D01*
X133261599Y-75083124D01*
X133195413Y-75016938D01*
X133106877Y-74928402D01*
X132927639Y-74802898D01*
X132927640Y-74802898D01*
X132927638Y-74802897D01*
X132828484Y-74756661D01*
X132729330Y-74710425D01*
X132729326Y-74710424D01*
X132729322Y-74710422D01*
X132517977Y-74653793D01*
X132300002Y-74634723D01*
X132299998Y-74634723D01*
X132154682Y-74647436D01*
X132082023Y-74653793D01*
X132082020Y-74653793D01*
X131870677Y-74710422D01*
X131870668Y-74710426D01*
X131672361Y-74802898D01*
X131672357Y-74802900D01*
X131493121Y-74928402D01*
X131338402Y-75083121D01*
X131212900Y-75262357D01*
X131212898Y-75262361D01*
X131142382Y-75413583D01*
X131096209Y-75466022D01*
X131029016Y-75485174D01*
X130962135Y-75464958D01*
X130917618Y-75413583D01*
X130903118Y-75382488D01*
X130847102Y-75262362D01*
X130847100Y-75262359D01*
X130847099Y-75262357D01*
X130721599Y-75083124D01*
X130655413Y-75016938D01*
X130566877Y-74928402D01*
X130387639Y-74802898D01*
X130387640Y-74802898D01*
X130387638Y-74802897D01*
X130288484Y-74756661D01*
X130189330Y-74710425D01*
X130189326Y-74710424D01*
X130189322Y-74710422D01*
X129977977Y-74653793D01*
X129760002Y-74634723D01*
X129759998Y-74634723D01*
X129614682Y-74647436D01*
X129542023Y-74653793D01*
X129542020Y-74653793D01*
X129330677Y-74710422D01*
X129330668Y-74710426D01*
X129132361Y-74802898D01*
X129132357Y-74802900D01*
X128953121Y-74928402D01*
X128798402Y-75083121D01*
X128672900Y-75262357D01*
X128672898Y-75262361D01*
X128602382Y-75413583D01*
X128556209Y-75466022D01*
X128489016Y-75485174D01*
X128422135Y-75464958D01*
X128377618Y-75413583D01*
X128363118Y-75382488D01*
X128307102Y-75262362D01*
X128307100Y-75262359D01*
X128307099Y-75262357D01*
X128181599Y-75083124D01*
X128115413Y-75016938D01*
X128026877Y-74928402D01*
X127847639Y-74802898D01*
X127847640Y-74802898D01*
X127847638Y-74802897D01*
X127748484Y-74756661D01*
X127649330Y-74710425D01*
X127649326Y-74710424D01*
X127649322Y-74710422D01*
X127437977Y-74653793D01*
X127220002Y-74634723D01*
X127219998Y-74634723D01*
X127074682Y-74647436D01*
X127002023Y-74653793D01*
X127002020Y-74653793D01*
X126790677Y-74710422D01*
X126790668Y-74710426D01*
X126592361Y-74802898D01*
X126592357Y-74802900D01*
X126413121Y-74928402D01*
X126258402Y-75083121D01*
X126132900Y-75262357D01*
X126132898Y-75262361D01*
X126062382Y-75413583D01*
X126016209Y-75466022D01*
X125949016Y-75485174D01*
X125882135Y-75464958D01*
X125837618Y-75413583D01*
X125823118Y-75382488D01*
X125767102Y-75262362D01*
X125767100Y-75262359D01*
X125767099Y-75262357D01*
X125641599Y-75083124D01*
X125575413Y-75016938D01*
X125486877Y-74928402D01*
X125307639Y-74802898D01*
X125307640Y-74802898D01*
X125307638Y-74802897D01*
X125208484Y-74756661D01*
X125109330Y-74710425D01*
X125109326Y-74710424D01*
X125109322Y-74710422D01*
X124897977Y-74653793D01*
X124680002Y-74634723D01*
X124679998Y-74634723D01*
X124534682Y-74647436D01*
X124462023Y-74653793D01*
X124462020Y-74653793D01*
X124250677Y-74710422D01*
X124250668Y-74710426D01*
X124052361Y-74802898D01*
X124052357Y-74802900D01*
X123873121Y-74928402D01*
X123718402Y-75083121D01*
X123592900Y-75262357D01*
X123592898Y-75262361D01*
X123500426Y-75460668D01*
X123500422Y-75460677D01*
X123443793Y-75672020D01*
X123443793Y-75672023D01*
X123441345Y-75700000D01*
X123424723Y-75889997D01*
X123424723Y-75890002D01*
X123428696Y-75935413D01*
X123443792Y-76107971D01*
X123443793Y-76107975D01*
X123443793Y-76107979D01*
X123500422Y-76319322D01*
X123500424Y-76319326D01*
X123500425Y-76319330D01*
X123510261Y-76340423D01*
X123592897Y-76517638D01*
X123617998Y-76553486D01*
X123718402Y-76696877D01*
X123873123Y-76851598D01*
X124026625Y-76959081D01*
X124070249Y-77013657D01*
X124079500Y-77060655D01*
X124079500Y-77593330D01*
X124079499Y-77593348D01*
X124079499Y-77625500D01*
X124059814Y-77692539D01*
X124007010Y-77738294D01*
X123955499Y-77749500D01*
X120324500Y-77749500D01*
X120257461Y-77729815D01*
X120211706Y-77677011D01*
X120200500Y-77625500D01*
X120200500Y-77060655D01*
X120220185Y-76993616D01*
X120253373Y-76959082D01*
X120406877Y-76851598D01*
X120561598Y-76696877D01*
X120687102Y-76517639D01*
X120779575Y-76319330D01*
X120836207Y-76107977D01*
X120855277Y-75890000D01*
X120836207Y-75672023D01*
X120779575Y-75460670D01*
X120687102Y-75262362D01*
X120687100Y-75262359D01*
X120687099Y-75262357D01*
X120561599Y-75083124D01*
X120495413Y-75016938D01*
X120406877Y-74928402D01*
X120227639Y-74802898D01*
X120227640Y-74802898D01*
X120227638Y-74802897D01*
X120128484Y-74756661D01*
X120029330Y-74710425D01*
X120029326Y-74710424D01*
X120029322Y-74710422D01*
X119817977Y-74653793D01*
X119600002Y-74634723D01*
X119599998Y-74634723D01*
X119454682Y-74647436D01*
X119382023Y-74653793D01*
X119382020Y-74653793D01*
X119170677Y-74710422D01*
X119170668Y-74710426D01*
X118972361Y-74802898D01*
X118972357Y-74802900D01*
X118793121Y-74928402D01*
X118638402Y-75083121D01*
X118512900Y-75262357D01*
X118512898Y-75262361D01*
X118442382Y-75413583D01*
X118396209Y-75466022D01*
X118329016Y-75485174D01*
X118262135Y-75464958D01*
X118217618Y-75413583D01*
X118203118Y-75382488D01*
X118147102Y-75262362D01*
X118147100Y-75262359D01*
X118147099Y-75262357D01*
X118021599Y-75083124D01*
X117955413Y-75016938D01*
X117866877Y-74928402D01*
X117687639Y-74802898D01*
X117687640Y-74802898D01*
X117687638Y-74802897D01*
X117588484Y-74756661D01*
X117489330Y-74710425D01*
X117489326Y-74710424D01*
X117489322Y-74710422D01*
X117277977Y-74653793D01*
X117060002Y-74634723D01*
X117059998Y-74634723D01*
X116914682Y-74647436D01*
X116842023Y-74653793D01*
X116842020Y-74653793D01*
X116630677Y-74710422D01*
X116630668Y-74710426D01*
X116432361Y-74802898D01*
X116432357Y-74802900D01*
X116253121Y-74928402D01*
X116098402Y-75083121D01*
X115972900Y-75262357D01*
X115972898Y-75262361D01*
X115902382Y-75413583D01*
X115856209Y-75466022D01*
X115789016Y-75485174D01*
X115722135Y-75464958D01*
X115677618Y-75413583D01*
X115663118Y-75382488D01*
X115607102Y-75262362D01*
X115607100Y-75262359D01*
X115607099Y-75262357D01*
X115481599Y-75083124D01*
X115415413Y-75016938D01*
X115326877Y-74928402D01*
X115147639Y-74802898D01*
X115147640Y-74802898D01*
X115147638Y-74802897D01*
X115048484Y-74756661D01*
X114949330Y-74710425D01*
X114949326Y-74710424D01*
X114949322Y-74710422D01*
X114737977Y-74653793D01*
X114520002Y-74634723D01*
X114519998Y-74634723D01*
X114374682Y-74647436D01*
X114302023Y-74653793D01*
X114302020Y-74653793D01*
X114090677Y-74710422D01*
X114090668Y-74710426D01*
X113892361Y-74802898D01*
X113892357Y-74802900D01*
X113713121Y-74928402D01*
X113558402Y-75083121D01*
X113432900Y-75262357D01*
X113432898Y-75262361D01*
X113362382Y-75413583D01*
X113316209Y-75466022D01*
X113249016Y-75485174D01*
X113182135Y-75464958D01*
X113137618Y-75413583D01*
X113123118Y-75382488D01*
X113067102Y-75262362D01*
X113067100Y-75262359D01*
X113067099Y-75262357D01*
X112941599Y-75083124D01*
X112875413Y-75016938D01*
X112786877Y-74928402D01*
X112607639Y-74802898D01*
X112607640Y-74802898D01*
X112607638Y-74802897D01*
X112508484Y-74756661D01*
X112409330Y-74710425D01*
X112409326Y-74710424D01*
X112409322Y-74710422D01*
X112197977Y-74653793D01*
X111980002Y-74634723D01*
X111979998Y-74634723D01*
X111834682Y-74647436D01*
X111762023Y-74653793D01*
X111762020Y-74653793D01*
X111550677Y-74710422D01*
X111550668Y-74710426D01*
X111352361Y-74802898D01*
X111352357Y-74802900D01*
X111173121Y-74928402D01*
X111018402Y-75083121D01*
X110892900Y-75262357D01*
X110892898Y-75262361D01*
X110800426Y-75460668D01*
X110800422Y-75460677D01*
X110743793Y-75672020D01*
X110743793Y-75672023D01*
X110741345Y-75700000D01*
X110724723Y-75889997D01*
X110724723Y-75890002D01*
X110728696Y-75935413D01*
X110743792Y-76107971D01*
X110743793Y-76107975D01*
X110743793Y-76107979D01*
X110800422Y-76319322D01*
X110800424Y-76319326D01*
X110800425Y-76319330D01*
X110810261Y-76340423D01*
X110892897Y-76517638D01*
X110917998Y-76553486D01*
X111018402Y-76696877D01*
X111173123Y-76851598D01*
X111326625Y-76959081D01*
X111370249Y-77013657D01*
X111379500Y-77060655D01*
X111379500Y-78376000D01*
X111359815Y-78443039D01*
X111307011Y-78488794D01*
X111255500Y-78500000D01*
X103183440Y-78500000D01*
X103116401Y-78480315D01*
X103095759Y-78463681D01*
X101636819Y-77004741D01*
X101603334Y-76943418D01*
X101600500Y-76917060D01*
X101600500Y-62332940D01*
X101620185Y-62265901D01*
X101636819Y-62245259D01*
X102920267Y-60961811D01*
X102981590Y-60928326D01*
X103007948Y-60925492D01*
X105573077Y-60925492D01*
X105586961Y-60926272D01*
X105624990Y-60930557D01*
X105624992Y-60930557D01*
X105624994Y-60930557D01*
X105663023Y-60926272D01*
X105676907Y-60925492D01*
X105703833Y-60925492D01*
X105703834Y-60925492D01*
X105743009Y-60917699D01*
X105753275Y-60916102D01*
X105804247Y-60910360D01*
X105828092Y-60902015D01*
X105844854Y-60897440D01*
X105858489Y-60894729D01*
X105907381Y-60874476D01*
X105913829Y-60872015D01*
X105974514Y-60850781D01*
X105984860Y-60844279D01*
X106003382Y-60834712D01*
X106004171Y-60834386D01*
X106058979Y-60797763D01*
X106061817Y-60795923D01*
X106127254Y-60754808D01*
X106254808Y-60627254D01*
X106295923Y-60561817D01*
X106297769Y-60558971D01*
X106334381Y-60504178D01*
X106334386Y-60504171D01*
X106334712Y-60503382D01*
X106344279Y-60484860D01*
X106350781Y-60474514D01*
X106372015Y-60413829D01*
X106374476Y-60407381D01*
X106394729Y-60358489D01*
X106397440Y-60344854D01*
X106402015Y-60328092D01*
X106410360Y-60304247D01*
X106416102Y-60253275D01*
X106417699Y-60243009D01*
X106425492Y-60203834D01*
X106425492Y-60176906D01*
X106426272Y-60163021D01*
X106430557Y-60124993D01*
X106430557Y-60124990D01*
X106426272Y-60086961D01*
X106425492Y-60073077D01*
X106425492Y-60046149D01*
X106417703Y-60006995D01*
X106416102Y-59996706D01*
X106410360Y-59945737D01*
X106402015Y-59921890D01*
X106397441Y-59905131D01*
X106394729Y-59891495D01*
X106374476Y-59842599D01*
X106372020Y-59836167D01*
X106350781Y-59775470D01*
X106344281Y-59765126D01*
X106334711Y-59746598D01*
X106334386Y-59745813D01*
X106297782Y-59691032D01*
X106295897Y-59688123D01*
X106290058Y-59678830D01*
X106254808Y-59622730D01*
X106127254Y-59495176D01*
X106127252Y-59495174D01*
X106127249Y-59495172D01*
X106061892Y-59454106D01*
X106058974Y-59452215D01*
X106004171Y-59415597D01*
X106004165Y-59415595D01*
X106003357Y-59415260D01*
X105984857Y-59405701D01*
X105974516Y-59399204D01*
X105974515Y-59399203D01*
X105974514Y-59399203D01*
X105913859Y-59377978D01*
X105907369Y-59375501D01*
X105899305Y-59372161D01*
X105897322Y-59371339D01*
X105858488Y-59355254D01*
X105844852Y-59352542D01*
X105828096Y-59347968D01*
X105804252Y-59339625D01*
X105804248Y-59339624D01*
X105804247Y-59339624D01*
X105783567Y-59337293D01*
X105753295Y-59333882D01*
X105742995Y-59332280D01*
X105703836Y-59324492D01*
X105703834Y-59324492D01*
X105676907Y-59324492D01*
X105663023Y-59323712D01*
X105624994Y-59319427D01*
X105624990Y-59319427D01*
X105586961Y-59323712D01*
X105573077Y-59324492D01*
X105198984Y-59324492D01*
X105131945Y-59304807D01*
X105086190Y-59252003D01*
X105076246Y-59182845D01*
X105105271Y-59119289D01*
X105127854Y-59098921D01*
X105166877Y-59071598D01*
X105321598Y-58916877D01*
X105447102Y-58737639D01*
X105517618Y-58586414D01*
X105563790Y-58533977D01*
X105630984Y-58514825D01*
X105697865Y-58535041D01*
X105742381Y-58586414D01*
X105812898Y-58737639D01*
X105938402Y-58916877D01*
X106093123Y-59071598D01*
X106272361Y-59197102D01*
X106470670Y-59289575D01*
X106682023Y-59346207D01*
X106864926Y-59362208D01*
X106899998Y-59365277D01*
X106900000Y-59365277D01*
X106900002Y-59365277D01*
X106928254Y-59362805D01*
X107117977Y-59346207D01*
X107329330Y-59289575D01*
X107527639Y-59197102D01*
X107706877Y-59071598D01*
X107861598Y-58916877D01*
X107987102Y-58737639D01*
X108079575Y-58539330D01*
X108136207Y-58327977D01*
X108155277Y-58110000D01*
X108136207Y-57892023D01*
X108079575Y-57680670D01*
X107987102Y-57482362D01*
X107987100Y-57482359D01*
X107987099Y-57482357D01*
X107861599Y-57303124D01*
X107786876Y-57228401D01*
X107706877Y-57148402D01*
X107568978Y-57051844D01*
X107527638Y-57022897D01*
X107428484Y-56976661D01*
X107329330Y-56930425D01*
X107329326Y-56930424D01*
X107329322Y-56930422D01*
X107117977Y-56873793D01*
X106900002Y-56854723D01*
X106899998Y-56854723D01*
X106754682Y-56867436D01*
X106682023Y-56873793D01*
X106682020Y-56873793D01*
X106470677Y-56930422D01*
X106470668Y-56930426D01*
X106272361Y-57022898D01*
X106272357Y-57022900D01*
X106093121Y-57148402D01*
X105938402Y-57303121D01*
X105812900Y-57482357D01*
X105812898Y-57482361D01*
X105742382Y-57633583D01*
X105696209Y-57686022D01*
X105629016Y-57705174D01*
X105562135Y-57684958D01*
X105517618Y-57633583D01*
X105500008Y-57595819D01*
X105447102Y-57482362D01*
X105447100Y-57482359D01*
X105447099Y-57482357D01*
X105321599Y-57303124D01*
X105246876Y-57228401D01*
X105166877Y-57148402D01*
X105028978Y-57051844D01*
X104987638Y-57022897D01*
X104888484Y-56976661D01*
X104789330Y-56930425D01*
X104789326Y-56930424D01*
X104789322Y-56930422D01*
X104577977Y-56873793D01*
X104360002Y-56854723D01*
X104359998Y-56854723D01*
X104214682Y-56867436D01*
X104142023Y-56873793D01*
X104142020Y-56873793D01*
X103930677Y-56930422D01*
X103930668Y-56930426D01*
X103732361Y-57022898D01*
X103732357Y-57022900D01*
X103553121Y-57148402D01*
X103398402Y-57303121D01*
X103272900Y-57482357D01*
X103272898Y-57482361D01*
X103180426Y-57680668D01*
X103180422Y-57680677D01*
X103144275Y-57815583D01*
X103107910Y-57875244D01*
X103045063Y-57905773D01*
X102975688Y-57897478D01*
X102921810Y-57852993D01*
X102900535Y-57786441D01*
X102900500Y-57783490D01*
X102900500Y-57082940D01*
X102920185Y-57015901D01*
X102936819Y-56995259D01*
X103695259Y-56236819D01*
X103756582Y-56203334D01*
X103782940Y-56200500D01*
X110678844Y-56200500D01*
X110678845Y-56200499D01*
X110833497Y-56169737D01*
X110979179Y-56109394D01*
X111110289Y-56021789D01*
X111881789Y-55250289D01*
X111969394Y-55119179D01*
X112029737Y-54973497D01*
X112060500Y-54818842D01*
X112060500Y-54661158D01*
X112060500Y-53949471D01*
X112080185Y-53882432D01*
X112100963Y-53857833D01*
X112150981Y-53812236D01*
X112285058Y-53634689D01*
X112384229Y-53435528D01*
X112445115Y-53221536D01*
X112465643Y-53000000D01*
X115134357Y-53000000D01*
X115154884Y-53221535D01*
X115154885Y-53221537D01*
X115215769Y-53435523D01*
X115215775Y-53435538D01*
X115314938Y-53634683D01*
X115314943Y-53634691D01*
X115449020Y-53812238D01*
X115613437Y-53962123D01*
X115613439Y-53962125D01*
X115802595Y-54079245D01*
X115802596Y-54079245D01*
X115802599Y-54079247D01*
X116010060Y-54159618D01*
X116228757Y-54200500D01*
X116228759Y-54200500D01*
X116451241Y-54200500D01*
X116451243Y-54200500D01*
X116669940Y-54159618D01*
X116877401Y-54079247D01*
X117066562Y-53962124D01*
X117230981Y-53812236D01*
X117365058Y-53634689D01*
X117464229Y-53435528D01*
X117525115Y-53221536D01*
X117545643Y-53000000D01*
X117537355Y-52910562D01*
X117550770Y-52841996D01*
X117573142Y-52811446D01*
X117648729Y-52735860D01*
X117648733Y-52735858D01*
X117735858Y-52648733D01*
X117804311Y-52546286D01*
X117851463Y-52432452D01*
X117875500Y-52311606D01*
X117875500Y-50060452D01*
X117895185Y-49993413D01*
X117911819Y-49972771D01*
X118226852Y-49657738D01*
X118499510Y-49385079D01*
X118560832Y-49351596D01*
X118630524Y-49356580D01*
X118678419Y-49388778D01*
X118798216Y-49518913D01*
X118798219Y-49518915D01*
X118798222Y-49518918D01*
X118981365Y-49661464D01*
X118981371Y-49661468D01*
X118981374Y-49661470D01*
X119185497Y-49771936D01*
X119297754Y-49810474D01*
X119405015Y-49847297D01*
X119405017Y-49847297D01*
X119405019Y-49847298D01*
X119633951Y-49885500D01*
X119633952Y-49885500D01*
X119866048Y-49885500D01*
X119866049Y-49885500D01*
X120094981Y-49847298D01*
X120314503Y-49771936D01*
X120518626Y-49661470D01*
X120701784Y-49518913D01*
X120858979Y-49348153D01*
X120985924Y-49153849D01*
X121079157Y-48941300D01*
X121136134Y-48716305D01*
X121139466Y-48676094D01*
X121155300Y-48485006D01*
X121155300Y-48484993D01*
X121136135Y-48253702D01*
X121136133Y-48253691D01*
X121079157Y-48028699D01*
X120985924Y-47816151D01*
X120858983Y-47621852D01*
X120858980Y-47621849D01*
X120858979Y-47621847D01*
X120701784Y-47451087D01*
X120701779Y-47451083D01*
X120701777Y-47451081D01*
X120518634Y-47308535D01*
X120518628Y-47308531D01*
X120314504Y-47198064D01*
X120314495Y-47198061D01*
X120094984Y-47122702D01*
X119923282Y-47094050D01*
X119866049Y-47084500D01*
X119633951Y-47084500D01*
X119588164Y-47092140D01*
X119405015Y-47122702D01*
X119185504Y-47198061D01*
X119185495Y-47198064D01*
X118981371Y-47308531D01*
X118981365Y-47308535D01*
X118798222Y-47451081D01*
X118798219Y-47451084D01*
X118641016Y-47621852D01*
X118514075Y-47816151D01*
X118446456Y-47970309D01*
X118401500Y-48023795D01*
X118334764Y-48044485D01*
X118332900Y-48044499D01*
X118268392Y-48044499D01*
X118169646Y-48064140D01*
X118169647Y-48064141D01*
X118147550Y-48068536D01*
X118147541Y-48068539D01*
X118115262Y-48081909D01*
X118100397Y-48088067D01*
X118033719Y-48115685D01*
X118033717Y-48115686D01*
X117931266Y-48184141D01*
X117931263Y-48184144D01*
X117105629Y-49009780D01*
X116851269Y-49264140D01*
X116851267Y-49264142D01*
X116819909Y-49295500D01*
X116764142Y-49351266D01*
X116759788Y-49357783D01*
X116732266Y-49398973D01*
X116717614Y-49420900D01*
X116695687Y-49453714D01*
X116690367Y-49466559D01*
X116668682Y-49518913D01*
X116648538Y-49567544D01*
X116648535Y-49567556D01*
X116624500Y-49688389D01*
X116624500Y-51682559D01*
X116604815Y-51749598D01*
X116552011Y-51795353D01*
X116482853Y-51805297D01*
X116477718Y-51804448D01*
X116451247Y-51799500D01*
X116451243Y-51799500D01*
X116228757Y-51799500D01*
X116010060Y-51840382D01*
X115878864Y-51891207D01*
X115802601Y-51920752D01*
X115802595Y-51920754D01*
X115613439Y-52037874D01*
X115613437Y-52037876D01*
X115449020Y-52187761D01*
X115314943Y-52365308D01*
X115314938Y-52365316D01*
X115215775Y-52564461D01*
X115215769Y-52564476D01*
X115154885Y-52778462D01*
X115154884Y-52778464D01*
X115134357Y-52999999D01*
X115134357Y-53000000D01*
X112465643Y-53000000D01*
X112445115Y-52778464D01*
X112384229Y-52564472D01*
X112384224Y-52564461D01*
X112285061Y-52365316D01*
X112285056Y-52365308D01*
X112150979Y-52187761D01*
X111986562Y-52037876D01*
X111986560Y-52037874D01*
X111797404Y-51920754D01*
X111797398Y-51920752D01*
X111589940Y-51840382D01*
X111371243Y-51799500D01*
X111148757Y-51799500D01*
X110930060Y-51840382D01*
X110798864Y-51891207D01*
X110722601Y-51920752D01*
X110722595Y-51920754D01*
X110533439Y-52037874D01*
X110533437Y-52037876D01*
X110369020Y-52187761D01*
X110234943Y-52365308D01*
X110234938Y-52365316D01*
X110135775Y-52564461D01*
X110135769Y-52564476D01*
X110074885Y-52778462D01*
X110074884Y-52778464D01*
X110054357Y-52999999D01*
X110054357Y-53000000D01*
X110074884Y-53221535D01*
X110074885Y-53221537D01*
X110135769Y-53435523D01*
X110135775Y-53435538D01*
X110234938Y-53634683D01*
X110234943Y-53634691D01*
X110369020Y-53812237D01*
X110419037Y-53857833D01*
X110455319Y-53917544D01*
X110459500Y-53949471D01*
X110459500Y-54357060D01*
X110439815Y-54424099D01*
X110423181Y-54444741D01*
X110304741Y-54563181D01*
X110243418Y-54596666D01*
X110217060Y-54599500D01*
X103321153Y-54599500D01*
X103166510Y-54630260D01*
X103166502Y-54630262D01*
X103020824Y-54690604D01*
X103020814Y-54690609D01*
X102889711Y-54778210D01*
X102889707Y-54778213D01*
X101908716Y-55759206D01*
X101589711Y-56078211D01*
X101558532Y-56109390D01*
X101478209Y-56189712D01*
X101390609Y-56320814D01*
X101390602Y-56320827D01*
X101330264Y-56466498D01*
X101330261Y-56466510D01*
X101299500Y-56621153D01*
X101299500Y-59678830D01*
X101330261Y-59833473D01*
X101330264Y-59833485D01*
X101390602Y-59979156D01*
X101390612Y-59979174D01*
X101433464Y-60043307D01*
X101454342Y-60109984D01*
X101435857Y-60177364D01*
X101418043Y-60199878D01*
X100822047Y-60795875D01*
X100289711Y-61328211D01*
X100287164Y-61330758D01*
X100225834Y-61364230D01*
X100156143Y-61359232D01*
X100100218Y-61317350D01*
X100075814Y-61251881D01*
X100075500Y-61243059D01*
X100075500Y-49044715D01*
X100095185Y-48977676D01*
X100147989Y-48931921D01*
X100217147Y-48921977D01*
X100280703Y-48951002D01*
X100318477Y-49009780D01*
X100319706Y-49014275D01*
X100325937Y-49038881D01*
X100425826Y-49266606D01*
X100561833Y-49474782D01*
X100572470Y-49486337D01*
X100730256Y-49657738D01*
X100926491Y-49810474D01*
X101145190Y-49928828D01*
X101380386Y-50009571D01*
X101625665Y-50050500D01*
X101874335Y-50050500D01*
X102119614Y-50009571D01*
X102354810Y-49928828D01*
X102573509Y-49810474D01*
X102769744Y-49657738D01*
X102938164Y-49474785D01*
X103074173Y-49266607D01*
X103074175Y-49266603D01*
X103081595Y-49249689D01*
X103126551Y-49196203D01*
X103193287Y-49175514D01*
X103195150Y-49175500D01*
X106804850Y-49175500D01*
X106871889Y-49195185D01*
X106917644Y-49247989D01*
X106918405Y-49249689D01*
X106925824Y-49266603D01*
X107061833Y-49474782D01*
X107072470Y-49486337D01*
X107230256Y-49657738D01*
X107426491Y-49810474D01*
X107645190Y-49928828D01*
X107880386Y-50009571D01*
X108125665Y-50050500D01*
X108374335Y-50050500D01*
X108619614Y-50009571D01*
X108854810Y-49928828D01*
X109073509Y-49810474D01*
X109269744Y-49657738D01*
X109438164Y-49474785D01*
X109574173Y-49266607D01*
X109674063Y-49038881D01*
X109735108Y-48797821D01*
X109741051Y-48726098D01*
X109755643Y-48550005D01*
X109755643Y-48549994D01*
X109735109Y-48302187D01*
X109735107Y-48302175D01*
X109674063Y-48061118D01*
X109574173Y-47833393D01*
X109438166Y-47625217D01*
X109416557Y-47601744D01*
X109269744Y-47442262D01*
X109073509Y-47289526D01*
X109073507Y-47289525D01*
X109073506Y-47289524D01*
X108854811Y-47171172D01*
X108854802Y-47171169D01*
X108619616Y-47090429D01*
X108374335Y-47049500D01*
X108125665Y-47049500D01*
X107880383Y-47090429D01*
X107645197Y-47171169D01*
X107645188Y-47171172D01*
X107426493Y-47289524D01*
X107230257Y-47442261D01*
X107061833Y-47625217D01*
X106925824Y-47833396D01*
X106918405Y-47850311D01*
X106873449Y-47903797D01*
X106806713Y-47924486D01*
X106804850Y-47924500D01*
X103195150Y-47924500D01*
X103128111Y-47904815D01*
X103082356Y-47852011D01*
X103081595Y-47850311D01*
X103074175Y-47833396D01*
X102938166Y-47625217D01*
X102916557Y-47601744D01*
X102769744Y-47442262D01*
X102573509Y-47289526D01*
X102573507Y-47289525D01*
X102573506Y-47289524D01*
X102354811Y-47171172D01*
X102354802Y-47171169D01*
X102119616Y-47090429D01*
X101874335Y-47049500D01*
X101625665Y-47049500D01*
X101380383Y-47090429D01*
X101145197Y-47171169D01*
X101145188Y-47171172D01*
X100926493Y-47289524D01*
X100730257Y-47442261D01*
X100561833Y-47625217D01*
X100425826Y-47833393D01*
X100325937Y-48061117D01*
X100319706Y-48085725D01*
X100284166Y-48145880D01*
X100221746Y-48177272D01*
X100152262Y-48169934D01*
X100097777Y-48126195D01*
X100075588Y-48059942D01*
X100075500Y-48055284D01*
X100075500Y-47428092D01*
X100076097Y-47415938D01*
X100087494Y-47300222D01*
X100092234Y-47276389D01*
X100124216Y-47170959D01*
X100133508Y-47148526D01*
X100185442Y-47051365D01*
X100198938Y-47031166D01*
X100268827Y-46946006D01*
X100286006Y-46928827D01*
X100371166Y-46858938D01*
X100391365Y-46845442D01*
X100488526Y-46793508D01*
X100510959Y-46784216D01*
X100616389Y-46752234D01*
X100640220Y-46747494D01*
X100755939Y-46736097D01*
X100768093Y-46735500D01*
X100786531Y-46735500D01*
X163417365Y-46735500D01*
X163484404Y-46755185D01*
G37*
%TD.AperFunction*%
%TD*%
M02*
