M48
; DRILL file {KiCad 8.0.1} date 2024-04-30T17:52:17-0600
; FORMAT={-:-/ absolute / inch / decimal}
; #@! TF.CreationDate,2024-04-30T17:52:17-06:00
; #@! TF.GenerationSoftware,Kicad,Pcbnew,8.0.1
; #@! TF.FileFunction,Plated,1,2,PTH
FMAT,2
INCH
; #@! TA.AperFunction,Plated,PTH,ViaDrill
T1C0.0118
; #@! TA.AperFunction,Plated,PTH,ComponentDrill
T2C0.0236
; #@! TA.AperFunction,Plated,PTH,ComponentDrill
T3C0.0276
; #@! TA.AperFunction,Plated,PTH,ComponentDrill
T4C0.0311
; #@! TA.AperFunction,Plated,PTH,ComponentDrill
T5C0.0354
; #@! TA.AperFunction,Plated,PTH,ComponentDrill
T6C0.0394
; #@! TA.AperFunction,Plated,PTH,ComponentDrill
T7C0.0433
; #@! TA.AperFunction,Plated,PTH,ComponentDrill
T8C0.0472
%
G90
G05
T1
X4.1585Y-2.3671
T2
X4.5079Y-3.5236
X4.5866Y-3.5236
X4.7441Y-3.2283
X4.7441Y-3.4449
X4.8228Y-3.2283
X4.8228Y-3.4449
T3
X4.3803Y-2.0866
X4.4276Y-3.2283
X4.4276Y-3.3661
X4.5803Y-2.0866
X4.6276Y-3.2283
X4.6276Y-3.3661
T4
X5.402Y-3.6665
X5.402Y-3.7665
X5.402Y-3.8665
X5.502Y-3.6665
X5.502Y-3.7665
X5.502Y-3.8665
X5.5646Y-3.2661
X5.5646Y-3.3661
X5.5646Y-3.4661
X5.602Y-3.6665
X5.602Y-3.7665
X5.602Y-3.8665
X5.6646Y-3.2661
X5.6646Y-3.3661
X5.6646Y-3.4661
X5.702Y-3.6665
X5.702Y-3.7665
X5.702Y-3.8665
X5.7646Y-3.2661
X5.7646Y-3.3661
X5.7646Y-3.4661
X5.8646Y-3.2661
X5.8646Y-3.3661
X5.8646Y-3.4661
X5.9925Y-3.6697
X5.9925Y-3.7697
X5.9925Y-3.8697
X6.0925Y-3.6697
X6.0925Y-3.7697
X6.0925Y-3.8697
X6.1567Y-3.2661
X6.1567Y-3.3661
X6.1567Y-3.4661
X6.1925Y-3.6697
X6.1925Y-3.7697
X6.1925Y-3.8697
X6.2386Y-2.0515
X6.2386Y-2.1515
X6.2386Y-2.2515
X6.2567Y-3.2661
X6.2567Y-3.3661
X6.2567Y-3.4661
X6.2925Y-3.6697
X6.2925Y-3.7697
X6.2925Y-3.8697
X6.3386Y-2.0515
X6.3386Y-2.1515
X6.3386Y-2.2515
X6.3567Y-3.2661
X6.3567Y-3.3661
X6.3567Y-3.4661
X6.4386Y-2.0515
X6.4386Y-2.1515
X6.4386Y-2.2515
X6.4567Y-3.2661
X6.4567Y-3.3661
X6.4567Y-3.4661
T5
X3.9996Y-3.3268
X4.2996Y-3.3268
X4.7146Y-1.9089
X4.7146Y-2.0089
T6
X4.0732Y-3.189
X4.1087Y-2.2878
X4.1087Y-2.9878
X4.1732Y-3.189
X4.2087Y-2.2878
X4.2087Y-2.9878
X4.2732Y-3.189
X4.3087Y-2.2878
X4.3087Y-2.9878
X4.4087Y-2.2878
X4.4087Y-2.9878
X4.5087Y-2.2878
X4.5087Y-2.9878
X4.6087Y-2.2878
X4.6087Y-2.9878
X4.7087Y-2.2878
X4.7087Y-2.9878
X4.8087Y-2.2878
X4.8087Y-2.9878
X4.8787Y-1.9685
X4.9087Y-2.2878
X4.9087Y-2.9878
X4.9677Y-3.2858
X4.9677Y-3.3858
X4.9787Y-1.9685
X5.0087Y-2.2878
X5.0087Y-2.9878
X5.0677Y-3.2858
X5.0677Y-3.3858
X5.0787Y-1.9685
X5.1087Y-2.2878
X5.1087Y-2.9878
X5.1677Y-3.2858
X5.1677Y-3.3858
X5.2087Y-2.2878
X5.2087Y-2.9878
X5.2402Y-1.9665
X5.2677Y-3.2858
X5.2677Y-3.3858
X5.3087Y-2.2878
X5.3087Y-2.9878
X5.3402Y-1.9665
X5.4087Y-2.2878
X5.4087Y-2.9878
X5.4402Y-1.9665
X5.5087Y-2.2878
X5.5087Y-2.9878
X5.5402Y-1.9665
X5.6087Y-2.2878
X5.6087Y-2.9878
X5.6402Y-1.9665
X5.7087Y-2.2878
X5.7087Y-2.9878
X5.7402Y-1.9665
X5.8087Y-2.2878
X5.8087Y-2.9878
X5.8402Y-1.9665
X5.9087Y-2.2878
X5.9087Y-2.9878
X5.9402Y-1.9665
X6.0087Y-2.2878
X6.0087Y-2.9878
X6.2785Y-2.4803
X6.2785Y-2.5803
X6.2785Y-2.6803
X6.2785Y-2.7803
X6.2785Y-2.8803
X6.2785Y-2.9803
X6.5354Y-2.7953
X6.5354Y-2.8953
T7
X4.0059Y-1.9114
X4.0059Y-2.0886
X4.2618Y-1.9114
X4.2618Y-2.0886
T8
X4.8409Y-3.7817
X4.9409Y-3.7817
X5.0409Y-3.7817
T6
X4.1201Y-3.5984G85X4.1201Y-3.6772
G05
X4.1988Y-3.8228G85X4.2776Y-3.8228
G05
X4.3563Y-3.5984G85X4.3563Y-3.6772
G05
M30
